%TF.GenerationSoftware,KiCad,Pcbnew,(5.1.6-0-10_14)*%
%TF.CreationDate,2020-10-09T22:40:52+02:00*%
%TF.ProjectId,nowae029,6e6f7761-6530-4323-992e-6b696361645f,0*%
%TF.SameCoordinates,Original*%
%TF.FileFunction,Paste,Top*%
%TF.FilePolarity,Positive*%
%FSLAX46Y46*%
G04 Gerber Fmt 4.6, Leading zero omitted, Abs format (unit mm)*
G04 Created by KiCad (PCBNEW (5.1.6-0-10_14)) date 2020-10-09 22:40:52*
%MOMM*%
%LPD*%
G01*
G04 APERTURE LIST*
%TA.AperFunction,Profile*%
%ADD10C,0.050000*%
%TD*%
%TA.AperFunction,Profile*%
%ADD11C,0.200000*%
%TD*%
%ADD12C,0.100000*%
%ADD13R,1.150000X0.300000*%
%ADD14R,0.300000X1.150000*%
%ADD15R,0.600000X0.800000*%
%ADD16R,0.900000X1.700000*%
%ADD17R,1.700000X0.900000*%
%ADD18R,0.800000X0.600000*%
%ADD19R,0.800000X1.000000*%
%ADD20R,0.900000X1.300000*%
%ADD21R,0.300000X0.850000*%
%ADD22R,1.250000X0.350000*%
%ADD23R,0.650000X1.060000*%
%ADD24R,1.200000X0.400000*%
%ADD25R,0.800000X1.200000*%
%ADD26R,0.800000X2.000000*%
%ADD27R,0.600000X1.000000*%
G04 APERTURE END LIST*
D10*
X95849877Y-42393418D02*
X96326817Y-39221785D01*
X107560690Y-35486081D02*
X103832837Y-39170169D01*
X102368975Y-34768100D02*
X107560690Y-35486081D01*
X96326817Y-39221785D02*
X92548651Y-35589313D01*
X92548651Y-35589313D02*
X97730000Y-34800000D01*
X95849877Y-42393418D02*
X94417635Y-45086053D01*
X94417635Y-45086053D02*
X92985389Y-47778769D01*
X92985389Y-47778769D02*
X91553138Y-50471647D01*
X91553138Y-50471647D02*
X90120876Y-53164768D01*
X90120876Y-53164768D02*
X88688601Y-55858214D01*
X88688601Y-55858214D02*
X87256309Y-58552065D01*
X87256309Y-58552065D02*
X85823997Y-61246402D01*
X85823997Y-61246402D02*
X84391662Y-63941307D01*
X84391662Y-63941307D02*
X82959301Y-66636860D01*
X82959301Y-66636860D02*
X81526909Y-69333143D01*
X81526909Y-69333143D02*
X80094484Y-72030236D01*
X80094484Y-72030236D02*
X78662023Y-74728221D01*
X78662023Y-74728221D02*
X77229522Y-77427179D01*
X77229522Y-77427179D02*
X75796977Y-80127190D01*
X75796977Y-80127190D02*
X74364387Y-82828336D01*
X74364387Y-82828336D02*
X72931746Y-85530699D01*
X72931746Y-85530699D02*
X71499052Y-88234358D01*
X71499052Y-88234358D02*
X70066301Y-90939395D01*
X70066301Y-90939395D02*
X68633491Y-93645891D01*
X68633491Y-93645891D02*
X67200617Y-96353928D01*
X67200617Y-96353928D02*
X65767678Y-99063585D01*
X65767678Y-99063585D02*
X64334668Y-101774945D01*
X64334668Y-101774945D02*
X62901585Y-104488088D01*
X62901585Y-104488088D02*
X61468426Y-107203095D01*
X61468426Y-107203095D02*
X60035186Y-109920048D01*
X60035186Y-109920048D02*
X58601864Y-112639028D01*
X58601864Y-112639028D02*
X57168456Y-115360115D01*
X57168456Y-115360115D02*
X55734957Y-118083390D01*
X55734957Y-118083390D02*
X54301366Y-120808935D01*
X54301366Y-120808935D02*
X52867678Y-123536831D01*
X52867678Y-123536831D02*
X51433890Y-126267159D01*
X51433890Y-126267159D02*
X50000000Y-129000000D01*
X103832837Y-39170169D02*
X104449243Y-42890699D01*
X100017169Y-30084255D02*
X102368975Y-34768100D01*
X104449243Y-42890699D02*
X150000000Y-129000000D01*
X97730000Y-34800000D02*
X100017169Y-30084255D01*
X148000000Y-129000000D02*
X150000000Y-129000000D01*
X148000000Y-130000000D02*
X148000000Y-129000000D01*
X146000000Y-130000000D02*
X148000000Y-130000000D01*
X146000000Y-129000000D02*
X146000000Y-130000000D01*
X102000000Y-129000000D02*
X146000000Y-129000000D01*
X102000000Y-130000000D02*
X102000000Y-129000000D01*
X98000000Y-130000000D02*
X102000000Y-130000000D01*
X98000000Y-129000000D02*
X98000000Y-130000000D01*
X54000000Y-129000000D02*
X98000000Y-129000000D01*
X54000000Y-130000000D02*
X54000000Y-129000000D01*
X52000000Y-130000000D02*
X54000000Y-130000000D01*
X52000000Y-129000000D02*
X52000000Y-130000000D01*
X50000000Y-129000000D02*
X52000000Y-129000000D01*
D11*
X268944859Y-318881889D02*
X268944859Y-318881889D01*
D12*
%TO.C,DL605*%
G36*
X87400757Y-59973623D02*
G01*
X88901768Y-60771724D01*
X88479243Y-61566377D01*
X86978232Y-60768276D01*
X87400757Y-59973623D01*
G37*
G36*
X88762225Y-57413075D02*
G01*
X90263236Y-58211176D01*
X89840711Y-59005829D01*
X88339700Y-58207728D01*
X88762225Y-57413075D01*
G37*
%TD*%
%TO.C,R313*%
G36*
X122307498Y-87421450D02*
G01*
X123808509Y-86623349D01*
X124231034Y-87418002D01*
X122730023Y-88216103D01*
X122307498Y-87421450D01*
G37*
G36*
X123668966Y-89981998D02*
G01*
X125169977Y-89183897D01*
X125592502Y-89978550D01*
X124091491Y-90776651D01*
X123668966Y-89981998D01*
G37*
%TD*%
D13*
%TO.C,U201*%
X95850000Y-82550000D03*
X95850000Y-83050000D03*
X95850000Y-83550000D03*
X95850000Y-84050000D03*
X95850000Y-84550000D03*
X95850000Y-85050000D03*
X95850000Y-85550000D03*
X95850000Y-86050000D03*
X95850000Y-86550000D03*
X95850000Y-87050000D03*
X95850000Y-87550000D03*
X95850000Y-88050000D03*
D14*
X97250000Y-89450000D03*
X97750000Y-89450000D03*
X98250000Y-89450000D03*
X98750000Y-89450000D03*
X99250000Y-89450000D03*
X99750000Y-89450000D03*
X100250000Y-89450000D03*
X100750000Y-89450000D03*
X101250000Y-89450000D03*
X101750000Y-89450000D03*
X102250000Y-89450000D03*
X102750000Y-89450000D03*
D13*
X104150000Y-88050000D03*
X104150000Y-87550000D03*
X104150000Y-87050000D03*
X104150000Y-86550000D03*
X104150000Y-86050000D03*
X104150000Y-85550000D03*
X104150000Y-85050000D03*
X104150000Y-84550000D03*
X104150000Y-84050000D03*
X104150000Y-83550000D03*
X104150000Y-83050000D03*
X104150000Y-82550000D03*
D14*
X102750000Y-81150000D03*
X102250000Y-81150000D03*
X101750000Y-81150000D03*
X101250000Y-81150000D03*
X100750000Y-81150000D03*
X100250000Y-81150000D03*
X99750000Y-81150000D03*
X99250000Y-81150000D03*
X98750000Y-81150000D03*
X98250000Y-81150000D03*
X97750000Y-81150000D03*
X97250000Y-81150000D03*
%TD*%
D15*
%TO.C,C201*%
X110450000Y-82300000D03*
X109050000Y-82300000D03*
%TD*%
%TO.C,C202*%
X89910000Y-82190000D03*
X88510000Y-82190000D03*
%TD*%
%TO.C,C203*%
X88530000Y-85120000D03*
X89930000Y-85120000D03*
%TD*%
D16*
%TO.C,C204*%
X111200000Y-84300000D03*
X108300000Y-84300000D03*
%TD*%
D15*
%TO.C,C205*%
X92030000Y-91030000D03*
X90630000Y-91030000D03*
%TD*%
D16*
%TO.C,C206*%
X89980000Y-89030000D03*
X92880000Y-89030000D03*
%TD*%
D17*
%TO.C,C207*%
X100120000Y-78550000D03*
X100120000Y-75650000D03*
%TD*%
D18*
%TO.C,C208*%
X98020000Y-77300000D03*
X98020000Y-78700000D03*
%TD*%
D17*
%TO.C,C209*%
X106200000Y-92350000D03*
X106200000Y-95250000D03*
%TD*%
D18*
%TO.C,C210*%
X104100000Y-93400000D03*
X104100000Y-92000000D03*
%TD*%
%TO.C,C211*%
X97430000Y-105760000D03*
X97430000Y-107160000D03*
%TD*%
D15*
%TO.C,C301*%
X115750000Y-95250000D03*
X114350000Y-95250000D03*
%TD*%
%TO.C,C302*%
X114350000Y-104750000D03*
X115750000Y-104750000D03*
%TD*%
D16*
%TO.C,C401*%
X91350000Y-117700000D03*
X94250000Y-117700000D03*
%TD*%
%TO.C,C402*%
X91950000Y-111200000D03*
X94850000Y-111200000D03*
%TD*%
%TO.C,C501*%
X93050000Y-120800000D03*
X90150000Y-120800000D03*
%TD*%
D18*
%TO.C,C502*%
X107930000Y-123790000D03*
X107930000Y-122390000D03*
%TD*%
%TO.C,C503*%
X116570000Y-124490000D03*
X116570000Y-123090000D03*
%TD*%
%TO.C,C504*%
X118170000Y-123090000D03*
X118170000Y-124490000D03*
%TD*%
D15*
%TO.C,C601*%
X83460000Y-95210000D03*
X84860000Y-95210000D03*
%TD*%
%TO.C,C602*%
X84730000Y-104620000D03*
X83330000Y-104620000D03*
%TD*%
D19*
%TO.C,D401*%
X85400000Y-117800000D03*
X89000000Y-117800000D03*
%TD*%
%TO.C,D402*%
X89000000Y-115600000D03*
X85400000Y-115600000D03*
%TD*%
D20*
%TO.C,D501*%
X85600000Y-121000000D03*
X87500000Y-121000000D03*
%TD*%
D12*
%TO.C,DL301*%
G36*
X103688232Y-46801724D02*
G01*
X105189243Y-46003623D01*
X105611768Y-46798276D01*
X104110757Y-47596377D01*
X103688232Y-46801724D01*
G37*
G36*
X102326764Y-44241176D02*
G01*
X103827775Y-43443075D01*
X104250300Y-44237728D01*
X102749289Y-45035829D01*
X102326764Y-44241176D01*
G37*
%TD*%
%TO.C,DL303*%
G36*
X107399700Y-53862272D02*
G01*
X108900711Y-53064171D01*
X109323236Y-53858824D01*
X107822225Y-54656925D01*
X107399700Y-53862272D01*
G37*
G36*
X106038232Y-51301724D02*
G01*
X107539243Y-50503623D01*
X107961768Y-51298276D01*
X106460757Y-52096377D01*
X106038232Y-51301724D01*
G37*
%TD*%
%TO.C,DL305*%
G36*
X111088232Y-60801724D02*
G01*
X112589243Y-60003623D01*
X113011768Y-60798276D01*
X111510757Y-61596377D01*
X111088232Y-60801724D01*
G37*
G36*
X109726764Y-58241176D02*
G01*
X111227775Y-57443075D01*
X111650300Y-58237728D01*
X110149289Y-59035829D01*
X109726764Y-58241176D01*
G37*
%TD*%
%TO.C,DL307*%
G36*
X114818966Y-67781998D02*
G01*
X116319977Y-66983897D01*
X116742502Y-67778550D01*
X115241491Y-68576651D01*
X114818966Y-67781998D01*
G37*
G36*
X113457498Y-65221450D02*
G01*
X114958509Y-64423349D01*
X115381034Y-65218002D01*
X113880023Y-66016103D01*
X113457498Y-65221450D01*
G37*
%TD*%
%TO.C,DL309*%
G36*
X118468966Y-74781998D02*
G01*
X119969977Y-73983897D01*
X120392502Y-74778550D01*
X118891491Y-75576651D01*
X118468966Y-74781998D01*
G37*
G36*
X117107498Y-72221450D02*
G01*
X118608509Y-71423349D01*
X119031034Y-72218002D01*
X117530023Y-73016103D01*
X117107498Y-72221450D01*
G37*
%TD*%
%TO.C,DL311*%
G36*
X122168966Y-81781998D02*
G01*
X123669977Y-80983897D01*
X124092502Y-81778550D01*
X122591491Y-82576651D01*
X122168966Y-81781998D01*
G37*
G36*
X120807498Y-79221450D02*
G01*
X122308509Y-78423349D01*
X122731034Y-79218002D01*
X121230023Y-80016103D01*
X120807498Y-79221450D01*
G37*
%TD*%
%TO.C,DL313*%
G36*
X125868966Y-88781998D02*
G01*
X127369977Y-87983897D01*
X127792502Y-88778550D01*
X126291491Y-89576651D01*
X125868966Y-88781998D01*
G37*
G36*
X124507498Y-86221450D02*
G01*
X126008509Y-85423349D01*
X126431034Y-86218002D01*
X124930023Y-87016103D01*
X124507498Y-86221450D01*
G37*
%TD*%
%TO.C,DL315*%
G36*
X129618966Y-95831998D02*
G01*
X131119977Y-95033897D01*
X131542502Y-95828550D01*
X130041491Y-96626651D01*
X129618966Y-95831998D01*
G37*
G36*
X128257498Y-93271450D02*
G01*
X129758509Y-92473349D01*
X130181034Y-93268002D01*
X128680023Y-94066103D01*
X128257498Y-93271450D01*
G37*
%TD*%
%TO.C,DL317*%
G36*
X133268966Y-102781998D02*
G01*
X134769977Y-101983897D01*
X135192502Y-102778550D01*
X133691491Y-103576651D01*
X133268966Y-102781998D01*
G37*
G36*
X131907498Y-100221450D02*
G01*
X133408509Y-99423349D01*
X133831034Y-100218002D01*
X132330023Y-101016103D01*
X131907498Y-100221450D01*
G37*
%TD*%
%TO.C,DL319*%
G36*
X137018966Y-109781998D02*
G01*
X138519977Y-108983897D01*
X138942502Y-109778550D01*
X137441491Y-110576651D01*
X137018966Y-109781998D01*
G37*
G36*
X135657498Y-107221450D02*
G01*
X137158509Y-106423349D01*
X137581034Y-107218002D01*
X136080023Y-108016103D01*
X135657498Y-107221450D01*
G37*
%TD*%
%TO.C,DL321*%
G36*
X140718966Y-116781998D02*
G01*
X142219977Y-115983897D01*
X142642502Y-116778550D01*
X141141491Y-117576651D01*
X140718966Y-116781998D01*
G37*
G36*
X139357498Y-114221450D02*
G01*
X140858509Y-113423349D01*
X141281034Y-114218002D01*
X139780023Y-115016103D01*
X139357498Y-114221450D01*
G37*
%TD*%
%TO.C,DL323*%
G36*
X144418966Y-123781998D02*
G01*
X145919977Y-122983897D01*
X146342502Y-123778550D01*
X144841491Y-124576651D01*
X144418966Y-123781998D01*
G37*
G36*
X143057498Y-121221450D02*
G01*
X144558509Y-120423349D01*
X144981034Y-121218002D01*
X143480023Y-122016103D01*
X143057498Y-121221450D01*
G37*
%TD*%
%TO.C,DL601*%
G36*
X94820023Y-45983897D02*
G01*
X96321034Y-46781998D01*
X95898509Y-47576651D01*
X94397498Y-46778550D01*
X94820023Y-45983897D01*
G37*
G36*
X96181491Y-43423349D02*
G01*
X97682502Y-44221450D01*
X97259977Y-45016103D01*
X95758966Y-44218002D01*
X96181491Y-43423349D01*
G37*
%TD*%
%TO.C,DL603*%
G36*
X91120023Y-52993897D02*
G01*
X92621034Y-53791998D01*
X92198509Y-54586651D01*
X90697498Y-53788550D01*
X91120023Y-52993897D01*
G37*
G36*
X92481491Y-50433349D02*
G01*
X93982502Y-51231450D01*
X93559977Y-52026103D01*
X92058966Y-51228002D01*
X92481491Y-50433349D01*
G37*
%TD*%
%TO.C,DL607*%
G36*
X83710023Y-67003897D02*
G01*
X85211034Y-67801998D01*
X84788509Y-68596651D01*
X83287498Y-67798550D01*
X83710023Y-67003897D01*
G37*
G36*
X85071491Y-64443349D02*
G01*
X86572502Y-65241450D01*
X86149977Y-66036103D01*
X84648966Y-65238002D01*
X85071491Y-64443349D01*
G37*
%TD*%
%TO.C,DL609*%
G36*
X79990023Y-74003897D02*
G01*
X81491034Y-74801998D01*
X81068509Y-75596651D01*
X79567498Y-74798550D01*
X79990023Y-74003897D01*
G37*
G36*
X81351491Y-71443349D02*
G01*
X82852502Y-72241450D01*
X82429977Y-73036103D01*
X80928966Y-72238002D01*
X81351491Y-71443349D01*
G37*
%TD*%
%TO.C,DL611*%
G36*
X76295023Y-81009634D02*
G01*
X77796034Y-81807735D01*
X77373509Y-82602388D01*
X75872498Y-81804287D01*
X76295023Y-81009634D01*
G37*
G36*
X77656491Y-78449086D02*
G01*
X79157502Y-79247187D01*
X78734977Y-80041840D01*
X77233966Y-79243739D01*
X77656491Y-78449086D01*
G37*
%TD*%
%TO.C,DL613*%
G36*
X72580023Y-88003897D02*
G01*
X74081034Y-88801998D01*
X73658509Y-89596651D01*
X72157498Y-88798550D01*
X72580023Y-88003897D01*
G37*
G36*
X73941491Y-85443349D02*
G01*
X75442502Y-86241450D01*
X75019977Y-87036103D01*
X73518966Y-86238002D01*
X73941491Y-85443349D01*
G37*
%TD*%
%TO.C,DL615*%
G36*
X68920023Y-94983897D02*
G01*
X70421034Y-95781998D01*
X69998509Y-96576651D01*
X68497498Y-95778550D01*
X68920023Y-94983897D01*
G37*
G36*
X70281491Y-92423349D02*
G01*
X71782502Y-93221450D01*
X71359977Y-94016103D01*
X69858966Y-93218002D01*
X70281491Y-92423349D01*
G37*
%TD*%
%TO.C,DL617*%
G36*
X65190023Y-102003897D02*
G01*
X66691034Y-102801998D01*
X66268509Y-103596651D01*
X64767498Y-102798550D01*
X65190023Y-102003897D01*
G37*
G36*
X66551491Y-99443349D02*
G01*
X68052502Y-100241450D01*
X67629977Y-101036103D01*
X66128966Y-100238002D01*
X66551491Y-99443349D01*
G37*
%TD*%
%TO.C,DL619*%
G36*
X61480023Y-108993897D02*
G01*
X62981034Y-109791998D01*
X62558509Y-110586651D01*
X61057498Y-109788550D01*
X61480023Y-108993897D01*
G37*
G36*
X62841491Y-106433349D02*
G01*
X64342502Y-107231450D01*
X63919977Y-108026103D01*
X62418966Y-107228002D01*
X62841491Y-106433349D01*
G37*
%TD*%
%TO.C,DL621*%
G36*
X57840023Y-115993897D02*
G01*
X59341034Y-116791998D01*
X58918509Y-117586651D01*
X57417498Y-116788550D01*
X57840023Y-115993897D01*
G37*
G36*
X59201491Y-113433349D02*
G01*
X60702502Y-114231450D01*
X60279977Y-115026103D01*
X58778966Y-114228002D01*
X59201491Y-113433349D01*
G37*
%TD*%
%TO.C,DL623*%
G36*
X54100023Y-122973897D02*
G01*
X55601034Y-123771998D01*
X55178509Y-124566651D01*
X53677498Y-123768550D01*
X54100023Y-122973897D01*
G37*
G36*
X55461491Y-120413349D02*
G01*
X56962502Y-121211450D01*
X56539977Y-122006103D01*
X55038966Y-121208002D01*
X55461491Y-120413349D01*
G37*
%TD*%
D21*
%TO.C,P501*%
X86850000Y-124370000D03*
X87350000Y-124370000D03*
X87850000Y-124370000D03*
X88350000Y-124370000D03*
X88850000Y-124370000D03*
X89350000Y-124370000D03*
X89850000Y-124370000D03*
X90350000Y-124370000D03*
X90850000Y-124370000D03*
X91350000Y-124370000D03*
X91850000Y-124370000D03*
X92350000Y-124370000D03*
X86850000Y-126030000D03*
X87350000Y-126030000D03*
X87850000Y-126030000D03*
X88350000Y-126030000D03*
X88850000Y-126030000D03*
X89350000Y-126030000D03*
X89850000Y-126030000D03*
X90350000Y-126030000D03*
X90850000Y-126030000D03*
X91350000Y-126030000D03*
X91850000Y-126030000D03*
X92350000Y-126030000D03*
%TD*%
D17*
%TO.C,R201*%
X90750000Y-79340000D03*
X90750000Y-76440000D03*
%TD*%
%TO.C,R202*%
X94900000Y-63750000D03*
X94900000Y-66650000D03*
%TD*%
%TO.C,R203*%
X93250000Y-76490000D03*
X93250000Y-79390000D03*
%TD*%
%TO.C,R204*%
X105200000Y-66650000D03*
X105200000Y-63750000D03*
%TD*%
%TO.C,R205*%
X94400000Y-92650000D03*
X94400000Y-95550000D03*
%TD*%
%TO.C,R206*%
X97000000Y-95600000D03*
X97000000Y-92700000D03*
%TD*%
D12*
%TO.C,R301*%
G36*
X101388232Y-47851724D02*
G01*
X102889243Y-47053623D01*
X103311768Y-47848276D01*
X101810757Y-48646377D01*
X101388232Y-47851724D01*
G37*
G36*
X102749700Y-50412272D02*
G01*
X104250711Y-49614171D01*
X104673236Y-50408824D01*
X103172225Y-51206925D01*
X102749700Y-50412272D01*
G37*
%TD*%
%TO.C,R303*%
G36*
X103807498Y-52521450D02*
G01*
X105308509Y-51723349D01*
X105731034Y-52518002D01*
X104230023Y-53316103D01*
X103807498Y-52521450D01*
G37*
G36*
X105168966Y-55081998D02*
G01*
X106669977Y-54283897D01*
X107092502Y-55078550D01*
X105591491Y-55876651D01*
X105168966Y-55081998D01*
G37*
%TD*%
%TO.C,R305*%
G36*
X107507498Y-59421450D02*
G01*
X109008509Y-58623349D01*
X109431034Y-59418002D01*
X107930023Y-60216103D01*
X107507498Y-59421450D01*
G37*
G36*
X108868966Y-61981998D02*
G01*
X110369977Y-61183897D01*
X110792502Y-61978550D01*
X109291491Y-62776651D01*
X108868966Y-61981998D01*
G37*
%TD*%
%TO.C,R307*%
G36*
X111257498Y-66421450D02*
G01*
X112758509Y-65623349D01*
X113181034Y-66418002D01*
X111680023Y-67216103D01*
X111257498Y-66421450D01*
G37*
G36*
X112618966Y-68981998D02*
G01*
X114119977Y-68183897D01*
X114542502Y-68978550D01*
X113041491Y-69776651D01*
X112618966Y-68981998D01*
G37*
%TD*%
%TO.C,R309*%
G36*
X114907498Y-73421450D02*
G01*
X116408509Y-72623349D01*
X116831034Y-73418002D01*
X115330023Y-74216103D01*
X114907498Y-73421450D01*
G37*
G36*
X116268966Y-75981998D02*
G01*
X117769977Y-75183897D01*
X118192502Y-75978550D01*
X116691491Y-76776651D01*
X116268966Y-75981998D01*
G37*
%TD*%
%TO.C,R311*%
G36*
X118613235Y-80396450D02*
G01*
X120114246Y-79598349D01*
X120536771Y-80393002D01*
X119035760Y-81191103D01*
X118613235Y-80396450D01*
G37*
G36*
X119974703Y-82956998D02*
G01*
X121475714Y-82158897D01*
X121898239Y-82953550D01*
X120397228Y-83751651D01*
X119974703Y-82956998D01*
G37*
%TD*%
%TO.C,R315*%
G36*
X126057498Y-94471450D02*
G01*
X127558509Y-93673349D01*
X127981034Y-94468002D01*
X126480023Y-95266103D01*
X126057498Y-94471450D01*
G37*
G36*
X127418966Y-97031998D02*
G01*
X128919977Y-96233897D01*
X129342502Y-97028550D01*
X127841491Y-97826651D01*
X127418966Y-97031998D01*
G37*
%TD*%
%TO.C,R317*%
G36*
X129707498Y-101371450D02*
G01*
X131208509Y-100573349D01*
X131631034Y-101368002D01*
X130130023Y-102166103D01*
X129707498Y-101371450D01*
G37*
G36*
X131068966Y-103931998D02*
G01*
X132569977Y-103133897D01*
X132992502Y-103928550D01*
X131491491Y-104726651D01*
X131068966Y-103931998D01*
G37*
%TD*%
%TO.C,R319*%
G36*
X133457498Y-108421450D02*
G01*
X134958509Y-107623349D01*
X135381034Y-108418002D01*
X133880023Y-109216103D01*
X133457498Y-108421450D01*
G37*
G36*
X134818966Y-110981998D02*
G01*
X136319977Y-110183897D01*
X136742502Y-110978550D01*
X135241491Y-111776651D01*
X134818966Y-110981998D01*
G37*
%TD*%
%TO.C,R321*%
G36*
X137157498Y-115421450D02*
G01*
X138658509Y-114623349D01*
X139081034Y-115418002D01*
X137580023Y-116216103D01*
X137157498Y-115421450D01*
G37*
G36*
X138518966Y-117981998D02*
G01*
X140019977Y-117183897D01*
X140442502Y-117978550D01*
X138941491Y-118776651D01*
X138518966Y-117981998D01*
G37*
%TD*%
%TO.C,R323*%
G36*
X140857498Y-122421450D02*
G01*
X142358509Y-121623349D01*
X142781034Y-122418002D01*
X141280023Y-123216103D01*
X140857498Y-122421450D01*
G37*
G36*
X142218966Y-124981998D02*
G01*
X143719977Y-124183897D01*
X144142502Y-124978550D01*
X142641491Y-125776651D01*
X142218966Y-124981998D01*
G37*
%TD*%
D16*
%TO.C,R401*%
X85680000Y-113230000D03*
X88580000Y-113230000D03*
%TD*%
%TO.C,R402*%
X83940000Y-113250000D03*
X81040000Y-113250000D03*
%TD*%
D12*
%TO.C,R601*%
G36*
X97111491Y-47023349D02*
G01*
X98612502Y-47821450D01*
X98189977Y-48616103D01*
X96688966Y-47818002D01*
X97111491Y-47023349D01*
G37*
G36*
X95750023Y-49583897D02*
G01*
X97251034Y-50381998D01*
X96828509Y-51176651D01*
X95327498Y-50378550D01*
X95750023Y-49583897D01*
G37*
%TD*%
%TO.C,R603*%
G36*
X94701491Y-51613349D02*
G01*
X96202502Y-52411450D01*
X95779977Y-53206103D01*
X94278966Y-52408002D01*
X94701491Y-51613349D01*
G37*
G36*
X93340023Y-54173897D02*
G01*
X94841034Y-54971998D01*
X94418509Y-55766651D01*
X92917498Y-54968550D01*
X93340023Y-54173897D01*
G37*
%TD*%
%TO.C,R605*%
G36*
X90961491Y-58583349D02*
G01*
X92462502Y-59381450D01*
X92039977Y-60176103D01*
X90538966Y-59378002D01*
X90961491Y-58583349D01*
G37*
G36*
X89600023Y-61143897D02*
G01*
X91101034Y-61941998D01*
X90678509Y-62736651D01*
X89177498Y-61938550D01*
X89600023Y-61143897D01*
G37*
%TD*%
%TO.C,R607*%
G36*
X87281491Y-65603349D02*
G01*
X88782502Y-66401450D01*
X88359977Y-67196103D01*
X86858966Y-66398002D01*
X87281491Y-65603349D01*
G37*
G36*
X85920023Y-68163897D02*
G01*
X87421034Y-68961998D01*
X86998509Y-69756651D01*
X85497498Y-68958550D01*
X85920023Y-68163897D01*
G37*
%TD*%
%TO.C,R609*%
G36*
X83565754Y-72628349D02*
G01*
X85066765Y-73426450D01*
X84644240Y-74221103D01*
X83143229Y-73423002D01*
X83565754Y-72628349D01*
G37*
G36*
X82204286Y-75188897D02*
G01*
X83705297Y-75986998D01*
X83282772Y-76781651D01*
X81781761Y-75983550D01*
X82204286Y-75188897D01*
G37*
%TD*%
%TO.C,R611*%
G36*
X79871491Y-79633349D02*
G01*
X81372502Y-80431450D01*
X80949977Y-81226103D01*
X79448966Y-80428002D01*
X79871491Y-79633349D01*
G37*
G36*
X78510023Y-82193897D02*
G01*
X80011034Y-82991998D01*
X79588509Y-83786651D01*
X78087498Y-82988550D01*
X78510023Y-82193897D01*
G37*
%TD*%
%TO.C,R613*%
G36*
X76161491Y-86613349D02*
G01*
X77662502Y-87411450D01*
X77239977Y-88206103D01*
X75738966Y-87408002D01*
X76161491Y-86613349D01*
G37*
G36*
X74800023Y-89173897D02*
G01*
X76301034Y-89971998D01*
X75878509Y-90766651D01*
X74377498Y-89968550D01*
X74800023Y-89173897D01*
G37*
%TD*%
%TO.C,R615*%
G36*
X72497228Y-93608349D02*
G01*
X73998239Y-94406450D01*
X73575714Y-95201103D01*
X72074703Y-94403002D01*
X72497228Y-93608349D01*
G37*
G36*
X71135760Y-96168897D02*
G01*
X72636771Y-96966998D01*
X72214246Y-97761651D01*
X70713235Y-96963550D01*
X71135760Y-96168897D01*
G37*
%TD*%
%TO.C,R617*%
G36*
X68791491Y-100643349D02*
G01*
X70292502Y-101441450D01*
X69869977Y-102236103D01*
X68368966Y-101438002D01*
X68791491Y-100643349D01*
G37*
G36*
X67430023Y-103203897D02*
G01*
X68931034Y-104001998D01*
X68508509Y-104796651D01*
X67007498Y-103998550D01*
X67430023Y-103203897D01*
G37*
%TD*%
%TO.C,R619*%
G36*
X65095754Y-107628349D02*
G01*
X66596765Y-108426450D01*
X66174240Y-109221103D01*
X64673229Y-108423002D01*
X65095754Y-107628349D01*
G37*
G36*
X63734286Y-110188897D02*
G01*
X65235297Y-110986998D01*
X64812772Y-111781651D01*
X63311761Y-110983550D01*
X63734286Y-110188897D01*
G37*
%TD*%
%TO.C,R621*%
G36*
X61441491Y-114613349D02*
G01*
X62942502Y-115411450D01*
X62519977Y-116206103D01*
X61018966Y-115408002D01*
X61441491Y-114613349D01*
G37*
G36*
X60080023Y-117173897D02*
G01*
X61581034Y-117971998D01*
X61158509Y-118766651D01*
X59657498Y-117968550D01*
X60080023Y-117173897D01*
G37*
%TD*%
%TO.C,R623*%
G36*
X57690757Y-121583623D02*
G01*
X59191768Y-122381724D01*
X58769243Y-123176377D01*
X57268232Y-122378276D01*
X57690757Y-121583623D01*
G37*
G36*
X56329289Y-124144171D02*
G01*
X57830300Y-124942272D01*
X57407775Y-125736925D01*
X55906764Y-124938824D01*
X56329289Y-124144171D01*
G37*
%TD*%
D22*
%TO.C,U301*%
X112100000Y-96725000D03*
X112100000Y-97375000D03*
X112100000Y-98025000D03*
X112100000Y-98675000D03*
X112100000Y-99325000D03*
X112100000Y-99975000D03*
X112100000Y-100625000D03*
X118000000Y-100625000D03*
X118000000Y-99975000D03*
X118000000Y-99325000D03*
X118000000Y-98675000D03*
X118000000Y-98025000D03*
X118000000Y-97375000D03*
X118000000Y-96725000D03*
X112100000Y-101275000D03*
X118000000Y-101275000D03*
%TD*%
%TO.C,U302*%
X112100000Y-106175000D03*
X112100000Y-106825000D03*
X112100000Y-107475000D03*
X112100000Y-108125000D03*
X112100000Y-108775000D03*
X112100000Y-109425000D03*
X112100000Y-110075000D03*
X118000000Y-110075000D03*
X118000000Y-109425000D03*
X118000000Y-108775000D03*
X118000000Y-108125000D03*
X118000000Y-107475000D03*
X118000000Y-106825000D03*
X118000000Y-106175000D03*
X112100000Y-110725000D03*
X118000000Y-110725000D03*
%TD*%
D23*
%TO.C,U401*%
X91750000Y-115400000D03*
X92700000Y-115400000D03*
X93650000Y-115400000D03*
X93650000Y-113200000D03*
X91750000Y-113200000D03*
%TD*%
D24*
%TO.C,U501*%
X109630000Y-121137500D03*
X109630000Y-121772500D03*
X109630000Y-122407500D03*
X109630000Y-123042500D03*
X109630000Y-123677500D03*
X109630000Y-124312500D03*
X109630000Y-124947500D03*
X109630000Y-125582500D03*
X114830000Y-125582500D03*
X114830000Y-124947500D03*
X114830000Y-124312500D03*
X114830000Y-123677500D03*
X114830000Y-123042500D03*
X114830000Y-122407500D03*
X114830000Y-121772500D03*
X114830000Y-121137500D03*
%TD*%
D22*
%TO.C,U601*%
X86890000Y-101355000D03*
X80990000Y-101355000D03*
X86890000Y-96805000D03*
X86890000Y-97455000D03*
X86890000Y-98105000D03*
X86890000Y-98755000D03*
X86890000Y-99405000D03*
X86890000Y-100055000D03*
X86890000Y-100705000D03*
X80990000Y-100705000D03*
X80990000Y-100055000D03*
X80990000Y-99405000D03*
X80990000Y-98755000D03*
X80990000Y-98105000D03*
X80990000Y-97455000D03*
X80990000Y-96805000D03*
%TD*%
%TO.C,U602*%
X80980000Y-106220000D03*
X80980000Y-106870000D03*
X80980000Y-107520000D03*
X80980000Y-108170000D03*
X80980000Y-108820000D03*
X80980000Y-109470000D03*
X80980000Y-110120000D03*
X86880000Y-110120000D03*
X86880000Y-109470000D03*
X86880000Y-108820000D03*
X86880000Y-108170000D03*
X86880000Y-107520000D03*
X86880000Y-106870000D03*
X86880000Y-106220000D03*
X80980000Y-110770000D03*
X86880000Y-110770000D03*
%TD*%
D17*
%TO.C,Y201*%
X91680000Y-82210000D03*
X91680000Y-85110000D03*
%TD*%
D25*
%TO.C,DL701*%
X100010000Y-36820000D03*
D26*
X100010000Y-38970000D03*
%TD*%
D27*
%TO.C,Q701*%
X99070000Y-45890000D03*
X100970000Y-45890000D03*
X100020000Y-43890000D03*
%TD*%
D17*
%TO.C,R701*%
X97498000Y-74630000D03*
X97498000Y-71730000D03*
%TD*%
D16*
%TO.C,R702*%
X98540000Y-41900000D03*
X101440000Y-41900000D03*
%TD*%
M02*
