%TF.GenerationSoftware,KiCad,Pcbnew,(5.1.6-0-10_14)*%
%TF.CreationDate,2020-10-09T22:40:52+02:00*%
%TF.ProjectId,nowae029,6e6f7761-6530-4323-992e-6b696361645f,0*%
%TF.SameCoordinates,Original*%
%TF.FileFunction,Soldermask,Bot*%
%TF.FilePolarity,Negative*%
%FSLAX46Y46*%
G04 Gerber Fmt 4.6, Leading zero omitted, Abs format (unit mm)*
G04 Created by KiCad (PCBNEW (5.1.6-0-10_14)) date 2020-10-09 22:40:52*
%MOMM*%
%LPD*%
G01*
G04 APERTURE LIST*
%TA.AperFunction,Profile*%
%ADD10C,0.050000*%
%TD*%
%TA.AperFunction,Profile*%
%ADD11C,0.200000*%
%TD*%
%ADD12C,3.000000*%
%ADD13C,0.100000*%
%ADD14C,1.300000*%
%ADD15C,0.800000*%
%ADD16O,1.100000X0.700000*%
%ADD17C,1.900000*%
%ADD18R,1.900000X1.900000*%
%ADD19C,1.500000*%
%ADD20R,1.500000X1.500000*%
%ADD21R,0.900000X2.100000*%
%ADD22R,0.900000X1.300000*%
G04 APERTURE END LIST*
D10*
X95849877Y-42393418D02*
X96326817Y-39221785D01*
X107560690Y-35486081D02*
X103832837Y-39170169D01*
X102368975Y-34768100D02*
X107560690Y-35486081D01*
X96326817Y-39221785D02*
X92548651Y-35589313D01*
X92548651Y-35589313D02*
X97730000Y-34800000D01*
X95849877Y-42393418D02*
X94417635Y-45086053D01*
X94417635Y-45086053D02*
X92985389Y-47778769D01*
X92985389Y-47778769D02*
X91553138Y-50471647D01*
X91553138Y-50471647D02*
X90120876Y-53164768D01*
X90120876Y-53164768D02*
X88688601Y-55858214D01*
X88688601Y-55858214D02*
X87256309Y-58552065D01*
X87256309Y-58552065D02*
X85823997Y-61246402D01*
X85823997Y-61246402D02*
X84391662Y-63941307D01*
X84391662Y-63941307D02*
X82959301Y-66636860D01*
X82959301Y-66636860D02*
X81526909Y-69333143D01*
X81526909Y-69333143D02*
X80094484Y-72030236D01*
X80094484Y-72030236D02*
X78662023Y-74728221D01*
X78662023Y-74728221D02*
X77229522Y-77427179D01*
X77229522Y-77427179D02*
X75796977Y-80127190D01*
X75796977Y-80127190D02*
X74364387Y-82828336D01*
X74364387Y-82828336D02*
X72931746Y-85530699D01*
X72931746Y-85530699D02*
X71499052Y-88234358D01*
X71499052Y-88234358D02*
X70066301Y-90939395D01*
X70066301Y-90939395D02*
X68633491Y-93645891D01*
X68633491Y-93645891D02*
X67200617Y-96353928D01*
X67200617Y-96353928D02*
X65767678Y-99063585D01*
X65767678Y-99063585D02*
X64334668Y-101774945D01*
X64334668Y-101774945D02*
X62901585Y-104488088D01*
X62901585Y-104488088D02*
X61468426Y-107203095D01*
X61468426Y-107203095D02*
X60035186Y-109920048D01*
X60035186Y-109920048D02*
X58601864Y-112639028D01*
X58601864Y-112639028D02*
X57168456Y-115360115D01*
X57168456Y-115360115D02*
X55734957Y-118083390D01*
X55734957Y-118083390D02*
X54301366Y-120808935D01*
X54301366Y-120808935D02*
X52867678Y-123536831D01*
X52867678Y-123536831D02*
X51433890Y-126267159D01*
X51433890Y-126267159D02*
X50000000Y-129000000D01*
X103832837Y-39170169D02*
X104449243Y-42890699D01*
X100017169Y-30084255D02*
X102368975Y-34768100D01*
X104449243Y-42890699D02*
X150000000Y-129000000D01*
X97730000Y-34800000D02*
X100017169Y-30084255D01*
X148000000Y-129000000D02*
X150000000Y-129000000D01*
X148000000Y-130000000D02*
X148000000Y-129000000D01*
X146000000Y-130000000D02*
X148000000Y-130000000D01*
X146000000Y-129000000D02*
X146000000Y-130000000D01*
X102000000Y-129000000D02*
X146000000Y-129000000D01*
X102000000Y-130000000D02*
X102000000Y-129000000D01*
X98000000Y-130000000D02*
X102000000Y-130000000D01*
X98000000Y-129000000D02*
X98000000Y-130000000D01*
X54000000Y-129000000D02*
X98000000Y-129000000D01*
X54000000Y-130000000D02*
X54000000Y-129000000D01*
X52000000Y-130000000D02*
X54000000Y-130000000D01*
X52000000Y-129000000D02*
X52000000Y-130000000D01*
X50000000Y-129000000D02*
X52000000Y-129000000D01*
D11*
X268944859Y-318881889D02*
X268944859Y-318881889D01*
D12*
%TO.C,VAL\u002A\u002A*%
X101000000Y-58000000D03*
%TD*%
%TO.C,VAL\u002A\u002A*%
X137000000Y-125000000D03*
%TD*%
%TO.C,VAL\u002A\u002A*%
X63000000Y-125000000D03*
%TD*%
D13*
%TO.C,R616*%
G36*
X71099349Y-96096276D02*
G01*
X72688655Y-96941325D01*
X72219183Y-97824272D01*
X70629877Y-96979223D01*
X71099349Y-96096276D01*
G37*
G36*
X72460817Y-93535728D02*
G01*
X74050123Y-94380777D01*
X73580651Y-95263724D01*
X71991345Y-94418675D01*
X72460817Y-93535728D01*
G37*
%TD*%
%TO.C,R620*%
G36*
X63709349Y-110126276D02*
G01*
X65298655Y-110971325D01*
X64829183Y-111854272D01*
X63239877Y-111009223D01*
X63709349Y-110126276D01*
G37*
G36*
X65070817Y-107565728D02*
G01*
X66660123Y-108410777D01*
X66190651Y-109293724D01*
X64601345Y-108448675D01*
X65070817Y-107565728D01*
G37*
%TD*%
%TO.C,DL620*%
G36*
X62850817Y-106375728D02*
G01*
X64440123Y-107220777D01*
X63970651Y-108103724D01*
X62381345Y-107258675D01*
X62850817Y-106375728D01*
G37*
G36*
X61489349Y-108936276D02*
G01*
X63078655Y-109781325D01*
X62609183Y-110664272D01*
X61019877Y-109819223D01*
X61489349Y-108936276D01*
G37*
%TD*%
%TO.C,DL302*%
G36*
X102239877Y-44200777D02*
G01*
X103829183Y-43355728D01*
X104298655Y-44238675D01*
X102709349Y-45083724D01*
X102239877Y-44200777D01*
G37*
G36*
X103601345Y-46761325D02*
G01*
X105190651Y-45916276D01*
X105660123Y-46799223D01*
X104070817Y-47644272D01*
X103601345Y-46761325D01*
G37*
%TD*%
%TO.C,DL304*%
G36*
X105939877Y-51300777D02*
G01*
X107529183Y-50455728D01*
X107998655Y-51338675D01*
X106409349Y-52183724D01*
X105939877Y-51300777D01*
G37*
G36*
X107301345Y-53861325D02*
G01*
X108890651Y-53016276D01*
X109360123Y-53899223D01*
X107770817Y-54744272D01*
X107301345Y-53861325D01*
G37*
%TD*%
%TO.C,DL306*%
G36*
X109659143Y-58220503D02*
G01*
X111248449Y-57375454D01*
X111717921Y-58258401D01*
X110128615Y-59103450D01*
X109659143Y-58220503D01*
G37*
G36*
X111020611Y-60781051D02*
G01*
X112609917Y-59936002D01*
X113079389Y-60818949D01*
X111490083Y-61663998D01*
X111020611Y-60781051D01*
G37*
%TD*%
%TO.C,DL308*%
G36*
X113384140Y-65225777D02*
G01*
X114973446Y-64380728D01*
X115442918Y-65263675D01*
X113853612Y-66108724D01*
X113384140Y-65225777D01*
G37*
G36*
X114745608Y-67786325D02*
G01*
X116334914Y-66941276D01*
X116804386Y-67824223D01*
X115215080Y-68669272D01*
X114745608Y-67786325D01*
G37*
%TD*%
%TO.C,DL310*%
G36*
X117039877Y-72200777D02*
G01*
X118629183Y-71355728D01*
X119098655Y-72238675D01*
X117509349Y-73083724D01*
X117039877Y-72200777D01*
G37*
G36*
X118401345Y-74761325D02*
G01*
X119990651Y-73916276D01*
X120460123Y-74799223D01*
X118870817Y-75644272D01*
X118401345Y-74761325D01*
G37*
%TD*%
%TO.C,DL312*%
G36*
X120739877Y-79200777D02*
G01*
X122329183Y-78355728D01*
X122798655Y-79238675D01*
X121209349Y-80083724D01*
X120739877Y-79200777D01*
G37*
G36*
X122101345Y-81761325D02*
G01*
X123690651Y-80916276D01*
X124160123Y-81799223D01*
X122570817Y-82644272D01*
X122101345Y-81761325D01*
G37*
%TD*%
%TO.C,DL314*%
G36*
X124439877Y-86200777D02*
G01*
X126029183Y-85355728D01*
X126498655Y-86238675D01*
X124909349Y-87083724D01*
X124439877Y-86200777D01*
G37*
G36*
X125801345Y-88761325D02*
G01*
X127390651Y-87916276D01*
X127860123Y-88799223D01*
X126270817Y-89644272D01*
X125801345Y-88761325D01*
G37*
%TD*%
%TO.C,DL316*%
G36*
X128189877Y-93250777D02*
G01*
X129779183Y-92405728D01*
X130248655Y-93288675D01*
X128659349Y-94133724D01*
X128189877Y-93250777D01*
G37*
G36*
X129551345Y-95811325D02*
G01*
X131140651Y-94966276D01*
X131610123Y-95849223D01*
X130020817Y-96694272D01*
X129551345Y-95811325D01*
G37*
%TD*%
%TO.C,DL318*%
G36*
X131839877Y-100200777D02*
G01*
X133429183Y-99355728D01*
X133898655Y-100238675D01*
X132309349Y-101083724D01*
X131839877Y-100200777D01*
G37*
G36*
X133201345Y-102761325D02*
G01*
X134790651Y-101916276D01*
X135260123Y-102799223D01*
X133670817Y-103644272D01*
X133201345Y-102761325D01*
G37*
%TD*%
%TO.C,DL320*%
G36*
X135589877Y-107200777D02*
G01*
X137179183Y-106355728D01*
X137648655Y-107238675D01*
X136059349Y-108083724D01*
X135589877Y-107200777D01*
G37*
G36*
X136951345Y-109761325D02*
G01*
X138540651Y-108916276D01*
X139010123Y-109799223D01*
X137420817Y-110644272D01*
X136951345Y-109761325D01*
G37*
%TD*%
%TO.C,DL322*%
G36*
X139289877Y-114200777D02*
G01*
X140879183Y-113355728D01*
X141348655Y-114238675D01*
X139759349Y-115083724D01*
X139289877Y-114200777D01*
G37*
G36*
X140651345Y-116761325D02*
G01*
X142240651Y-115916276D01*
X142710123Y-116799223D01*
X141120817Y-117644272D01*
X140651345Y-116761325D01*
G37*
%TD*%
%TO.C,DL324*%
G36*
X142989877Y-121200777D02*
G01*
X144579183Y-120355728D01*
X145048655Y-121238675D01*
X143459349Y-122083724D01*
X142989877Y-121200777D01*
G37*
G36*
X144351345Y-123761325D02*
G01*
X145940651Y-122916276D01*
X146410123Y-123799223D01*
X144820817Y-124644272D01*
X144351345Y-123761325D01*
G37*
%TD*%
%TO.C,DL602*%
G36*
X96161551Y-43345454D02*
G01*
X97750857Y-44190503D01*
X97281385Y-45073450D01*
X95692079Y-44228401D01*
X96161551Y-43345454D01*
G37*
G36*
X94800083Y-45906002D02*
G01*
X96389389Y-46751051D01*
X95919917Y-47633998D01*
X94330611Y-46788949D01*
X94800083Y-45906002D01*
G37*
%TD*%
%TO.C,DL604*%
G36*
X92460817Y-50365728D02*
G01*
X94050123Y-51210777D01*
X93580651Y-52093724D01*
X91991345Y-51248675D01*
X92460817Y-50365728D01*
G37*
G36*
X91099349Y-52926276D02*
G01*
X92688655Y-53771325D01*
X92219183Y-54654272D01*
X90629877Y-53809223D01*
X91099349Y-52926276D01*
G37*
%TD*%
%TO.C,DL606*%
G36*
X88741551Y-57335454D02*
G01*
X90330857Y-58180503D01*
X89861385Y-59063450D01*
X88272079Y-58218401D01*
X88741551Y-57335454D01*
G37*
G36*
X87380083Y-59896002D02*
G01*
X88969389Y-60741051D01*
X88499917Y-61623998D01*
X86910611Y-60778949D01*
X87380083Y-59896002D01*
G37*
%TD*%
%TO.C,DL608*%
G36*
X85050817Y-64385728D02*
G01*
X86640123Y-65230777D01*
X86170651Y-66113724D01*
X84581345Y-65268675D01*
X85050817Y-64385728D01*
G37*
G36*
X83689349Y-66946276D02*
G01*
X85278655Y-67791325D01*
X84809183Y-68674272D01*
X83219877Y-67829223D01*
X83689349Y-66946276D01*
G37*
%TD*%
%TO.C,DL610*%
G36*
X81320817Y-71365728D02*
G01*
X82910123Y-72210777D01*
X82440651Y-73093724D01*
X80851345Y-72248675D01*
X81320817Y-71365728D01*
G37*
G36*
X79959349Y-73926276D02*
G01*
X81548655Y-74771325D01*
X81079183Y-75654272D01*
X79489877Y-74809223D01*
X79959349Y-73926276D01*
G37*
%TD*%
%TO.C,DL612*%
G36*
X77640817Y-78385728D02*
G01*
X79230123Y-79230777D01*
X78760651Y-80113724D01*
X77171345Y-79268675D01*
X77640817Y-78385728D01*
G37*
G36*
X76279349Y-80946276D02*
G01*
X77868655Y-81791325D01*
X77399183Y-82674272D01*
X75809877Y-81829223D01*
X76279349Y-80946276D01*
G37*
%TD*%
%TO.C,DL614*%
G36*
X73920817Y-85365728D02*
G01*
X75510123Y-86210777D01*
X75040651Y-87093724D01*
X73451345Y-86248675D01*
X73920817Y-85365728D01*
G37*
G36*
X72559349Y-87926276D02*
G01*
X74148655Y-88771325D01*
X73679183Y-89654272D01*
X72089877Y-88809223D01*
X72559349Y-87926276D01*
G37*
%TD*%
%TO.C,DL616*%
G36*
X70270817Y-92355728D02*
G01*
X71860123Y-93200777D01*
X71390651Y-94083724D01*
X69801345Y-93238675D01*
X70270817Y-92355728D01*
G37*
G36*
X68909349Y-94916276D02*
G01*
X70498655Y-95761325D01*
X70029183Y-96644272D01*
X68439877Y-95799223D01*
X68909349Y-94916276D01*
G37*
%TD*%
%TO.C,DL618*%
G36*
X66530817Y-99365728D02*
G01*
X68120123Y-100210777D01*
X67650651Y-101093724D01*
X66061345Y-100248675D01*
X66530817Y-99365728D01*
G37*
G36*
X65169349Y-101926276D02*
G01*
X66758655Y-102771325D01*
X66289183Y-103654272D01*
X64699877Y-102809223D01*
X65169349Y-101926276D01*
G37*
%TD*%
%TO.C,DL622*%
G36*
X59186554Y-113350728D02*
G01*
X60775860Y-114195777D01*
X60306388Y-115078724D01*
X58717082Y-114233675D01*
X59186554Y-113350728D01*
G37*
G36*
X57825086Y-115911276D02*
G01*
X59414392Y-116756325D01*
X58944920Y-117639272D01*
X57355614Y-116794223D01*
X57825086Y-115911276D01*
G37*
%TD*%
%TO.C,DL624*%
G36*
X55460817Y-120335728D02*
G01*
X57050123Y-121180777D01*
X56580651Y-122063724D01*
X54991345Y-121218675D01*
X55460817Y-120335728D01*
G37*
G36*
X54099349Y-122896276D02*
G01*
X55688655Y-123741325D01*
X55219183Y-124624272D01*
X53629877Y-123779223D01*
X54099349Y-122896276D01*
G37*
%TD*%
D14*
%TO.C,P501*%
X87200000Y-123050000D03*
X87200000Y-127350000D03*
X92000000Y-127350000D03*
X92000000Y-123050000D03*
D15*
X85850000Y-125200000D03*
D16*
X93350000Y-125200000D03*
%TD*%
D13*
%TO.C,R302*%
G36*
X102701345Y-50411325D02*
G01*
X104290651Y-49566276D01*
X104760123Y-50449223D01*
X103170817Y-51294272D01*
X102701345Y-50411325D01*
G37*
G36*
X101339877Y-47850777D02*
G01*
X102929183Y-47005728D01*
X103398655Y-47888675D01*
X101809349Y-48733724D01*
X101339877Y-47850777D01*
G37*
%TD*%
%TO.C,R304*%
G36*
X105101345Y-55061325D02*
G01*
X106690651Y-54216276D01*
X107160123Y-55099223D01*
X105570817Y-55944272D01*
X105101345Y-55061325D01*
G37*
G36*
X103739877Y-52500777D02*
G01*
X105329183Y-51655728D01*
X105798655Y-52538675D01*
X104209349Y-53383724D01*
X103739877Y-52500777D01*
G37*
%TD*%
%TO.C,R306*%
G36*
X108801345Y-61961325D02*
G01*
X110390651Y-61116276D01*
X110860123Y-61999223D01*
X109270817Y-62844272D01*
X108801345Y-61961325D01*
G37*
G36*
X107439877Y-59400777D02*
G01*
X109029183Y-58555728D01*
X109498655Y-59438675D01*
X107909349Y-60283724D01*
X107439877Y-59400777D01*
G37*
%TD*%
%TO.C,R308*%
G36*
X112551345Y-68961325D02*
G01*
X114140651Y-68116276D01*
X114610123Y-68999223D01*
X113020817Y-69844272D01*
X112551345Y-68961325D01*
G37*
G36*
X111189877Y-66400777D02*
G01*
X112779183Y-65555728D01*
X113248655Y-66438675D01*
X111659349Y-67283724D01*
X111189877Y-66400777D01*
G37*
%TD*%
%TO.C,R310*%
G36*
X116201345Y-75961325D02*
G01*
X117790651Y-75116276D01*
X118260123Y-75999223D01*
X116670817Y-76844272D01*
X116201345Y-75961325D01*
G37*
G36*
X114839877Y-73400777D02*
G01*
X116429183Y-72555728D01*
X116898655Y-73438675D01*
X115309349Y-74283724D01*
X114839877Y-73400777D01*
G37*
%TD*%
%TO.C,R312*%
G36*
X119901345Y-82911325D02*
G01*
X121490651Y-82066276D01*
X121960123Y-82949223D01*
X120370817Y-83794272D01*
X119901345Y-82911325D01*
G37*
G36*
X118539877Y-80350777D02*
G01*
X120129183Y-79505728D01*
X120598655Y-80388675D01*
X119009349Y-81233724D01*
X118539877Y-80350777D01*
G37*
%TD*%
%TO.C,R314*%
G36*
X123601345Y-89961325D02*
G01*
X125190651Y-89116276D01*
X125660123Y-89999223D01*
X124070817Y-90844272D01*
X123601345Y-89961325D01*
G37*
G36*
X122239877Y-87400777D02*
G01*
X123829183Y-86555728D01*
X124298655Y-87438675D01*
X122709349Y-88283724D01*
X122239877Y-87400777D01*
G37*
%TD*%
%TO.C,R316*%
G36*
X127357082Y-97036325D02*
G01*
X128946388Y-96191276D01*
X129415860Y-97074223D01*
X127826554Y-97919272D01*
X127357082Y-97036325D01*
G37*
G36*
X125995614Y-94475777D02*
G01*
X127584920Y-93630728D01*
X128054392Y-94513675D01*
X126465086Y-95358724D01*
X125995614Y-94475777D01*
G37*
%TD*%
%TO.C,R318*%
G36*
X131001345Y-103911325D02*
G01*
X132590651Y-103066276D01*
X133060123Y-103949223D01*
X131470817Y-104794272D01*
X131001345Y-103911325D01*
G37*
G36*
X129639877Y-101350777D02*
G01*
X131229183Y-100505728D01*
X131698655Y-101388675D01*
X130109349Y-102233724D01*
X129639877Y-101350777D01*
G37*
%TD*%
%TO.C,R320*%
G36*
X134757082Y-110986325D02*
G01*
X136346388Y-110141276D01*
X136815860Y-111024223D01*
X135226554Y-111869272D01*
X134757082Y-110986325D01*
G37*
G36*
X133395614Y-108425777D02*
G01*
X134984920Y-107580728D01*
X135454392Y-108463675D01*
X133865086Y-109308724D01*
X133395614Y-108425777D01*
G37*
%TD*%
%TO.C,R322*%
G36*
X138451345Y-117961325D02*
G01*
X140040651Y-117116276D01*
X140510123Y-117999223D01*
X138920817Y-118844272D01*
X138451345Y-117961325D01*
G37*
G36*
X137089877Y-115400777D02*
G01*
X138679183Y-114555728D01*
X139148655Y-115438675D01*
X137559349Y-116283724D01*
X137089877Y-115400777D01*
G37*
%TD*%
%TO.C,R324*%
G36*
X142151345Y-124961325D02*
G01*
X143740651Y-124116276D01*
X144210123Y-124999223D01*
X142620817Y-125844272D01*
X142151345Y-124961325D01*
G37*
G36*
X140789877Y-122400777D02*
G01*
X142379183Y-121555728D01*
X142848655Y-122438675D01*
X141259349Y-123283724D01*
X140789877Y-122400777D01*
G37*
%TD*%
%TO.C,R602*%
G36*
X95730083Y-49506002D02*
G01*
X97319389Y-50351051D01*
X96849917Y-51233998D01*
X95260611Y-50388949D01*
X95730083Y-49506002D01*
G37*
G36*
X97091551Y-46945454D02*
G01*
X98680857Y-47790503D01*
X98211385Y-48673450D01*
X96622079Y-47828401D01*
X97091551Y-46945454D01*
G37*
%TD*%
%TO.C,R604*%
G36*
X93319349Y-54106276D02*
G01*
X94908655Y-54951325D01*
X94439183Y-55834272D01*
X92849877Y-54989223D01*
X93319349Y-54106276D01*
G37*
G36*
X94680817Y-51545728D02*
G01*
X96270123Y-52390777D01*
X95800651Y-53273724D01*
X94211345Y-52428675D01*
X94680817Y-51545728D01*
G37*
%TD*%
%TO.C,R606*%
G36*
X89569349Y-61066276D02*
G01*
X91158655Y-61911325D01*
X90689183Y-62794272D01*
X89099877Y-61949223D01*
X89569349Y-61066276D01*
G37*
G36*
X90930817Y-58505728D02*
G01*
X92520123Y-59350777D01*
X92050651Y-60233724D01*
X90461345Y-59388675D01*
X90930817Y-58505728D01*
G37*
%TD*%
%TO.C,R608*%
G36*
X85899349Y-68096276D02*
G01*
X87488655Y-68941325D01*
X87019183Y-69824272D01*
X85429877Y-68979223D01*
X85899349Y-68096276D01*
G37*
G36*
X87260817Y-65535728D02*
G01*
X88850123Y-66380777D01*
X88380651Y-67263724D01*
X86791345Y-66418675D01*
X87260817Y-65535728D01*
G37*
%TD*%
%TO.C,R610*%
G36*
X82189349Y-75126276D02*
G01*
X83778655Y-75971325D01*
X83309183Y-76854272D01*
X81719877Y-76009223D01*
X82189349Y-75126276D01*
G37*
G36*
X83550817Y-72565728D02*
G01*
X85140123Y-73410777D01*
X84670651Y-74293724D01*
X83081345Y-73448675D01*
X83550817Y-72565728D01*
G37*
%TD*%
%TO.C,R612*%
G36*
X78473612Y-82131276D02*
G01*
X80062918Y-82976325D01*
X79593446Y-83859272D01*
X78004140Y-83014223D01*
X78473612Y-82131276D01*
G37*
G36*
X79835080Y-79570728D02*
G01*
X81424386Y-80415777D01*
X80954914Y-81298724D01*
X79365608Y-80453675D01*
X79835080Y-79570728D01*
G37*
%TD*%
%TO.C,R614*%
G36*
X74769349Y-89106276D02*
G01*
X76358655Y-89951325D01*
X75889183Y-90834272D01*
X74299877Y-89989223D01*
X74769349Y-89106276D01*
G37*
G36*
X76130817Y-86545728D02*
G01*
X77720123Y-87390777D01*
X77250651Y-88273724D01*
X75661345Y-87428675D01*
X76130817Y-86545728D01*
G37*
%TD*%
%TO.C,R618*%
G36*
X67409349Y-103146276D02*
G01*
X68998655Y-103991325D01*
X68529183Y-104874272D01*
X66939877Y-104029223D01*
X67409349Y-103146276D01*
G37*
G36*
X68770817Y-100585728D02*
G01*
X70360123Y-101430777D01*
X69890651Y-102313724D01*
X68301345Y-101468675D01*
X68770817Y-100585728D01*
G37*
%TD*%
%TO.C,R622*%
G36*
X60079349Y-117096276D02*
G01*
X61668655Y-117941325D01*
X61199183Y-118824272D01*
X59609877Y-117979223D01*
X60079349Y-117096276D01*
G37*
G36*
X61440817Y-114535728D02*
G01*
X63030123Y-115380777D01*
X62560651Y-116263724D01*
X60971345Y-115418675D01*
X61440817Y-114535728D01*
G37*
%TD*%
%TO.C,R624*%
G36*
X56319349Y-124076276D02*
G01*
X57908655Y-124921325D01*
X57439183Y-125804272D01*
X55849877Y-124959223D01*
X56319349Y-124076276D01*
G37*
G36*
X57680817Y-121515728D02*
G01*
X59270123Y-122360777D01*
X58800651Y-123243724D01*
X57211345Y-122398675D01*
X57680817Y-121515728D01*
G37*
%TD*%
D17*
%TO.C,P101*%
X97900000Y-65970000D03*
X97900000Y-63430000D03*
D18*
X97900000Y-68510000D03*
D17*
X97900000Y-60890000D03*
%TD*%
%TO.C,P102*%
X102100000Y-116770000D03*
X102100000Y-114230000D03*
D18*
X102100000Y-119310000D03*
D17*
X102100000Y-111690000D03*
%TD*%
%TO.C,P103*%
X102100000Y-60890000D03*
D18*
X102100000Y-68510000D03*
D17*
X102100000Y-63430000D03*
X102100000Y-65970000D03*
%TD*%
%TO.C,P104*%
X97900000Y-111690000D03*
D18*
X97900000Y-119310000D03*
D17*
X97900000Y-114230000D03*
X97900000Y-116770000D03*
%TD*%
D19*
%TO.C,P401*%
X80770000Y-126700000D03*
D20*
X78230000Y-126700000D03*
%TD*%
D17*
%TO.C,P201*%
X100000000Y-98660000D03*
X100000000Y-101200000D03*
D18*
X100000000Y-96120000D03*
D17*
X100000000Y-103740000D03*
X100000000Y-106280000D03*
%TD*%
D21*
%TO.C,DL702*%
X100020000Y-38970000D03*
D22*
X100020000Y-36820000D03*
%TD*%
D19*
%TO.C,P502*%
X129248000Y-126266000D03*
D20*
X126708000Y-126266000D03*
D19*
X131788000Y-126266000D03*
%TD*%
M02*
