%TF.GenerationSoftware,KiCad,Pcbnew,(5.1.6-0-10_14)*%
%TF.CreationDate,2020-10-09T22:40:52+02:00*%
%TF.ProjectId,nowae029,6e6f7761-6530-4323-992e-6b696361645f,0*%
%TF.SameCoordinates,Original*%
%TF.FileFunction,Paste,Bot*%
%TF.FilePolarity,Positive*%
%FSLAX46Y46*%
G04 Gerber Fmt 4.6, Leading zero omitted, Abs format (unit mm)*
G04 Created by KiCad (PCBNEW (5.1.6-0-10_14)) date 2020-10-09 22:40:52*
%MOMM*%
%LPD*%
G01*
G04 APERTURE LIST*
%TA.AperFunction,Profile*%
%ADD10C,0.050000*%
%TD*%
%TA.AperFunction,Profile*%
%ADD11C,0.200000*%
%TD*%
%ADD12C,0.100000*%
%ADD13R,0.800000X2.000000*%
%ADD14R,0.800000X1.200000*%
G04 APERTURE END LIST*
D10*
X95849877Y-42393418D02*
X96326817Y-39221785D01*
X107560690Y-35486081D02*
X103832837Y-39170169D01*
X102368975Y-34768100D02*
X107560690Y-35486081D01*
X96326817Y-39221785D02*
X92548651Y-35589313D01*
X92548651Y-35589313D02*
X97730000Y-34800000D01*
X95849877Y-42393418D02*
X94417635Y-45086053D01*
X94417635Y-45086053D02*
X92985389Y-47778769D01*
X92985389Y-47778769D02*
X91553138Y-50471647D01*
X91553138Y-50471647D02*
X90120876Y-53164768D01*
X90120876Y-53164768D02*
X88688601Y-55858214D01*
X88688601Y-55858214D02*
X87256309Y-58552065D01*
X87256309Y-58552065D02*
X85823997Y-61246402D01*
X85823997Y-61246402D02*
X84391662Y-63941307D01*
X84391662Y-63941307D02*
X82959301Y-66636860D01*
X82959301Y-66636860D02*
X81526909Y-69333143D01*
X81526909Y-69333143D02*
X80094484Y-72030236D01*
X80094484Y-72030236D02*
X78662023Y-74728221D01*
X78662023Y-74728221D02*
X77229522Y-77427179D01*
X77229522Y-77427179D02*
X75796977Y-80127190D01*
X75796977Y-80127190D02*
X74364387Y-82828336D01*
X74364387Y-82828336D02*
X72931746Y-85530699D01*
X72931746Y-85530699D02*
X71499052Y-88234358D01*
X71499052Y-88234358D02*
X70066301Y-90939395D01*
X70066301Y-90939395D02*
X68633491Y-93645891D01*
X68633491Y-93645891D02*
X67200617Y-96353928D01*
X67200617Y-96353928D02*
X65767678Y-99063585D01*
X65767678Y-99063585D02*
X64334668Y-101774945D01*
X64334668Y-101774945D02*
X62901585Y-104488088D01*
X62901585Y-104488088D02*
X61468426Y-107203095D01*
X61468426Y-107203095D02*
X60035186Y-109920048D01*
X60035186Y-109920048D02*
X58601864Y-112639028D01*
X58601864Y-112639028D02*
X57168456Y-115360115D01*
X57168456Y-115360115D02*
X55734957Y-118083390D01*
X55734957Y-118083390D02*
X54301366Y-120808935D01*
X54301366Y-120808935D02*
X52867678Y-123536831D01*
X52867678Y-123536831D02*
X51433890Y-126267159D01*
X51433890Y-126267159D02*
X50000000Y-129000000D01*
X103832837Y-39170169D02*
X104449243Y-42890699D01*
X100017169Y-30084255D02*
X102368975Y-34768100D01*
X104449243Y-42890699D02*
X150000000Y-129000000D01*
X97730000Y-34800000D02*
X100017169Y-30084255D01*
X148000000Y-129000000D02*
X150000000Y-129000000D01*
X148000000Y-130000000D02*
X148000000Y-129000000D01*
X146000000Y-130000000D02*
X148000000Y-130000000D01*
X146000000Y-129000000D02*
X146000000Y-130000000D01*
X102000000Y-129000000D02*
X146000000Y-129000000D01*
X102000000Y-130000000D02*
X102000000Y-129000000D01*
X98000000Y-130000000D02*
X102000000Y-130000000D01*
X98000000Y-129000000D02*
X98000000Y-130000000D01*
X54000000Y-129000000D02*
X98000000Y-129000000D01*
X54000000Y-130000000D02*
X54000000Y-129000000D01*
X52000000Y-130000000D02*
X54000000Y-130000000D01*
X52000000Y-129000000D02*
X52000000Y-130000000D01*
X50000000Y-129000000D02*
X52000000Y-129000000D01*
D11*
X268944859Y-318881889D02*
X268944859Y-318881889D01*
D12*
%TO.C,R616*%
G36*
X71120023Y-96163897D02*
G01*
X72621034Y-96961998D01*
X72198509Y-97756651D01*
X70697498Y-96958550D01*
X71120023Y-96163897D01*
G37*
G36*
X72481491Y-93603349D02*
G01*
X73982502Y-94401450D01*
X73559977Y-95196103D01*
X72058966Y-94398002D01*
X72481491Y-93603349D01*
G37*
%TD*%
%TO.C,R620*%
G36*
X63730023Y-110193897D02*
G01*
X65231034Y-110991998D01*
X64808509Y-111786651D01*
X63307498Y-110988550D01*
X63730023Y-110193897D01*
G37*
G36*
X65091491Y-107633349D02*
G01*
X66592502Y-108431450D01*
X66169977Y-109226103D01*
X64668966Y-108428002D01*
X65091491Y-107633349D01*
G37*
%TD*%
%TO.C,DL620*%
G36*
X62871491Y-106443349D02*
G01*
X64372502Y-107241450D01*
X63949977Y-108036103D01*
X62448966Y-107238002D01*
X62871491Y-106443349D01*
G37*
G36*
X61510023Y-109003897D02*
G01*
X63011034Y-109801998D01*
X62588509Y-110596651D01*
X61087498Y-109798550D01*
X61510023Y-109003897D01*
G37*
%TD*%
%TO.C,DL302*%
G36*
X102307498Y-44221450D02*
G01*
X103808509Y-43423349D01*
X104231034Y-44218002D01*
X102730023Y-45016103D01*
X102307498Y-44221450D01*
G37*
G36*
X103668966Y-46781998D02*
G01*
X105169977Y-45983897D01*
X105592502Y-46778550D01*
X104091491Y-47576651D01*
X103668966Y-46781998D01*
G37*
%TD*%
%TO.C,DL304*%
G36*
X106007498Y-51321450D02*
G01*
X107508509Y-50523349D01*
X107931034Y-51318002D01*
X106430023Y-52116103D01*
X106007498Y-51321450D01*
G37*
G36*
X107368966Y-53881998D02*
G01*
X108869977Y-53083897D01*
X109292502Y-53878550D01*
X107791491Y-54676651D01*
X107368966Y-53881998D01*
G37*
%TD*%
%TO.C,DL306*%
G36*
X109726764Y-58241176D02*
G01*
X111227775Y-57443075D01*
X111650300Y-58237728D01*
X110149289Y-59035829D01*
X109726764Y-58241176D01*
G37*
G36*
X111088232Y-60801724D02*
G01*
X112589243Y-60003623D01*
X113011768Y-60798276D01*
X111510757Y-61596377D01*
X111088232Y-60801724D01*
G37*
%TD*%
%TO.C,DL308*%
G36*
X113451761Y-65246450D02*
G01*
X114952772Y-64448349D01*
X115375297Y-65243002D01*
X113874286Y-66041103D01*
X113451761Y-65246450D01*
G37*
G36*
X114813229Y-67806998D02*
G01*
X116314240Y-67008897D01*
X116736765Y-67803550D01*
X115235754Y-68601651D01*
X114813229Y-67806998D01*
G37*
%TD*%
%TO.C,DL310*%
G36*
X117107498Y-72221450D02*
G01*
X118608509Y-71423349D01*
X119031034Y-72218002D01*
X117530023Y-73016103D01*
X117107498Y-72221450D01*
G37*
G36*
X118468966Y-74781998D02*
G01*
X119969977Y-73983897D01*
X120392502Y-74778550D01*
X118891491Y-75576651D01*
X118468966Y-74781998D01*
G37*
%TD*%
%TO.C,DL312*%
G36*
X120807498Y-79221450D02*
G01*
X122308509Y-78423349D01*
X122731034Y-79218002D01*
X121230023Y-80016103D01*
X120807498Y-79221450D01*
G37*
G36*
X122168966Y-81781998D02*
G01*
X123669977Y-80983897D01*
X124092502Y-81778550D01*
X122591491Y-82576651D01*
X122168966Y-81781998D01*
G37*
%TD*%
%TO.C,DL314*%
G36*
X124507498Y-86221450D02*
G01*
X126008509Y-85423349D01*
X126431034Y-86218002D01*
X124930023Y-87016103D01*
X124507498Y-86221450D01*
G37*
G36*
X125868966Y-88781998D02*
G01*
X127369977Y-87983897D01*
X127792502Y-88778550D01*
X126291491Y-89576651D01*
X125868966Y-88781998D01*
G37*
%TD*%
%TO.C,DL316*%
G36*
X128257498Y-93271450D02*
G01*
X129758509Y-92473349D01*
X130181034Y-93268002D01*
X128680023Y-94066103D01*
X128257498Y-93271450D01*
G37*
G36*
X129618966Y-95831998D02*
G01*
X131119977Y-95033897D01*
X131542502Y-95828550D01*
X130041491Y-96626651D01*
X129618966Y-95831998D01*
G37*
%TD*%
%TO.C,DL318*%
G36*
X131907498Y-100221450D02*
G01*
X133408509Y-99423349D01*
X133831034Y-100218002D01*
X132330023Y-101016103D01*
X131907498Y-100221450D01*
G37*
G36*
X133268966Y-102781998D02*
G01*
X134769977Y-101983897D01*
X135192502Y-102778550D01*
X133691491Y-103576651D01*
X133268966Y-102781998D01*
G37*
%TD*%
%TO.C,DL320*%
G36*
X135657498Y-107221450D02*
G01*
X137158509Y-106423349D01*
X137581034Y-107218002D01*
X136080023Y-108016103D01*
X135657498Y-107221450D01*
G37*
G36*
X137018966Y-109781998D02*
G01*
X138519977Y-108983897D01*
X138942502Y-109778550D01*
X137441491Y-110576651D01*
X137018966Y-109781998D01*
G37*
%TD*%
%TO.C,DL322*%
G36*
X139357498Y-114221450D02*
G01*
X140858509Y-113423349D01*
X141281034Y-114218002D01*
X139780023Y-115016103D01*
X139357498Y-114221450D01*
G37*
G36*
X140718966Y-116781998D02*
G01*
X142219977Y-115983897D01*
X142642502Y-116778550D01*
X141141491Y-117576651D01*
X140718966Y-116781998D01*
G37*
%TD*%
%TO.C,DL324*%
G36*
X143057498Y-121221450D02*
G01*
X144558509Y-120423349D01*
X144981034Y-121218002D01*
X143480023Y-122016103D01*
X143057498Y-121221450D01*
G37*
G36*
X144418966Y-123781998D02*
G01*
X145919977Y-122983897D01*
X146342502Y-123778550D01*
X144841491Y-124576651D01*
X144418966Y-123781998D01*
G37*
%TD*%
%TO.C,DL602*%
G36*
X96182225Y-43413075D02*
G01*
X97683236Y-44211176D01*
X97260711Y-45005829D01*
X95759700Y-44207728D01*
X96182225Y-43413075D01*
G37*
G36*
X94820757Y-45973623D02*
G01*
X96321768Y-46771724D01*
X95899243Y-47566377D01*
X94398232Y-46768276D01*
X94820757Y-45973623D01*
G37*
%TD*%
%TO.C,DL604*%
G36*
X92481491Y-50433349D02*
G01*
X93982502Y-51231450D01*
X93559977Y-52026103D01*
X92058966Y-51228002D01*
X92481491Y-50433349D01*
G37*
G36*
X91120023Y-52993897D02*
G01*
X92621034Y-53791998D01*
X92198509Y-54586651D01*
X90697498Y-53788550D01*
X91120023Y-52993897D01*
G37*
%TD*%
%TO.C,DL606*%
G36*
X88762225Y-57403075D02*
G01*
X90263236Y-58201176D01*
X89840711Y-58995829D01*
X88339700Y-58197728D01*
X88762225Y-57403075D01*
G37*
G36*
X87400757Y-59963623D02*
G01*
X88901768Y-60761724D01*
X88479243Y-61556377D01*
X86978232Y-60758276D01*
X87400757Y-59963623D01*
G37*
%TD*%
%TO.C,DL608*%
G36*
X85071491Y-64453349D02*
G01*
X86572502Y-65251450D01*
X86149977Y-66046103D01*
X84648966Y-65248002D01*
X85071491Y-64453349D01*
G37*
G36*
X83710023Y-67013897D02*
G01*
X85211034Y-67811998D01*
X84788509Y-68606651D01*
X83287498Y-67808550D01*
X83710023Y-67013897D01*
G37*
%TD*%
%TO.C,DL610*%
G36*
X81341491Y-71433349D02*
G01*
X82842502Y-72231450D01*
X82419977Y-73026103D01*
X80918966Y-72228002D01*
X81341491Y-71433349D01*
G37*
G36*
X79980023Y-73993897D02*
G01*
X81481034Y-74791998D01*
X81058509Y-75586651D01*
X79557498Y-74788550D01*
X79980023Y-73993897D01*
G37*
%TD*%
%TO.C,DL612*%
G36*
X77661491Y-78453349D02*
G01*
X79162502Y-79251450D01*
X78739977Y-80046103D01*
X77238966Y-79248002D01*
X77661491Y-78453349D01*
G37*
G36*
X76300023Y-81013897D02*
G01*
X77801034Y-81811998D01*
X77378509Y-82606651D01*
X75877498Y-81808550D01*
X76300023Y-81013897D01*
G37*
%TD*%
%TO.C,DL614*%
G36*
X73941491Y-85433349D02*
G01*
X75442502Y-86231450D01*
X75019977Y-87026103D01*
X73518966Y-86228002D01*
X73941491Y-85433349D01*
G37*
G36*
X72580023Y-87993897D02*
G01*
X74081034Y-88791998D01*
X73658509Y-89586651D01*
X72157498Y-88788550D01*
X72580023Y-87993897D01*
G37*
%TD*%
%TO.C,DL616*%
G36*
X70291491Y-92423349D02*
G01*
X71792502Y-93221450D01*
X71369977Y-94016103D01*
X69868966Y-93218002D01*
X70291491Y-92423349D01*
G37*
G36*
X68930023Y-94983897D02*
G01*
X70431034Y-95781998D01*
X70008509Y-96576651D01*
X68507498Y-95778550D01*
X68930023Y-94983897D01*
G37*
%TD*%
%TO.C,DL618*%
G36*
X66551491Y-99433349D02*
G01*
X68052502Y-100231450D01*
X67629977Y-101026103D01*
X66128966Y-100228002D01*
X66551491Y-99433349D01*
G37*
G36*
X65190023Y-101993897D02*
G01*
X66691034Y-102791998D01*
X66268509Y-103586651D01*
X64767498Y-102788550D01*
X65190023Y-101993897D01*
G37*
%TD*%
%TO.C,DL622*%
G36*
X59207228Y-113418349D02*
G01*
X60708239Y-114216450D01*
X60285714Y-115011103D01*
X58784703Y-114213002D01*
X59207228Y-113418349D01*
G37*
G36*
X57845760Y-115978897D02*
G01*
X59346771Y-116776998D01*
X58924246Y-117571651D01*
X57423235Y-116773550D01*
X57845760Y-115978897D01*
G37*
%TD*%
%TO.C,DL624*%
G36*
X55481491Y-120403349D02*
G01*
X56982502Y-121201450D01*
X56559977Y-121996103D01*
X55058966Y-121198002D01*
X55481491Y-120403349D01*
G37*
G36*
X54120023Y-122963897D02*
G01*
X55621034Y-123761998D01*
X55198509Y-124556651D01*
X53697498Y-123758550D01*
X54120023Y-122963897D01*
G37*
%TD*%
%TO.C,R302*%
G36*
X102768966Y-50431998D02*
G01*
X104269977Y-49633897D01*
X104692502Y-50428550D01*
X103191491Y-51226651D01*
X102768966Y-50431998D01*
G37*
G36*
X101407498Y-47871450D02*
G01*
X102908509Y-47073349D01*
X103331034Y-47868002D01*
X101830023Y-48666103D01*
X101407498Y-47871450D01*
G37*
%TD*%
%TO.C,R304*%
G36*
X105168966Y-55081998D02*
G01*
X106669977Y-54283897D01*
X107092502Y-55078550D01*
X105591491Y-55876651D01*
X105168966Y-55081998D01*
G37*
G36*
X103807498Y-52521450D02*
G01*
X105308509Y-51723349D01*
X105731034Y-52518002D01*
X104230023Y-53316103D01*
X103807498Y-52521450D01*
G37*
%TD*%
%TO.C,R306*%
G36*
X108868966Y-61981998D02*
G01*
X110369977Y-61183897D01*
X110792502Y-61978550D01*
X109291491Y-62776651D01*
X108868966Y-61981998D01*
G37*
G36*
X107507498Y-59421450D02*
G01*
X109008509Y-58623349D01*
X109431034Y-59418002D01*
X107930023Y-60216103D01*
X107507498Y-59421450D01*
G37*
%TD*%
%TO.C,R308*%
G36*
X112618966Y-68981998D02*
G01*
X114119977Y-68183897D01*
X114542502Y-68978550D01*
X113041491Y-69776651D01*
X112618966Y-68981998D01*
G37*
G36*
X111257498Y-66421450D02*
G01*
X112758509Y-65623349D01*
X113181034Y-66418002D01*
X111680023Y-67216103D01*
X111257498Y-66421450D01*
G37*
%TD*%
%TO.C,R310*%
G36*
X116268966Y-75981998D02*
G01*
X117769977Y-75183897D01*
X118192502Y-75978550D01*
X116691491Y-76776651D01*
X116268966Y-75981998D01*
G37*
G36*
X114907498Y-73421450D02*
G01*
X116408509Y-72623349D01*
X116831034Y-73418002D01*
X115330023Y-74216103D01*
X114907498Y-73421450D01*
G37*
%TD*%
%TO.C,R312*%
G36*
X119968966Y-82931998D02*
G01*
X121469977Y-82133897D01*
X121892502Y-82928550D01*
X120391491Y-83726651D01*
X119968966Y-82931998D01*
G37*
G36*
X118607498Y-80371450D02*
G01*
X120108509Y-79573349D01*
X120531034Y-80368002D01*
X119030023Y-81166103D01*
X118607498Y-80371450D01*
G37*
%TD*%
%TO.C,R314*%
G36*
X123668966Y-89981998D02*
G01*
X125169977Y-89183897D01*
X125592502Y-89978550D01*
X124091491Y-90776651D01*
X123668966Y-89981998D01*
G37*
G36*
X122307498Y-87421450D02*
G01*
X123808509Y-86623349D01*
X124231034Y-87418002D01*
X122730023Y-88216103D01*
X122307498Y-87421450D01*
G37*
%TD*%
%TO.C,R316*%
G36*
X127424703Y-97056998D02*
G01*
X128925714Y-96258897D01*
X129348239Y-97053550D01*
X127847228Y-97851651D01*
X127424703Y-97056998D01*
G37*
G36*
X126063235Y-94496450D02*
G01*
X127564246Y-93698349D01*
X127986771Y-94493002D01*
X126485760Y-95291103D01*
X126063235Y-94496450D01*
G37*
%TD*%
%TO.C,R318*%
G36*
X131068966Y-103931998D02*
G01*
X132569977Y-103133897D01*
X132992502Y-103928550D01*
X131491491Y-104726651D01*
X131068966Y-103931998D01*
G37*
G36*
X129707498Y-101371450D02*
G01*
X131208509Y-100573349D01*
X131631034Y-101368002D01*
X130130023Y-102166103D01*
X129707498Y-101371450D01*
G37*
%TD*%
%TO.C,R320*%
G36*
X134824703Y-111006998D02*
G01*
X136325714Y-110208897D01*
X136748239Y-111003550D01*
X135247228Y-111801651D01*
X134824703Y-111006998D01*
G37*
G36*
X133463235Y-108446450D02*
G01*
X134964246Y-107648349D01*
X135386771Y-108443002D01*
X133885760Y-109241103D01*
X133463235Y-108446450D01*
G37*
%TD*%
%TO.C,R322*%
G36*
X138518966Y-117981998D02*
G01*
X140019977Y-117183897D01*
X140442502Y-117978550D01*
X138941491Y-118776651D01*
X138518966Y-117981998D01*
G37*
G36*
X137157498Y-115421450D02*
G01*
X138658509Y-114623349D01*
X139081034Y-115418002D01*
X137580023Y-116216103D01*
X137157498Y-115421450D01*
G37*
%TD*%
%TO.C,R324*%
G36*
X142218966Y-124981998D02*
G01*
X143719977Y-124183897D01*
X144142502Y-124978550D01*
X142641491Y-125776651D01*
X142218966Y-124981998D01*
G37*
G36*
X140857498Y-122421450D02*
G01*
X142358509Y-121623349D01*
X142781034Y-122418002D01*
X141280023Y-123216103D01*
X140857498Y-122421450D01*
G37*
%TD*%
%TO.C,R602*%
G36*
X95750757Y-49573623D02*
G01*
X97251768Y-50371724D01*
X96829243Y-51166377D01*
X95328232Y-50368276D01*
X95750757Y-49573623D01*
G37*
G36*
X97112225Y-47013075D02*
G01*
X98613236Y-47811176D01*
X98190711Y-48605829D01*
X96689700Y-47807728D01*
X97112225Y-47013075D01*
G37*
%TD*%
%TO.C,R604*%
G36*
X93340023Y-54173897D02*
G01*
X94841034Y-54971998D01*
X94418509Y-55766651D01*
X92917498Y-54968550D01*
X93340023Y-54173897D01*
G37*
G36*
X94701491Y-51613349D02*
G01*
X96202502Y-52411450D01*
X95779977Y-53206103D01*
X94278966Y-52408002D01*
X94701491Y-51613349D01*
G37*
%TD*%
%TO.C,R606*%
G36*
X89590023Y-61133897D02*
G01*
X91091034Y-61931998D01*
X90668509Y-62726651D01*
X89167498Y-61928550D01*
X89590023Y-61133897D01*
G37*
G36*
X90951491Y-58573349D02*
G01*
X92452502Y-59371450D01*
X92029977Y-60166103D01*
X90528966Y-59368002D01*
X90951491Y-58573349D01*
G37*
%TD*%
%TO.C,R608*%
G36*
X85920023Y-68163897D02*
G01*
X87421034Y-68961998D01*
X86998509Y-69756651D01*
X85497498Y-68958550D01*
X85920023Y-68163897D01*
G37*
G36*
X87281491Y-65603349D02*
G01*
X88782502Y-66401450D01*
X88359977Y-67196103D01*
X86858966Y-66398002D01*
X87281491Y-65603349D01*
G37*
%TD*%
%TO.C,R610*%
G36*
X82210023Y-75193897D02*
G01*
X83711034Y-75991998D01*
X83288509Y-76786651D01*
X81787498Y-75988550D01*
X82210023Y-75193897D01*
G37*
G36*
X83571491Y-72633349D02*
G01*
X85072502Y-73431450D01*
X84649977Y-74226103D01*
X83148966Y-73428002D01*
X83571491Y-72633349D01*
G37*
%TD*%
%TO.C,R612*%
G36*
X78494286Y-82198897D02*
G01*
X79995297Y-82996998D01*
X79572772Y-83791651D01*
X78071761Y-82993550D01*
X78494286Y-82198897D01*
G37*
G36*
X79855754Y-79638349D02*
G01*
X81356765Y-80436450D01*
X80934240Y-81231103D01*
X79433229Y-80433002D01*
X79855754Y-79638349D01*
G37*
%TD*%
%TO.C,R614*%
G36*
X74790023Y-89173897D02*
G01*
X76291034Y-89971998D01*
X75868509Y-90766651D01*
X74367498Y-89968550D01*
X74790023Y-89173897D01*
G37*
G36*
X76151491Y-86613349D02*
G01*
X77652502Y-87411450D01*
X77229977Y-88206103D01*
X75728966Y-87408002D01*
X76151491Y-86613349D01*
G37*
%TD*%
%TO.C,R618*%
G36*
X67430023Y-103213897D02*
G01*
X68931034Y-104011998D01*
X68508509Y-104806651D01*
X67007498Y-104008550D01*
X67430023Y-103213897D01*
G37*
G36*
X68791491Y-100653349D02*
G01*
X70292502Y-101451450D01*
X69869977Y-102246103D01*
X68368966Y-101448002D01*
X68791491Y-100653349D01*
G37*
%TD*%
%TO.C,R622*%
G36*
X60100023Y-117163897D02*
G01*
X61601034Y-117961998D01*
X61178509Y-118756651D01*
X59677498Y-117958550D01*
X60100023Y-117163897D01*
G37*
G36*
X61461491Y-114603349D02*
G01*
X62962502Y-115401450D01*
X62539977Y-116196103D01*
X61038966Y-115398002D01*
X61461491Y-114603349D01*
G37*
%TD*%
%TO.C,R624*%
G36*
X56340023Y-124143897D02*
G01*
X57841034Y-124941998D01*
X57418509Y-125736651D01*
X55917498Y-124938550D01*
X56340023Y-124143897D01*
G37*
G36*
X57701491Y-121583349D02*
G01*
X59202502Y-122381450D01*
X58779977Y-123176103D01*
X57278966Y-122378002D01*
X57701491Y-121583349D01*
G37*
%TD*%
D13*
%TO.C,DL702*%
X100020000Y-38970000D03*
D14*
X100020000Y-36820000D03*
%TD*%
M02*
