M48
; DRILL file {KiCad (5.1.6-0-10_14)} date Friday, October 09, 2020 at 10:25:42 PM
; FORMAT={-:-/ absolute / metric / decimal}
; #@! TF.CreationDate,2020-10-09T22:25:42+02:00
; #@! TF.GenerationSoftware,Kicad,Pcbnew,(5.1.6-0-10_14)
; #@! TF.FileFunction,Plated,1,2,PTH
FMAT,2
METRIC
T1C0.400
T2C0.500
T3C0.700
T4C0.800
T5C1.000
%
G90
G05
T1
X57.36Y-123.73
X60.91Y-116.83
X61.76Y-112.17
X65.729Y-104.469
X69.5Y-98.07
X73.1Y-91.16
X76.834Y-83.784
X80.529Y-76.649
X82.0Y-113.24
X82.29Y-98.155
X84.2Y-111.28
X84.249Y-69.819
X84.81Y-100.55
X87.94Y-63.06
X88.14Y-104.69
X88.52Y-83.62
X88.775Y-79.515
X88.89Y-107.65
X89.114Y-122.982
X89.25Y-98.166
X89.357Y-126.947
X90.045Y-107.625
X90.1Y-97.64
X90.11Y-123.07
X91.64Y-55.53
X92.74Y-78.47
X92.84Y-104.67
X94.196Y-107.47
X94.21Y-85.8
X94.24Y-88.12
X95.41Y-79.79
X95.71Y-94.31
X95.72Y-69.624
X96.04Y-104.61
X97.1Y-87.13
X97.38Y-48.97
X98.39Y-55.59
X98.83Y-78.68
X99.022Y-86.642
X99.04Y-83.02
X99.3Y-51.409
X100.01Y-41.31
X100.668Y-73.058
X100.97Y-47.15
X101.26Y-87.59
X102.25Y-91.51
X102.251Y-87.722
X102.578Y-40.602
X103.01Y-48.97
X103.908Y-97.051
X104.25Y-79.62
X104.82Y-96.64
X105.258Y-57.462
X105.564Y-85.836
X106.57Y-85.82
X106.98Y-107.67
X107.8Y-106.95
X108.03Y-86.2
X108.32Y-56.03
X108.5Y-105.65
X108.64Y-83.06
X108.8Y-96.15
X109.05Y-97.4
X109.08Y-98.42
X109.2Y-104.5
X109.21Y-99.54
X109.52Y-127.23
X110.48Y-110.775
X110.94Y-101.325
X112.05Y-62.88
X112.995Y-121.697
X114.89Y-127.28
X115.78Y-69.96
X115.93Y-107.25
X116.406Y-108.13
X116.45Y-101.3
X116.5Y-100.15
X119.431Y-76.559
X119.44Y-98.84
X120.51Y-98.84
X120.958Y-106.063
X123.131Y-83.461
X126.83Y-90.63
X128.31Y-98.6
X134.231Y-105.219
X135.65Y-109.55
X138.88Y-116.84
X142.5Y-123.81
T2
X59.09Y-124.93
X61.54Y-120.31
X65.169Y-113.429
X68.98Y-106.22
X72.53Y-99.47
X76.21Y-92.54
X79.997Y-85.377
X83.33Y-110.04
X83.66Y-78.45
X83.99Y-92.53
X87.355Y-71.485
X91.01Y-64.58
X94.25Y-119.35
X94.71Y-57.58
X97.221Y-52.209
X102.47Y-52.19
X108.92Y-64.35
X112.694Y-71.526
X115.116Y-110.467
X116.37Y-78.48
X119.95Y-85.25
X123.709Y-92.361
X126.334Y-97.296
X129.799Y-103.849
X133.52Y-110.9
X137.213Y-117.867
X141.0Y-125.04
T3
X87.2Y-123.05
X87.2Y-127.35
X92.0Y-123.05
X92.0Y-127.35
T4
X126.708Y-126.266
X129.248Y-126.266
X131.788Y-126.266
X78.23Y-126.7
X80.77Y-126.7
T5
X102.1Y-111.69
X102.1Y-116.77
X102.1Y-119.31
X97.9Y-60.89
X97.9Y-63.43
X97.9Y-65.97
X97.9Y-68.51
X97.9Y-111.69
X97.9Y-114.23
X97.9Y-116.77
X97.9Y-119.31
X100.0Y-96.12
X100.0Y-98.66
X100.0Y-101.2
X100.0Y-103.74
X100.0Y-106.28
X102.1Y-60.89
X102.1Y-63.43
X102.1Y-65.97
X102.1Y-68.51
X102.1Y-114.23
T0
M30
