%TF.GenerationSoftware,KiCad,Pcbnew,(5.1.6-0-10_14)*%
%TF.CreationDate,2020-10-09T22:40:52+02:00*%
%TF.ProjectId,nowae029,6e6f7761-6530-4323-992e-6b696361645f,0*%
%TF.SameCoordinates,Original*%
%TF.FileFunction,Legend,Bot*%
%TF.FilePolarity,Positive*%
%FSLAX46Y46*%
G04 Gerber Fmt 4.6, Leading zero omitted, Abs format (unit mm)*
G04 Created by KiCad (PCBNEW (5.1.6-0-10_14)) date 2020-10-09 22:40:52*
%MOMM*%
%LPD*%
G01*
G04 APERTURE LIST*
%ADD10C,0.050000*%
%TA.AperFunction,Profile*%
%ADD11C,0.050000*%
%TD*%
%TA.AperFunction,Profile*%
%ADD12C,0.200000*%
%TD*%
%ADD13C,0.150000*%
G04 APERTURE END LIST*
D10*
G36*
X102370000Y-34770000D02*
G01*
X107560000Y-35490000D01*
X103830000Y-39170000D01*
X104750000Y-44320000D01*
X100110000Y-41930000D01*
X95500000Y-44390000D01*
X96330000Y-39220000D01*
X92550000Y-35590000D01*
X97730000Y-34800000D01*
X100020000Y-30080000D01*
X102370000Y-34770000D01*
G37*
X102370000Y-34770000D02*
X107560000Y-35490000D01*
X103830000Y-39170000D01*
X104750000Y-44320000D01*
X100110000Y-41930000D01*
X95500000Y-44390000D01*
X96330000Y-39220000D01*
X92550000Y-35590000D01*
X97730000Y-34800000D01*
X100020000Y-30080000D01*
X102370000Y-34770000D01*
D11*
X95849877Y-42393418D02*
X96326817Y-39221785D01*
X107560690Y-35486081D02*
X103832837Y-39170169D01*
X102368975Y-34768100D02*
X107560690Y-35486081D01*
X96326817Y-39221785D02*
X92548651Y-35589313D01*
X92548651Y-35589313D02*
X97730000Y-34800000D01*
X95849877Y-42393418D02*
X94417635Y-45086053D01*
X94417635Y-45086053D02*
X92985389Y-47778769D01*
X92985389Y-47778769D02*
X91553138Y-50471647D01*
X91553138Y-50471647D02*
X90120876Y-53164768D01*
X90120876Y-53164768D02*
X88688601Y-55858214D01*
X88688601Y-55858214D02*
X87256309Y-58552065D01*
X87256309Y-58552065D02*
X85823997Y-61246402D01*
X85823997Y-61246402D02*
X84391662Y-63941307D01*
X84391662Y-63941307D02*
X82959301Y-66636860D01*
X82959301Y-66636860D02*
X81526909Y-69333143D01*
X81526909Y-69333143D02*
X80094484Y-72030236D01*
X80094484Y-72030236D02*
X78662023Y-74728221D01*
X78662023Y-74728221D02*
X77229522Y-77427179D01*
X77229522Y-77427179D02*
X75796977Y-80127190D01*
X75796977Y-80127190D02*
X74364387Y-82828336D01*
X74364387Y-82828336D02*
X72931746Y-85530699D01*
X72931746Y-85530699D02*
X71499052Y-88234358D01*
X71499052Y-88234358D02*
X70066301Y-90939395D01*
X70066301Y-90939395D02*
X68633491Y-93645891D01*
X68633491Y-93645891D02*
X67200617Y-96353928D01*
X67200617Y-96353928D02*
X65767678Y-99063585D01*
X65767678Y-99063585D02*
X64334668Y-101774945D01*
X64334668Y-101774945D02*
X62901585Y-104488088D01*
X62901585Y-104488088D02*
X61468426Y-107203095D01*
X61468426Y-107203095D02*
X60035186Y-109920048D01*
X60035186Y-109920048D02*
X58601864Y-112639028D01*
X58601864Y-112639028D02*
X57168456Y-115360115D01*
X57168456Y-115360115D02*
X55734957Y-118083390D01*
X55734957Y-118083390D02*
X54301366Y-120808935D01*
X54301366Y-120808935D02*
X52867678Y-123536831D01*
X52867678Y-123536831D02*
X51433890Y-126267159D01*
X51433890Y-126267159D02*
X50000000Y-129000000D01*
X103832837Y-39170169D02*
X104449243Y-42890699D01*
X100017169Y-30084255D02*
X102368975Y-34768100D01*
X104449243Y-42890699D02*
X150000000Y-129000000D01*
X97730000Y-34800000D02*
X100017169Y-30084255D01*
X148000000Y-129000000D02*
X150000000Y-129000000D01*
X148000000Y-130000000D02*
X148000000Y-129000000D01*
X146000000Y-130000000D02*
X148000000Y-130000000D01*
X146000000Y-129000000D02*
X146000000Y-130000000D01*
X102000000Y-129000000D02*
X146000000Y-129000000D01*
X102000000Y-130000000D02*
X102000000Y-129000000D01*
X98000000Y-130000000D02*
X102000000Y-130000000D01*
X98000000Y-129000000D02*
X98000000Y-130000000D01*
X54000000Y-129000000D02*
X98000000Y-129000000D01*
X54000000Y-130000000D02*
X54000000Y-129000000D01*
X52000000Y-130000000D02*
X54000000Y-130000000D01*
X52000000Y-129000000D02*
X52000000Y-130000000D01*
X50000000Y-129000000D02*
X52000000Y-129000000D01*
D12*
X268944859Y-318881889D02*
X268944859Y-318881889D01*
D13*
%TO.C,R616*%
X72383498Y-97515241D02*
X73885807Y-94689808D01*
X72296502Y-93844759D02*
X70794193Y-96670192D01*
%TO.C,R620*%
X64993498Y-111545241D02*
X66495807Y-108719808D01*
X64906502Y-107874759D02*
X63404193Y-110700192D01*
%TO.C,DL620*%
X62598207Y-106637812D02*
X61095898Y-109463245D01*
X62861793Y-110402188D02*
X64364102Y-107576755D01*
X62542211Y-108873179D02*
X63447557Y-108448504D01*
X62388020Y-107885138D02*
X62542211Y-108873179D01*
%TO.C,DL302*%
X102315898Y-44556755D02*
X103818207Y-47382188D01*
X105584102Y-46443245D02*
X104081793Y-43617812D01*
X104137789Y-45853179D02*
X104291980Y-44865138D01*
X103232443Y-45428504D02*
X104137789Y-45853179D01*
%TO.C,DL304*%
X106015898Y-51656755D02*
X107518207Y-54482188D01*
X109284102Y-53543245D02*
X107781793Y-50717812D01*
X107837789Y-52953179D02*
X107991980Y-51965138D01*
X106932443Y-52528504D02*
X107837789Y-52953179D01*
%TO.C,DL306*%
X109735164Y-58576481D02*
X111237473Y-61401914D01*
X113003368Y-60462971D02*
X111501059Y-57637538D01*
X111557055Y-59872905D02*
X111711246Y-58884864D01*
X110651709Y-59448230D02*
X111557055Y-59872905D01*
%TO.C,DL308*%
X113460161Y-65581755D02*
X114962470Y-68407188D01*
X116728365Y-67468245D02*
X115226056Y-64642812D01*
X115282052Y-66878179D02*
X115436243Y-65890138D01*
X114376706Y-66453504D02*
X115282052Y-66878179D01*
%TO.C,DL310*%
X117115898Y-72556755D02*
X118618207Y-75382188D01*
X120384102Y-74443245D02*
X118881793Y-71617812D01*
X118937789Y-73853179D02*
X119091980Y-72865138D01*
X118032443Y-73428504D02*
X118937789Y-73853179D01*
%TO.C,DL312*%
X120815898Y-79556755D02*
X122318207Y-82382188D01*
X124084102Y-81443245D02*
X122581793Y-78617812D01*
X122637789Y-80853179D02*
X122791980Y-79865138D01*
X121732443Y-80428504D02*
X122637789Y-80853179D01*
%TO.C,DL314*%
X124515898Y-86556755D02*
X126018207Y-89382188D01*
X127784102Y-88443245D02*
X126281793Y-85617812D01*
X126337789Y-87853179D02*
X126491980Y-86865138D01*
X125432443Y-87428504D02*
X126337789Y-87853179D01*
%TO.C,DL316*%
X128265898Y-93606755D02*
X129768207Y-96432188D01*
X131534102Y-95493245D02*
X130031793Y-92667812D01*
X130087789Y-94903179D02*
X130241980Y-93915138D01*
X129182443Y-94478504D02*
X130087789Y-94903179D01*
%TO.C,DL318*%
X131915898Y-100556755D02*
X133418207Y-103382188D01*
X135184102Y-102443245D02*
X133681793Y-99617812D01*
X133737789Y-101853179D02*
X133891980Y-100865138D01*
X132832443Y-101428504D02*
X133737789Y-101853179D01*
%TO.C,DL320*%
X135665898Y-107556755D02*
X137168207Y-110382188D01*
X138934102Y-109443245D02*
X137431793Y-106617812D01*
X137487789Y-108853179D02*
X137641980Y-107865138D01*
X136582443Y-108428504D02*
X137487789Y-108853179D01*
%TO.C,DL322*%
X139365898Y-114556755D02*
X140868207Y-117382188D01*
X142634102Y-116443245D02*
X141131793Y-113617812D01*
X141187789Y-115853179D02*
X141341980Y-114865138D01*
X140282443Y-115428504D02*
X141187789Y-115853179D01*
%TO.C,DL324*%
X143065898Y-121556755D02*
X144568207Y-124382188D01*
X146334102Y-123443245D02*
X144831793Y-120617812D01*
X144887789Y-122853179D02*
X145041980Y-121865138D01*
X143982443Y-122428504D02*
X144887789Y-122853179D01*
%TO.C,DL602*%
X95908941Y-43607538D02*
X94406632Y-46432971D01*
X96172527Y-47371914D02*
X97674836Y-44546481D01*
X95852945Y-45842905D02*
X96758291Y-45418230D01*
X95698754Y-44854864D02*
X95852945Y-45842905D01*
%TO.C,DL604*%
X92208207Y-50627812D02*
X90705898Y-53453245D01*
X92471793Y-54392188D02*
X93974102Y-51566755D01*
X92152211Y-52863179D02*
X93057557Y-52438504D01*
X91998020Y-51875138D02*
X92152211Y-52863179D01*
%TO.C,DL606*%
X88488941Y-57597538D02*
X86986632Y-60422971D01*
X88752527Y-61361914D02*
X90254836Y-58536481D01*
X88432945Y-59832905D02*
X89338291Y-59408230D01*
X88278754Y-58844864D02*
X88432945Y-59832905D01*
%TO.C,DL608*%
X84798207Y-64647812D02*
X83295898Y-67473245D01*
X85061793Y-68412188D02*
X86564102Y-65586755D01*
X84742211Y-66883179D02*
X85647557Y-66458504D01*
X84588020Y-65895138D02*
X84742211Y-66883179D01*
%TO.C,DL610*%
X81068207Y-71627812D02*
X79565898Y-74453245D01*
X81331793Y-75392188D02*
X82834102Y-72566755D01*
X81012211Y-73863179D02*
X81917557Y-73438504D01*
X80858020Y-72875138D02*
X81012211Y-73863179D01*
%TO.C,DL612*%
X77388207Y-78647812D02*
X75885898Y-81473245D01*
X77651793Y-82412188D02*
X79154102Y-79586755D01*
X77332211Y-80883179D02*
X78237557Y-80458504D01*
X77178020Y-79895138D02*
X77332211Y-80883179D01*
%TO.C,DL614*%
X73668207Y-85627812D02*
X72165898Y-88453245D01*
X73931793Y-89392188D02*
X75434102Y-86566755D01*
X73612211Y-87863179D02*
X74517557Y-87438504D01*
X73458020Y-86875138D02*
X73612211Y-87863179D01*
%TO.C,DL616*%
X70018207Y-92617812D02*
X68515898Y-95443245D01*
X70281793Y-96382188D02*
X71784102Y-93556755D01*
X69962211Y-94853179D02*
X70867557Y-94428504D01*
X69808020Y-93865138D02*
X69962211Y-94853179D01*
%TO.C,DL618*%
X66278207Y-99627812D02*
X64775898Y-102453245D01*
X66541793Y-103392188D02*
X68044102Y-100566755D01*
X66222211Y-101863179D02*
X67127557Y-101438504D01*
X66068020Y-100875138D02*
X66222211Y-101863179D01*
%TO.C,DL622*%
X58933944Y-113612812D02*
X57431635Y-116438245D01*
X59197530Y-117377188D02*
X60699839Y-114551755D01*
X58877948Y-115848179D02*
X59783294Y-115423504D01*
X58723757Y-114860138D02*
X58877948Y-115848179D01*
%TO.C,DL624*%
X55208207Y-120597812D02*
X53705898Y-123423245D01*
X55471793Y-124362188D02*
X56974102Y-121536755D01*
X55152211Y-122833179D02*
X56057557Y-122408504D01*
X54998020Y-121845138D02*
X55152211Y-122833179D01*
%TO.C,R302*%
X104595807Y-50140192D02*
X103093498Y-47314759D01*
X101504193Y-48159808D02*
X103006502Y-50985241D01*
%TO.C,R304*%
X106995807Y-54790192D02*
X105493498Y-51964759D01*
X103904193Y-52809808D02*
X105406502Y-55635241D01*
%TO.C,R306*%
X110695807Y-61690192D02*
X109193498Y-58864759D01*
X107604193Y-59709808D02*
X109106502Y-62535241D01*
%TO.C,R308*%
X114445807Y-68690192D02*
X112943498Y-65864759D01*
X111354193Y-66709808D02*
X112856502Y-69535241D01*
%TO.C,R310*%
X118095807Y-75690192D02*
X116593498Y-72864759D01*
X115004193Y-73709808D02*
X116506502Y-76535241D01*
%TO.C,R312*%
X121795807Y-82640192D02*
X120293498Y-79814759D01*
X118704193Y-80659808D02*
X120206502Y-83485241D01*
%TO.C,R314*%
X125495807Y-89690192D02*
X123993498Y-86864759D01*
X122404193Y-87709808D02*
X123906502Y-90535241D01*
%TO.C,R316*%
X129251544Y-96765192D02*
X127749235Y-93939759D01*
X126159930Y-94784808D02*
X127662239Y-97610241D01*
%TO.C,R318*%
X132895807Y-103640192D02*
X131393498Y-100814759D01*
X129804193Y-101659808D02*
X131306502Y-104485241D01*
%TO.C,R320*%
X136651544Y-110715192D02*
X135149235Y-107889759D01*
X133559930Y-108734808D02*
X135062239Y-111560241D01*
%TO.C,R322*%
X140345807Y-117690192D02*
X138843498Y-114864759D01*
X137254193Y-115709808D02*
X138756502Y-118535241D01*
%TO.C,R324*%
X144045807Y-124690192D02*
X142543498Y-121864759D01*
X140954193Y-122709808D02*
X142456502Y-125535241D01*
%TO.C,R602*%
X97014232Y-50924967D02*
X98516541Y-48099534D01*
X96927236Y-47254485D02*
X95424927Y-50079918D01*
%TO.C,R604*%
X94603498Y-55525241D02*
X96105807Y-52699808D01*
X94516502Y-51854759D02*
X93014193Y-54680192D01*
%TO.C,R606*%
X90853498Y-62485241D02*
X92355807Y-59659808D01*
X90766502Y-58814759D02*
X89264193Y-61640192D01*
%TO.C,R608*%
X87183498Y-69515241D02*
X88685807Y-66689808D01*
X87096502Y-65844759D02*
X85594193Y-68670192D01*
%TO.C,R610*%
X83473498Y-76545241D02*
X84975807Y-73719808D01*
X83386502Y-72874759D02*
X81884193Y-75700192D01*
%TO.C,R612*%
X79757761Y-83550241D02*
X81260070Y-80724808D01*
X79670765Y-79879759D02*
X78168456Y-82705192D01*
%TO.C,R614*%
X76053498Y-90525241D02*
X77555807Y-87699808D01*
X75966502Y-86854759D02*
X74464193Y-89680192D01*
%TO.C,R618*%
X68693498Y-104565241D02*
X70195807Y-101739808D01*
X68606502Y-100894759D02*
X67104193Y-103720192D01*
%TO.C,R622*%
X61363498Y-118515241D02*
X62865807Y-115689808D01*
X61276502Y-114844759D02*
X59774193Y-117670192D01*
%TO.C,R624*%
X57603498Y-125495241D02*
X59105807Y-122669808D01*
X57516502Y-121824759D02*
X56014193Y-124650192D01*
%TO.C,P102*%
X100800000Y-120600000D02*
X103400000Y-120600000D01*
X100800000Y-110400000D02*
X100800000Y-120600000D01*
X103400000Y-110400000D02*
X100800000Y-110400000D01*
X103400000Y-120600000D02*
X103400000Y-110400000D01*
X103400000Y-118100000D02*
X100800000Y-118100000D01*
%TO.C,P103*%
X103400000Y-67300000D02*
X100800000Y-67300000D01*
X103400000Y-69800000D02*
X103400000Y-59600000D01*
X103400000Y-59600000D02*
X100800000Y-59600000D01*
X100800000Y-59600000D02*
X100800000Y-69800000D01*
X100800000Y-69800000D02*
X103400000Y-69800000D01*
%TO.C,DL702*%
X99320000Y-36690000D02*
X99620000Y-36690000D01*
X100720000Y-36690000D02*
X100420000Y-36690000D01*
X99320000Y-39490000D02*
X99620000Y-39490000D01*
X100720000Y-39490000D02*
X100420000Y-39490000D01*
X100720000Y-39490000D02*
X100720000Y-36690000D01*
X99320000Y-39490000D02*
X99320000Y-36690000D01*
%TD*%
%TO.C,R616*%
X71339831Y-98379456D02*
X71128663Y-97965157D01*
X71554447Y-97975823D02*
X70848089Y-97600246D01*
X70705012Y-97869335D01*
X70702879Y-97954491D01*
X70718630Y-98006012D01*
X70768018Y-98075417D01*
X70868926Y-98129071D01*
X70954083Y-98131205D01*
X71005603Y-98115453D01*
X71075009Y-98066065D01*
X71218086Y-97796977D01*
X70311550Y-98609329D02*
X70383088Y-98474784D01*
X70452494Y-98425397D01*
X70504014Y-98409645D01*
X70640692Y-98396027D01*
X70793121Y-98433929D01*
X71062210Y-98577006D01*
X71111597Y-98646412D01*
X71127349Y-98697933D01*
X71125216Y-98783089D01*
X71053677Y-98917634D01*
X70984272Y-98967021D01*
X70932751Y-98982773D01*
X70847594Y-98980640D01*
X70679414Y-98891216D01*
X70630026Y-98821811D01*
X70614275Y-98770290D01*
X70616408Y-98685134D01*
X70687946Y-98550589D01*
X70757352Y-98501202D01*
X70808873Y-98485450D01*
X70894029Y-98487583D01*
X70624446Y-99724900D02*
X70839062Y-99321267D01*
X70731754Y-99523084D02*
X70025396Y-99147506D01*
X70162073Y-99133888D01*
X70265115Y-99102385D01*
X70334520Y-99052997D01*
X69596165Y-99954773D02*
X69667703Y-99820228D01*
X69737108Y-99770841D01*
X69788629Y-99755089D01*
X69925307Y-99741471D01*
X70077736Y-99779373D01*
X70346825Y-99922450D01*
X70396212Y-99991856D01*
X70411964Y-100043376D01*
X70409830Y-100128533D01*
X70338292Y-100263078D01*
X70268887Y-100312465D01*
X70217366Y-100328217D01*
X70132209Y-100326084D01*
X69964029Y-100236660D01*
X69914641Y-100167255D01*
X69898889Y-100115734D01*
X69901023Y-100030578D01*
X69972561Y-99896033D01*
X70041967Y-99846646D01*
X70093487Y-99830894D01*
X70178644Y-99833027D01*
%TO.C,R620*%
X63939831Y-112379455D02*
X63728663Y-111965156D01*
X64154447Y-111975822D02*
X63448089Y-111600245D01*
X63305012Y-111869334D01*
X63302879Y-111954490D01*
X63318630Y-112006011D01*
X63368018Y-112075416D01*
X63468926Y-112129070D01*
X63554083Y-112131204D01*
X63605603Y-112115452D01*
X63675009Y-112066064D01*
X63818086Y-111796976D01*
X62911550Y-112609328D02*
X62983088Y-112474783D01*
X63052494Y-112425396D01*
X63104014Y-112409644D01*
X63240692Y-112396026D01*
X63393121Y-112433928D01*
X63662210Y-112577005D01*
X63711597Y-112646411D01*
X63727349Y-112697932D01*
X63725216Y-112783088D01*
X63653677Y-112917633D01*
X63584272Y-112967020D01*
X63532751Y-112982772D01*
X63447594Y-112980639D01*
X63279414Y-112891215D01*
X63230026Y-112821810D01*
X63214275Y-112770289D01*
X63216408Y-112685133D01*
X63287946Y-112550588D01*
X63357352Y-112501201D01*
X63408873Y-112485449D01*
X63494029Y-112487582D01*
X62799976Y-112981458D02*
X62748455Y-112997209D01*
X62679050Y-113046597D01*
X62589626Y-113214777D01*
X62587493Y-113299934D01*
X62603245Y-113351455D01*
X62652632Y-113420860D01*
X62719905Y-113456630D01*
X62838697Y-113476647D01*
X63456946Y-113287630D01*
X63224446Y-113724899D01*
X62285588Y-113786591D02*
X62249818Y-113853863D01*
X62247685Y-113939020D01*
X62263437Y-113990541D01*
X62312824Y-114059946D01*
X62429484Y-114165121D01*
X62597665Y-114254544D01*
X62750094Y-114292446D01*
X62835250Y-114294580D01*
X62886771Y-114278828D01*
X62956177Y-114229441D01*
X62991946Y-114162168D01*
X62994079Y-114077012D01*
X62978328Y-114025491D01*
X62928940Y-113956085D01*
X62812280Y-113850911D01*
X62644100Y-113761488D01*
X62491671Y-113723585D01*
X62406514Y-113721452D01*
X62354993Y-113737204D01*
X62285588Y-113786591D01*
%TO.C,DL620*%
X63006466Y-111189915D02*
X62300108Y-110814338D01*
X62210685Y-110982518D01*
X62190667Y-111101311D01*
X62222170Y-111204353D01*
X62271558Y-111273758D01*
X62388217Y-111378933D01*
X62489126Y-111432587D01*
X62641555Y-111470489D01*
X62726712Y-111472622D01*
X62829753Y-111441119D01*
X62917043Y-111358096D01*
X63006466Y-111189915D01*
X62452043Y-112232634D02*
X62630889Y-111896273D01*
X61924531Y-111520696D01*
X61459530Y-112395235D02*
X61531069Y-112260690D01*
X61600474Y-112211303D01*
X61651995Y-112195551D01*
X61788673Y-112181933D01*
X61941102Y-112219835D01*
X62210190Y-112362912D01*
X62259578Y-112432318D01*
X62275329Y-112483838D01*
X62273196Y-112568995D01*
X62201658Y-112703540D01*
X62132252Y-112752927D01*
X62080732Y-112768679D01*
X61995575Y-112766545D01*
X61827394Y-112677122D01*
X61778007Y-112607717D01*
X61762255Y-112556196D01*
X61764389Y-112471039D01*
X61835927Y-112336495D01*
X61905332Y-112287107D01*
X61956853Y-112271356D01*
X62042010Y-112273489D01*
X61347956Y-112767365D02*
X61296436Y-112783116D01*
X61227030Y-112832504D01*
X61137607Y-113000684D01*
X61135474Y-113085841D01*
X61151225Y-113137362D01*
X61200613Y-113206767D01*
X61267885Y-113242536D01*
X61386678Y-113262554D01*
X62004927Y-113073537D01*
X61772427Y-113510806D01*
X60833568Y-113572498D02*
X60797799Y-113639770D01*
X60795666Y-113724927D01*
X60811417Y-113776448D01*
X60860805Y-113845853D01*
X60977465Y-113951028D01*
X61145645Y-114040451D01*
X61298074Y-114078353D01*
X61383231Y-114080486D01*
X61434752Y-114064735D01*
X61504157Y-114015347D01*
X61539926Y-113948075D01*
X61542060Y-113862918D01*
X61526308Y-113811398D01*
X61476921Y-113741992D01*
X61360261Y-113636818D01*
X61192080Y-113547395D01*
X61039651Y-113509492D01*
X60954494Y-113507359D01*
X60902974Y-113523110D01*
X60833568Y-113572498D01*
X61985407Y-110691251D02*
X61279049Y-110315674D01*
X61680549Y-110615446D02*
X61842330Y-110960340D01*
X61371424Y-110709955D02*
X61783590Y-110583943D01*
%TO.C,DL302*%
X105367380Y-51149892D02*
X106073738Y-50774315D01*
X105984315Y-50606134D01*
X105897025Y-50523110D01*
X105793984Y-50491607D01*
X105708827Y-50493741D01*
X105556398Y-50531643D01*
X105455490Y-50585297D01*
X105338830Y-50690472D01*
X105289442Y-50759877D01*
X105257939Y-50862918D01*
X105277957Y-50981711D01*
X105367380Y-51149892D01*
X104812957Y-50107173D02*
X104991803Y-50443534D01*
X105698161Y-50067957D01*
X105429892Y-49563415D02*
X105197391Y-49126146D01*
X105053495Y-49504675D01*
X104999841Y-49403767D01*
X104930436Y-49354380D01*
X104878915Y-49338628D01*
X104793758Y-49340761D01*
X104625578Y-49430184D01*
X104576190Y-49499590D01*
X104560439Y-49551111D01*
X104562572Y-49636267D01*
X104669880Y-49838084D01*
X104739285Y-49887472D01*
X104790806Y-49903223D01*
X104964891Y-48688876D02*
X104929122Y-48621604D01*
X104859717Y-48572217D01*
X104808196Y-48556465D01*
X104723039Y-48558598D01*
X104570610Y-48596501D01*
X104402430Y-48685924D01*
X104285770Y-48791099D01*
X104236382Y-48860504D01*
X104220631Y-48912025D01*
X104222764Y-48997182D01*
X104258533Y-49064454D01*
X104327939Y-49113841D01*
X104379459Y-49129593D01*
X104464616Y-49127460D01*
X104617045Y-49089557D01*
X104785226Y-49000134D01*
X104901885Y-48894959D01*
X104951273Y-48825554D01*
X104967024Y-48774033D01*
X104964891Y-48688876D01*
X104629350Y-48220104D02*
X104645101Y-48168584D01*
X104642968Y-48083427D01*
X104553545Y-47915246D01*
X104484139Y-47865859D01*
X104432619Y-47850107D01*
X104347462Y-47852240D01*
X104280190Y-47888010D01*
X104197166Y-47975300D01*
X104008148Y-48593548D01*
X103775648Y-48156279D01*
X104819785Y-47906704D02*
X105526143Y-47531127D01*
X105053104Y-47696355D02*
X104676708Y-47637615D01*
X105147613Y-47387230D02*
X105021601Y-47799396D01*
%TO.C,DL304*%
X109067380Y-58249892D02*
X109773738Y-57874315D01*
X109684315Y-57706134D01*
X109597025Y-57623110D01*
X109493984Y-57591607D01*
X109408827Y-57593741D01*
X109256398Y-57631643D01*
X109155490Y-57685297D01*
X109038830Y-57790472D01*
X108989442Y-57859877D01*
X108957939Y-57962918D01*
X108977957Y-58081711D01*
X109067380Y-58249892D01*
X108512957Y-57207173D02*
X108691803Y-57543534D01*
X109398161Y-57167957D01*
X109129892Y-56663415D02*
X108897391Y-56226146D01*
X108753495Y-56604675D01*
X108699841Y-56503767D01*
X108630436Y-56454380D01*
X108578915Y-56438628D01*
X108493758Y-56440761D01*
X108325578Y-56530184D01*
X108276190Y-56599590D01*
X108260439Y-56651111D01*
X108262572Y-56736267D01*
X108369880Y-56938084D01*
X108439285Y-56987472D01*
X108490806Y-57003223D01*
X108664891Y-55788876D02*
X108629122Y-55721604D01*
X108559717Y-55672217D01*
X108508196Y-55656465D01*
X108423039Y-55658598D01*
X108270610Y-55696501D01*
X108102430Y-55785924D01*
X107985770Y-55891099D01*
X107936382Y-55960504D01*
X107920631Y-56012025D01*
X107922764Y-56097182D01*
X107958533Y-56164454D01*
X108027939Y-56213841D01*
X108079459Y-56229593D01*
X108164616Y-56227460D01*
X108317045Y-56189557D01*
X108485226Y-56100134D01*
X108601885Y-55994959D01*
X108651273Y-55925554D01*
X108667024Y-55874033D01*
X108664891Y-55788876D01*
X107982323Y-55073166D02*
X107511417Y-55323551D01*
X108340835Y-55098270D02*
X107925716Y-55534720D01*
X107693216Y-55097451D01*
X108519785Y-55006704D02*
X109226143Y-54631127D01*
X108753104Y-54796355D02*
X108376708Y-54737615D01*
X108847613Y-54487230D02*
X108721601Y-54899396D01*
%TO.C,DL306*%
X112767380Y-65149892D02*
X113473738Y-64774315D01*
X113384315Y-64606134D01*
X113297025Y-64523110D01*
X113193984Y-64491607D01*
X113108827Y-64493741D01*
X112956398Y-64531643D01*
X112855490Y-64585297D01*
X112738830Y-64690472D01*
X112689442Y-64759877D01*
X112657939Y-64862918D01*
X112677957Y-64981711D01*
X112767380Y-65149892D01*
X112212957Y-64107173D02*
X112391803Y-64443534D01*
X113098161Y-64067957D01*
X112829892Y-63563415D02*
X112597391Y-63126146D01*
X112453495Y-63504675D01*
X112399841Y-63403767D01*
X112330436Y-63354380D01*
X112278915Y-63338628D01*
X112193758Y-63340761D01*
X112025578Y-63430184D01*
X111976190Y-63499590D01*
X111960439Y-63551111D01*
X111962572Y-63636267D01*
X112069880Y-63838084D01*
X112139285Y-63887472D01*
X112190806Y-63903223D01*
X112364891Y-62688876D02*
X112329122Y-62621604D01*
X112259717Y-62572217D01*
X112208196Y-62556465D01*
X112123039Y-62558598D01*
X111970610Y-62596501D01*
X111802430Y-62685924D01*
X111685770Y-62791099D01*
X111636382Y-62860504D01*
X111620631Y-62912025D01*
X111622764Y-62997182D01*
X111658533Y-63064454D01*
X111727939Y-63113841D01*
X111779459Y-63129593D01*
X111864616Y-63127460D01*
X112017045Y-63089557D01*
X112185226Y-63000134D01*
X112301885Y-62894959D01*
X112351273Y-62825554D01*
X112367024Y-62774033D01*
X112364891Y-62688876D01*
X111917776Y-61847974D02*
X111989314Y-61982518D01*
X111991447Y-62067675D01*
X111975696Y-62119196D01*
X111910557Y-62240122D01*
X111793897Y-62345297D01*
X111524808Y-62488374D01*
X111439651Y-62490507D01*
X111388131Y-62474755D01*
X111318725Y-62425368D01*
X111247187Y-62290823D01*
X111245054Y-62205667D01*
X111260805Y-62154146D01*
X111310193Y-62084741D01*
X111478373Y-61995317D01*
X111563530Y-61993184D01*
X111615051Y-62008936D01*
X111684456Y-62058323D01*
X111755995Y-62192868D01*
X111758128Y-62278024D01*
X111742376Y-62329545D01*
X111692989Y-62398951D01*
X112239051Y-61926430D02*
X112945409Y-61550853D01*
X112472370Y-61716081D02*
X112095974Y-61657341D01*
X112566879Y-61406956D02*
X112440867Y-61819122D01*
%TO.C,DL308*%
X116467380Y-72149892D02*
X117173738Y-71774315D01*
X117084315Y-71606134D01*
X116997025Y-71523110D01*
X116893984Y-71491607D01*
X116808827Y-71493741D01*
X116656398Y-71531643D01*
X116555490Y-71585297D01*
X116438830Y-71690472D01*
X116389442Y-71759877D01*
X116357939Y-71862918D01*
X116377957Y-71981711D01*
X116467380Y-72149892D01*
X115912957Y-71107173D02*
X116091803Y-71443534D01*
X116798161Y-71067957D01*
X116529892Y-70563415D02*
X116297391Y-70126146D01*
X116153495Y-70504675D01*
X116099841Y-70403767D01*
X116030436Y-70354380D01*
X115978915Y-70338628D01*
X115893758Y-70340761D01*
X115725578Y-70430184D01*
X115676190Y-70499590D01*
X115660439Y-70551111D01*
X115662572Y-70636267D01*
X115769880Y-70838084D01*
X115839285Y-70887472D01*
X115890806Y-70903223D01*
X116064891Y-69688876D02*
X116029122Y-69621604D01*
X115959717Y-69572217D01*
X115908196Y-69556465D01*
X115823039Y-69558598D01*
X115670610Y-69596501D01*
X115502430Y-69685924D01*
X115385770Y-69791099D01*
X115336382Y-69860504D01*
X115320631Y-69912025D01*
X115322764Y-69997182D01*
X115358533Y-70064454D01*
X115427939Y-70113841D01*
X115479459Y-70129593D01*
X115564616Y-70127460D01*
X115717045Y-70089557D01*
X115885226Y-70000134D01*
X116001885Y-69894959D01*
X116051273Y-69825554D01*
X116067024Y-69774033D01*
X116064891Y-69688876D01*
X115422358Y-69210752D02*
X115491764Y-69260140D01*
X115543284Y-69275891D01*
X115628441Y-69273758D01*
X115662077Y-69255874D01*
X115711465Y-69186468D01*
X115727216Y-69134947D01*
X115725083Y-69049791D01*
X115653545Y-68915246D01*
X115584139Y-68865859D01*
X115532619Y-68850107D01*
X115447462Y-68852240D01*
X115413826Y-68870125D01*
X115364438Y-68939530D01*
X115348687Y-68991051D01*
X115350820Y-69076208D01*
X115422358Y-69210752D01*
X115424492Y-69295909D01*
X115408740Y-69347430D01*
X115359353Y-69416835D01*
X115224808Y-69488374D01*
X115139651Y-69490507D01*
X115088131Y-69474755D01*
X115018725Y-69425368D01*
X114947187Y-69290823D01*
X114945054Y-69205667D01*
X114960805Y-69154146D01*
X115010193Y-69084741D01*
X115144737Y-69013202D01*
X115229894Y-69011069D01*
X115281415Y-69026820D01*
X115350820Y-69076208D01*
X115964048Y-68931704D02*
X116670406Y-68556127D01*
X116197367Y-68721355D02*
X115820971Y-68662615D01*
X116291876Y-68412230D02*
X116165864Y-68824396D01*
%TO.C,DL310*%
X120167380Y-79049892D02*
X120873738Y-78674315D01*
X120784315Y-78506134D01*
X120697025Y-78423110D01*
X120593984Y-78391607D01*
X120508827Y-78393741D01*
X120356398Y-78431643D01*
X120255490Y-78485297D01*
X120138830Y-78590472D01*
X120089442Y-78659877D01*
X120057939Y-78762918D01*
X120077957Y-78881711D01*
X120167380Y-79049892D01*
X119612957Y-78007173D02*
X119791803Y-78343534D01*
X120498161Y-77967957D01*
X120229892Y-77463415D02*
X119997391Y-77026146D01*
X119853495Y-77404675D01*
X119799841Y-77303767D01*
X119730436Y-77254380D01*
X119678915Y-77238628D01*
X119593758Y-77240761D01*
X119425578Y-77330184D01*
X119376190Y-77399590D01*
X119360439Y-77451111D01*
X119362572Y-77536267D01*
X119469880Y-77738084D01*
X119539285Y-77787472D01*
X119590806Y-77803223D01*
X118933341Y-76729001D02*
X119147956Y-77132634D01*
X119040649Y-76930818D02*
X119747007Y-76555240D01*
X119681868Y-76676166D01*
X119650365Y-76779208D01*
X119652498Y-76864365D01*
X119407199Y-75916154D02*
X119371429Y-75848882D01*
X119302024Y-75799495D01*
X119250503Y-75783743D01*
X119165346Y-75785876D01*
X119012917Y-75823779D01*
X118844737Y-75913202D01*
X118728077Y-76018377D01*
X118678690Y-76087782D01*
X118662938Y-76139303D01*
X118665071Y-76224460D01*
X118700841Y-76291732D01*
X118770246Y-76341119D01*
X118821767Y-76356871D01*
X118906924Y-76354738D01*
X119059353Y-76316835D01*
X119227533Y-76227412D01*
X119344193Y-76122237D01*
X119393580Y-76052832D01*
X119409332Y-76001311D01*
X119407199Y-75916154D01*
X119619785Y-75906704D02*
X120326143Y-75531127D01*
X119853104Y-75696355D02*
X119476708Y-75637615D01*
X119947613Y-75387230D02*
X119821601Y-75799396D01*
%TO.C,DL312*%
X123867380Y-86049892D02*
X124573738Y-85674315D01*
X124484315Y-85506134D01*
X124397025Y-85423110D01*
X124293984Y-85391607D01*
X124208827Y-85393741D01*
X124056398Y-85431643D01*
X123955490Y-85485297D01*
X123838830Y-85590472D01*
X123789442Y-85659877D01*
X123757939Y-85762918D01*
X123777957Y-85881711D01*
X123867380Y-86049892D01*
X123312957Y-85007173D02*
X123491803Y-85343534D01*
X124198161Y-84967957D01*
X123929892Y-84463415D02*
X123697391Y-84026146D01*
X123553495Y-84404675D01*
X123499841Y-84303767D01*
X123430436Y-84254380D01*
X123378915Y-84238628D01*
X123293758Y-84240761D01*
X123125578Y-84330184D01*
X123076190Y-84399590D01*
X123060439Y-84451111D01*
X123062572Y-84536267D01*
X123169880Y-84738084D01*
X123239285Y-84787472D01*
X123290806Y-84803223D01*
X122633341Y-83729001D02*
X122847956Y-84132634D01*
X122740649Y-83930818D02*
X123447007Y-83555240D01*
X123381868Y-83676166D01*
X123350365Y-83779208D01*
X123352498Y-83864365D01*
X123129350Y-83120104D02*
X123145101Y-83068584D01*
X123142968Y-82983427D01*
X123053545Y-82815246D01*
X122984139Y-82765859D01*
X122932619Y-82750107D01*
X122847462Y-82752240D01*
X122780190Y-82788010D01*
X122697166Y-82875300D01*
X122508148Y-83493548D01*
X122275648Y-83056279D01*
X123319785Y-82906704D02*
X124026143Y-82531127D01*
X123553104Y-82696355D02*
X123176708Y-82637615D01*
X123647613Y-82387230D02*
X123521601Y-82799396D01*
%TO.C,DL314*%
X127567380Y-93049892D02*
X128273738Y-92674315D01*
X128184315Y-92506134D01*
X128097025Y-92423110D01*
X127993984Y-92391607D01*
X127908827Y-92393741D01*
X127756398Y-92431643D01*
X127655490Y-92485297D01*
X127538830Y-92590472D01*
X127489442Y-92659877D01*
X127457939Y-92762918D01*
X127477957Y-92881711D01*
X127567380Y-93049892D01*
X127012957Y-92007173D02*
X127191803Y-92343534D01*
X127898161Y-91967957D01*
X127629892Y-91463415D02*
X127397391Y-91026146D01*
X127253495Y-91404675D01*
X127199841Y-91303767D01*
X127130436Y-91254380D01*
X127078915Y-91238628D01*
X126993758Y-91240761D01*
X126825578Y-91330184D01*
X126776190Y-91399590D01*
X126760439Y-91451111D01*
X126762572Y-91536267D01*
X126869880Y-91738084D01*
X126939285Y-91787472D01*
X126990806Y-91803223D01*
X126333341Y-90729001D02*
X126547956Y-91132634D01*
X126440649Y-90930818D02*
X127147007Y-90555240D01*
X127081868Y-90676166D01*
X127050365Y-90779208D01*
X127052498Y-90864365D01*
X126482323Y-89873166D02*
X126011417Y-90123551D01*
X126840835Y-89898270D02*
X126425716Y-90334720D01*
X126193216Y-89897451D01*
X127019785Y-89906704D02*
X127726143Y-89531127D01*
X127253104Y-89696355D02*
X126876708Y-89637615D01*
X127347613Y-89387230D02*
X127221601Y-89799396D01*
%TO.C,DL316*%
X131267380Y-100149892D02*
X131973738Y-99774315D01*
X131884315Y-99606134D01*
X131797025Y-99523110D01*
X131693984Y-99491607D01*
X131608827Y-99493741D01*
X131456398Y-99531643D01*
X131355490Y-99585297D01*
X131238830Y-99690472D01*
X131189442Y-99759877D01*
X131157939Y-99862918D01*
X131177957Y-99981711D01*
X131267380Y-100149892D01*
X130712957Y-99107173D02*
X130891803Y-99443534D01*
X131598161Y-99067957D01*
X131329892Y-98563415D02*
X131097391Y-98126146D01*
X130953495Y-98504675D01*
X130899841Y-98403767D01*
X130830436Y-98354380D01*
X130778915Y-98338628D01*
X130693758Y-98340761D01*
X130525578Y-98430184D01*
X130476190Y-98499590D01*
X130460439Y-98551111D01*
X130462572Y-98636267D01*
X130569880Y-98838084D01*
X130639285Y-98887472D01*
X130690806Y-98903223D01*
X130033341Y-97829001D02*
X130247956Y-98232634D01*
X130140649Y-98030818D02*
X130847007Y-97655240D01*
X130781868Y-97776166D01*
X130750365Y-97879208D01*
X130752498Y-97964365D01*
X130417776Y-96847974D02*
X130489314Y-96982518D01*
X130491447Y-97067675D01*
X130475696Y-97119196D01*
X130410557Y-97240122D01*
X130293897Y-97345297D01*
X130024808Y-97488374D01*
X129939651Y-97490507D01*
X129888131Y-97474755D01*
X129818725Y-97425368D01*
X129747187Y-97290823D01*
X129745054Y-97205667D01*
X129760805Y-97154146D01*
X129810193Y-97084741D01*
X129978373Y-96995317D01*
X130063530Y-96993184D01*
X130115051Y-97008936D01*
X130184456Y-97058323D01*
X130255995Y-97192868D01*
X130258128Y-97278024D01*
X130242376Y-97329545D01*
X130192989Y-97398951D01*
X130769785Y-96956704D02*
X131476143Y-96581127D01*
X131003104Y-96746355D02*
X130626708Y-96687615D01*
X131097613Y-96437230D02*
X130971601Y-96849396D01*
%TO.C,DL318*%
X134967380Y-107149892D02*
X135673738Y-106774315D01*
X135584315Y-106606134D01*
X135497025Y-106523110D01*
X135393984Y-106491607D01*
X135308827Y-106493741D01*
X135156398Y-106531643D01*
X135055490Y-106585297D01*
X134938830Y-106690472D01*
X134889442Y-106759877D01*
X134857939Y-106862918D01*
X134877957Y-106981711D01*
X134967380Y-107149892D01*
X134412957Y-106107173D02*
X134591803Y-106443534D01*
X135298161Y-106067957D01*
X135029892Y-105563415D02*
X134797391Y-105126146D01*
X134653495Y-105504675D01*
X134599841Y-105403767D01*
X134530436Y-105354380D01*
X134478915Y-105338628D01*
X134393758Y-105340761D01*
X134225578Y-105430184D01*
X134176190Y-105499590D01*
X134160439Y-105551111D01*
X134162572Y-105636267D01*
X134269880Y-105838084D01*
X134339285Y-105887472D01*
X134390806Y-105903223D01*
X133733341Y-104829001D02*
X133947956Y-105232634D01*
X133840649Y-105030818D02*
X134547007Y-104655240D01*
X134481868Y-104776166D01*
X134450365Y-104879208D01*
X134452498Y-104964365D01*
X133922358Y-104210752D02*
X133991764Y-104260140D01*
X134043284Y-104275891D01*
X134128441Y-104273758D01*
X134162077Y-104255874D01*
X134211465Y-104186468D01*
X134227216Y-104134947D01*
X134225083Y-104049791D01*
X134153545Y-103915246D01*
X134084139Y-103865859D01*
X134032619Y-103850107D01*
X133947462Y-103852240D01*
X133913826Y-103870125D01*
X133864438Y-103939530D01*
X133848687Y-103991051D01*
X133850820Y-104076208D01*
X133922358Y-104210752D01*
X133924492Y-104295909D01*
X133908740Y-104347430D01*
X133859353Y-104416835D01*
X133724808Y-104488374D01*
X133639651Y-104490507D01*
X133588131Y-104474755D01*
X133518725Y-104425368D01*
X133447187Y-104290823D01*
X133445054Y-104205667D01*
X133460805Y-104154146D01*
X133510193Y-104084741D01*
X133644737Y-104013202D01*
X133729894Y-104011069D01*
X133781415Y-104026820D01*
X133850820Y-104076208D01*
X134419785Y-103906704D02*
X135126143Y-103531127D01*
X134653104Y-103696355D02*
X134276708Y-103637615D01*
X134747613Y-103387230D02*
X134621601Y-103799396D01*
%TO.C,DL320*%
X138667380Y-114049892D02*
X139373738Y-113674315D01*
X139284315Y-113506134D01*
X139197025Y-113423110D01*
X139093984Y-113391607D01*
X139008827Y-113393741D01*
X138856398Y-113431643D01*
X138755490Y-113485297D01*
X138638830Y-113590472D01*
X138589442Y-113659877D01*
X138557939Y-113762918D01*
X138577957Y-113881711D01*
X138667380Y-114049892D01*
X138112957Y-113007173D02*
X138291803Y-113343534D01*
X138998161Y-112967957D01*
X138729892Y-112463415D02*
X138497391Y-112026146D01*
X138353495Y-112404675D01*
X138299841Y-112303767D01*
X138230436Y-112254380D01*
X138178915Y-112238628D01*
X138093758Y-112240761D01*
X137925578Y-112330184D01*
X137876190Y-112399590D01*
X137860439Y-112451111D01*
X137862572Y-112536267D01*
X137969880Y-112738084D01*
X138039285Y-112787472D01*
X138090806Y-112803223D01*
X138287042Y-111792826D02*
X138302794Y-111741305D01*
X138300661Y-111656149D01*
X138211237Y-111487968D01*
X138141832Y-111438581D01*
X138090311Y-111422829D01*
X138005154Y-111424962D01*
X137937882Y-111460732D01*
X137854859Y-111548022D01*
X137665841Y-112166270D01*
X137433341Y-111729001D01*
X137907199Y-110916154D02*
X137871429Y-110848882D01*
X137802024Y-110799495D01*
X137750503Y-110783743D01*
X137665346Y-110785876D01*
X137512917Y-110823779D01*
X137344737Y-110913202D01*
X137228077Y-111018377D01*
X137178690Y-111087782D01*
X137162938Y-111139303D01*
X137165071Y-111224460D01*
X137200841Y-111291732D01*
X137270246Y-111341119D01*
X137321767Y-111356871D01*
X137406924Y-111354738D01*
X137559353Y-111316835D01*
X137727533Y-111227412D01*
X137844193Y-111122237D01*
X137893580Y-111052832D01*
X137909332Y-111001311D01*
X137907199Y-110916154D01*
X138169785Y-110906704D02*
X138876143Y-110531127D01*
X138403104Y-110696355D02*
X138026708Y-110637615D01*
X138497613Y-110387230D02*
X138371601Y-110799396D01*
%TO.C,DL322*%
X142467380Y-121149892D02*
X143173738Y-120774315D01*
X143084315Y-120606134D01*
X142997025Y-120523110D01*
X142893984Y-120491607D01*
X142808827Y-120493741D01*
X142656398Y-120531643D01*
X142555490Y-120585297D01*
X142438830Y-120690472D01*
X142389442Y-120759877D01*
X142357939Y-120862918D01*
X142377957Y-120981711D01*
X142467380Y-121149892D01*
X141912957Y-120107173D02*
X142091803Y-120443534D01*
X142798161Y-120067957D01*
X142529892Y-119563415D02*
X142297391Y-119126146D01*
X142153495Y-119504675D01*
X142099841Y-119403767D01*
X142030436Y-119354380D01*
X141978915Y-119338628D01*
X141893758Y-119340761D01*
X141725578Y-119430184D01*
X141676190Y-119499590D01*
X141660439Y-119551111D01*
X141662572Y-119636267D01*
X141769880Y-119838084D01*
X141839285Y-119887472D01*
X141890806Y-119903223D01*
X142087042Y-118892826D02*
X142102794Y-118841305D01*
X142100661Y-118756149D01*
X142011237Y-118587968D01*
X141941832Y-118538581D01*
X141890311Y-118522829D01*
X141805154Y-118524962D01*
X141737882Y-118560732D01*
X141654859Y-118648022D01*
X141465841Y-119266270D01*
X141233341Y-118829001D01*
X141729350Y-118220104D02*
X141745101Y-118168584D01*
X141742968Y-118083427D01*
X141653545Y-117915246D01*
X141584139Y-117865859D01*
X141532619Y-117850107D01*
X141447462Y-117852240D01*
X141380190Y-117888010D01*
X141297166Y-117975300D01*
X141108148Y-118593548D01*
X140875648Y-118156279D01*
X141869785Y-117906704D02*
X142576143Y-117531127D01*
X142103104Y-117696355D02*
X141726708Y-117637615D01*
X142197613Y-117387230D02*
X142071601Y-117799396D01*
%TO.C,DL324*%
X147267380Y-128349892D02*
X147973738Y-127974315D01*
X147884315Y-127806134D01*
X147797025Y-127723110D01*
X147693984Y-127691607D01*
X147608827Y-127693741D01*
X147456398Y-127731643D01*
X147355490Y-127785297D01*
X147238830Y-127890472D01*
X147189442Y-127959877D01*
X147157939Y-128062918D01*
X147177957Y-128181711D01*
X147267380Y-128349892D01*
X146712957Y-127307173D02*
X146891803Y-127643534D01*
X147598161Y-127267957D01*
X147329892Y-126763415D02*
X147097391Y-126326146D01*
X146953495Y-126704675D01*
X146899841Y-126603767D01*
X146830436Y-126554380D01*
X146778915Y-126538628D01*
X146693758Y-126540761D01*
X146525578Y-126630184D01*
X146476190Y-126699590D01*
X146460439Y-126751111D01*
X146462572Y-126836267D01*
X146569880Y-127038084D01*
X146639285Y-127087472D01*
X146690806Y-127103223D01*
X146887042Y-126092826D02*
X146902794Y-126041305D01*
X146900661Y-125956149D01*
X146811237Y-125787968D01*
X146741832Y-125738581D01*
X146690311Y-125722829D01*
X146605154Y-125724962D01*
X146537882Y-125760732D01*
X146454859Y-125848022D01*
X146265841Y-126466270D01*
X146033341Y-126029001D01*
X146182323Y-125173166D02*
X145711417Y-125423551D01*
X146540835Y-125198270D02*
X146125716Y-125634720D01*
X145893216Y-125197451D01*
X145569785Y-124906704D02*
X146276143Y-124531127D01*
X145803104Y-124696355D02*
X145426708Y-124637615D01*
X145897613Y-124387230D02*
X145771601Y-124799396D01*
%TO.C,DL602*%
X96206466Y-48089915D02*
X95500108Y-47714338D01*
X95410685Y-47882518D01*
X95390667Y-48001311D01*
X95422170Y-48104353D01*
X95471558Y-48173758D01*
X95588217Y-48278933D01*
X95689126Y-48332587D01*
X95841555Y-48370489D01*
X95926712Y-48372622D01*
X96029753Y-48341119D01*
X96117043Y-48258096D01*
X96206466Y-48089915D01*
X95652043Y-49132634D02*
X95830889Y-48796273D01*
X95124531Y-48420696D01*
X94659530Y-49295235D02*
X94731069Y-49160690D01*
X94800474Y-49111303D01*
X94851995Y-49095551D01*
X94988673Y-49081933D01*
X95141102Y-49119835D01*
X95410190Y-49262912D01*
X95459578Y-49332318D01*
X95475329Y-49383838D01*
X95473196Y-49468995D01*
X95401658Y-49603540D01*
X95332252Y-49652927D01*
X95280732Y-49668679D01*
X95195575Y-49666545D01*
X95027394Y-49577122D01*
X94978007Y-49507717D01*
X94962255Y-49456196D01*
X94964389Y-49371039D01*
X95035927Y-49236495D01*
X95105332Y-49187107D01*
X95156853Y-49171356D01*
X95242010Y-49173489D01*
X94391261Y-49799776D02*
X94355492Y-49867048D01*
X94353359Y-49952205D01*
X94369110Y-50003726D01*
X94418498Y-50073131D01*
X94535157Y-50178306D01*
X94703338Y-50267729D01*
X94855767Y-50305631D01*
X94940924Y-50307765D01*
X94992444Y-50292013D01*
X95061850Y-50242625D01*
X95097619Y-50175353D01*
X95099752Y-50090196D01*
X95084001Y-50038676D01*
X95034613Y-49969270D01*
X94917953Y-49864096D01*
X94749773Y-49774673D01*
X94597344Y-49736770D01*
X94512187Y-49734637D01*
X94460666Y-49750388D01*
X94391261Y-49799776D01*
X94190264Y-50340087D02*
X94138743Y-50355838D01*
X94069338Y-50405226D01*
X93979914Y-50573406D01*
X93977781Y-50658563D01*
X93993533Y-50710084D01*
X94042920Y-50779489D01*
X94110193Y-50815258D01*
X94228985Y-50835276D01*
X94847234Y-50646259D01*
X94614734Y-51083528D01*
X95296141Y-47660977D02*
X94589783Y-47285400D01*
X94991283Y-47585172D02*
X95153064Y-47930066D01*
X94682158Y-47679681D02*
X95094324Y-47553669D01*
%TO.C,DL604*%
X92506466Y-55289915D02*
X91800108Y-54914338D01*
X91710685Y-55082518D01*
X91690667Y-55201311D01*
X91722170Y-55304353D01*
X91771558Y-55373758D01*
X91888217Y-55478933D01*
X91989126Y-55532587D01*
X92141555Y-55570489D01*
X92226712Y-55572622D01*
X92329753Y-55541119D01*
X92417043Y-55458096D01*
X92506466Y-55289915D01*
X91952043Y-56332634D02*
X92130889Y-55996273D01*
X91424531Y-55620696D01*
X90959530Y-56495235D02*
X91031069Y-56360690D01*
X91100474Y-56311303D01*
X91151995Y-56295551D01*
X91288673Y-56281933D01*
X91441102Y-56319835D01*
X91710190Y-56462912D01*
X91759578Y-56532318D01*
X91775329Y-56583838D01*
X91773196Y-56668995D01*
X91701658Y-56803540D01*
X91632252Y-56852927D01*
X91580732Y-56868679D01*
X91495575Y-56866545D01*
X91327394Y-56777122D01*
X91278007Y-56707717D01*
X91262255Y-56656196D01*
X91264389Y-56571039D01*
X91335927Y-56436495D01*
X91405332Y-56387107D01*
X91456853Y-56371356D01*
X91542010Y-56373489D01*
X90691261Y-56999776D02*
X90655492Y-57067048D01*
X90653359Y-57152205D01*
X90669110Y-57203726D01*
X90718498Y-57273131D01*
X90835157Y-57378306D01*
X91003338Y-57467729D01*
X91155767Y-57505631D01*
X91240924Y-57507765D01*
X91292444Y-57492013D01*
X91361850Y-57442625D01*
X91397619Y-57375353D01*
X91399752Y-57290196D01*
X91384001Y-57238676D01*
X91334613Y-57169270D01*
X91217953Y-57064096D01*
X91049773Y-56974673D01*
X90897344Y-56936770D01*
X90812187Y-56934637D01*
X90760666Y-56950388D01*
X90691261Y-56999776D01*
X90479598Y-57965871D02*
X90950503Y-58216256D01*
X90299932Y-57654613D02*
X90893897Y-57754702D01*
X90661397Y-58191972D01*
X91595407Y-54681251D02*
X90889049Y-54305674D01*
X91290549Y-54605446D02*
X91452330Y-54950340D01*
X90981424Y-54699955D02*
X91393590Y-54573943D01*
%TO.C,DL606*%
X88806465Y-62189915D02*
X88100107Y-61814338D01*
X88010684Y-61982518D01*
X87990666Y-62101311D01*
X88022169Y-62204353D01*
X88071557Y-62273758D01*
X88188216Y-62378933D01*
X88289125Y-62432587D01*
X88441554Y-62470489D01*
X88526711Y-62472622D01*
X88629752Y-62441119D01*
X88717042Y-62358096D01*
X88806465Y-62189915D01*
X88252042Y-63232634D02*
X88430888Y-62896273D01*
X87724530Y-62520696D01*
X87259529Y-63395235D02*
X87331068Y-63260690D01*
X87400473Y-63211303D01*
X87451994Y-63195551D01*
X87588672Y-63181933D01*
X87741101Y-63219835D01*
X88010189Y-63362912D01*
X88059577Y-63432318D01*
X88075328Y-63483838D01*
X88073195Y-63568995D01*
X88001657Y-63703540D01*
X87932251Y-63752927D01*
X87880731Y-63768679D01*
X87795574Y-63766545D01*
X87627393Y-63677122D01*
X87578006Y-63607717D01*
X87562254Y-63556196D01*
X87564388Y-63471039D01*
X87635926Y-63336495D01*
X87705331Y-63287107D01*
X87756852Y-63271356D01*
X87842009Y-63273489D01*
X86991260Y-63899776D02*
X86955491Y-63967048D01*
X86953358Y-64052205D01*
X86969109Y-64103726D01*
X87018497Y-64173131D01*
X87135156Y-64278306D01*
X87303337Y-64367729D01*
X87455766Y-64405631D01*
X87540923Y-64407765D01*
X87592443Y-64392013D01*
X87661849Y-64342625D01*
X87697618Y-64275353D01*
X87699751Y-64190196D01*
X87684000Y-64138676D01*
X87634612Y-64069270D01*
X87517952Y-63964096D01*
X87349772Y-63874673D01*
X87197343Y-63836770D01*
X87112186Y-63834637D01*
X87060665Y-63850388D01*
X86991260Y-63899776D01*
X86544144Y-64740678D02*
X86615683Y-64606134D01*
X86685088Y-64556747D01*
X86736609Y-64540995D01*
X86873286Y-64527377D01*
X87025715Y-64565279D01*
X87294804Y-64708356D01*
X87344192Y-64777762D01*
X87359943Y-64829282D01*
X87357810Y-64914439D01*
X87286272Y-65048984D01*
X87216866Y-65098371D01*
X87165345Y-65114123D01*
X87080189Y-65111989D01*
X86912008Y-65022566D01*
X86862621Y-64953161D01*
X86846869Y-64901640D01*
X86849002Y-64816483D01*
X86920541Y-64681939D01*
X86989946Y-64632551D01*
X87041467Y-64616800D01*
X87126624Y-64618933D01*
X87876141Y-61650977D02*
X87169783Y-61275400D01*
X87571283Y-61575172D02*
X87733064Y-61920066D01*
X87262158Y-61669681D02*
X87674324Y-61543669D01*
%TO.C,DL608*%
X85106466Y-69289915D02*
X84400108Y-68914338D01*
X84310685Y-69082518D01*
X84290667Y-69201311D01*
X84322170Y-69304353D01*
X84371558Y-69373758D01*
X84488217Y-69478933D01*
X84589126Y-69532587D01*
X84741555Y-69570489D01*
X84826712Y-69572622D01*
X84929753Y-69541119D01*
X85017043Y-69458096D01*
X85106466Y-69289915D01*
X84552043Y-70332634D02*
X84730889Y-69996273D01*
X84024531Y-69620696D01*
X83559530Y-70495235D02*
X83631069Y-70360690D01*
X83700474Y-70311303D01*
X83751995Y-70295551D01*
X83888673Y-70281933D01*
X84041102Y-70319835D01*
X84310190Y-70462912D01*
X84359578Y-70532318D01*
X84375329Y-70583838D01*
X84373196Y-70668995D01*
X84301658Y-70803540D01*
X84232252Y-70852927D01*
X84180732Y-70868679D01*
X84095575Y-70866545D01*
X83927394Y-70777122D01*
X83878007Y-70707717D01*
X83862255Y-70656196D01*
X83864389Y-70571039D01*
X83935927Y-70436495D01*
X84005332Y-70387107D01*
X84056853Y-70371356D01*
X84142010Y-70373489D01*
X83291261Y-70999776D02*
X83255492Y-71067048D01*
X83253359Y-71152205D01*
X83269110Y-71203726D01*
X83318498Y-71273131D01*
X83435157Y-71378306D01*
X83603338Y-71467729D01*
X83755767Y-71505631D01*
X83840924Y-71507765D01*
X83892444Y-71492013D01*
X83961850Y-71442625D01*
X83997619Y-71375353D01*
X83999752Y-71290196D01*
X83984001Y-71238676D01*
X83934613Y-71169270D01*
X83817953Y-71064096D01*
X83649773Y-70974673D01*
X83497344Y-70936770D01*
X83412187Y-70934637D01*
X83360666Y-70950388D01*
X83291261Y-70999776D01*
X83254178Y-71799824D02*
X83256311Y-71714667D01*
X83240560Y-71663146D01*
X83191172Y-71593741D01*
X83157536Y-71575856D01*
X83072379Y-71573723D01*
X83020858Y-71589474D01*
X82951453Y-71638862D01*
X82879914Y-71773406D01*
X82877781Y-71858563D01*
X82893533Y-71910084D01*
X82942920Y-71979489D01*
X82976556Y-71997374D01*
X83061713Y-71999507D01*
X83113234Y-71983756D01*
X83182639Y-71934368D01*
X83254178Y-71799824D01*
X83323583Y-71750436D01*
X83375104Y-71734685D01*
X83460261Y-71736818D01*
X83594805Y-71808356D01*
X83644193Y-71877762D01*
X83659944Y-71929282D01*
X83657811Y-72014439D01*
X83586273Y-72148984D01*
X83516867Y-72198371D01*
X83465346Y-72214123D01*
X83380190Y-72211989D01*
X83245645Y-72140451D01*
X83196258Y-72071046D01*
X83180506Y-72019525D01*
X83182639Y-71934368D01*
X84185407Y-68701251D02*
X83479049Y-68325674D01*
X83880549Y-68625446D02*
X84042330Y-68970340D01*
X83571424Y-68719955D02*
X83983590Y-68593943D01*
%TO.C,DL610*%
X81406466Y-76189915D02*
X80700108Y-75814338D01*
X80610685Y-75982518D01*
X80590667Y-76101311D01*
X80622170Y-76204353D01*
X80671558Y-76273758D01*
X80788217Y-76378933D01*
X80889126Y-76432587D01*
X81041555Y-76470489D01*
X81126712Y-76472622D01*
X81229753Y-76441119D01*
X81317043Y-76358096D01*
X81406466Y-76189915D01*
X80852043Y-77232634D02*
X81030889Y-76896273D01*
X80324531Y-76520696D01*
X79859530Y-77395235D02*
X79931069Y-77260690D01*
X80000474Y-77211303D01*
X80051995Y-77195551D01*
X80188673Y-77181933D01*
X80341102Y-77219835D01*
X80610190Y-77362912D01*
X80659578Y-77432318D01*
X80675329Y-77483838D01*
X80673196Y-77568995D01*
X80601658Y-77703540D01*
X80532252Y-77752927D01*
X80480732Y-77768679D01*
X80395575Y-77766545D01*
X80227394Y-77677122D01*
X80178007Y-77607717D01*
X80162255Y-77556196D01*
X80164389Y-77471039D01*
X80235927Y-77336495D01*
X80305332Y-77287107D01*
X80356853Y-77271356D01*
X80442010Y-77273489D01*
X80172427Y-78510806D02*
X80387042Y-78107173D01*
X80279734Y-78308989D02*
X79573376Y-77933412D01*
X79710054Y-77919794D01*
X79813095Y-77888291D01*
X79882501Y-77838903D01*
X79233568Y-78572498D02*
X79197799Y-78639770D01*
X79195666Y-78724927D01*
X79211417Y-78776448D01*
X79260805Y-78845853D01*
X79377465Y-78951028D01*
X79545645Y-79040451D01*
X79698074Y-79078353D01*
X79783231Y-79080486D01*
X79834752Y-79064735D01*
X79904157Y-79015347D01*
X79939926Y-78948075D01*
X79942060Y-78862918D01*
X79926308Y-78811398D01*
X79876921Y-78741992D01*
X79760261Y-78636818D01*
X79592080Y-78547395D01*
X79439651Y-78509492D01*
X79354494Y-78507359D01*
X79302974Y-78523110D01*
X79233568Y-78572498D01*
X80455407Y-75681251D02*
X79749049Y-75305674D01*
X80150549Y-75605446D02*
X80312330Y-75950340D01*
X79841424Y-75699955D02*
X80253590Y-75573943D01*
%TO.C,DL612*%
X77806466Y-83089915D02*
X77100108Y-82714338D01*
X77010685Y-82882518D01*
X76990667Y-83001311D01*
X77022170Y-83104353D01*
X77071558Y-83173758D01*
X77188217Y-83278933D01*
X77289126Y-83332587D01*
X77441555Y-83370489D01*
X77526712Y-83372622D01*
X77629753Y-83341119D01*
X77717043Y-83258096D01*
X77806466Y-83089915D01*
X77252043Y-84132634D02*
X77430889Y-83796273D01*
X76724531Y-83420696D01*
X76259530Y-84295235D02*
X76331069Y-84160690D01*
X76400474Y-84111303D01*
X76451995Y-84095551D01*
X76588673Y-84081933D01*
X76741102Y-84119835D01*
X77010190Y-84262912D01*
X77059578Y-84332318D01*
X77075329Y-84383838D01*
X77073196Y-84468995D01*
X77001658Y-84603540D01*
X76932252Y-84652927D01*
X76880732Y-84668679D01*
X76795575Y-84666545D01*
X76627394Y-84577122D01*
X76578007Y-84507717D01*
X76562255Y-84456196D01*
X76564389Y-84371039D01*
X76635927Y-84236495D01*
X76705332Y-84187107D01*
X76756853Y-84171356D01*
X76842010Y-84173489D01*
X76572427Y-85410806D02*
X76787042Y-85007173D01*
X76679734Y-85208989D02*
X75973376Y-84833412D01*
X76110054Y-84819794D01*
X76213095Y-84788291D01*
X76282501Y-84738903D01*
X75790264Y-85340087D02*
X75738743Y-85355838D01*
X75669338Y-85405226D01*
X75579914Y-85573406D01*
X75577781Y-85658563D01*
X75593533Y-85710084D01*
X75642920Y-85779489D01*
X75710193Y-85815258D01*
X75828985Y-85835276D01*
X76447234Y-85646259D01*
X76214734Y-86083528D01*
X76775407Y-82701251D02*
X76069049Y-82325674D01*
X76470549Y-82625446D02*
X76632330Y-82970340D01*
X76161424Y-82719955D02*
X76573590Y-82593943D01*
%TO.C,DL614*%
X74006466Y-90189915D02*
X73300108Y-89814338D01*
X73210685Y-89982518D01*
X73190667Y-90101311D01*
X73222170Y-90204353D01*
X73271558Y-90273758D01*
X73388217Y-90378933D01*
X73489126Y-90432587D01*
X73641555Y-90470489D01*
X73726712Y-90472622D01*
X73829753Y-90441119D01*
X73917043Y-90358096D01*
X74006466Y-90189915D01*
X73452043Y-91232634D02*
X73630889Y-90896273D01*
X72924531Y-90520696D01*
X72459530Y-91395235D02*
X72531069Y-91260690D01*
X72600474Y-91211303D01*
X72651995Y-91195551D01*
X72788673Y-91181933D01*
X72941102Y-91219835D01*
X73210190Y-91362912D01*
X73259578Y-91432318D01*
X73275329Y-91483838D01*
X73273196Y-91568995D01*
X73201658Y-91703540D01*
X73132252Y-91752927D01*
X73080732Y-91768679D01*
X72995575Y-91766545D01*
X72827394Y-91677122D01*
X72778007Y-91607717D01*
X72762255Y-91556196D01*
X72764389Y-91471039D01*
X72835927Y-91336495D01*
X72905332Y-91287107D01*
X72956853Y-91271356D01*
X73042010Y-91273489D01*
X72772427Y-92510806D02*
X72987042Y-92107173D01*
X72879734Y-92308989D02*
X72173376Y-91933412D01*
X72310054Y-91919794D01*
X72413095Y-91888291D01*
X72482501Y-91838903D01*
X71979598Y-92865871D02*
X72450503Y-93116256D01*
X71799932Y-92554613D02*
X72393897Y-92654702D01*
X72161397Y-93091972D01*
X73055407Y-89681251D02*
X72349049Y-89305674D01*
X72750549Y-89605446D02*
X72912330Y-89950340D01*
X72441424Y-89699955D02*
X72853590Y-89573943D01*
%TO.C,DL616*%
X70306466Y-97189915D02*
X69600108Y-96814338D01*
X69510685Y-96982518D01*
X69490667Y-97101311D01*
X69522170Y-97204353D01*
X69571558Y-97273758D01*
X69688217Y-97378933D01*
X69789126Y-97432587D01*
X69941555Y-97470489D01*
X70026712Y-97472622D01*
X70129753Y-97441119D01*
X70217043Y-97358096D01*
X70306466Y-97189915D01*
X69752043Y-98232634D02*
X69930889Y-97896273D01*
X69224531Y-97520696D01*
X68759530Y-98395235D02*
X68831069Y-98260690D01*
X68900474Y-98211303D01*
X68951995Y-98195551D01*
X69088673Y-98181933D01*
X69241102Y-98219835D01*
X69510190Y-98362912D01*
X69559578Y-98432318D01*
X69575329Y-98483838D01*
X69573196Y-98568995D01*
X69501658Y-98703540D01*
X69432252Y-98752927D01*
X69380732Y-98768679D01*
X69295575Y-98766545D01*
X69127394Y-98677122D01*
X69078007Y-98607717D01*
X69062255Y-98556196D01*
X69064389Y-98471039D01*
X69135927Y-98336495D01*
X69205332Y-98287107D01*
X69256853Y-98271356D01*
X69342010Y-98273489D01*
X69072427Y-99510806D02*
X69287042Y-99107173D01*
X69179734Y-99308989D02*
X68473376Y-98933412D01*
X68610054Y-98919794D01*
X68713095Y-98888291D01*
X68782501Y-98838903D01*
X68044145Y-99740678D02*
X68115684Y-99606134D01*
X68185089Y-99556747D01*
X68236610Y-99540995D01*
X68373287Y-99527377D01*
X68525716Y-99565279D01*
X68794805Y-99708356D01*
X68844193Y-99777762D01*
X68859944Y-99829282D01*
X68857811Y-99914439D01*
X68786273Y-100048984D01*
X68716867Y-100098371D01*
X68665346Y-100114123D01*
X68580190Y-100111989D01*
X68412009Y-100022566D01*
X68362622Y-99953161D01*
X68346870Y-99901640D01*
X68349003Y-99816483D01*
X68420542Y-99681939D01*
X68489947Y-99632551D01*
X68541468Y-99616800D01*
X68626625Y-99618933D01*
X69405407Y-96671251D02*
X68699049Y-96295674D01*
X69100549Y-96595446D02*
X69262330Y-96940340D01*
X68791424Y-96689955D02*
X69203590Y-96563943D01*
%TO.C,DL618*%
X66806466Y-104289915D02*
X66100108Y-103914338D01*
X66010685Y-104082518D01*
X65990667Y-104201311D01*
X66022170Y-104304353D01*
X66071558Y-104373758D01*
X66188217Y-104478933D01*
X66289126Y-104532587D01*
X66441555Y-104570489D01*
X66526712Y-104572622D01*
X66629753Y-104541119D01*
X66717043Y-104458096D01*
X66806466Y-104289915D01*
X66252043Y-105332634D02*
X66430889Y-104996273D01*
X65724531Y-104620696D01*
X65259530Y-105495235D02*
X65331069Y-105360690D01*
X65400474Y-105311303D01*
X65451995Y-105295551D01*
X65588673Y-105281933D01*
X65741102Y-105319835D01*
X66010190Y-105462912D01*
X66059578Y-105532318D01*
X66075329Y-105583838D01*
X66073196Y-105668995D01*
X66001658Y-105803540D01*
X65932252Y-105852927D01*
X65880732Y-105868679D01*
X65795575Y-105866545D01*
X65627394Y-105777122D01*
X65578007Y-105707717D01*
X65562255Y-105656196D01*
X65564389Y-105571039D01*
X65635927Y-105436495D01*
X65705332Y-105387107D01*
X65756853Y-105371356D01*
X65842010Y-105373489D01*
X65572427Y-106610806D02*
X65787042Y-106207173D01*
X65679734Y-106408989D02*
X64973376Y-106033412D01*
X65110054Y-106019794D01*
X65213095Y-105988291D01*
X65282501Y-105938903D01*
X64954178Y-106799824D02*
X64956311Y-106714667D01*
X64940560Y-106663146D01*
X64891172Y-106593741D01*
X64857536Y-106575856D01*
X64772379Y-106573723D01*
X64720858Y-106589474D01*
X64651453Y-106638862D01*
X64579914Y-106773406D01*
X64577781Y-106858563D01*
X64593533Y-106910084D01*
X64642920Y-106979489D01*
X64676556Y-106997374D01*
X64761713Y-106999507D01*
X64813234Y-106983756D01*
X64882639Y-106934368D01*
X64954178Y-106799824D01*
X65023583Y-106750436D01*
X65075104Y-106734685D01*
X65160261Y-106736818D01*
X65294805Y-106808356D01*
X65344193Y-106877762D01*
X65359944Y-106929282D01*
X65357811Y-107014439D01*
X65286273Y-107148984D01*
X65216867Y-107198371D01*
X65165346Y-107214123D01*
X65080190Y-107211989D01*
X64945645Y-107140451D01*
X64896258Y-107071046D01*
X64880506Y-107019525D01*
X64882639Y-106934368D01*
X65665407Y-103681251D02*
X64959049Y-103305674D01*
X65360549Y-103605446D02*
X65522330Y-103950340D01*
X65051424Y-103699955D02*
X65463590Y-103573943D01*
%TO.C,DL622*%
X59306466Y-118089915D02*
X58600108Y-117714338D01*
X58510685Y-117882518D01*
X58490667Y-118001311D01*
X58522170Y-118104353D01*
X58571558Y-118173758D01*
X58688217Y-118278933D01*
X58789126Y-118332587D01*
X58941555Y-118370489D01*
X59026712Y-118372622D01*
X59129753Y-118341119D01*
X59217043Y-118258096D01*
X59306466Y-118089915D01*
X58752043Y-119132634D02*
X58930889Y-118796273D01*
X58224531Y-118420696D01*
X57759530Y-119295235D02*
X57831069Y-119160690D01*
X57900474Y-119111303D01*
X57951995Y-119095551D01*
X58088673Y-119081933D01*
X58241102Y-119119835D01*
X58510190Y-119262912D01*
X58559578Y-119332318D01*
X58575329Y-119383838D01*
X58573196Y-119468995D01*
X58501658Y-119603540D01*
X58432252Y-119652927D01*
X58380732Y-119668679D01*
X58295575Y-119666545D01*
X58127394Y-119577122D01*
X58078007Y-119507717D01*
X58062255Y-119456196D01*
X58064389Y-119371039D01*
X58135927Y-119236495D01*
X58205332Y-119187107D01*
X58256853Y-119171356D01*
X58342010Y-119173489D01*
X57647956Y-119667365D02*
X57596436Y-119683116D01*
X57527030Y-119732504D01*
X57437607Y-119900684D01*
X57435474Y-119985841D01*
X57451225Y-120037362D01*
X57500613Y-120106767D01*
X57567885Y-120142536D01*
X57686678Y-120162554D01*
X58304927Y-119973537D01*
X58072427Y-120410806D01*
X57290264Y-120340087D02*
X57238743Y-120355838D01*
X57169338Y-120405226D01*
X57079914Y-120573406D01*
X57077781Y-120658563D01*
X57093533Y-120710084D01*
X57142920Y-120779489D01*
X57210193Y-120815258D01*
X57328985Y-120835276D01*
X57947234Y-120646259D01*
X57714734Y-121083528D01*
X58321144Y-117666251D02*
X57614786Y-117290674D01*
X58016286Y-117590446D02*
X58178067Y-117935340D01*
X57707161Y-117684955D02*
X58119327Y-117558943D01*
%TO.C,DL624*%
X55506466Y-125189915D02*
X54800108Y-124814338D01*
X54710685Y-124982518D01*
X54690667Y-125101311D01*
X54722170Y-125204353D01*
X54771558Y-125273758D01*
X54888217Y-125378933D01*
X54989126Y-125432587D01*
X55141555Y-125470489D01*
X55226712Y-125472622D01*
X55329753Y-125441119D01*
X55417043Y-125358096D01*
X55506466Y-125189915D01*
X54952043Y-126232634D02*
X55130889Y-125896273D01*
X54424531Y-125520696D01*
X53959530Y-126395235D02*
X54031069Y-126260690D01*
X54100474Y-126211303D01*
X54151995Y-126195551D01*
X54288673Y-126181933D01*
X54441102Y-126219835D01*
X54710190Y-126362912D01*
X54759578Y-126432318D01*
X54775329Y-126483838D01*
X54773196Y-126568995D01*
X54701658Y-126703540D01*
X54632252Y-126752927D01*
X54580732Y-126768679D01*
X54495575Y-126766545D01*
X54327394Y-126677122D01*
X54278007Y-126607717D01*
X54262255Y-126556196D01*
X54264389Y-126471039D01*
X54335927Y-126336495D01*
X54405332Y-126287107D01*
X54456853Y-126271356D01*
X54542010Y-126273489D01*
X53847956Y-126767365D02*
X53796436Y-126783116D01*
X53727030Y-126832504D01*
X53637607Y-127000684D01*
X53635474Y-127085841D01*
X53651225Y-127137362D01*
X53700613Y-127206767D01*
X53767885Y-127242536D01*
X53886678Y-127262554D01*
X54504927Y-127073537D01*
X54272427Y-127510806D01*
X53479598Y-127865871D02*
X53950503Y-128116256D01*
X53299932Y-127554613D02*
X53893897Y-127654702D01*
X53661397Y-128091972D01*
X54595407Y-124651251D02*
X53889049Y-124275674D01*
X54290549Y-124575446D02*
X54452330Y-124920340D01*
X53981424Y-124669955D02*
X54393590Y-124543943D01*
%TO.C,R302*%
X101688061Y-51318887D02*
X102149615Y-51375493D01*
X101902677Y-51722520D02*
X102609035Y-51346943D01*
X102465958Y-51077854D01*
X102396553Y-51028466D01*
X102345032Y-51012715D01*
X102259875Y-51014848D01*
X102158967Y-51068502D01*
X102109579Y-51137907D01*
X102093828Y-51189428D01*
X102095961Y-51274585D01*
X102239038Y-51543674D01*
X102269227Y-50707857D02*
X102036727Y-50270588D01*
X101892830Y-50649117D01*
X101839177Y-50548209D01*
X101769771Y-50498821D01*
X101718250Y-50483070D01*
X101633094Y-50485203D01*
X101464913Y-50574626D01*
X101415526Y-50644032D01*
X101399774Y-50695552D01*
X101401907Y-50780709D01*
X101509215Y-50982526D01*
X101578620Y-51031913D01*
X101630141Y-51047665D01*
X101804227Y-49833318D02*
X101768457Y-49766046D01*
X101699052Y-49716659D01*
X101647531Y-49700907D01*
X101562374Y-49703040D01*
X101409945Y-49740943D01*
X101241765Y-49830366D01*
X101125105Y-49935540D01*
X101075718Y-50004946D01*
X101059966Y-50056467D01*
X101062099Y-50141623D01*
X101097869Y-50208896D01*
X101167274Y-50258283D01*
X101218795Y-50274035D01*
X101303951Y-50271901D01*
X101456381Y-50233999D01*
X101624561Y-50144576D01*
X101741221Y-50039401D01*
X101790608Y-49969996D01*
X101806360Y-49918475D01*
X101804227Y-49833318D01*
X101468685Y-49364546D02*
X101484436Y-49313025D01*
X101482303Y-49227869D01*
X101392880Y-49059688D01*
X101323475Y-49010300D01*
X101271954Y-48994549D01*
X101186797Y-48996682D01*
X101119525Y-49032451D01*
X101036501Y-49119741D01*
X100847484Y-49737990D01*
X100614984Y-49300721D01*
%TO.C,R304*%
X107200745Y-58060352D02*
X107662299Y-58116958D01*
X107415361Y-58463985D02*
X108121719Y-58088408D01*
X107978642Y-57819319D01*
X107909237Y-57769931D01*
X107857716Y-57754180D01*
X107772559Y-57756313D01*
X107671651Y-57809967D01*
X107622263Y-57879372D01*
X107606512Y-57930893D01*
X107608645Y-58016050D01*
X107751722Y-58285139D01*
X107781911Y-57449322D02*
X107549411Y-57012053D01*
X107405514Y-57390582D01*
X107351861Y-57289674D01*
X107282455Y-57240286D01*
X107230934Y-57224535D01*
X107145778Y-57226668D01*
X106977597Y-57316091D01*
X106928210Y-57385497D01*
X106912458Y-57437017D01*
X106914591Y-57522174D01*
X107021899Y-57723991D01*
X107091304Y-57773378D01*
X107142825Y-57789130D01*
X107316911Y-56574783D02*
X107281141Y-56507511D01*
X107211736Y-56458124D01*
X107160215Y-56442372D01*
X107075058Y-56444505D01*
X106922629Y-56482408D01*
X106754449Y-56571831D01*
X106637789Y-56677005D01*
X106588402Y-56746411D01*
X106572650Y-56797932D01*
X106574783Y-56883088D01*
X106610553Y-56950361D01*
X106679958Y-56999748D01*
X106731479Y-57015500D01*
X106816635Y-57013366D01*
X106969065Y-56975464D01*
X107137245Y-56886041D01*
X107253905Y-56780866D01*
X107303292Y-56711461D01*
X107319044Y-56659940D01*
X107316911Y-56574783D01*
X106634342Y-55859073D02*
X106163437Y-56109458D01*
X106992854Y-55884177D02*
X106577736Y-56320627D01*
X106345236Y-55883357D01*
%TO.C,R306*%
X110900745Y-64860351D02*
X111362299Y-64916957D01*
X111115361Y-65263984D02*
X111821719Y-64888407D01*
X111678642Y-64619318D01*
X111609237Y-64569930D01*
X111557716Y-64554179D01*
X111472559Y-64556312D01*
X111371651Y-64609966D01*
X111322263Y-64679371D01*
X111306512Y-64730892D01*
X111308645Y-64816049D01*
X111451722Y-65085138D01*
X111481911Y-64249321D02*
X111249411Y-63812052D01*
X111105514Y-64190581D01*
X111051861Y-64089673D01*
X110982455Y-64040285D01*
X110930934Y-64024534D01*
X110845778Y-64026667D01*
X110677597Y-64116090D01*
X110628210Y-64185496D01*
X110612458Y-64237016D01*
X110614591Y-64322173D01*
X110721899Y-64523990D01*
X110791304Y-64573377D01*
X110842825Y-64589129D01*
X111016911Y-63374782D02*
X110981141Y-63307510D01*
X110911736Y-63258123D01*
X110860215Y-63242371D01*
X110775058Y-63244504D01*
X110622629Y-63282407D01*
X110454449Y-63371830D01*
X110337789Y-63477004D01*
X110288402Y-63546410D01*
X110272650Y-63597931D01*
X110274783Y-63683087D01*
X110310553Y-63750360D01*
X110379958Y-63799747D01*
X110431479Y-63815499D01*
X110516635Y-63813365D01*
X110669065Y-63775463D01*
X110837245Y-63686040D01*
X110953905Y-63580865D01*
X111003292Y-63511460D01*
X111019044Y-63459939D01*
X111016911Y-63374782D01*
X110569795Y-62533880D02*
X110641333Y-62668424D01*
X110643467Y-62753581D01*
X110627715Y-62805102D01*
X110562576Y-62926028D01*
X110445916Y-63031203D01*
X110176827Y-63174280D01*
X110091671Y-63176413D01*
X110040150Y-63160661D01*
X109970745Y-63111274D01*
X109899206Y-62976729D01*
X109897073Y-62891572D01*
X109912824Y-62840052D01*
X109962212Y-62770646D01*
X110130392Y-62681223D01*
X110215549Y-62679090D01*
X110267070Y-62694842D01*
X110336475Y-62744229D01*
X110408014Y-62878773D01*
X110410147Y-62963930D01*
X110394396Y-63015451D01*
X110345008Y-63084856D01*
%TO.C,R308*%
X114700745Y-71960352D02*
X115162299Y-72016958D01*
X114915361Y-72363985D02*
X115621719Y-71988408D01*
X115478642Y-71719319D01*
X115409237Y-71669931D01*
X115357716Y-71654180D01*
X115272559Y-71656313D01*
X115171651Y-71709967D01*
X115122263Y-71779372D01*
X115106512Y-71830893D01*
X115108645Y-71916050D01*
X115251722Y-72185139D01*
X115281911Y-71349322D02*
X115049411Y-70912053D01*
X114905514Y-71290582D01*
X114851861Y-71189674D01*
X114782455Y-71140286D01*
X114730934Y-71124535D01*
X114645778Y-71126668D01*
X114477597Y-71216091D01*
X114428210Y-71285497D01*
X114412458Y-71337017D01*
X114414591Y-71422174D01*
X114521899Y-71623991D01*
X114591304Y-71673378D01*
X114642825Y-71689130D01*
X114816911Y-70474783D02*
X114781141Y-70407511D01*
X114711736Y-70358124D01*
X114660215Y-70342372D01*
X114575058Y-70344505D01*
X114422629Y-70382408D01*
X114254449Y-70471831D01*
X114137789Y-70577005D01*
X114088402Y-70646411D01*
X114072650Y-70697932D01*
X114074783Y-70783088D01*
X114110553Y-70850361D01*
X114179958Y-70899748D01*
X114231479Y-70915500D01*
X114316635Y-70913366D01*
X114469065Y-70875464D01*
X114637245Y-70786041D01*
X114753905Y-70680866D01*
X114803292Y-70611461D01*
X114819044Y-70559940D01*
X114816911Y-70474783D01*
X114174378Y-69996659D02*
X114243783Y-70046047D01*
X114295304Y-70061798D01*
X114380461Y-70059665D01*
X114414097Y-70041780D01*
X114463484Y-69972375D01*
X114479236Y-69920854D01*
X114477103Y-69835697D01*
X114405564Y-69701153D01*
X114336159Y-69651765D01*
X114284638Y-69636014D01*
X114199481Y-69638147D01*
X114165845Y-69656032D01*
X114116458Y-69725437D01*
X114100706Y-69776958D01*
X114102839Y-69862115D01*
X114174378Y-69996659D01*
X114176511Y-70081816D01*
X114160759Y-70133337D01*
X114111372Y-70202742D01*
X113976827Y-70274281D01*
X113891671Y-70276414D01*
X113840150Y-70260662D01*
X113770745Y-70211275D01*
X113699206Y-70076730D01*
X113697073Y-69991573D01*
X113712824Y-69940053D01*
X113762212Y-69870647D01*
X113896756Y-69799109D01*
X113981913Y-69796976D01*
X114033434Y-69812727D01*
X114102839Y-69862115D01*
%TO.C,R310*%
X118300745Y-79060352D02*
X118762299Y-79116958D01*
X118515361Y-79463985D02*
X119221719Y-79088408D01*
X119078642Y-78819319D01*
X119009237Y-78769931D01*
X118957716Y-78754180D01*
X118872559Y-78756313D01*
X118771651Y-78809967D01*
X118722263Y-78879372D01*
X118706512Y-78930893D01*
X118708645Y-79016050D01*
X118851722Y-79285139D01*
X118881911Y-78449322D02*
X118649411Y-78012053D01*
X118505514Y-78390582D01*
X118451861Y-78289674D01*
X118382455Y-78240286D01*
X118330934Y-78224535D01*
X118245778Y-78226668D01*
X118077597Y-78316091D01*
X118028210Y-78385497D01*
X118012458Y-78437017D01*
X118014591Y-78522174D01*
X118121899Y-78723991D01*
X118191304Y-78773378D01*
X118242825Y-78789130D01*
X117585360Y-77714908D02*
X117799976Y-78118541D01*
X117692668Y-77916724D02*
X118399026Y-77541147D01*
X118333887Y-77662073D01*
X118302384Y-77765115D01*
X118304517Y-77850272D01*
X118059218Y-76902061D02*
X118023449Y-76834789D01*
X117954043Y-76785402D01*
X117902523Y-76769650D01*
X117817366Y-76771783D01*
X117664937Y-76809686D01*
X117496756Y-76899109D01*
X117380097Y-77004283D01*
X117330709Y-77073689D01*
X117314958Y-77125210D01*
X117317091Y-77210366D01*
X117352860Y-77277639D01*
X117422265Y-77327026D01*
X117473786Y-77342778D01*
X117558943Y-77340644D01*
X117711372Y-77302742D01*
X117879552Y-77213319D01*
X117996212Y-77108144D01*
X118045600Y-77038739D01*
X118061351Y-76987218D01*
X118059218Y-76902061D01*
%TO.C,R312*%
X122000745Y-86060352D02*
X122462299Y-86116958D01*
X122215361Y-86463985D02*
X122921719Y-86088408D01*
X122778642Y-85819319D01*
X122709237Y-85769931D01*
X122657716Y-85754180D01*
X122572559Y-85756313D01*
X122471651Y-85809967D01*
X122422263Y-85879372D01*
X122406512Y-85930893D01*
X122408645Y-86016050D01*
X122551722Y-86285139D01*
X122581911Y-85449322D02*
X122349411Y-85012053D01*
X122205514Y-85390582D01*
X122151861Y-85289674D01*
X122082455Y-85240286D01*
X122030934Y-85224535D01*
X121945778Y-85226668D01*
X121777597Y-85316091D01*
X121728210Y-85385497D01*
X121712458Y-85437017D01*
X121714591Y-85522174D01*
X121821899Y-85723991D01*
X121891304Y-85773378D01*
X121942825Y-85789130D01*
X121285360Y-84714908D02*
X121499976Y-85118541D01*
X121392668Y-84916724D02*
X122099026Y-84541147D01*
X122033887Y-84662073D01*
X122002384Y-84765115D01*
X122004517Y-84850272D01*
X121781369Y-84106011D02*
X121797120Y-84054490D01*
X121794987Y-83969334D01*
X121705564Y-83801153D01*
X121636159Y-83751765D01*
X121584638Y-83736014D01*
X121499481Y-83738147D01*
X121432209Y-83773916D01*
X121349185Y-83861206D01*
X121160168Y-84479455D01*
X120927668Y-84042186D01*
%TO.C,R314*%
X125700745Y-93060352D02*
X126162299Y-93116958D01*
X125915361Y-93463985D02*
X126621719Y-93088408D01*
X126478642Y-92819319D01*
X126409237Y-92769931D01*
X126357716Y-92754180D01*
X126272559Y-92756313D01*
X126171651Y-92809967D01*
X126122263Y-92879372D01*
X126106512Y-92930893D01*
X126108645Y-93016050D01*
X126251722Y-93285139D01*
X126281911Y-92449322D02*
X126049411Y-92012053D01*
X125905514Y-92390582D01*
X125851861Y-92289674D01*
X125782455Y-92240286D01*
X125730934Y-92224535D01*
X125645778Y-92226668D01*
X125477597Y-92316091D01*
X125428210Y-92385497D01*
X125412458Y-92437017D01*
X125414591Y-92522174D01*
X125521899Y-92723991D01*
X125591304Y-92773378D01*
X125642825Y-92789130D01*
X124985360Y-91714908D02*
X125199976Y-92118541D01*
X125092668Y-91916724D02*
X125799026Y-91541147D01*
X125733887Y-91662073D01*
X125702384Y-91765115D01*
X125704517Y-91850272D01*
X125134342Y-90859073D02*
X124663437Y-91109458D01*
X125492854Y-90884177D02*
X125077736Y-91320627D01*
X124845236Y-90883357D01*
%TO.C,R316*%
X129400745Y-100060352D02*
X129862299Y-100116958D01*
X129615361Y-100463985D02*
X130321719Y-100088408D01*
X130178642Y-99819319D01*
X130109237Y-99769931D01*
X130057716Y-99754180D01*
X129972559Y-99756313D01*
X129871651Y-99809967D01*
X129822263Y-99879372D01*
X129806512Y-99930893D01*
X129808645Y-100016050D01*
X129951722Y-100285139D01*
X129981911Y-99449322D02*
X129749411Y-99012053D01*
X129605514Y-99390582D01*
X129551861Y-99289674D01*
X129482455Y-99240286D01*
X129430934Y-99224535D01*
X129345778Y-99226668D01*
X129177597Y-99316091D01*
X129128210Y-99385497D01*
X129112458Y-99437017D01*
X129114591Y-99522174D01*
X129221899Y-99723991D01*
X129291304Y-99773378D01*
X129342825Y-99789130D01*
X128685360Y-98714908D02*
X128899976Y-99118541D01*
X128792668Y-98916724D02*
X129499026Y-98541147D01*
X129433887Y-98662073D01*
X129402384Y-98765115D01*
X129404517Y-98850272D01*
X129069795Y-97733881D02*
X129141333Y-97868425D01*
X129143467Y-97953582D01*
X129127715Y-98005103D01*
X129062576Y-98126029D01*
X128945916Y-98231204D01*
X128676827Y-98374281D01*
X128591671Y-98376414D01*
X128540150Y-98360662D01*
X128470745Y-98311275D01*
X128399206Y-98176730D01*
X128397073Y-98091573D01*
X128412824Y-98040053D01*
X128462212Y-97970647D01*
X128630392Y-97881224D01*
X128715549Y-97879091D01*
X128767070Y-97894843D01*
X128836475Y-97944230D01*
X128908014Y-98078774D01*
X128910147Y-98163931D01*
X128894396Y-98215452D01*
X128845008Y-98284857D01*
%TO.C,R318*%
X133200746Y-106960352D02*
X133662300Y-107016958D01*
X133415362Y-107363985D02*
X134121720Y-106988408D01*
X133978643Y-106719319D01*
X133909238Y-106669931D01*
X133857717Y-106654180D01*
X133772560Y-106656313D01*
X133671652Y-106709967D01*
X133622264Y-106779372D01*
X133606513Y-106830893D01*
X133608646Y-106916050D01*
X133751723Y-107185139D01*
X133781912Y-106349322D02*
X133549412Y-105912053D01*
X133405515Y-106290582D01*
X133351862Y-106189674D01*
X133282456Y-106140286D01*
X133230935Y-106124535D01*
X133145779Y-106126668D01*
X132977598Y-106216091D01*
X132928211Y-106285497D01*
X132912459Y-106337017D01*
X132914592Y-106422174D01*
X133021900Y-106623991D01*
X133091305Y-106673378D01*
X133142826Y-106689130D01*
X132485361Y-105614908D02*
X132699977Y-106018541D01*
X132592669Y-105816724D02*
X133299027Y-105441147D01*
X133233888Y-105562073D01*
X133202385Y-105665115D01*
X133204518Y-105750272D01*
X132674379Y-104996659D02*
X132743784Y-105046047D01*
X132795305Y-105061798D01*
X132880462Y-105059665D01*
X132914098Y-105041780D01*
X132963485Y-104972375D01*
X132979237Y-104920854D01*
X132977104Y-104835697D01*
X132905565Y-104701153D01*
X132836160Y-104651765D01*
X132784639Y-104636014D01*
X132699482Y-104638147D01*
X132665846Y-104656032D01*
X132616459Y-104725437D01*
X132600707Y-104776958D01*
X132602840Y-104862115D01*
X132674379Y-104996659D01*
X132676512Y-105081816D01*
X132660760Y-105133337D01*
X132611373Y-105202742D01*
X132476828Y-105274281D01*
X132391672Y-105276414D01*
X132340151Y-105260662D01*
X132270746Y-105211275D01*
X132199207Y-105076730D01*
X132197074Y-104991573D01*
X132212825Y-104940053D01*
X132262213Y-104870647D01*
X132396757Y-104799109D01*
X132481914Y-104796976D01*
X132533435Y-104812727D01*
X132602840Y-104862115D01*
%TO.C,R320*%
X136900745Y-114060352D02*
X137362299Y-114116958D01*
X137115361Y-114463985D02*
X137821719Y-114088408D01*
X137678642Y-113819319D01*
X137609237Y-113769931D01*
X137557716Y-113754180D01*
X137472559Y-113756313D01*
X137371651Y-113809967D01*
X137322263Y-113879372D01*
X137306512Y-113930893D01*
X137308645Y-114016050D01*
X137451722Y-114285139D01*
X137481911Y-113449322D02*
X137249411Y-113012053D01*
X137105514Y-113390582D01*
X137051861Y-113289674D01*
X136982455Y-113240286D01*
X136930934Y-113224535D01*
X136845778Y-113226668D01*
X136677597Y-113316091D01*
X136628210Y-113385497D01*
X136612458Y-113437017D01*
X136614591Y-113522174D01*
X136721899Y-113723991D01*
X136791304Y-113773378D01*
X136842825Y-113789130D01*
X137039062Y-112778733D02*
X137054813Y-112727212D01*
X137052680Y-112642056D01*
X136963257Y-112473875D01*
X136893851Y-112424487D01*
X136842331Y-112408736D01*
X136757174Y-112410869D01*
X136689902Y-112446638D01*
X136606878Y-112533928D01*
X136417860Y-113152177D01*
X136185360Y-112714908D01*
X136659218Y-111902061D02*
X136623449Y-111834789D01*
X136554043Y-111785402D01*
X136502523Y-111769650D01*
X136417366Y-111771783D01*
X136264937Y-111809686D01*
X136096756Y-111899109D01*
X135980097Y-112004283D01*
X135930709Y-112073689D01*
X135914958Y-112125210D01*
X135917091Y-112210366D01*
X135952860Y-112277639D01*
X136022265Y-112327026D01*
X136073786Y-112342778D01*
X136158943Y-112340644D01*
X136311372Y-112302742D01*
X136479552Y-112213319D01*
X136596212Y-112108144D01*
X136645600Y-112038739D01*
X136661351Y-111987218D01*
X136659218Y-111902061D01*
%TO.C,R322*%
X140600745Y-121060351D02*
X141062299Y-121116957D01*
X140815361Y-121463984D02*
X141521719Y-121088407D01*
X141378642Y-120819318D01*
X141309237Y-120769930D01*
X141257716Y-120754179D01*
X141172559Y-120756312D01*
X141071651Y-120809966D01*
X141022263Y-120879371D01*
X141006512Y-120930892D01*
X141008645Y-121016049D01*
X141151722Y-121285138D01*
X141181911Y-120449321D02*
X140949411Y-120012052D01*
X140805514Y-120390581D01*
X140751861Y-120289673D01*
X140682455Y-120240285D01*
X140630934Y-120224534D01*
X140545778Y-120226667D01*
X140377597Y-120316090D01*
X140328210Y-120385496D01*
X140312458Y-120437016D01*
X140314591Y-120522173D01*
X140421899Y-120723990D01*
X140491304Y-120773377D01*
X140542825Y-120789129D01*
X140739062Y-119778732D02*
X140754813Y-119727211D01*
X140752680Y-119642055D01*
X140663257Y-119473874D01*
X140593851Y-119424486D01*
X140542331Y-119408735D01*
X140457174Y-119410868D01*
X140389902Y-119446637D01*
X140306878Y-119533927D01*
X140117860Y-120152176D01*
X139885360Y-119714907D01*
X140381369Y-119106010D02*
X140397120Y-119054489D01*
X140394987Y-118969333D01*
X140305564Y-118801152D01*
X140236159Y-118751764D01*
X140184638Y-118736013D01*
X140099481Y-118738146D01*
X140032209Y-118773915D01*
X139949185Y-118861205D01*
X139760168Y-119479454D01*
X139527668Y-119042185D01*
%TO.C,R324*%
X144300745Y-127960352D02*
X144762299Y-128016958D01*
X144515361Y-128363985D02*
X145221719Y-127988408D01*
X145078642Y-127719319D01*
X145009237Y-127669931D01*
X144957716Y-127654180D01*
X144872559Y-127656313D01*
X144771651Y-127709967D01*
X144722263Y-127779372D01*
X144706512Y-127830893D01*
X144708645Y-127916050D01*
X144851722Y-128185139D01*
X144881911Y-127349322D02*
X144649411Y-126912053D01*
X144505514Y-127290582D01*
X144451861Y-127189674D01*
X144382455Y-127140286D01*
X144330934Y-127124535D01*
X144245778Y-127126668D01*
X144077597Y-127216091D01*
X144028210Y-127285497D01*
X144012458Y-127337017D01*
X144014591Y-127422174D01*
X144121899Y-127623991D01*
X144191304Y-127673378D01*
X144242825Y-127689130D01*
X144439062Y-126678733D02*
X144454813Y-126627212D01*
X144452680Y-126542056D01*
X144363257Y-126373875D01*
X144293851Y-126324487D01*
X144242331Y-126308736D01*
X144157174Y-126310869D01*
X144089902Y-126346638D01*
X144006878Y-126433928D01*
X143817860Y-127052177D01*
X143585360Y-126614908D01*
X143734342Y-125759073D02*
X143263437Y-126009458D01*
X144092854Y-125784177D02*
X143677736Y-126220627D01*
X143445236Y-125783357D01*
%TO.C,R602*%
X99321679Y-49349131D02*
X99110511Y-48934832D01*
X99536295Y-48945498D02*
X98829937Y-48569921D01*
X98686860Y-48839010D01*
X98684727Y-48924166D01*
X98700478Y-48975687D01*
X98749866Y-49045092D01*
X98850774Y-49098746D01*
X98935931Y-49100880D01*
X98987451Y-49085128D01*
X99056857Y-49035740D01*
X99199934Y-48766652D01*
X98293398Y-49579004D02*
X98364936Y-49444459D01*
X98434342Y-49395072D01*
X98485862Y-49379320D01*
X98622540Y-49365702D01*
X98774969Y-49403604D01*
X99044058Y-49546681D01*
X99093445Y-49616087D01*
X99109197Y-49667608D01*
X99107064Y-49752764D01*
X99035525Y-49887309D01*
X98966120Y-49936696D01*
X98914599Y-49952448D01*
X98829442Y-49950315D01*
X98661262Y-49860891D01*
X98611874Y-49791486D01*
X98596123Y-49739965D01*
X98598256Y-49654809D01*
X98669794Y-49520264D01*
X98739200Y-49470877D01*
X98790721Y-49455125D01*
X98875877Y-49457258D01*
X98025128Y-50083545D02*
X97989359Y-50150817D01*
X97987226Y-50235974D01*
X98002977Y-50287495D01*
X98052365Y-50356900D01*
X98169025Y-50462075D01*
X98337205Y-50551498D01*
X98489634Y-50589401D01*
X98574791Y-50591534D01*
X98626312Y-50575782D01*
X98695717Y-50526395D01*
X98731486Y-50459122D01*
X98733620Y-50373966D01*
X98717868Y-50322445D01*
X98668481Y-50253040D01*
X98551821Y-50147865D01*
X98383640Y-50058442D01*
X98231211Y-50020539D01*
X98146054Y-50018406D01*
X98094534Y-50034158D01*
X98025128Y-50083545D01*
X97824131Y-50623856D02*
X97772610Y-50639607D01*
X97703205Y-50688995D01*
X97613782Y-50857175D01*
X97611649Y-50942332D01*
X97627400Y-50993853D01*
X97676788Y-51063258D01*
X97744060Y-51099028D01*
X97862853Y-51119045D01*
X98481102Y-50930028D01*
X98248601Y-51367297D01*
%TO.C,R604*%
X93539831Y-56379455D02*
X93328663Y-55965156D01*
X93754447Y-55975822D02*
X93048089Y-55600245D01*
X92905012Y-55869334D01*
X92902879Y-55954490D01*
X92918630Y-56006011D01*
X92968018Y-56075416D01*
X93068926Y-56129070D01*
X93154083Y-56131204D01*
X93205603Y-56115452D01*
X93275009Y-56066064D01*
X93418086Y-55796976D01*
X92511550Y-56609328D02*
X92583088Y-56474783D01*
X92652494Y-56425396D01*
X92704014Y-56409644D01*
X92840692Y-56396026D01*
X92993121Y-56433928D01*
X93262210Y-56577005D01*
X93311597Y-56646411D01*
X93327349Y-56697932D01*
X93325216Y-56783088D01*
X93253677Y-56917633D01*
X93184272Y-56967020D01*
X93132751Y-56982772D01*
X93047594Y-56980639D01*
X92879414Y-56891215D01*
X92830026Y-56821810D01*
X92814275Y-56770289D01*
X92816408Y-56685133D01*
X92887946Y-56550588D01*
X92957352Y-56501201D01*
X93008873Y-56485449D01*
X93094029Y-56487582D01*
X92243280Y-57113869D02*
X92207511Y-57181141D01*
X92205378Y-57266298D01*
X92221129Y-57317819D01*
X92270517Y-57387224D01*
X92387177Y-57492399D01*
X92555357Y-57581822D01*
X92707786Y-57619725D01*
X92792943Y-57621858D01*
X92844464Y-57606106D01*
X92913869Y-57556719D01*
X92949638Y-57489446D01*
X92951772Y-57404290D01*
X92936020Y-57352769D01*
X92886633Y-57283364D01*
X92769973Y-57178189D01*
X92601792Y-57088766D01*
X92449363Y-57050863D01*
X92364206Y-57048730D01*
X92312686Y-57064482D01*
X92243280Y-57113869D01*
X92031617Y-58079964D02*
X92502523Y-58330349D01*
X91851952Y-57768707D02*
X92445916Y-57868795D01*
X92213416Y-58306065D01*
%TO.C,R606*%
X89939831Y-63479455D02*
X89728663Y-63065156D01*
X90154447Y-63075822D02*
X89448089Y-62700245D01*
X89305012Y-62969334D01*
X89302879Y-63054490D01*
X89318630Y-63106011D01*
X89368018Y-63175416D01*
X89468926Y-63229070D01*
X89554083Y-63231204D01*
X89605603Y-63215452D01*
X89675009Y-63166064D01*
X89818086Y-62896976D01*
X88911550Y-63709328D02*
X88983088Y-63574783D01*
X89052494Y-63525396D01*
X89104014Y-63509644D01*
X89240692Y-63496026D01*
X89393121Y-63533928D01*
X89662210Y-63677005D01*
X89711597Y-63746411D01*
X89727349Y-63797932D01*
X89725216Y-63883088D01*
X89653677Y-64017633D01*
X89584272Y-64067020D01*
X89532751Y-64082772D01*
X89447594Y-64080639D01*
X89279414Y-63991215D01*
X89230026Y-63921810D01*
X89214275Y-63870289D01*
X89216408Y-63785133D01*
X89287946Y-63650588D01*
X89357352Y-63601201D01*
X89408873Y-63585449D01*
X89494029Y-63587582D01*
X88643280Y-64213869D02*
X88607511Y-64281141D01*
X88605378Y-64366298D01*
X88621129Y-64417819D01*
X88670517Y-64487224D01*
X88787177Y-64592399D01*
X88955357Y-64681822D01*
X89107786Y-64719725D01*
X89192943Y-64721858D01*
X89244464Y-64706106D01*
X89313869Y-64656719D01*
X89349638Y-64589446D01*
X89351772Y-64504290D01*
X89336020Y-64452769D01*
X89286633Y-64383364D01*
X89169973Y-64278189D01*
X89001792Y-64188766D01*
X88849363Y-64150863D01*
X88764206Y-64148730D01*
X88712686Y-64164482D01*
X88643280Y-64213869D01*
X88196165Y-65054772D02*
X88267703Y-64920227D01*
X88337108Y-64870840D01*
X88388629Y-64855088D01*
X88525307Y-64841470D01*
X88677736Y-64879372D01*
X88946825Y-65022449D01*
X88996212Y-65091855D01*
X89011964Y-65143375D01*
X89009830Y-65228532D01*
X88938292Y-65363077D01*
X88868887Y-65412464D01*
X88817366Y-65428216D01*
X88732209Y-65426083D01*
X88564029Y-65336659D01*
X88514641Y-65267254D01*
X88498889Y-65215733D01*
X88501023Y-65130577D01*
X88572561Y-64996032D01*
X88641967Y-64946645D01*
X88693487Y-64930893D01*
X88778644Y-64933026D01*
%TO.C,R608*%
X86239831Y-70479455D02*
X86028663Y-70065156D01*
X86454447Y-70075822D02*
X85748089Y-69700245D01*
X85605012Y-69969334D01*
X85602879Y-70054490D01*
X85618630Y-70106011D01*
X85668018Y-70175416D01*
X85768926Y-70229070D01*
X85854083Y-70231204D01*
X85905603Y-70215452D01*
X85975009Y-70166064D01*
X86118086Y-69896976D01*
X85211550Y-70709328D02*
X85283088Y-70574783D01*
X85352494Y-70525396D01*
X85404014Y-70509644D01*
X85540692Y-70496026D01*
X85693121Y-70533928D01*
X85962210Y-70677005D01*
X86011597Y-70746411D01*
X86027349Y-70797932D01*
X86025216Y-70883088D01*
X85953677Y-71017633D01*
X85884272Y-71067020D01*
X85832751Y-71082772D01*
X85747594Y-71080639D01*
X85579414Y-70991215D01*
X85530026Y-70921810D01*
X85514275Y-70870289D01*
X85516408Y-70785133D01*
X85587946Y-70650588D01*
X85657352Y-70601201D01*
X85708873Y-70585449D01*
X85794029Y-70587582D01*
X84943280Y-71213869D02*
X84907511Y-71281141D01*
X84905378Y-71366298D01*
X84921129Y-71417819D01*
X84970517Y-71487224D01*
X85087177Y-71592399D01*
X85255357Y-71681822D01*
X85407786Y-71719725D01*
X85492943Y-71721858D01*
X85544464Y-71706106D01*
X85613869Y-71656719D01*
X85649638Y-71589446D01*
X85651772Y-71504290D01*
X85636020Y-71452769D01*
X85586633Y-71383364D01*
X85469973Y-71278189D01*
X85301792Y-71188766D01*
X85149363Y-71150863D01*
X85064206Y-71148730D01*
X85012686Y-71164482D01*
X84943280Y-71213869D01*
X84906197Y-72013917D02*
X84908330Y-71928760D01*
X84892579Y-71877239D01*
X84843191Y-71807834D01*
X84809555Y-71789949D01*
X84724398Y-71787816D01*
X84672878Y-71803567D01*
X84603472Y-71852955D01*
X84531934Y-71987499D01*
X84529801Y-72072656D01*
X84545552Y-72124177D01*
X84594940Y-72193582D01*
X84628576Y-72211467D01*
X84713733Y-72213600D01*
X84765253Y-72197849D01*
X84834659Y-72148461D01*
X84906197Y-72013917D01*
X84975603Y-71964529D01*
X85027123Y-71948778D01*
X85112280Y-71950911D01*
X85246825Y-72022449D01*
X85296212Y-72091855D01*
X85311964Y-72143375D01*
X85309830Y-72228532D01*
X85238292Y-72363077D01*
X85168887Y-72412464D01*
X85117366Y-72428216D01*
X85032209Y-72426083D01*
X84897665Y-72354544D01*
X84848277Y-72285139D01*
X84832526Y-72233618D01*
X84834659Y-72148461D01*
%TO.C,R610*%
X82439831Y-77479455D02*
X82228663Y-77065156D01*
X82654447Y-77075822D02*
X81948089Y-76700245D01*
X81805012Y-76969334D01*
X81802879Y-77054490D01*
X81818630Y-77106011D01*
X81868018Y-77175416D01*
X81968926Y-77229070D01*
X82054083Y-77231204D01*
X82105603Y-77215452D01*
X82175009Y-77166064D01*
X82318086Y-76896976D01*
X81411550Y-77709328D02*
X81483088Y-77574783D01*
X81552494Y-77525396D01*
X81604014Y-77509644D01*
X81740692Y-77496026D01*
X81893121Y-77533928D01*
X82162210Y-77677005D01*
X82211597Y-77746411D01*
X82227349Y-77797932D01*
X82225216Y-77883088D01*
X82153677Y-78017633D01*
X82084272Y-78067020D01*
X82032751Y-78082772D01*
X81947594Y-78080639D01*
X81779414Y-77991215D01*
X81730026Y-77921810D01*
X81714275Y-77870289D01*
X81716408Y-77785133D01*
X81787946Y-77650588D01*
X81857352Y-77601201D01*
X81908873Y-77585449D01*
X81994029Y-77587582D01*
X81724446Y-78824899D02*
X81939062Y-78421266D01*
X81831754Y-78623083D02*
X81125396Y-78247505D01*
X81262073Y-78233887D01*
X81365115Y-78202384D01*
X81434520Y-78152996D01*
X80785588Y-78886591D02*
X80749818Y-78953863D01*
X80747685Y-79039020D01*
X80763437Y-79090541D01*
X80812824Y-79159946D01*
X80929484Y-79265121D01*
X81097665Y-79354544D01*
X81250094Y-79392446D01*
X81335250Y-79394580D01*
X81386771Y-79378828D01*
X81456177Y-79329441D01*
X81491946Y-79262168D01*
X81494079Y-79177012D01*
X81478328Y-79125491D01*
X81428940Y-79056085D01*
X81312280Y-78950911D01*
X81144100Y-78861488D01*
X80991671Y-78823585D01*
X80906514Y-78821452D01*
X80854993Y-78837204D01*
X80785588Y-78886591D01*
%TO.C,R612*%
X78739831Y-84379456D02*
X78528663Y-83965157D01*
X78954447Y-83975823D02*
X78248089Y-83600246D01*
X78105012Y-83869335D01*
X78102879Y-83954491D01*
X78118630Y-84006012D01*
X78168018Y-84075417D01*
X78268926Y-84129071D01*
X78354083Y-84131205D01*
X78405603Y-84115453D01*
X78475009Y-84066065D01*
X78618086Y-83796977D01*
X77711550Y-84609329D02*
X77783088Y-84474784D01*
X77852494Y-84425397D01*
X77904014Y-84409645D01*
X78040692Y-84396027D01*
X78193121Y-84433929D01*
X78462210Y-84577006D01*
X78511597Y-84646412D01*
X78527349Y-84697933D01*
X78525216Y-84783089D01*
X78453677Y-84917634D01*
X78384272Y-84967021D01*
X78332751Y-84982773D01*
X78247594Y-84980640D01*
X78079414Y-84891216D01*
X78030026Y-84821811D01*
X78014275Y-84770290D01*
X78016408Y-84685134D01*
X78087946Y-84550589D01*
X78157352Y-84501202D01*
X78208873Y-84485450D01*
X78294029Y-84487583D01*
X78024446Y-85724900D02*
X78239062Y-85321267D01*
X78131754Y-85523084D02*
X77425396Y-85147506D01*
X77562073Y-85133888D01*
X77665115Y-85102385D01*
X77734520Y-85052997D01*
X77242283Y-85654181D02*
X77190762Y-85669932D01*
X77121357Y-85719320D01*
X77031934Y-85887500D01*
X77029801Y-85972657D01*
X77045552Y-86024178D01*
X77094940Y-86093583D01*
X77162212Y-86129353D01*
X77281005Y-86149370D01*
X77899254Y-85960353D01*
X77666753Y-86397622D01*
%TO.C,R614*%
X75039831Y-91479455D02*
X74828663Y-91065156D01*
X75254447Y-91075822D02*
X74548089Y-90700245D01*
X74405012Y-90969334D01*
X74402879Y-91054490D01*
X74418630Y-91106011D01*
X74468018Y-91175416D01*
X74568926Y-91229070D01*
X74654083Y-91231204D01*
X74705603Y-91215452D01*
X74775009Y-91166064D01*
X74918086Y-90896976D01*
X74011550Y-91709328D02*
X74083088Y-91574783D01*
X74152494Y-91525396D01*
X74204014Y-91509644D01*
X74340692Y-91496026D01*
X74493121Y-91533928D01*
X74762210Y-91677005D01*
X74811597Y-91746411D01*
X74827349Y-91797932D01*
X74825216Y-91883088D01*
X74753677Y-92017633D01*
X74684272Y-92067020D01*
X74632751Y-92082772D01*
X74547594Y-92080639D01*
X74379414Y-91991215D01*
X74330026Y-91921810D01*
X74314275Y-91870289D01*
X74316408Y-91785133D01*
X74387946Y-91650588D01*
X74457352Y-91601201D01*
X74508873Y-91585449D01*
X74594029Y-91587582D01*
X74324446Y-92824899D02*
X74539062Y-92421266D01*
X74431754Y-92623083D02*
X73725396Y-92247505D01*
X73862073Y-92233887D01*
X73965115Y-92202384D01*
X74034520Y-92152996D01*
X73531617Y-93179964D02*
X74002523Y-93430349D01*
X73351952Y-92868707D02*
X73945916Y-92968795D01*
X73713416Y-93406065D01*
%TO.C,R618*%
X67639831Y-105479455D02*
X67428663Y-105065156D01*
X67854447Y-105075822D02*
X67148089Y-104700245D01*
X67005012Y-104969334D01*
X67002879Y-105054490D01*
X67018630Y-105106011D01*
X67068018Y-105175416D01*
X67168926Y-105229070D01*
X67254083Y-105231204D01*
X67305603Y-105215452D01*
X67375009Y-105166064D01*
X67518086Y-104896976D01*
X66611550Y-105709328D02*
X66683088Y-105574783D01*
X66752494Y-105525396D01*
X66804014Y-105509644D01*
X66940692Y-105496026D01*
X67093121Y-105533928D01*
X67362210Y-105677005D01*
X67411597Y-105746411D01*
X67427349Y-105797932D01*
X67425216Y-105883088D01*
X67353677Y-106017633D01*
X67284272Y-106067020D01*
X67232751Y-106082772D01*
X67147594Y-106080639D01*
X66979414Y-105991215D01*
X66930026Y-105921810D01*
X66914275Y-105870289D01*
X66916408Y-105785133D01*
X66987946Y-105650588D01*
X67057352Y-105601201D01*
X67108873Y-105585449D01*
X67194029Y-105587582D01*
X66924446Y-106824899D02*
X67139062Y-106421266D01*
X67031754Y-106623083D02*
X66325396Y-106247505D01*
X66462073Y-106233887D01*
X66565115Y-106202384D01*
X66634520Y-106152996D01*
X66306197Y-107013917D02*
X66308330Y-106928760D01*
X66292579Y-106877239D01*
X66243191Y-106807834D01*
X66209555Y-106789949D01*
X66124398Y-106787816D01*
X66072878Y-106803567D01*
X66003472Y-106852955D01*
X65931934Y-106987499D01*
X65929801Y-107072656D01*
X65945552Y-107124177D01*
X65994940Y-107193582D01*
X66028576Y-107211467D01*
X66113733Y-107213600D01*
X66165253Y-107197849D01*
X66234659Y-107148461D01*
X66306197Y-107013917D01*
X66375603Y-106964529D01*
X66427123Y-106948778D01*
X66512280Y-106950911D01*
X66646825Y-107022449D01*
X66696212Y-107091855D01*
X66711964Y-107143375D01*
X66709830Y-107228532D01*
X66638292Y-107363077D01*
X66568887Y-107412464D01*
X66517366Y-107428216D01*
X66432209Y-107426083D01*
X66297665Y-107354544D01*
X66248277Y-107285139D01*
X66232526Y-107233618D01*
X66234659Y-107148461D01*
%TO.C,R622*%
X60339831Y-119479455D02*
X60128663Y-119065156D01*
X60554447Y-119075822D02*
X59848089Y-118700245D01*
X59705012Y-118969334D01*
X59702879Y-119054490D01*
X59718630Y-119106011D01*
X59768018Y-119175416D01*
X59868926Y-119229070D01*
X59954083Y-119231204D01*
X60005603Y-119215452D01*
X60075009Y-119166064D01*
X60218086Y-118896976D01*
X59311550Y-119709328D02*
X59383088Y-119574783D01*
X59452494Y-119525396D01*
X59504014Y-119509644D01*
X59640692Y-119496026D01*
X59793121Y-119533928D01*
X60062210Y-119677005D01*
X60111597Y-119746411D01*
X60127349Y-119797932D01*
X60125216Y-119883088D01*
X60053677Y-120017633D01*
X59984272Y-120067020D01*
X59932751Y-120082772D01*
X59847594Y-120080639D01*
X59679414Y-119991215D01*
X59630026Y-119921810D01*
X59614275Y-119870289D01*
X59616408Y-119785133D01*
X59687946Y-119650588D01*
X59757352Y-119601201D01*
X59808873Y-119585449D01*
X59894029Y-119587582D01*
X59199976Y-120081458D02*
X59148455Y-120097209D01*
X59079050Y-120146597D01*
X58989626Y-120314777D01*
X58987493Y-120399934D01*
X59003245Y-120451455D01*
X59052632Y-120520860D01*
X59119905Y-120556630D01*
X59238697Y-120576647D01*
X59856946Y-120387630D01*
X59624446Y-120824899D01*
X58842283Y-120754180D02*
X58790762Y-120769931D01*
X58721357Y-120819319D01*
X58631934Y-120987499D01*
X58629801Y-121072656D01*
X58645552Y-121124177D01*
X58694940Y-121193582D01*
X58762212Y-121229352D01*
X58881005Y-121249369D01*
X59499254Y-121060352D01*
X59266753Y-121497621D01*
%TO.C,R624*%
X56539830Y-126479455D02*
X56328662Y-126065156D01*
X56754446Y-126075822D02*
X56048088Y-125700245D01*
X55905011Y-125969334D01*
X55902878Y-126054490D01*
X55918629Y-126106011D01*
X55968017Y-126175416D01*
X56068925Y-126229070D01*
X56154082Y-126231204D01*
X56205602Y-126215452D01*
X56275008Y-126166064D01*
X56418085Y-125896976D01*
X55511549Y-126709328D02*
X55583087Y-126574783D01*
X55652493Y-126525396D01*
X55704013Y-126509644D01*
X55840691Y-126496026D01*
X55993120Y-126533928D01*
X56262209Y-126677005D01*
X56311596Y-126746411D01*
X56327348Y-126797932D01*
X56325215Y-126883088D01*
X56253676Y-127017633D01*
X56184271Y-127067020D01*
X56132750Y-127082772D01*
X56047593Y-127080639D01*
X55879413Y-126991215D01*
X55830025Y-126921810D01*
X55814274Y-126870289D01*
X55816407Y-126785133D01*
X55887945Y-126650588D01*
X55957351Y-126601201D01*
X56008872Y-126585449D01*
X56094028Y-126587582D01*
X55399975Y-127081458D02*
X55348454Y-127097209D01*
X55279049Y-127146597D01*
X55189625Y-127314777D01*
X55187492Y-127399934D01*
X55203244Y-127451455D01*
X55252631Y-127520860D01*
X55319904Y-127556630D01*
X55438696Y-127576647D01*
X56056945Y-127387630D01*
X55824445Y-127824899D01*
X55031616Y-128179964D02*
X55502522Y-128430349D01*
X54851951Y-127868707D02*
X55445915Y-127968795D01*
X55213415Y-128406065D01*
%TO.C,P102*%
X103452380Y-109961904D02*
X103452380Y-109161904D01*
X103147619Y-109161904D01*
X103071428Y-109200000D01*
X103033333Y-109238095D01*
X102995238Y-109314285D01*
X102995238Y-109428571D01*
X103033333Y-109504761D01*
X103071428Y-109542857D01*
X103147619Y-109580952D01*
X103452380Y-109580952D01*
X102233333Y-109961904D02*
X102690476Y-109961904D01*
X102461904Y-109961904D02*
X102461904Y-109161904D01*
X102538095Y-109276190D01*
X102614285Y-109352380D01*
X102690476Y-109390476D01*
X101738095Y-109161904D02*
X101661904Y-109161904D01*
X101585714Y-109200000D01*
X101547619Y-109238095D01*
X101509523Y-109314285D01*
X101471428Y-109466666D01*
X101471428Y-109657142D01*
X101509523Y-109809523D01*
X101547619Y-109885714D01*
X101585714Y-109923809D01*
X101661904Y-109961904D01*
X101738095Y-109961904D01*
X101814285Y-109923809D01*
X101852380Y-109885714D01*
X101890476Y-109809523D01*
X101928571Y-109657142D01*
X101928571Y-109466666D01*
X101890476Y-109314285D01*
X101852380Y-109238095D01*
X101814285Y-109200000D01*
X101738095Y-109161904D01*
X101166666Y-109238095D02*
X101128571Y-109200000D01*
X101052380Y-109161904D01*
X100861904Y-109161904D01*
X100785714Y-109200000D01*
X100747619Y-109238095D01*
X100709523Y-109314285D01*
X100709523Y-109390476D01*
X100747619Y-109504761D01*
X101204761Y-109961904D01*
X100709523Y-109961904D01*
%TO.C,P103*%
X103761904Y-56547619D02*
X102961904Y-56547619D01*
X102961904Y-56852380D01*
X103000000Y-56928571D01*
X103038095Y-56966666D01*
X103114285Y-57004761D01*
X103228571Y-57004761D01*
X103304761Y-56966666D01*
X103342857Y-56928571D01*
X103380952Y-56852380D01*
X103380952Y-56547619D01*
X103761904Y-57766666D02*
X103761904Y-57309523D01*
X103761904Y-57538095D02*
X102961904Y-57538095D01*
X103076190Y-57461904D01*
X103152380Y-57385714D01*
X103190476Y-57309523D01*
X102961904Y-58261904D02*
X102961904Y-58338095D01*
X103000000Y-58414285D01*
X103038095Y-58452380D01*
X103114285Y-58490476D01*
X103266666Y-58528571D01*
X103457142Y-58528571D01*
X103609523Y-58490476D01*
X103685714Y-58452380D01*
X103723809Y-58414285D01*
X103761904Y-58338095D01*
X103761904Y-58261904D01*
X103723809Y-58185714D01*
X103685714Y-58147619D01*
X103609523Y-58109523D01*
X103457142Y-58071428D01*
X103266666Y-58071428D01*
X103114285Y-58109523D01*
X103038095Y-58147619D01*
X103000000Y-58185714D01*
X102961904Y-58261904D01*
X102961904Y-58795238D02*
X102961904Y-59290476D01*
X103266666Y-59023809D01*
X103266666Y-59138095D01*
X103304761Y-59214285D01*
X103342857Y-59252380D01*
X103419047Y-59290476D01*
X103609523Y-59290476D01*
X103685714Y-59252380D01*
X103723809Y-59214285D01*
X103761904Y-59138095D01*
X103761904Y-58909523D01*
X103723809Y-58833333D01*
X103685714Y-58795238D01*
%TO.C,DL702*%
X100361904Y-43523809D02*
X99561904Y-43523809D01*
X99561904Y-43714285D01*
X99600000Y-43828571D01*
X99676190Y-43904761D01*
X99752380Y-43942857D01*
X99904761Y-43980952D01*
X100019047Y-43980952D01*
X100171428Y-43942857D01*
X100247619Y-43904761D01*
X100323809Y-43828571D01*
X100361904Y-43714285D01*
X100361904Y-43523809D01*
X100361904Y-44704761D02*
X100361904Y-44323809D01*
X99561904Y-44323809D01*
X99561904Y-44895238D02*
X99561904Y-45428571D01*
X100361904Y-45085714D01*
X99561904Y-45885714D02*
X99561904Y-45961904D01*
X99600000Y-46038095D01*
X99638095Y-46076190D01*
X99714285Y-46114285D01*
X99866666Y-46152380D01*
X100057142Y-46152380D01*
X100209523Y-46114285D01*
X100285714Y-46076190D01*
X100323809Y-46038095D01*
X100361904Y-45961904D01*
X100361904Y-45885714D01*
X100323809Y-45809523D01*
X100285714Y-45771428D01*
X100209523Y-45733333D01*
X100057142Y-45695238D01*
X99866666Y-45695238D01*
X99714285Y-45733333D01*
X99638095Y-45771428D01*
X99600000Y-45809523D01*
X99561904Y-45885714D01*
X99638095Y-46457142D02*
X99600000Y-46495238D01*
X99561904Y-46571428D01*
X99561904Y-46761904D01*
X99600000Y-46838095D01*
X99638095Y-46876190D01*
X99714285Y-46914285D01*
X99790476Y-46914285D01*
X99904761Y-46876190D01*
X100361904Y-46419047D01*
X100361904Y-46914285D01*
X100381904Y-40256666D02*
X99581904Y-40256666D01*
X100077142Y-40332857D02*
X100381904Y-40561428D01*
X99848571Y-40561428D02*
X100153333Y-40256666D01*
%TD*%
M02*
