%TF.GenerationSoftware,KiCad,Pcbnew,(5.1.6-0-10_14)*%
%TF.CreationDate,2020-10-09T22:40:52+02:00*%
%TF.ProjectId,nowae029,6e6f7761-6530-4323-992e-6b696361645f,0*%
%TF.SameCoordinates,Original*%
%TF.FileFunction,Copper,L1,Top*%
%TF.FilePolarity,Positive*%
%FSLAX46Y46*%
G04 Gerber Fmt 4.6, Leading zero omitted, Abs format (unit mm)*
G04 Created by KiCad (PCBNEW (5.1.6-0-10_14)) date 2020-10-09 22:40:52*
%MOMM*%
%LPD*%
G01*
G04 APERTURE LIST*
%TA.AperFunction,Profile*%
%ADD10C,0.050000*%
%TD*%
%TA.AperFunction,Profile*%
%ADD11C,0.200000*%
%TD*%
%TA.AperFunction,Conductor*%
%ADD12C,1.000000*%
%TD*%
%TA.AperFunction,SMDPad,CuDef*%
%ADD13C,0.100000*%
%TD*%
%TA.AperFunction,SMDPad,CuDef*%
%ADD14R,1.150000X0.300000*%
%TD*%
%TA.AperFunction,SMDPad,CuDef*%
%ADD15R,0.300000X1.150000*%
%TD*%
%TA.AperFunction,SMDPad,CuDef*%
%ADD16R,0.600000X0.800000*%
%TD*%
%TA.AperFunction,SMDPad,CuDef*%
%ADD17R,0.900000X1.700000*%
%TD*%
%TA.AperFunction,SMDPad,CuDef*%
%ADD18R,1.700000X0.900000*%
%TD*%
%TA.AperFunction,SMDPad,CuDef*%
%ADD19R,0.800000X0.600000*%
%TD*%
%TA.AperFunction,SMDPad,CuDef*%
%ADD20R,0.800000X1.000000*%
%TD*%
%TA.AperFunction,SMDPad,CuDef*%
%ADD21R,0.900000X1.300000*%
%TD*%
%TA.AperFunction,SMDPad,CuDef*%
%ADD22R,0.300000X0.850000*%
%TD*%
%TA.AperFunction,ComponentPad*%
%ADD23C,1.200000*%
%TD*%
%TA.AperFunction,SMDPad,CuDef*%
%ADD24R,1.250000X0.350000*%
%TD*%
%TA.AperFunction,SMDPad,CuDef*%
%ADD25R,0.650000X1.060000*%
%TD*%
%TA.AperFunction,SMDPad,CuDef*%
%ADD26R,1.200000X0.400000*%
%TD*%
%TA.AperFunction,ComponentPad*%
%ADD27C,1.800000*%
%TD*%
%TA.AperFunction,ComponentPad*%
%ADD28R,1.800000X1.800000*%
%TD*%
%TA.AperFunction,ComponentPad*%
%ADD29C,1.400000*%
%TD*%
%TA.AperFunction,ComponentPad*%
%ADD30R,1.400000X1.400000*%
%TD*%
%TA.AperFunction,SMDPad,CuDef*%
%ADD31R,0.800000X1.200000*%
%TD*%
%TA.AperFunction,SMDPad,CuDef*%
%ADD32R,0.800000X2.000000*%
%TD*%
%TA.AperFunction,SMDPad,CuDef*%
%ADD33R,0.600000X1.000000*%
%TD*%
%TA.AperFunction,SMDPad,CuDef*%
%ADD34C,1.500000*%
%TD*%
%TA.AperFunction,ViaPad*%
%ADD35C,0.800000*%
%TD*%
%TA.AperFunction,ViaPad*%
%ADD36C,1.000000*%
%TD*%
%TA.AperFunction,Conductor*%
%ADD37C,0.400000*%
%TD*%
%TA.AperFunction,Conductor*%
%ADD38C,0.200000*%
%TD*%
%TA.AperFunction,Conductor*%
%ADD39C,0.300000*%
%TD*%
%TA.AperFunction,Conductor*%
%ADD40C,0.500000*%
%TD*%
%TA.AperFunction,Conductor*%
%ADD41C,0.750000*%
%TD*%
G04 APERTURE END LIST*
D10*
X95849877Y-42393418D02*
X96326817Y-39221785D01*
X107560690Y-35486081D02*
X103832837Y-39170169D01*
X102368975Y-34768100D02*
X107560690Y-35486081D01*
X96326817Y-39221785D02*
X92548651Y-35589313D01*
X92548651Y-35589313D02*
X97730000Y-34800000D01*
X95849877Y-42393418D02*
X94417635Y-45086053D01*
X94417635Y-45086053D02*
X92985389Y-47778769D01*
X92985389Y-47778769D02*
X91553138Y-50471647D01*
X91553138Y-50471647D02*
X90120876Y-53164768D01*
X90120876Y-53164768D02*
X88688601Y-55858214D01*
X88688601Y-55858214D02*
X87256309Y-58552065D01*
X87256309Y-58552065D02*
X85823997Y-61246402D01*
X85823997Y-61246402D02*
X84391662Y-63941307D01*
X84391662Y-63941307D02*
X82959301Y-66636860D01*
X82959301Y-66636860D02*
X81526909Y-69333143D01*
X81526909Y-69333143D02*
X80094484Y-72030236D01*
X80094484Y-72030236D02*
X78662023Y-74728221D01*
X78662023Y-74728221D02*
X77229522Y-77427179D01*
X77229522Y-77427179D02*
X75796977Y-80127190D01*
X75796977Y-80127190D02*
X74364387Y-82828336D01*
X74364387Y-82828336D02*
X72931746Y-85530699D01*
X72931746Y-85530699D02*
X71499052Y-88234358D01*
X71499052Y-88234358D02*
X70066301Y-90939395D01*
X70066301Y-90939395D02*
X68633491Y-93645891D01*
X68633491Y-93645891D02*
X67200617Y-96353928D01*
X67200617Y-96353928D02*
X65767678Y-99063585D01*
X65767678Y-99063585D02*
X64334668Y-101774945D01*
X64334668Y-101774945D02*
X62901585Y-104488088D01*
X62901585Y-104488088D02*
X61468426Y-107203095D01*
X61468426Y-107203095D02*
X60035186Y-109920048D01*
X60035186Y-109920048D02*
X58601864Y-112639028D01*
X58601864Y-112639028D02*
X57168456Y-115360115D01*
X57168456Y-115360115D02*
X55734957Y-118083390D01*
X55734957Y-118083390D02*
X54301366Y-120808935D01*
X54301366Y-120808935D02*
X52867678Y-123536831D01*
X52867678Y-123536831D02*
X51433890Y-126267159D01*
X51433890Y-126267159D02*
X50000000Y-129000000D01*
X103832837Y-39170169D02*
X104449243Y-42890699D01*
X100017169Y-30084255D02*
X102368975Y-34768100D01*
X104449243Y-42890699D02*
X150000000Y-129000000D01*
X97730000Y-34800000D02*
X100017169Y-30084255D01*
X148000000Y-129000000D02*
X150000000Y-129000000D01*
X148000000Y-130000000D02*
X148000000Y-129000000D01*
X146000000Y-130000000D02*
X148000000Y-130000000D01*
X146000000Y-129000000D02*
X146000000Y-130000000D01*
X102000000Y-129000000D02*
X146000000Y-129000000D01*
X102000000Y-130000000D02*
X102000000Y-129000000D01*
X98000000Y-130000000D02*
X102000000Y-130000000D01*
X98000000Y-129000000D02*
X98000000Y-130000000D01*
X54000000Y-129000000D02*
X98000000Y-129000000D01*
X54000000Y-130000000D02*
X54000000Y-129000000D01*
X52000000Y-130000000D02*
X54000000Y-130000000D01*
X52000000Y-129000000D02*
X52000000Y-130000000D01*
X50000000Y-129000000D02*
X52000000Y-129000000D01*
D11*
X268944859Y-318881889D02*
X268944859Y-318881889D01*
D12*
%TO.N,*%
%TO.C,VAL\u002A\u002A*%
X101000000Y-58000000D03*
%TD*%
%TO.N,*%
%TO.C,VAL\u002A\u002A*%
X63000000Y-125000000D03*
%TD*%
%TO.N,*%
%TO.C,VAL\u002A\u002A*%
X137000000Y-125000000D03*
%TD*%
%TA.AperFunction,SMDPad,CuDef*%
D13*
%TO.P,DL605,2*%
%TO.N,/Branch2/B2_LINE3*%
G36*
X87400757Y-59973623D02*
G01*
X88901768Y-60771724D01*
X88479243Y-61566377D01*
X86978232Y-60768276D01*
X87400757Y-59973623D01*
G37*
%TD.AperFunction*%
%TA.AperFunction,SMDPad,CuDef*%
%TO.P,DL605,1*%
%TO.N,Net-(DL605-Pad1)*%
G36*
X88762225Y-57413075D02*
G01*
X90263236Y-58211176D01*
X89840711Y-59005829D01*
X88339700Y-58207728D01*
X88762225Y-57413075D01*
G37*
%TD.AperFunction*%
%TD*%
%TA.AperFunction,SMDPad,CuDef*%
%TO.P,R313,1*%
%TO.N,Net-(DL313-Pad1)*%
G36*
X122307498Y-87421450D02*
G01*
X123808509Y-86623349D01*
X124231034Y-87418002D01*
X122730023Y-88216103D01*
X122307498Y-87421450D01*
G37*
%TD.AperFunction*%
%TA.AperFunction,SMDPad,CuDef*%
%TO.P,R313,2*%
%TO.N,+3.3V*%
G36*
X123668966Y-89981998D02*
G01*
X125169977Y-89183897D01*
X125592502Y-89978550D01*
X124091491Y-90776651D01*
X123668966Y-89981998D01*
G37*
%TD.AperFunction*%
%TD*%
D14*
%TO.P,U201,1*%
%TO.N,Net-(U201-Pad1)*%
X95850000Y-82550000D03*
%TO.P,U201,2*%
%TO.N,Net-(U201-Pad2)*%
X95850000Y-83050000D03*
%TO.P,U201,3*%
%TO.N,Net-(C202-Pad1)*%
X95850000Y-83550000D03*
%TO.P,U201,4*%
%TO.N,Net-(C203-Pad1)*%
X95850000Y-84050000D03*
%TO.P,U201,5*%
%TO.N,Net-(U201-Pad5)*%
X95850000Y-84550000D03*
%TO.P,U201,6*%
%TO.N,Net-(U201-Pad6)*%
X95850000Y-85050000D03*
%TO.P,U201,7*%
%TO.N,/Microcontroller/RESET*%
X95850000Y-85550000D03*
%TO.P,U201,8*%
%TO.N,GND*%
X95850000Y-86050000D03*
%TO.P,U201,9*%
%TO.N,/Microcontroller/VDD_MCU*%
X95850000Y-86550000D03*
%TO.P,U201,10*%
%TO.N,/Power Supply/BATTERY_STATUS*%
X95850000Y-87050000D03*
%TO.P,U201,11*%
%TO.N,Net-(U201-Pad11)*%
X95850000Y-87550000D03*
%TO.P,U201,12*%
%TO.N,Net-(U201-Pad12)*%
X95850000Y-88050000D03*
D15*
%TO.P,U201,13*%
%TO.N,Net-(U201-Pad13)*%
X97250000Y-89450000D03*
%TO.P,U201,14*%
%TO.N,Net-(U201-Pad14)*%
X97750000Y-89450000D03*
%TO.P,U201,15*%
%TO.N,/Microcontroller/STAR*%
X98250000Y-89450000D03*
%TO.P,U201,16*%
%TO.N,Net-(U201-Pad16)*%
X98750000Y-89450000D03*
%TO.P,U201,17*%
%TO.N,Net-(U201-Pad17)*%
X99250000Y-89450000D03*
%TO.P,U201,18*%
%TO.N,Net-(U201-Pad18)*%
X99750000Y-89450000D03*
%TO.P,U201,19*%
%TO.N,Net-(U201-Pad19)*%
X100250000Y-89450000D03*
%TO.P,U201,20*%
%TO.N,Net-(U201-Pad20)*%
X100750000Y-89450000D03*
%TO.P,U201,21*%
%TO.N,/B_EXT_SDA*%
X101250000Y-89450000D03*
%TO.P,U201,22*%
%TO.N,/B_EXT_SCL*%
X101750000Y-89450000D03*
%TO.P,U201,23*%
%TO.N,GND*%
X102250000Y-89450000D03*
%TO.P,U201,24*%
%TO.N,/Microcontroller/VDD_MCU*%
X102750000Y-89450000D03*
D14*
%TO.P,U201,25*%
%TO.N,Net-(U201-Pad25)*%
X104150000Y-88050000D03*
%TO.P,U201,26*%
%TO.N,Net-(U201-Pad26)*%
X104150000Y-87550000D03*
%TO.P,U201,27*%
%TO.N,Net-(U201-Pad27)*%
X104150000Y-87050000D03*
%TO.P,U201,28*%
%TO.N,Net-(U201-Pad28)*%
X104150000Y-86550000D03*
%TO.P,U201,29*%
%TO.N,Net-(U201-Pad29)*%
X104150000Y-86050000D03*
%TO.P,U201,30*%
%TO.N,/Communication/COMM_RX*%
X104150000Y-85550000D03*
%TO.P,U201,31*%
%TO.N,/Communication/COMM_TX*%
X104150000Y-85050000D03*
%TO.P,U201,32*%
%TO.N,Net-(U201-Pad32)*%
X104150000Y-84550000D03*
%TO.P,U201,33*%
%TO.N,Net-(U201-Pad33)*%
X104150000Y-84050000D03*
%TO.P,U201,34*%
%TO.N,/Microcontroller/SWDIO*%
X104150000Y-83550000D03*
%TO.P,U201,35*%
%TO.N,GND*%
X104150000Y-83050000D03*
%TO.P,U201,36*%
%TO.N,/Microcontroller/VDD_MCU*%
X104150000Y-82550000D03*
D15*
%TO.P,U201,37*%
%TO.N,/Microcontroller/SWCLK*%
X102750000Y-81150000D03*
%TO.P,U201,38*%
%TO.N,Net-(U201-Pad38)*%
X102250000Y-81150000D03*
%TO.P,U201,39*%
%TO.N,Net-(U201-Pad39)*%
X101750000Y-81150000D03*
%TO.P,U201,40*%
%TO.N,Net-(U201-Pad40)*%
X101250000Y-81150000D03*
%TO.P,U201,41*%
%TO.N,Net-(U201-Pad41)*%
X100750000Y-81150000D03*
%TO.P,U201,42*%
%TO.N,/Branch1/BRANCH1_SCL*%
X100250000Y-81150000D03*
%TO.P,U201,43*%
%TO.N,/Branch1/BRANCH1_SDA*%
X99750000Y-81150000D03*
%TO.P,U201,44*%
%TO.N,Net-(U201-Pad44)*%
X99250000Y-81150000D03*
%TO.P,U201,45*%
%TO.N,Net-(U201-Pad45)*%
X98750000Y-81150000D03*
%TO.P,U201,46*%
%TO.N,Net-(U201-Pad46)*%
X98250000Y-81150000D03*
%TO.P,U201,47*%
%TO.N,GND*%
X97750000Y-81150000D03*
%TO.P,U201,48*%
%TO.N,/Microcontroller/VDD_MCU*%
X97250000Y-81150000D03*
%TD*%
D16*
%TO.P,C201,1*%
%TO.N,/Microcontroller/VDD_MCU*%
X110450000Y-82300000D03*
%TO.P,C201,2*%
%TO.N,GND*%
X109050000Y-82300000D03*
%TD*%
%TO.P,C202,1*%
%TO.N,Net-(C202-Pad1)*%
X89910000Y-82190000D03*
%TO.P,C202,2*%
%TO.N,GND*%
X88510000Y-82190000D03*
%TD*%
%TO.P,C203,2*%
%TO.N,GND*%
X88530000Y-85120000D03*
%TO.P,C203,1*%
%TO.N,Net-(C203-Pad1)*%
X89930000Y-85120000D03*
%TD*%
D17*
%TO.P,C204,1*%
%TO.N,/Microcontroller/VDD_MCU*%
X111200000Y-84300000D03*
%TO.P,C204,2*%
%TO.N,GND*%
X108300000Y-84300000D03*
%TD*%
D16*
%TO.P,C205,2*%
%TO.N,GND*%
X92030000Y-91030000D03*
%TO.P,C205,1*%
%TO.N,/Microcontroller/VDD_MCU*%
X90630000Y-91030000D03*
%TD*%
D17*
%TO.P,C206,1*%
%TO.N,/Microcontroller/VDD_MCU*%
X89980000Y-89030000D03*
%TO.P,C206,2*%
%TO.N,GND*%
X92880000Y-89030000D03*
%TD*%
D18*
%TO.P,C207,2*%
%TO.N,GND*%
X100120000Y-78550000D03*
%TO.P,C207,1*%
%TO.N,/Microcontroller/VDD_MCU*%
X100120000Y-75650000D03*
%TD*%
D19*
%TO.P,C208,1*%
%TO.N,/Microcontroller/VDD_MCU*%
X98020000Y-77300000D03*
%TO.P,C208,2*%
%TO.N,GND*%
X98020000Y-78700000D03*
%TD*%
D18*
%TO.P,C209,2*%
%TO.N,GND*%
X106200000Y-92350000D03*
%TO.P,C209,1*%
%TO.N,/Microcontroller/VDD_MCU*%
X106200000Y-95250000D03*
%TD*%
D19*
%TO.P,C210,1*%
%TO.N,/Microcontroller/VDD_MCU*%
X104100000Y-93400000D03*
%TO.P,C210,2*%
%TO.N,GND*%
X104100000Y-92000000D03*
%TD*%
%TO.P,C211,2*%
%TO.N,/Microcontroller/RESET*%
X97430000Y-105760000D03*
%TO.P,C211,1*%
%TO.N,GND*%
X97430000Y-107160000D03*
%TD*%
D16*
%TO.P,C301,2*%
%TO.N,+3.3V*%
X115750000Y-95250000D03*
%TO.P,C301,1*%
%TO.N,GND*%
X114350000Y-95250000D03*
%TD*%
%TO.P,C302,1*%
%TO.N,GND*%
X114350000Y-104750000D03*
%TO.P,C302,2*%
%TO.N,+3.3V*%
X115750000Y-104750000D03*
%TD*%
D17*
%TO.P,C401,1*%
%TO.N,+VDD*%
X91350000Y-117700000D03*
%TO.P,C401,2*%
%TO.N,GND*%
X94250000Y-117700000D03*
%TD*%
%TO.P,C402,1*%
%TO.N,+3.3V*%
X91950000Y-111200000D03*
%TO.P,C402,2*%
%TO.N,GND*%
X94850000Y-111200000D03*
%TD*%
%TO.P,C501,2*%
%TO.N,GND*%
X93050000Y-120800000D03*
%TO.P,C501,1*%
%TO.N,+VUSB*%
X90150000Y-120800000D03*
%TD*%
D19*
%TO.P,C502,2*%
%TO.N,GND*%
X107930000Y-123790000D03*
%TO.P,C502,1*%
%TO.N,/Communication/FTDI_VCC*%
X107930000Y-122390000D03*
%TD*%
%TO.P,C503,1*%
%TO.N,/Communication/FTDI_VCC*%
X116570000Y-124490000D03*
%TO.P,C503,2*%
%TO.N,GND*%
X116570000Y-123090000D03*
%TD*%
%TO.P,C504,2*%
%TO.N,GND*%
X118170000Y-123090000D03*
%TO.P,C504,1*%
%TO.N,/Communication/FTDI_VCC*%
X118170000Y-124490000D03*
%TD*%
D16*
%TO.P,C601,1*%
%TO.N,GND*%
X83460000Y-95210000D03*
%TO.P,C601,2*%
%TO.N,+3.3V*%
X84860000Y-95210000D03*
%TD*%
%TO.P,C602,2*%
%TO.N,+3.3V*%
X84730000Y-104620000D03*
%TO.P,C602,1*%
%TO.N,GND*%
X83330000Y-104620000D03*
%TD*%
D20*
%TO.P,D401,1*%
%TO.N,+VUSB*%
X85400000Y-117800000D03*
%TO.P,D401,2*%
%TO.N,+VDD*%
X89000000Y-117800000D03*
%TD*%
%TO.P,D402,2*%
%TO.N,+VDD*%
X89000000Y-115600000D03*
%TO.P,D402,1*%
%TO.N,Net-(D402-Pad1)*%
X85400000Y-115600000D03*
%TD*%
D21*
%TO.P,D501,1*%
%TO.N,GND*%
X85600000Y-121000000D03*
%TO.P,D501,2*%
%TO.N,+VUSB*%
X87500000Y-121000000D03*
%TD*%
%TA.AperFunction,SMDPad,CuDef*%
D13*
%TO.P,DL301,2*%
%TO.N,/Branch1/B1_LINE1*%
G36*
X103688232Y-46801724D02*
G01*
X105189243Y-46003623D01*
X105611768Y-46798276D01*
X104110757Y-47596377D01*
X103688232Y-46801724D01*
G37*
%TD.AperFunction*%
%TA.AperFunction,SMDPad,CuDef*%
%TO.P,DL301,1*%
%TO.N,Net-(DL301-Pad1)*%
G36*
X102326764Y-44241176D02*
G01*
X103827775Y-43443075D01*
X104250300Y-44237728D01*
X102749289Y-45035829D01*
X102326764Y-44241176D01*
G37*
%TD.AperFunction*%
%TD*%
%TA.AperFunction,SMDPad,CuDef*%
%TO.P,DL303,2*%
%TO.N,/Branch1/B1_LINE2*%
G36*
X107399700Y-53862272D02*
G01*
X108900711Y-53064171D01*
X109323236Y-53858824D01*
X107822225Y-54656925D01*
X107399700Y-53862272D01*
G37*
%TD.AperFunction*%
%TA.AperFunction,SMDPad,CuDef*%
%TO.P,DL303,1*%
%TO.N,Net-(DL303-Pad1)*%
G36*
X106038232Y-51301724D02*
G01*
X107539243Y-50503623D01*
X107961768Y-51298276D01*
X106460757Y-52096377D01*
X106038232Y-51301724D01*
G37*
%TD.AperFunction*%
%TD*%
%TA.AperFunction,SMDPad,CuDef*%
%TO.P,DL305,2*%
%TO.N,/Branch1/B1_LINE3*%
G36*
X111088232Y-60801724D02*
G01*
X112589243Y-60003623D01*
X113011768Y-60798276D01*
X111510757Y-61596377D01*
X111088232Y-60801724D01*
G37*
%TD.AperFunction*%
%TA.AperFunction,SMDPad,CuDef*%
%TO.P,DL305,1*%
%TO.N,Net-(DL305-Pad1)*%
G36*
X109726764Y-58241176D02*
G01*
X111227775Y-57443075D01*
X111650300Y-58237728D01*
X110149289Y-59035829D01*
X109726764Y-58241176D01*
G37*
%TD.AperFunction*%
%TD*%
%TA.AperFunction,SMDPad,CuDef*%
%TO.P,DL307,2*%
%TO.N,/Branch1/B1_LINE4*%
G36*
X114818966Y-67781998D02*
G01*
X116319977Y-66983897D01*
X116742502Y-67778550D01*
X115241491Y-68576651D01*
X114818966Y-67781998D01*
G37*
%TD.AperFunction*%
%TA.AperFunction,SMDPad,CuDef*%
%TO.P,DL307,1*%
%TO.N,Net-(DL307-Pad1)*%
G36*
X113457498Y-65221450D02*
G01*
X114958509Y-64423349D01*
X115381034Y-65218002D01*
X113880023Y-66016103D01*
X113457498Y-65221450D01*
G37*
%TD.AperFunction*%
%TD*%
%TA.AperFunction,SMDPad,CuDef*%
%TO.P,DL309,2*%
%TO.N,/Branch1/B1_LINE5*%
G36*
X118468966Y-74781998D02*
G01*
X119969977Y-73983897D01*
X120392502Y-74778550D01*
X118891491Y-75576651D01*
X118468966Y-74781998D01*
G37*
%TD.AperFunction*%
%TA.AperFunction,SMDPad,CuDef*%
%TO.P,DL309,1*%
%TO.N,Net-(DL309-Pad1)*%
G36*
X117107498Y-72221450D02*
G01*
X118608509Y-71423349D01*
X119031034Y-72218002D01*
X117530023Y-73016103D01*
X117107498Y-72221450D01*
G37*
%TD.AperFunction*%
%TD*%
%TA.AperFunction,SMDPad,CuDef*%
%TO.P,DL311,2*%
%TO.N,/Branch1/B1_LINE6*%
G36*
X122168966Y-81781998D02*
G01*
X123669977Y-80983897D01*
X124092502Y-81778550D01*
X122591491Y-82576651D01*
X122168966Y-81781998D01*
G37*
%TD.AperFunction*%
%TA.AperFunction,SMDPad,CuDef*%
%TO.P,DL311,1*%
%TO.N,Net-(DL311-Pad1)*%
G36*
X120807498Y-79221450D02*
G01*
X122308509Y-78423349D01*
X122731034Y-79218002D01*
X121230023Y-80016103D01*
X120807498Y-79221450D01*
G37*
%TD.AperFunction*%
%TD*%
%TA.AperFunction,SMDPad,CuDef*%
%TO.P,DL313,2*%
%TO.N,/Branch1/B1_LINE7*%
G36*
X125868966Y-88781998D02*
G01*
X127369977Y-87983897D01*
X127792502Y-88778550D01*
X126291491Y-89576651D01*
X125868966Y-88781998D01*
G37*
%TD.AperFunction*%
%TA.AperFunction,SMDPad,CuDef*%
%TO.P,DL313,1*%
%TO.N,Net-(DL313-Pad1)*%
G36*
X124507498Y-86221450D02*
G01*
X126008509Y-85423349D01*
X126431034Y-86218002D01*
X124930023Y-87016103D01*
X124507498Y-86221450D01*
G37*
%TD.AperFunction*%
%TD*%
%TA.AperFunction,SMDPad,CuDef*%
%TO.P,DL315,2*%
%TO.N,/Branch1/B1_LINE8*%
G36*
X129618966Y-95831998D02*
G01*
X131119977Y-95033897D01*
X131542502Y-95828550D01*
X130041491Y-96626651D01*
X129618966Y-95831998D01*
G37*
%TD.AperFunction*%
%TA.AperFunction,SMDPad,CuDef*%
%TO.P,DL315,1*%
%TO.N,Net-(DL315-Pad1)*%
G36*
X128257498Y-93271450D02*
G01*
X129758509Y-92473349D01*
X130181034Y-93268002D01*
X128680023Y-94066103D01*
X128257498Y-93271450D01*
G37*
%TD.AperFunction*%
%TD*%
%TA.AperFunction,SMDPad,CuDef*%
%TO.P,DL317,2*%
%TO.N,/Branch1/B1_LINE9*%
G36*
X133268966Y-102781998D02*
G01*
X134769977Y-101983897D01*
X135192502Y-102778550D01*
X133691491Y-103576651D01*
X133268966Y-102781998D01*
G37*
%TD.AperFunction*%
%TA.AperFunction,SMDPad,CuDef*%
%TO.P,DL317,1*%
%TO.N,Net-(DL317-Pad1)*%
G36*
X131907498Y-100221450D02*
G01*
X133408509Y-99423349D01*
X133831034Y-100218002D01*
X132330023Y-101016103D01*
X131907498Y-100221450D01*
G37*
%TD.AperFunction*%
%TD*%
%TA.AperFunction,SMDPad,CuDef*%
%TO.P,DL319,2*%
%TO.N,/Branch1/B1_LINE10*%
G36*
X137018966Y-109781998D02*
G01*
X138519977Y-108983897D01*
X138942502Y-109778550D01*
X137441491Y-110576651D01*
X137018966Y-109781998D01*
G37*
%TD.AperFunction*%
%TA.AperFunction,SMDPad,CuDef*%
%TO.P,DL319,1*%
%TO.N,Net-(DL319-Pad1)*%
G36*
X135657498Y-107221450D02*
G01*
X137158509Y-106423349D01*
X137581034Y-107218002D01*
X136080023Y-108016103D01*
X135657498Y-107221450D01*
G37*
%TD.AperFunction*%
%TD*%
%TA.AperFunction,SMDPad,CuDef*%
%TO.P,DL321,2*%
%TO.N,/Branch1/B1_LINE11*%
G36*
X140718966Y-116781998D02*
G01*
X142219977Y-115983897D01*
X142642502Y-116778550D01*
X141141491Y-117576651D01*
X140718966Y-116781998D01*
G37*
%TD.AperFunction*%
%TA.AperFunction,SMDPad,CuDef*%
%TO.P,DL321,1*%
%TO.N,Net-(DL321-Pad1)*%
G36*
X139357498Y-114221450D02*
G01*
X140858509Y-113423349D01*
X141281034Y-114218002D01*
X139780023Y-115016103D01*
X139357498Y-114221450D01*
G37*
%TD.AperFunction*%
%TD*%
%TA.AperFunction,SMDPad,CuDef*%
%TO.P,DL323,2*%
%TO.N,/Branch1/B1_LINE12*%
G36*
X144418966Y-123781998D02*
G01*
X145919977Y-122983897D01*
X146342502Y-123778550D01*
X144841491Y-124576651D01*
X144418966Y-123781998D01*
G37*
%TD.AperFunction*%
%TA.AperFunction,SMDPad,CuDef*%
%TO.P,DL323,1*%
%TO.N,Net-(DL323-Pad1)*%
G36*
X143057498Y-121221450D02*
G01*
X144558509Y-120423349D01*
X144981034Y-121218002D01*
X143480023Y-122016103D01*
X143057498Y-121221450D01*
G37*
%TD.AperFunction*%
%TD*%
%TA.AperFunction,SMDPad,CuDef*%
%TO.P,DL601,2*%
%TO.N,/Branch2/B2_LINE1*%
G36*
X94820023Y-45983897D02*
G01*
X96321034Y-46781998D01*
X95898509Y-47576651D01*
X94397498Y-46778550D01*
X94820023Y-45983897D01*
G37*
%TD.AperFunction*%
%TA.AperFunction,SMDPad,CuDef*%
%TO.P,DL601,1*%
%TO.N,Net-(DL601-Pad1)*%
G36*
X96181491Y-43423349D02*
G01*
X97682502Y-44221450D01*
X97259977Y-45016103D01*
X95758966Y-44218002D01*
X96181491Y-43423349D01*
G37*
%TD.AperFunction*%
%TD*%
%TA.AperFunction,SMDPad,CuDef*%
%TO.P,DL603,2*%
%TO.N,/Branch2/B2_LINE2*%
G36*
X91120023Y-52993897D02*
G01*
X92621034Y-53791998D01*
X92198509Y-54586651D01*
X90697498Y-53788550D01*
X91120023Y-52993897D01*
G37*
%TD.AperFunction*%
%TA.AperFunction,SMDPad,CuDef*%
%TO.P,DL603,1*%
%TO.N,Net-(DL603-Pad1)*%
G36*
X92481491Y-50433349D02*
G01*
X93982502Y-51231450D01*
X93559977Y-52026103D01*
X92058966Y-51228002D01*
X92481491Y-50433349D01*
G37*
%TD.AperFunction*%
%TD*%
%TA.AperFunction,SMDPad,CuDef*%
%TO.P,DL607,2*%
%TO.N,/Branch2/B2_LINE4*%
G36*
X83710023Y-67003897D02*
G01*
X85211034Y-67801998D01*
X84788509Y-68596651D01*
X83287498Y-67798550D01*
X83710023Y-67003897D01*
G37*
%TD.AperFunction*%
%TA.AperFunction,SMDPad,CuDef*%
%TO.P,DL607,1*%
%TO.N,Net-(DL607-Pad1)*%
G36*
X85071491Y-64443349D02*
G01*
X86572502Y-65241450D01*
X86149977Y-66036103D01*
X84648966Y-65238002D01*
X85071491Y-64443349D01*
G37*
%TD.AperFunction*%
%TD*%
%TA.AperFunction,SMDPad,CuDef*%
%TO.P,DL609,2*%
%TO.N,/Branch2/B2_LINE5*%
G36*
X79990023Y-74003897D02*
G01*
X81491034Y-74801998D01*
X81068509Y-75596651D01*
X79567498Y-74798550D01*
X79990023Y-74003897D01*
G37*
%TD.AperFunction*%
%TA.AperFunction,SMDPad,CuDef*%
%TO.P,DL609,1*%
%TO.N,Net-(DL609-Pad1)*%
G36*
X81351491Y-71443349D02*
G01*
X82852502Y-72241450D01*
X82429977Y-73036103D01*
X80928966Y-72238002D01*
X81351491Y-71443349D01*
G37*
%TD.AperFunction*%
%TD*%
%TA.AperFunction,SMDPad,CuDef*%
%TO.P,DL611,2*%
%TO.N,/Branch2/B2_LINE6*%
G36*
X76295023Y-81009634D02*
G01*
X77796034Y-81807735D01*
X77373509Y-82602388D01*
X75872498Y-81804287D01*
X76295023Y-81009634D01*
G37*
%TD.AperFunction*%
%TA.AperFunction,SMDPad,CuDef*%
%TO.P,DL611,1*%
%TO.N,Net-(DL611-Pad1)*%
G36*
X77656491Y-78449086D02*
G01*
X79157502Y-79247187D01*
X78734977Y-80041840D01*
X77233966Y-79243739D01*
X77656491Y-78449086D01*
G37*
%TD.AperFunction*%
%TD*%
%TA.AperFunction,SMDPad,CuDef*%
%TO.P,DL613,2*%
%TO.N,/Branch2/B2_LINE7*%
G36*
X72580023Y-88003897D02*
G01*
X74081034Y-88801998D01*
X73658509Y-89596651D01*
X72157498Y-88798550D01*
X72580023Y-88003897D01*
G37*
%TD.AperFunction*%
%TA.AperFunction,SMDPad,CuDef*%
%TO.P,DL613,1*%
%TO.N,Net-(DL613-Pad1)*%
G36*
X73941491Y-85443349D02*
G01*
X75442502Y-86241450D01*
X75019977Y-87036103D01*
X73518966Y-86238002D01*
X73941491Y-85443349D01*
G37*
%TD.AperFunction*%
%TD*%
%TA.AperFunction,SMDPad,CuDef*%
%TO.P,DL615,2*%
%TO.N,/Branch2/B2_LINE8*%
G36*
X68920023Y-94983897D02*
G01*
X70421034Y-95781998D01*
X69998509Y-96576651D01*
X68497498Y-95778550D01*
X68920023Y-94983897D01*
G37*
%TD.AperFunction*%
%TA.AperFunction,SMDPad,CuDef*%
%TO.P,DL615,1*%
%TO.N,Net-(DL615-Pad1)*%
G36*
X70281491Y-92423349D02*
G01*
X71782502Y-93221450D01*
X71359977Y-94016103D01*
X69858966Y-93218002D01*
X70281491Y-92423349D01*
G37*
%TD.AperFunction*%
%TD*%
%TA.AperFunction,SMDPad,CuDef*%
%TO.P,DL617,2*%
%TO.N,/Branch2/B2_LINE9*%
G36*
X65190023Y-102003897D02*
G01*
X66691034Y-102801998D01*
X66268509Y-103596651D01*
X64767498Y-102798550D01*
X65190023Y-102003897D01*
G37*
%TD.AperFunction*%
%TA.AperFunction,SMDPad,CuDef*%
%TO.P,DL617,1*%
%TO.N,Net-(DL617-Pad1)*%
G36*
X66551491Y-99443349D02*
G01*
X68052502Y-100241450D01*
X67629977Y-101036103D01*
X66128966Y-100238002D01*
X66551491Y-99443349D01*
G37*
%TD.AperFunction*%
%TD*%
%TA.AperFunction,SMDPad,CuDef*%
%TO.P,DL619,2*%
%TO.N,/Branch2/B2_LINE10*%
G36*
X61480023Y-108993897D02*
G01*
X62981034Y-109791998D01*
X62558509Y-110586651D01*
X61057498Y-109788550D01*
X61480023Y-108993897D01*
G37*
%TD.AperFunction*%
%TA.AperFunction,SMDPad,CuDef*%
%TO.P,DL619,1*%
%TO.N,Net-(DL619-Pad1)*%
G36*
X62841491Y-106433349D02*
G01*
X64342502Y-107231450D01*
X63919977Y-108026103D01*
X62418966Y-107228002D01*
X62841491Y-106433349D01*
G37*
%TD.AperFunction*%
%TD*%
%TA.AperFunction,SMDPad,CuDef*%
%TO.P,DL621,2*%
%TO.N,/Branch2/B2_LINE11*%
G36*
X57840023Y-115993897D02*
G01*
X59341034Y-116791998D01*
X58918509Y-117586651D01*
X57417498Y-116788550D01*
X57840023Y-115993897D01*
G37*
%TD.AperFunction*%
%TA.AperFunction,SMDPad,CuDef*%
%TO.P,DL621,1*%
%TO.N,Net-(DL621-Pad1)*%
G36*
X59201491Y-113433349D02*
G01*
X60702502Y-114231450D01*
X60279977Y-115026103D01*
X58778966Y-114228002D01*
X59201491Y-113433349D01*
G37*
%TD.AperFunction*%
%TD*%
%TA.AperFunction,SMDPad,CuDef*%
%TO.P,DL623,2*%
%TO.N,/Branch2/B2_LINE12*%
G36*
X54100023Y-122973897D02*
G01*
X55601034Y-123771998D01*
X55178509Y-124566651D01*
X53677498Y-123768550D01*
X54100023Y-122973897D01*
G37*
%TD.AperFunction*%
%TA.AperFunction,SMDPad,CuDef*%
%TO.P,DL623,1*%
%TO.N,Net-(DL623-Pad1)*%
G36*
X55461491Y-120413349D02*
G01*
X56962502Y-121211450D01*
X56539977Y-122006103D01*
X55038966Y-121208002D01*
X55461491Y-120413349D01*
G37*
%TD.AperFunction*%
%TD*%
D22*
%TO.P,P501,A1*%
%TO.N,GND*%
X86850000Y-124370000D03*
%TO.P,P501,A2*%
%TO.N,Net-(P501-PadA2)*%
X87350000Y-124370000D03*
%TO.P,P501,A3*%
%TO.N,Net-(P501-PadA3)*%
X87850000Y-124370000D03*
%TO.P,P501,A4*%
%TO.N,+VUSB*%
X88350000Y-124370000D03*
%TO.P,P501,A5*%
%TO.N,Net-(P501-PadA5)*%
X88850000Y-124370000D03*
%TO.P,P501,A6*%
%TO.N,Net-(P501-PadA6)*%
X89350000Y-124370000D03*
%TO.P,P501,A7*%
%TO.N,Net-(P501-PadA7)*%
X89850000Y-124370000D03*
%TO.P,P501,A8*%
%TO.N,Net-(P501-PadA8)*%
X90350000Y-124370000D03*
%TO.P,P501,A9*%
%TO.N,+VUSB*%
X90850000Y-124370000D03*
%TO.P,P501,A10*%
%TO.N,Net-(P501-PadA10)*%
X91350000Y-124370000D03*
%TO.P,P501,A11*%
%TO.N,Net-(P501-PadA11)*%
X91850000Y-124370000D03*
%TO.P,P501,A12*%
%TO.N,GND*%
X92350000Y-124370000D03*
%TO.P,P501,B12*%
X86850000Y-126030000D03*
%TO.P,P501,B11*%
%TO.N,Net-(P501-PadB11)*%
X87350000Y-126030000D03*
%TO.P,P501,B10*%
%TO.N,Net-(P501-PadB10)*%
X87850000Y-126030000D03*
%TO.P,P501,B9*%
%TO.N,+VUSB*%
X88350000Y-126030000D03*
%TO.P,P501,B8*%
%TO.N,Net-(P501-PadB8)*%
X88850000Y-126030000D03*
%TO.P,P501,B7*%
%TO.N,Net-(P501-PadA7)*%
X89350000Y-126030000D03*
%TO.P,P501,B6*%
%TO.N,Net-(P501-PadA6)*%
X89850000Y-126030000D03*
%TO.P,P501,B5*%
%TO.N,Net-(P501-PadB5)*%
X90350000Y-126030000D03*
%TO.P,P501,B4*%
%TO.N,+VUSB*%
X90850000Y-126030000D03*
%TO.P,P501,B3*%
%TO.N,Net-(P501-PadB3)*%
X91350000Y-126030000D03*
%TO.P,P501,B2*%
%TO.N,Net-(P501-PadB2)*%
X91850000Y-126030000D03*
%TO.P,P501,B1*%
%TO.N,GND*%
X92350000Y-126030000D03*
D23*
%TO.P,P501,S1*%
X87200000Y-123050000D03*
X87200000Y-127350000D03*
X92000000Y-127350000D03*
X92000000Y-123050000D03*
%TD*%
D18*
%TO.P,R201,2*%
%TO.N,/Branch1/BRANCH1_SDA*%
X90750000Y-79340000D03*
%TO.P,R201,1*%
%TO.N,/Microcontroller/VDD_MCU*%
X90750000Y-76440000D03*
%TD*%
%TO.P,R202,2*%
%TO.N,/B_EXT_SDA*%
X94900000Y-63750000D03*
%TO.P,R202,1*%
%TO.N,/Microcontroller/VDD_MCU*%
X94900000Y-66650000D03*
%TD*%
%TO.P,R203,1*%
%TO.N,/Microcontroller/VDD_MCU*%
X93250000Y-76490000D03*
%TO.P,R203,2*%
%TO.N,/Branch1/BRANCH1_SCL*%
X93250000Y-79390000D03*
%TD*%
%TO.P,R204,1*%
%TO.N,/Microcontroller/VDD_MCU*%
X105200000Y-66650000D03*
%TO.P,R204,2*%
%TO.N,/B_EXT_SCL*%
X105200000Y-63750000D03*
%TD*%
%TO.P,R205,2*%
%TO.N,/Microcontroller/VDD_MCU*%
X94400000Y-92650000D03*
%TO.P,R205,1*%
%TO.N,+3.3V*%
X94400000Y-95550000D03*
%TD*%
%TO.P,R206,2*%
%TO.N,/Microcontroller/RESET*%
X97000000Y-95600000D03*
%TO.P,R206,1*%
%TO.N,/Microcontroller/VDD_MCU*%
X97000000Y-92700000D03*
%TD*%
%TA.AperFunction,SMDPad,CuDef*%
D13*
%TO.P,R301,1*%
%TO.N,Net-(DL301-Pad1)*%
G36*
X101388232Y-47851724D02*
G01*
X102889243Y-47053623D01*
X103311768Y-47848276D01*
X101810757Y-48646377D01*
X101388232Y-47851724D01*
G37*
%TD.AperFunction*%
%TA.AperFunction,SMDPad,CuDef*%
%TO.P,R301,2*%
%TO.N,+3.3V*%
G36*
X102749700Y-50412272D02*
G01*
X104250711Y-49614171D01*
X104673236Y-50408824D01*
X103172225Y-51206925D01*
X102749700Y-50412272D01*
G37*
%TD.AperFunction*%
%TD*%
%TA.AperFunction,SMDPad,CuDef*%
%TO.P,R303,1*%
%TO.N,Net-(DL303-Pad1)*%
G36*
X103807498Y-52521450D02*
G01*
X105308509Y-51723349D01*
X105731034Y-52518002D01*
X104230023Y-53316103D01*
X103807498Y-52521450D01*
G37*
%TD.AperFunction*%
%TA.AperFunction,SMDPad,CuDef*%
%TO.P,R303,2*%
%TO.N,+3.3V*%
G36*
X105168966Y-55081998D02*
G01*
X106669977Y-54283897D01*
X107092502Y-55078550D01*
X105591491Y-55876651D01*
X105168966Y-55081998D01*
G37*
%TD.AperFunction*%
%TD*%
%TA.AperFunction,SMDPad,CuDef*%
%TO.P,R305,1*%
%TO.N,Net-(DL305-Pad1)*%
G36*
X107507498Y-59421450D02*
G01*
X109008509Y-58623349D01*
X109431034Y-59418002D01*
X107930023Y-60216103D01*
X107507498Y-59421450D01*
G37*
%TD.AperFunction*%
%TA.AperFunction,SMDPad,CuDef*%
%TO.P,R305,2*%
%TO.N,+3.3V*%
G36*
X108868966Y-61981998D02*
G01*
X110369977Y-61183897D01*
X110792502Y-61978550D01*
X109291491Y-62776651D01*
X108868966Y-61981998D01*
G37*
%TD.AperFunction*%
%TD*%
%TA.AperFunction,SMDPad,CuDef*%
%TO.P,R307,1*%
%TO.N,Net-(DL307-Pad1)*%
G36*
X111257498Y-66421450D02*
G01*
X112758509Y-65623349D01*
X113181034Y-66418002D01*
X111680023Y-67216103D01*
X111257498Y-66421450D01*
G37*
%TD.AperFunction*%
%TA.AperFunction,SMDPad,CuDef*%
%TO.P,R307,2*%
%TO.N,+3.3V*%
G36*
X112618966Y-68981998D02*
G01*
X114119977Y-68183897D01*
X114542502Y-68978550D01*
X113041491Y-69776651D01*
X112618966Y-68981998D01*
G37*
%TD.AperFunction*%
%TD*%
%TA.AperFunction,SMDPad,CuDef*%
%TO.P,R309,1*%
%TO.N,Net-(DL309-Pad1)*%
G36*
X114907498Y-73421450D02*
G01*
X116408509Y-72623349D01*
X116831034Y-73418002D01*
X115330023Y-74216103D01*
X114907498Y-73421450D01*
G37*
%TD.AperFunction*%
%TA.AperFunction,SMDPad,CuDef*%
%TO.P,R309,2*%
%TO.N,+3.3V*%
G36*
X116268966Y-75981998D02*
G01*
X117769977Y-75183897D01*
X118192502Y-75978550D01*
X116691491Y-76776651D01*
X116268966Y-75981998D01*
G37*
%TD.AperFunction*%
%TD*%
%TA.AperFunction,SMDPad,CuDef*%
%TO.P,R311,1*%
%TO.N,Net-(DL311-Pad1)*%
G36*
X118613235Y-80396450D02*
G01*
X120114246Y-79598349D01*
X120536771Y-80393002D01*
X119035760Y-81191103D01*
X118613235Y-80396450D01*
G37*
%TD.AperFunction*%
%TA.AperFunction,SMDPad,CuDef*%
%TO.P,R311,2*%
%TO.N,+3.3V*%
G36*
X119974703Y-82956998D02*
G01*
X121475714Y-82158897D01*
X121898239Y-82953550D01*
X120397228Y-83751651D01*
X119974703Y-82956998D01*
G37*
%TD.AperFunction*%
%TD*%
%TA.AperFunction,SMDPad,CuDef*%
%TO.P,R315,1*%
%TO.N,Net-(DL315-Pad1)*%
G36*
X126057498Y-94471450D02*
G01*
X127558509Y-93673349D01*
X127981034Y-94468002D01*
X126480023Y-95266103D01*
X126057498Y-94471450D01*
G37*
%TD.AperFunction*%
%TA.AperFunction,SMDPad,CuDef*%
%TO.P,R315,2*%
%TO.N,+3.3V*%
G36*
X127418966Y-97031998D02*
G01*
X128919977Y-96233897D01*
X129342502Y-97028550D01*
X127841491Y-97826651D01*
X127418966Y-97031998D01*
G37*
%TD.AperFunction*%
%TD*%
%TA.AperFunction,SMDPad,CuDef*%
%TO.P,R317,1*%
%TO.N,Net-(DL317-Pad1)*%
G36*
X129707498Y-101371450D02*
G01*
X131208509Y-100573349D01*
X131631034Y-101368002D01*
X130130023Y-102166103D01*
X129707498Y-101371450D01*
G37*
%TD.AperFunction*%
%TA.AperFunction,SMDPad,CuDef*%
%TO.P,R317,2*%
%TO.N,+3.3V*%
G36*
X131068966Y-103931998D02*
G01*
X132569977Y-103133897D01*
X132992502Y-103928550D01*
X131491491Y-104726651D01*
X131068966Y-103931998D01*
G37*
%TD.AperFunction*%
%TD*%
%TA.AperFunction,SMDPad,CuDef*%
%TO.P,R319,1*%
%TO.N,Net-(DL319-Pad1)*%
G36*
X133457498Y-108421450D02*
G01*
X134958509Y-107623349D01*
X135381034Y-108418002D01*
X133880023Y-109216103D01*
X133457498Y-108421450D01*
G37*
%TD.AperFunction*%
%TA.AperFunction,SMDPad,CuDef*%
%TO.P,R319,2*%
%TO.N,+3.3V*%
G36*
X134818966Y-110981998D02*
G01*
X136319977Y-110183897D01*
X136742502Y-110978550D01*
X135241491Y-111776651D01*
X134818966Y-110981998D01*
G37*
%TD.AperFunction*%
%TD*%
%TA.AperFunction,SMDPad,CuDef*%
%TO.P,R321,1*%
%TO.N,Net-(DL321-Pad1)*%
G36*
X137157498Y-115421450D02*
G01*
X138658509Y-114623349D01*
X139081034Y-115418002D01*
X137580023Y-116216103D01*
X137157498Y-115421450D01*
G37*
%TD.AperFunction*%
%TA.AperFunction,SMDPad,CuDef*%
%TO.P,R321,2*%
%TO.N,+3.3V*%
G36*
X138518966Y-117981998D02*
G01*
X140019977Y-117183897D01*
X140442502Y-117978550D01*
X138941491Y-118776651D01*
X138518966Y-117981998D01*
G37*
%TD.AperFunction*%
%TD*%
%TA.AperFunction,SMDPad,CuDef*%
%TO.P,R323,1*%
%TO.N,Net-(DL323-Pad1)*%
G36*
X140857498Y-122421450D02*
G01*
X142358509Y-121623349D01*
X142781034Y-122418002D01*
X141280023Y-123216103D01*
X140857498Y-122421450D01*
G37*
%TD.AperFunction*%
%TA.AperFunction,SMDPad,CuDef*%
%TO.P,R323,2*%
%TO.N,+3.3V*%
G36*
X142218966Y-124981998D02*
G01*
X143719977Y-124183897D01*
X144142502Y-124978550D01*
X142641491Y-125776651D01*
X142218966Y-124981998D01*
G37*
%TD.AperFunction*%
%TD*%
D17*
%TO.P,R401,2*%
%TO.N,/Power Supply/BATTERY_STATUS*%
X85680000Y-113230000D03*
%TO.P,R401,1*%
%TO.N,Net-(D402-Pad1)*%
X88580000Y-113230000D03*
%TD*%
%TO.P,R402,1*%
%TO.N,/Power Supply/BATTERY_STATUS*%
X83940000Y-113250000D03*
%TO.P,R402,2*%
%TO.N,GND*%
X81040000Y-113250000D03*
%TD*%
%TA.AperFunction,SMDPad,CuDef*%
D13*
%TO.P,R601,1*%
%TO.N,Net-(DL601-Pad1)*%
G36*
X97111491Y-47023349D02*
G01*
X98612502Y-47821450D01*
X98189977Y-48616103D01*
X96688966Y-47818002D01*
X97111491Y-47023349D01*
G37*
%TD.AperFunction*%
%TA.AperFunction,SMDPad,CuDef*%
%TO.P,R601,2*%
%TO.N,+3.3V*%
G36*
X95750023Y-49583897D02*
G01*
X97251034Y-50381998D01*
X96828509Y-51176651D01*
X95327498Y-50378550D01*
X95750023Y-49583897D01*
G37*
%TD.AperFunction*%
%TD*%
%TA.AperFunction,SMDPad,CuDef*%
%TO.P,R603,1*%
%TO.N,Net-(DL603-Pad1)*%
G36*
X94701491Y-51613349D02*
G01*
X96202502Y-52411450D01*
X95779977Y-53206103D01*
X94278966Y-52408002D01*
X94701491Y-51613349D01*
G37*
%TD.AperFunction*%
%TA.AperFunction,SMDPad,CuDef*%
%TO.P,R603,2*%
%TO.N,+3.3V*%
G36*
X93340023Y-54173897D02*
G01*
X94841034Y-54971998D01*
X94418509Y-55766651D01*
X92917498Y-54968550D01*
X93340023Y-54173897D01*
G37*
%TD.AperFunction*%
%TD*%
%TA.AperFunction,SMDPad,CuDef*%
%TO.P,R605,1*%
%TO.N,Net-(DL605-Pad1)*%
G36*
X90961491Y-58583349D02*
G01*
X92462502Y-59381450D01*
X92039977Y-60176103D01*
X90538966Y-59378002D01*
X90961491Y-58583349D01*
G37*
%TD.AperFunction*%
%TA.AperFunction,SMDPad,CuDef*%
%TO.P,R605,2*%
%TO.N,+3.3V*%
G36*
X89600023Y-61143897D02*
G01*
X91101034Y-61941998D01*
X90678509Y-62736651D01*
X89177498Y-61938550D01*
X89600023Y-61143897D01*
G37*
%TD.AperFunction*%
%TD*%
%TA.AperFunction,SMDPad,CuDef*%
%TO.P,R607,1*%
%TO.N,Net-(DL607-Pad1)*%
G36*
X87281491Y-65603349D02*
G01*
X88782502Y-66401450D01*
X88359977Y-67196103D01*
X86858966Y-66398002D01*
X87281491Y-65603349D01*
G37*
%TD.AperFunction*%
%TA.AperFunction,SMDPad,CuDef*%
%TO.P,R607,2*%
%TO.N,+3.3V*%
G36*
X85920023Y-68163897D02*
G01*
X87421034Y-68961998D01*
X86998509Y-69756651D01*
X85497498Y-68958550D01*
X85920023Y-68163897D01*
G37*
%TD.AperFunction*%
%TD*%
%TA.AperFunction,SMDPad,CuDef*%
%TO.P,R609,1*%
%TO.N,Net-(DL609-Pad1)*%
G36*
X83565754Y-72628349D02*
G01*
X85066765Y-73426450D01*
X84644240Y-74221103D01*
X83143229Y-73423002D01*
X83565754Y-72628349D01*
G37*
%TD.AperFunction*%
%TA.AperFunction,SMDPad,CuDef*%
%TO.P,R609,2*%
%TO.N,+3.3V*%
G36*
X82204286Y-75188897D02*
G01*
X83705297Y-75986998D01*
X83282772Y-76781651D01*
X81781761Y-75983550D01*
X82204286Y-75188897D01*
G37*
%TD.AperFunction*%
%TD*%
%TA.AperFunction,SMDPad,CuDef*%
%TO.P,R611,1*%
%TO.N,Net-(DL611-Pad1)*%
G36*
X79871491Y-79633349D02*
G01*
X81372502Y-80431450D01*
X80949977Y-81226103D01*
X79448966Y-80428002D01*
X79871491Y-79633349D01*
G37*
%TD.AperFunction*%
%TA.AperFunction,SMDPad,CuDef*%
%TO.P,R611,2*%
%TO.N,+3.3V*%
G36*
X78510023Y-82193897D02*
G01*
X80011034Y-82991998D01*
X79588509Y-83786651D01*
X78087498Y-82988550D01*
X78510023Y-82193897D01*
G37*
%TD.AperFunction*%
%TD*%
%TA.AperFunction,SMDPad,CuDef*%
%TO.P,R613,1*%
%TO.N,Net-(DL613-Pad1)*%
G36*
X76161491Y-86613349D02*
G01*
X77662502Y-87411450D01*
X77239977Y-88206103D01*
X75738966Y-87408002D01*
X76161491Y-86613349D01*
G37*
%TD.AperFunction*%
%TA.AperFunction,SMDPad,CuDef*%
%TO.P,R613,2*%
%TO.N,+3.3V*%
G36*
X74800023Y-89173897D02*
G01*
X76301034Y-89971998D01*
X75878509Y-90766651D01*
X74377498Y-89968550D01*
X74800023Y-89173897D01*
G37*
%TD.AperFunction*%
%TD*%
%TA.AperFunction,SMDPad,CuDef*%
%TO.P,R615,1*%
%TO.N,Net-(DL615-Pad1)*%
G36*
X72497228Y-93608349D02*
G01*
X73998239Y-94406450D01*
X73575714Y-95201103D01*
X72074703Y-94403002D01*
X72497228Y-93608349D01*
G37*
%TD.AperFunction*%
%TA.AperFunction,SMDPad,CuDef*%
%TO.P,R615,2*%
%TO.N,+3.3V*%
G36*
X71135760Y-96168897D02*
G01*
X72636771Y-96966998D01*
X72214246Y-97761651D01*
X70713235Y-96963550D01*
X71135760Y-96168897D01*
G37*
%TD.AperFunction*%
%TD*%
%TA.AperFunction,SMDPad,CuDef*%
%TO.P,R617,1*%
%TO.N,Net-(DL617-Pad1)*%
G36*
X68791491Y-100643349D02*
G01*
X70292502Y-101441450D01*
X69869977Y-102236103D01*
X68368966Y-101438002D01*
X68791491Y-100643349D01*
G37*
%TD.AperFunction*%
%TA.AperFunction,SMDPad,CuDef*%
%TO.P,R617,2*%
%TO.N,+3.3V*%
G36*
X67430023Y-103203897D02*
G01*
X68931034Y-104001998D01*
X68508509Y-104796651D01*
X67007498Y-103998550D01*
X67430023Y-103203897D01*
G37*
%TD.AperFunction*%
%TD*%
%TA.AperFunction,SMDPad,CuDef*%
%TO.P,R619,1*%
%TO.N,Net-(DL619-Pad1)*%
G36*
X65095754Y-107628349D02*
G01*
X66596765Y-108426450D01*
X66174240Y-109221103D01*
X64673229Y-108423002D01*
X65095754Y-107628349D01*
G37*
%TD.AperFunction*%
%TA.AperFunction,SMDPad,CuDef*%
%TO.P,R619,2*%
%TO.N,+3.3V*%
G36*
X63734286Y-110188897D02*
G01*
X65235297Y-110986998D01*
X64812772Y-111781651D01*
X63311761Y-110983550D01*
X63734286Y-110188897D01*
G37*
%TD.AperFunction*%
%TD*%
%TA.AperFunction,SMDPad,CuDef*%
%TO.P,R621,1*%
%TO.N,Net-(DL621-Pad1)*%
G36*
X61441491Y-114613349D02*
G01*
X62942502Y-115411450D01*
X62519977Y-116206103D01*
X61018966Y-115408002D01*
X61441491Y-114613349D01*
G37*
%TD.AperFunction*%
%TA.AperFunction,SMDPad,CuDef*%
%TO.P,R621,2*%
%TO.N,+3.3V*%
G36*
X60080023Y-117173897D02*
G01*
X61581034Y-117971998D01*
X61158509Y-118766651D01*
X59657498Y-117968550D01*
X60080023Y-117173897D01*
G37*
%TD.AperFunction*%
%TD*%
%TA.AperFunction,SMDPad,CuDef*%
%TO.P,R623,1*%
%TO.N,Net-(DL623-Pad1)*%
G36*
X57690757Y-121583623D02*
G01*
X59191768Y-122381724D01*
X58769243Y-123176377D01*
X57268232Y-122378276D01*
X57690757Y-121583623D01*
G37*
%TD.AperFunction*%
%TA.AperFunction,SMDPad,CuDef*%
%TO.P,R623,2*%
%TO.N,+3.3V*%
G36*
X56329289Y-124144171D02*
G01*
X57830300Y-124942272D01*
X57407775Y-125736925D01*
X55906764Y-124938824D01*
X56329289Y-124144171D01*
G37*
%TD.AperFunction*%
%TD*%
D24*
%TO.P,U301,1*%
%TO.N,GND*%
X112100000Y-96725000D03*
%TO.P,U301,2*%
X112100000Y-97375000D03*
%TO.P,U301,3*%
X112100000Y-98025000D03*
%TO.P,U301,4*%
%TO.N,/Branch1/B1_LINE1*%
X112100000Y-98675000D03*
%TO.P,U301,5*%
%TO.N,/Branch1/B1_LINE2*%
X112100000Y-99325000D03*
%TO.P,U301,6*%
%TO.N,/Branch1/B1_LINE3*%
X112100000Y-99975000D03*
%TO.P,U301,7*%
%TO.N,/Branch1/B1_LINE4*%
X112100000Y-100625000D03*
%TO.P,U301,10*%
%TO.N,/Branch1/B1_LINE6*%
X118000000Y-100625000D03*
%TO.P,U301,11*%
%TO.N,/Branch1/B1_LINE7*%
X118000000Y-99975000D03*
%TO.P,U301,12*%
%TO.N,/Branch1/B1_LINE8*%
X118000000Y-99325000D03*
%TO.P,U301,13*%
%TO.N,Net-(U301-Pad13)*%
X118000000Y-98675000D03*
%TO.P,U301,14*%
%TO.N,/Branch1/BRANCH1_SCL*%
X118000000Y-98025000D03*
%TO.P,U301,15*%
%TO.N,/Branch1/BRANCH1_SDA*%
X118000000Y-97375000D03*
%TO.P,U301,16*%
%TO.N,+3.3V*%
X118000000Y-96725000D03*
%TO.P,U301,8*%
%TO.N,GND*%
X112100000Y-101275000D03*
%TO.P,U301,9*%
%TO.N,/Branch1/B1_LINE5*%
X118000000Y-101275000D03*
%TD*%
%TO.P,U302,1*%
%TO.N,+3.3V*%
X112100000Y-106175000D03*
%TO.P,U302,2*%
%TO.N,GND*%
X112100000Y-106825000D03*
%TO.P,U302,3*%
X112100000Y-107475000D03*
%TO.P,U302,4*%
%TO.N,/Branch1/B1_LINE9*%
X112100000Y-108125000D03*
%TO.P,U302,5*%
%TO.N,/Branch1/B1_LINE10*%
X112100000Y-108775000D03*
%TO.P,U302,6*%
%TO.N,/Branch1/B1_LINE11*%
X112100000Y-109425000D03*
%TO.P,U302,7*%
%TO.N,/Branch1/B1_LINE12*%
X112100000Y-110075000D03*
%TO.P,U302,10*%
%TO.N,/Branch1/B1_LINE14*%
X118000000Y-110075000D03*
%TO.P,U302,11*%
%TO.N,/Branch1/B1_LINE15*%
X118000000Y-109425000D03*
%TO.P,U302,12*%
%TO.N,/Branch1/B1_LINE16*%
X118000000Y-108775000D03*
%TO.P,U302,13*%
%TO.N,Net-(U302-Pad13)*%
X118000000Y-108125000D03*
%TO.P,U302,14*%
%TO.N,/Branch1/BRANCH1_SCL*%
X118000000Y-107475000D03*
%TO.P,U302,15*%
%TO.N,/Branch1/BRANCH1_SDA*%
X118000000Y-106825000D03*
%TO.P,U302,16*%
%TO.N,+3.3V*%
X118000000Y-106175000D03*
%TO.P,U302,8*%
%TO.N,GND*%
X112100000Y-110725000D03*
%TO.P,U302,9*%
%TO.N,/Branch1/B1_LINE13*%
X118000000Y-110725000D03*
%TD*%
D25*
%TO.P,U401,1*%
%TO.N,+VDD*%
X91750000Y-115400000D03*
%TO.P,U401,2*%
%TO.N,GND*%
X92700000Y-115400000D03*
%TO.P,U401,3*%
%TO.N,+VDD*%
X93650000Y-115400000D03*
%TO.P,U401,4*%
%TO.N,Net-(U401-Pad4)*%
X93650000Y-113200000D03*
%TO.P,U401,5*%
%TO.N,+3.3V*%
X91750000Y-113200000D03*
%TD*%
D26*
%TO.P,U501,1*%
%TO.N,/Communication/COMM_TX*%
X109630000Y-121137500D03*
%TO.P,U501,2*%
%TO.N,Net-(U501-Pad2)*%
X109630000Y-121772500D03*
%TO.P,U501,3*%
%TO.N,/Communication/FTDI_VCC*%
X109630000Y-122407500D03*
%TO.P,U501,4*%
%TO.N,/Communication/COMM_RX*%
X109630000Y-123042500D03*
%TO.P,U501,5*%
%TO.N,GND*%
X109630000Y-123677500D03*
%TO.P,U501,6*%
%TO.N,Net-(U501-Pad6)*%
X109630000Y-124312500D03*
%TO.P,U501,7*%
%TO.N,Net-(U501-Pad7)*%
X109630000Y-124947500D03*
%TO.P,U501,8*%
%TO.N,Net-(P501-PadA6)*%
X109630000Y-125582500D03*
%TO.P,U501,9*%
%TO.N,Net-(P501-PadA7)*%
X114830000Y-125582500D03*
%TO.P,U501,10*%
%TO.N,/Communication/FTDI_VCC*%
X114830000Y-124947500D03*
%TO.P,U501,11*%
X114830000Y-124312500D03*
%TO.P,U501,12*%
%TO.N,+VUSB*%
X114830000Y-123677500D03*
%TO.P,U501,13*%
%TO.N,GND*%
X114830000Y-123042500D03*
%TO.P,U501,14*%
%TO.N,Net-(U501-Pad14)*%
X114830000Y-122407500D03*
%TO.P,U501,15*%
%TO.N,Net-(U501-Pad15)*%
X114830000Y-121772500D03*
%TO.P,U501,16*%
%TO.N,Net-(U501-Pad16)*%
X114830000Y-121137500D03*
%TD*%
D24*
%TO.P,U601,9*%
%TO.N,/Branch2/B2_LINE5*%
X86890000Y-101355000D03*
%TO.P,U601,8*%
%TO.N,GND*%
X80990000Y-101355000D03*
%TO.P,U601,16*%
%TO.N,+3.3V*%
X86890000Y-96805000D03*
%TO.P,U601,15*%
%TO.N,/Branch1/BRANCH1_SDA*%
X86890000Y-97455000D03*
%TO.P,U601,14*%
%TO.N,/Branch1/BRANCH1_SCL*%
X86890000Y-98105000D03*
%TO.P,U601,13*%
%TO.N,Net-(U601-Pad13)*%
X86890000Y-98755000D03*
%TO.P,U601,12*%
%TO.N,/Branch2/B2_LINE8*%
X86890000Y-99405000D03*
%TO.P,U601,11*%
%TO.N,/Branch2/B2_LINE7*%
X86890000Y-100055000D03*
%TO.P,U601,10*%
%TO.N,/Branch2/B2_LINE6*%
X86890000Y-100705000D03*
%TO.P,U601,7*%
%TO.N,/Branch2/B2_LINE4*%
X80990000Y-100705000D03*
%TO.P,U601,6*%
%TO.N,/Branch2/B2_LINE3*%
X80990000Y-100055000D03*
%TO.P,U601,5*%
%TO.N,/Branch2/B2_LINE2*%
X80990000Y-99405000D03*
%TO.P,U601,4*%
%TO.N,/Branch2/B2_LINE1*%
X80990000Y-98755000D03*
%TO.P,U601,3*%
%TO.N,GND*%
X80990000Y-98105000D03*
%TO.P,U601,2*%
%TO.N,+3.3V*%
X80990000Y-97455000D03*
%TO.P,U601,1*%
X80990000Y-96805000D03*
%TD*%
%TO.P,U602,1*%
%TO.N,GND*%
X80980000Y-106220000D03*
%TO.P,U602,2*%
X80980000Y-106870000D03*
%TO.P,U602,3*%
%TO.N,+3.3V*%
X80980000Y-107520000D03*
%TO.P,U602,4*%
%TO.N,/Branch2/B2_LINE9*%
X80980000Y-108170000D03*
%TO.P,U602,5*%
%TO.N,/Branch2/B2_LINE10*%
X80980000Y-108820000D03*
%TO.P,U602,6*%
%TO.N,/Branch2/B2_LINE11*%
X80980000Y-109470000D03*
%TO.P,U602,7*%
%TO.N,/Branch2/B2_LINE12*%
X80980000Y-110120000D03*
%TO.P,U602,10*%
%TO.N,/Branch2/B2_LINE14*%
X86880000Y-110120000D03*
%TO.P,U602,11*%
%TO.N,/Branch2/B2_LINE15*%
X86880000Y-109470000D03*
%TO.P,U602,12*%
%TO.N,/Branch2/B2_LINE16*%
X86880000Y-108820000D03*
%TO.P,U602,13*%
%TO.N,Net-(U602-Pad13)*%
X86880000Y-108170000D03*
%TO.P,U602,14*%
%TO.N,/Branch1/BRANCH1_SCL*%
X86880000Y-107520000D03*
%TO.P,U602,15*%
%TO.N,/Branch1/BRANCH1_SDA*%
X86880000Y-106870000D03*
%TO.P,U602,16*%
%TO.N,+3.3V*%
X86880000Y-106220000D03*
%TO.P,U602,8*%
%TO.N,GND*%
X80980000Y-110770000D03*
%TO.P,U602,9*%
%TO.N,/Branch2/B2_LINE13*%
X86880000Y-110770000D03*
%TD*%
D27*
%TO.P,P101,2*%
%TO.N,/B_EXT_SDA*%
X97900000Y-65970000D03*
%TO.P,P101,3*%
%TO.N,/B_EXT_SCL*%
X97900000Y-63430000D03*
D28*
%TO.P,P101,1*%
%TO.N,GND*%
X97900000Y-68510000D03*
D27*
%TO.P,P101,4*%
X97900000Y-60890000D03*
%TD*%
%TO.P,P102,2*%
%TO.N,GND*%
X102100000Y-116770000D03*
%TO.P,P102,3*%
%TO.N,+3.3V*%
X102100000Y-114230000D03*
D28*
%TO.P,P102,1*%
%TO.N,GND*%
X102100000Y-119310000D03*
D27*
%TO.P,P102,4*%
%TO.N,+3.3V*%
X102100000Y-111690000D03*
%TD*%
%TO.P,P103,4*%
%TO.N,GND*%
X102100000Y-60890000D03*
D28*
%TO.P,P103,1*%
X102100000Y-68510000D03*
D27*
%TO.P,P103,3*%
%TO.N,/B_EXT_SCL*%
X102100000Y-63430000D03*
%TO.P,P103,2*%
%TO.N,/B_EXT_SDA*%
X102100000Y-65970000D03*
%TD*%
%TO.P,P104,4*%
%TO.N,+3.3V*%
X97900000Y-111690000D03*
D28*
%TO.P,P104,1*%
%TO.N,GND*%
X97900000Y-119310000D03*
D27*
%TO.P,P104,3*%
%TO.N,+3.3V*%
X97900000Y-114230000D03*
%TO.P,P104,2*%
%TO.N,GND*%
X97900000Y-116770000D03*
%TD*%
D29*
%TO.P,P401,2*%
%TO.N,GND*%
X80770000Y-126700000D03*
D30*
%TO.P,P401,1*%
%TO.N,Net-(D402-Pad1)*%
X78230000Y-126700000D03*
%TD*%
D27*
%TO.P,P201,2*%
%TO.N,/Microcontroller/SWCLK*%
X100000000Y-98660000D03*
%TO.P,P201,3*%
%TO.N,GND*%
X100000000Y-101200000D03*
D28*
%TO.P,P201,1*%
%TO.N,/Microcontroller/VDD_MCU*%
X100000000Y-96120000D03*
D27*
%TO.P,P201,4*%
%TO.N,/Microcontroller/SWDIO*%
X100000000Y-103740000D03*
%TO.P,P201,5*%
%TO.N,/Microcontroller/RESET*%
X100000000Y-106280000D03*
%TD*%
D18*
%TO.P,Y201,1*%
%TO.N,Net-(C202-Pad1)*%
X91680000Y-82210000D03*
%TO.P,Y201,2*%
%TO.N,Net-(C203-Pad1)*%
X91680000Y-85110000D03*
%TD*%
D31*
%TO.P,DL701,2*%
%TO.N,+VDD*%
X100010000Y-36820000D03*
D32*
%TO.P,DL701,1*%
%TO.N,Net-(DL701-Pad1)*%
X100010000Y-38970000D03*
%TD*%
D33*
%TO.P,Q701,1*%
%TO.N,Net-(Q701-Pad1)*%
X99070000Y-45890000D03*
%TO.P,Q701,2*%
%TO.N,GND*%
X100970000Y-45890000D03*
%TO.P,Q701,3*%
%TO.N,Net-(Q701-Pad3)*%
X100020000Y-43890000D03*
%TD*%
D18*
%TO.P,R701,1*%
%TO.N,/Microcontroller/STAR*%
X97498000Y-74630000D03*
%TO.P,R701,2*%
%TO.N,Net-(Q701-Pad1)*%
X97498000Y-71730000D03*
%TD*%
D17*
%TO.P,R702,2*%
%TO.N,Net-(Q701-Pad3)*%
X98540000Y-41900000D03*
%TO.P,R702,1*%
%TO.N,Net-(DL701-Pad1)*%
X101440000Y-41900000D03*
%TD*%
D29*
%TO.P,P502,2*%
%TO.N,/Communication/COMM_RX*%
X129248000Y-126266000D03*
D30*
%TO.P,P502,1*%
%TO.N,/Communication/COMM_TX*%
X126708000Y-126266000D03*
D29*
%TO.P,P502,3*%
%TO.N,GND*%
X131788000Y-126266000D03*
%TD*%
D34*
%TO.P,TP201,1*%
%TO.N,/Branch1/BRANCH1_SDA*%
X88530000Y-77630000D03*
%TD*%
%TO.P,TP202,1*%
%TO.N,/Branch1/BRANCH1_SCL*%
X93410000Y-80950000D03*
%TD*%
%TO.P,TP203,1*%
%TO.N,/B_EXT_SDA*%
X94900000Y-61740000D03*
%TD*%
%TO.P,TP204,1*%
%TO.N,/B_EXT_SCL*%
X105210000Y-61630000D03*
%TD*%
%TO.P,TP205,1*%
%TO.N,/Microcontroller/STAR*%
X102560000Y-73020000D03*
%TD*%
%TO.P,TP206,1*%
%TO.N,/Communication/COMM_TX*%
X106160000Y-98970000D03*
%TD*%
%TO.P,TP207,1*%
%TO.N,/Communication/COMM_RX*%
X103110000Y-98980000D03*
%TD*%
%TO.P,TP401,1*%
%TO.N,+VDD*%
X90200000Y-113210000D03*
%TD*%
%TO.P,TP402,1*%
%TO.N,+3.3V*%
X90190000Y-110290000D03*
%TD*%
%TO.P,TP403,1*%
%TO.N,GND*%
X102140000Y-126310000D03*
%TD*%
D35*
%TO.N,GND*%
X82290000Y-98155000D03*
X82000000Y-113240000D03*
D36*
X83330000Y-110040000D03*
D35*
X88520000Y-83620000D03*
D36*
X94250000Y-119350000D03*
D35*
X96040000Y-104610000D03*
X97100000Y-87130000D03*
X102250000Y-91510000D03*
X108640000Y-83060000D03*
X98830000Y-78680000D03*
X110940000Y-101325000D03*
X110480000Y-110775000D03*
X100970000Y-47150000D03*
%TO.N,/Microcontroller/RESET*%
X94210000Y-85800000D03*
X95710018Y-94309982D03*
D36*
%TO.N,+3.3V*%
X72530000Y-99470000D03*
X68980000Y-106220000D03*
X79997144Y-85377144D03*
X83660000Y-78450000D03*
X87354932Y-71484932D03*
X91010000Y-64580000D03*
X94710000Y-57580000D03*
X97221111Y-52208889D03*
X76209773Y-92539773D03*
X59090000Y-124930000D03*
X61540000Y-120310000D03*
X65169238Y-113429238D03*
X83990000Y-92530000D03*
D35*
X105257670Y-57462330D03*
D36*
X116370000Y-78480000D03*
X119950001Y-85249999D03*
X141000000Y-125040000D03*
X137212579Y-117867421D03*
X133520000Y-110900000D03*
X129798981Y-103848981D03*
X126333648Y-97296352D03*
X123708777Y-92361223D03*
X112693760Y-71526240D03*
X108919792Y-64350208D03*
X102470000Y-52190000D03*
X115116459Y-110467480D03*
D35*
%TO.N,/Branch1/B1_LINE1*%
X108800000Y-96150000D03*
X103010000Y-48970000D03*
%TO.N,/Branch1/B1_LINE2*%
X109050000Y-97400000D03*
X108320000Y-56030000D03*
%TO.N,/Branch1/B1_LINE3*%
X109080025Y-98419975D03*
X112050000Y-62880000D03*
%TO.N,/Branch1/B1_LINE4*%
X109210050Y-99539950D03*
X115780000Y-69960000D03*
%TO.N,/Branch1/B1_LINE5*%
X116450000Y-101300000D03*
X119430734Y-76559266D03*
%TO.N,/Branch1/B1_LINE6*%
X116500000Y-100150000D03*
X123130734Y-83460734D03*
%TO.N,/Branch1/B1_LINE7*%
X120510000Y-98840000D03*
X126830000Y-90630000D03*
%TO.N,/Branch1/B1_LINE8*%
X119440018Y-98840018D03*
X128310000Y-98600000D03*
%TO.N,/Branch1/B1_LINE9*%
X109200000Y-104500000D03*
X134230734Y-105219266D03*
%TO.N,/Branch1/B1_LINE10*%
X108500000Y-105650000D03*
X135650000Y-109550000D03*
%TO.N,/Branch1/B1_LINE11*%
X107800000Y-106950000D03*
X138880000Y-116840000D03*
%TO.N,/Branch1/B1_LINE12*%
X106980000Y-107670000D03*
X142500000Y-123810000D03*
%TO.N,/Branch2/B2_LINE1*%
X97380000Y-48970000D03*
X98390000Y-55590000D03*
%TO.N,/Branch2/B2_LINE2*%
X91640000Y-55530000D03*
%TO.N,/Branch2/B2_LINE3*%
X87940000Y-63060000D03*
%TO.N,/Branch2/B2_LINE4*%
X84249266Y-69819266D03*
%TO.N,/Branch2/B2_LINE5*%
X80529266Y-76649266D03*
%TO.N,/Branch2/B2_LINE6*%
X76834266Y-83784266D03*
%TO.N,/Branch2/B2_LINE7*%
X73100000Y-91160000D03*
%TO.N,/Branch2/B2_LINE8*%
X69500000Y-98070000D03*
X84810000Y-100550000D03*
%TO.N,/Branch2/B2_LINE9*%
X65729266Y-104469266D03*
%TO.N,/Branch2/B2_LINE10*%
X61760000Y-112170000D03*
%TO.N,/Branch2/B2_LINE11*%
X60910000Y-116830000D03*
%TO.N,/Branch2/B2_LINE12*%
X57360000Y-123730000D03*
%TO.N,Net-(P501-PadA6)*%
X109520000Y-127230000D03*
X89113836Y-122982357D03*
%TO.N,Net-(P501-PadA7)*%
X89357092Y-126947358D03*
X114890000Y-127280000D03*
X90110000Y-123070000D03*
%TO.N,/Branch1/BRANCH1_SDA*%
X90100000Y-97640000D03*
X90044983Y-107624981D03*
X88774975Y-79514975D03*
X115930000Y-107250000D03*
X95410000Y-79790000D03*
X99040000Y-83020000D03*
%TO.N,/B_EXT_SDA*%
X101260000Y-87590000D03*
%TO.N,/Branch1/BRANCH1_SCL*%
X89249734Y-98166355D03*
X88890000Y-107650000D03*
X116405672Y-108129636D03*
X120957525Y-106062525D03*
X92740000Y-78470000D03*
%TO.N,/B_EXT_SCL*%
X102251318Y-87721501D03*
%TO.N,/Power Supply/BATTERY_STATUS*%
X94240000Y-88120000D03*
X84200000Y-111280000D03*
X88140000Y-104690000D03*
X92840000Y-104670000D03*
%TO.N,/Microcontroller/STAR*%
X100668025Y-73057975D03*
X99022000Y-86642000D03*
%TO.N,/Communication/COMM_RX*%
X105564158Y-85835891D03*
X103908265Y-97050782D03*
X112994686Y-121696686D03*
%TO.N,/Communication/COMM_TX*%
X106570000Y-85820000D03*
X104820000Y-96640000D03*
%TO.N,/Microcontroller/SWDIO*%
X108030000Y-86200000D03*
%TO.N,/Microcontroller/SWCLK*%
X104250000Y-79620000D03*
%TO.N,+VDD*%
X94196000Y-107470000D03*
X102578000Y-40602000D03*
%TO.N,Net-(DL701-Pad1)*%
X100010000Y-41310000D03*
%TO.N,Net-(Q701-Pad1)*%
X99300000Y-51408889D03*
X95720000Y-69624000D03*
%TD*%
D37*
%TO.N,/Microcontroller/VDD_MCU*%
X104100000Y-93400000D02*
X105400000Y-93400000D01*
X105400000Y-93400000D02*
X106200000Y-94200000D01*
X106200000Y-95250000D02*
X108050000Y-95250000D01*
X110450000Y-83550000D02*
X111200000Y-84300000D01*
X110450000Y-82300000D02*
X110450000Y-83550000D01*
X98020000Y-77300000D02*
X99220000Y-77300000D01*
X100120000Y-76400000D02*
X100120000Y-75650000D01*
X99220000Y-77300000D02*
X100120000Y-76400000D01*
X100000000Y-96120000D02*
X100000000Y-94800000D01*
X96950000Y-92650000D02*
X97000000Y-92700000D01*
X94400000Y-92650000D02*
X96950000Y-92650000D01*
X97000000Y-92700000D02*
X98100000Y-92700000D01*
X98100000Y-92700000D02*
X100000000Y-94600000D01*
X100000000Y-94600000D02*
X100000000Y-96120000D01*
X102900000Y-94600000D02*
X104100000Y-93400000D01*
X100000000Y-94600000D02*
X102900000Y-94600000D01*
X90630000Y-89680000D02*
X89980000Y-89030000D01*
X90630000Y-91030000D02*
X90630000Y-89680000D01*
X90630000Y-91030000D02*
X90630000Y-91760000D01*
X93220000Y-92650000D02*
X94400000Y-92650000D01*
X91520000Y-92650000D02*
X93220000Y-92650000D01*
X90630000Y-91760000D02*
X91520000Y-92650000D01*
X92950000Y-92650000D02*
X93220000Y-92650000D01*
D38*
X93200000Y-76440000D02*
X93250000Y-76490000D01*
X90750000Y-76440000D02*
X93200000Y-76440000D01*
X93250000Y-76490000D02*
X95550000Y-76490000D01*
X96360000Y-77300000D02*
X97900000Y-77300000D01*
X95550000Y-76490000D02*
X96360000Y-77300000D01*
D39*
X89980000Y-89030000D02*
X89980000Y-87770000D01*
X91200000Y-86550000D02*
X95850000Y-86550000D01*
X89980000Y-87770000D02*
X91200000Y-86550000D01*
X102750000Y-89450000D02*
X102750000Y-90780000D01*
X102750000Y-90780000D02*
X103180000Y-91210000D01*
X103180000Y-91210000D02*
X107130000Y-91210000D01*
X107130000Y-91210000D02*
X107800000Y-91880000D01*
X107800000Y-91880000D02*
X107800000Y-92610000D01*
X107800000Y-92610000D02*
X106200000Y-94210000D01*
D37*
X106200000Y-94210000D02*
X106200000Y-95250000D01*
X106200000Y-94200000D02*
X106200000Y-94210000D01*
D39*
X104150000Y-82550000D02*
X105790000Y-82550000D01*
X105790000Y-82550000D02*
X106970000Y-81370000D01*
X109970000Y-81370000D02*
X110450000Y-81850000D01*
D37*
X110450000Y-82300000D02*
X110450000Y-81850000D01*
D39*
X98020000Y-77300000D02*
X97269999Y-78050001D01*
X97250000Y-78070000D02*
X98020000Y-77300000D01*
X97250000Y-81150000D02*
X97250000Y-78070000D01*
X106970000Y-81370000D02*
X108620000Y-81370000D01*
X108620000Y-81370000D02*
X109970000Y-81370000D01*
X107920000Y-81370000D02*
X108620000Y-81370000D01*
D37*
X105480000Y-75650000D02*
X103710000Y-75650000D01*
X110450000Y-81850000D02*
X110450000Y-80620000D01*
X103710000Y-75650000D02*
X104450000Y-75650000D01*
X110450000Y-80620000D02*
X105480000Y-75650000D01*
X106200000Y-95250000D02*
X108880000Y-95250000D01*
X111200000Y-92930000D02*
X111200000Y-84300000D01*
X108880000Y-95250000D02*
X111200000Y-92930000D01*
X100000000Y-75650000D02*
X103410000Y-75650000D01*
X103410000Y-75650000D02*
X103710000Y-75650000D01*
D38*
X105200000Y-73860000D02*
X105200000Y-66650000D01*
X103410000Y-75650000D02*
X105200000Y-73860000D01*
X94300000Y-76490000D02*
X93250000Y-76490000D01*
X94900000Y-75890000D02*
X94300000Y-76490000D01*
X94900000Y-71714000D02*
X94900000Y-66650000D01*
X94900000Y-71714000D02*
X94900000Y-75890000D01*
D39*
%TO.N,GND*%
X92930000Y-88980000D02*
X92880000Y-89030000D01*
X92880000Y-90180000D02*
X92030000Y-91030000D01*
X92880000Y-89030000D02*
X92880000Y-90180000D01*
X80980000Y-106870000D02*
X80980000Y-106220000D01*
X80980000Y-106220000D02*
X82530000Y-106240000D01*
X82530000Y-106240000D02*
X83340000Y-105560000D01*
X83340000Y-105560000D02*
X83330000Y-104620000D01*
X114350000Y-95250000D02*
X114350000Y-96350000D01*
X113975000Y-96725000D02*
X112100000Y-96725000D01*
X114350000Y-96350000D02*
X113975000Y-96725000D01*
X113725000Y-101275000D02*
X112100000Y-101275000D01*
X114350000Y-100650000D02*
X113725000Y-101275000D01*
X114350000Y-96350000D02*
X114350000Y-100250000D01*
X114350000Y-100250000D02*
X114350000Y-100650000D01*
X113975000Y-106825000D02*
X112100000Y-106825000D01*
X114350000Y-106450000D02*
X113975000Y-106825000D01*
X112100000Y-107475000D02*
X112100000Y-106825000D01*
X114350000Y-106150000D02*
X114350000Y-110100000D01*
X114350000Y-104750000D02*
X114350000Y-106150000D01*
X114350000Y-106150000D02*
X114350000Y-106450000D01*
X113725000Y-110725000D02*
X112100000Y-110725000D01*
X114350000Y-110100000D02*
X113725000Y-110725000D01*
X112100000Y-98025000D02*
X112100000Y-97375000D01*
X112100000Y-97375000D02*
X112100000Y-96725000D01*
D37*
X104450000Y-92350000D02*
X104100000Y-92000000D01*
X106200000Y-92350000D02*
X104450000Y-92350000D01*
D39*
X104100000Y-92000000D02*
X102740000Y-92000000D01*
X102250000Y-91510000D02*
X102250000Y-89450000D01*
X102740000Y-92000000D02*
X102250000Y-91510000D01*
D38*
X82240000Y-98105000D02*
X82290000Y-98155000D01*
X80990000Y-98105000D02*
X82240000Y-98105000D01*
D37*
X83460000Y-95210000D02*
X83460000Y-96635000D01*
X83460000Y-96635000D02*
X83460000Y-100730000D01*
X82835000Y-101355000D02*
X80990000Y-101355000D01*
X83460000Y-100730000D02*
X82835000Y-101355000D01*
D38*
X83460000Y-96985000D02*
X83460000Y-96635000D01*
X82290000Y-98155000D02*
X83460000Y-96985000D01*
D37*
X82600000Y-110770000D02*
X83330000Y-110040000D01*
X80980000Y-110770000D02*
X82600000Y-110770000D01*
D38*
X81990000Y-113250000D02*
X82000000Y-113240000D01*
X81040000Y-113250000D02*
X81990000Y-113250000D01*
D37*
X83330000Y-110040000D02*
X83330000Y-104620000D01*
D38*
X88510000Y-85100000D02*
X88530000Y-85120000D01*
X88510000Y-83610000D02*
X88520000Y-83620000D01*
X88510000Y-82190000D02*
X88510000Y-83610000D01*
X88510000Y-83610000D02*
X88510000Y-85100000D01*
D39*
X108300000Y-84300000D02*
X107950000Y-84300000D01*
X105750000Y-83050000D02*
X104150000Y-83050000D01*
X108300000Y-84300000D02*
X108300000Y-83410000D01*
X109050000Y-82660000D02*
X109050000Y-82300000D01*
X99970000Y-78700000D02*
X100120000Y-78550000D01*
X97870000Y-78850000D02*
X98020000Y-78700000D01*
X97750000Y-81150000D02*
X97750000Y-79880000D01*
X98020000Y-79610000D02*
X98020000Y-78700000D01*
X97750000Y-79880000D02*
X98020000Y-79610000D01*
X97090000Y-88254998D02*
X96314998Y-89030000D01*
X96314998Y-89030000D02*
X92880000Y-89030000D01*
X96725000Y-86050000D02*
X97090000Y-86415000D01*
X95850000Y-86050000D02*
X96725000Y-86050000D01*
X107000000Y-84300000D02*
X108300000Y-84300000D01*
X116522500Y-123042500D02*
X116570000Y-123090000D01*
X114830000Y-123042500D02*
X116522500Y-123042500D01*
X116570000Y-123090000D02*
X118170000Y-123090000D01*
D37*
X109630000Y-123677500D02*
X111712500Y-123677500D01*
X112347500Y-123042500D02*
X114830000Y-123042500D01*
X111712500Y-123677500D02*
X112347500Y-123042500D01*
X108042500Y-123677500D02*
X107930000Y-123790000D01*
X109630000Y-123677500D02*
X108042500Y-123677500D01*
X102100000Y-119310000D02*
X102100000Y-120650000D01*
X105240000Y-123790000D02*
X107930000Y-123790000D01*
X102100000Y-120650000D02*
X105240000Y-123790000D01*
D40*
X92700000Y-115400000D02*
X92700000Y-116896000D01*
X93504000Y-117700000D02*
X94250000Y-117700000D01*
X92700000Y-116896000D02*
X93504000Y-117700000D01*
X94250000Y-117700000D02*
X94888000Y-117700000D01*
X95818000Y-116770000D02*
X97900000Y-116770000D01*
X94888000Y-117700000D02*
X95818000Y-116770000D01*
X93820000Y-120800000D02*
X93050000Y-120800000D01*
X94250000Y-120370000D02*
X93820000Y-120800000D01*
X85600000Y-121000000D02*
X81936000Y-121000000D01*
X80770000Y-122166000D02*
X80770000Y-126700000D01*
X81936000Y-121000000D02*
X80770000Y-122166000D01*
D39*
X86850000Y-123400000D02*
X87200000Y-123050000D01*
X86850000Y-124370000D02*
X86850000Y-123400000D01*
X86850000Y-127000000D02*
X87200000Y-127350000D01*
X86850000Y-126030000D02*
X86850000Y-127000000D01*
X92350000Y-127000000D02*
X92000000Y-127350000D01*
X92350000Y-126030000D02*
X92350000Y-127000000D01*
X92350000Y-123400000D02*
X92000000Y-123050000D01*
X92350000Y-124370000D02*
X92350000Y-123400000D01*
D40*
X94250000Y-117700000D02*
X94250000Y-119350000D01*
X94250000Y-119350000D02*
X94250000Y-120370000D01*
D39*
X92350000Y-124370000D02*
X92350000Y-126030000D01*
X86850000Y-124370000D02*
X86850000Y-126030000D01*
D38*
X97430000Y-107160000D02*
X96880000Y-107160000D01*
X96040000Y-106320000D02*
X96040000Y-104610000D01*
X96880000Y-107160000D02*
X96040000Y-106320000D01*
D37*
X94850000Y-115802000D02*
X95818000Y-116770000D01*
X94850000Y-111200000D02*
X94850000Y-115802000D01*
X97090000Y-87120000D02*
X97100000Y-87130000D01*
D39*
X97090000Y-86415000D02*
X97090000Y-87120000D01*
X97090000Y-87120000D02*
X97090000Y-88254998D01*
X107000000Y-84300000D02*
X105750000Y-83050000D01*
D37*
X108645000Y-83065000D02*
X108640000Y-83060000D01*
D39*
X108300000Y-83410000D02*
X108645000Y-83065000D01*
X108645000Y-83065000D02*
X109050000Y-82660000D01*
D37*
X98810000Y-78700000D02*
X98830000Y-78680000D01*
D39*
X98020000Y-78700000D02*
X98810000Y-78700000D01*
X98810000Y-78700000D02*
X99970000Y-78700000D01*
X110990000Y-101275000D02*
X110940000Y-101325000D01*
X112100000Y-101275000D02*
X110990000Y-101275000D01*
X100970000Y-45890000D02*
X100970000Y-47150000D01*
D38*
X102100000Y-126270000D02*
X102140000Y-126310000D01*
X102100000Y-119310000D02*
X102100000Y-126270000D01*
D37*
X112050000Y-110775000D02*
X112100000Y-110725000D01*
D39*
X111295000Y-110725000D02*
X112100000Y-110725000D01*
X111100000Y-110720000D02*
X111195000Y-110625000D01*
X107550000Y-110720000D02*
X111100000Y-110720000D01*
X105990000Y-109160000D02*
X107550000Y-110720000D01*
X105990000Y-103180000D02*
X105990000Y-109160000D01*
X107845000Y-101325000D02*
X105990000Y-103180000D01*
X110940000Y-101325000D02*
X107845000Y-101325000D01*
D38*
%TO.N,Net-(C202-Pad1)*%
X91660000Y-82190000D02*
X91680000Y-82210000D01*
X89910000Y-82190000D02*
X91660000Y-82190000D01*
X93735000Y-82210000D02*
X91680000Y-82210000D01*
X95075000Y-83550000D02*
X93735000Y-82210000D01*
X95850000Y-83550000D02*
X95075000Y-83550000D01*
%TO.N,Net-(C203-Pad1)*%
X91670000Y-85120000D02*
X91680000Y-85110000D01*
X89930000Y-85120000D02*
X91670000Y-85120000D01*
X95850000Y-84050000D02*
X95090000Y-84050000D01*
X94030000Y-85110000D02*
X93180000Y-85110000D01*
X93180000Y-85110000D02*
X91680000Y-85110000D01*
X95090000Y-84050000D02*
X94030000Y-85110000D01*
X93680000Y-85110000D02*
X93180000Y-85110000D01*
%TO.N,/Microcontroller/RESET*%
X97000000Y-105330000D02*
X97430000Y-105760000D01*
X97000000Y-95600000D02*
X97000000Y-105330000D01*
X99480000Y-105760000D02*
X100000000Y-106280000D01*
X97430000Y-105760000D02*
X99480000Y-105760000D01*
X94460000Y-85550000D02*
X95850000Y-85550000D01*
X94210000Y-85800000D02*
X94460000Y-85550000D01*
X97000000Y-95599964D02*
X95710018Y-94309982D01*
X97000000Y-95600000D02*
X97000000Y-95599964D01*
D40*
%TO.N,+3.3V*%
X91750000Y-113200000D02*
X91750000Y-111400000D01*
D39*
X86880000Y-106220000D02*
X85160000Y-106230000D01*
X85160000Y-106230000D02*
X84740000Y-105870000D01*
X115750000Y-96300000D02*
X115699999Y-96350001D01*
D40*
X91950000Y-108470000D02*
X91950000Y-111200000D01*
X94400000Y-106020000D02*
X91950000Y-108470000D01*
X94400000Y-105500000D02*
X94400000Y-106050000D01*
X94400000Y-105500000D02*
X94400000Y-106020000D01*
X97900000Y-109550000D02*
X97900000Y-111690000D01*
X94400000Y-106050000D02*
X97900000Y-109550000D01*
X97900000Y-111690000D02*
X102100000Y-111690000D01*
X97900000Y-111690000D02*
X97900000Y-114230000D01*
X97900000Y-114230000D02*
X102100000Y-114230000D01*
D37*
X72530000Y-99470000D02*
X68980000Y-106220000D01*
X67969266Y-104000274D02*
X68890000Y-104500000D01*
X68890000Y-104500000D02*
X68980000Y-106220000D01*
X79049266Y-82990274D02*
X79980000Y-83470000D01*
X79980000Y-83470000D02*
X79997144Y-85377144D01*
X82743529Y-75985274D02*
X83680000Y-76460000D01*
X83680000Y-76460000D02*
X83660000Y-78450000D01*
X86459266Y-68960274D02*
X87400000Y-69470000D01*
X87400000Y-69470000D02*
X87354932Y-71484932D01*
X90139266Y-61940274D02*
X91080000Y-62430000D01*
X91080000Y-62430000D02*
X91010000Y-64580000D01*
X93879266Y-54970274D02*
X94700000Y-55940000D01*
X94700000Y-55940000D02*
X94710000Y-57580000D01*
X96289266Y-50380274D02*
X97200000Y-50900000D01*
X97200000Y-50900000D02*
X97221111Y-52208889D01*
X75339266Y-89970274D02*
X76240000Y-90460000D01*
X76240000Y-90460000D02*
X76209773Y-92539773D01*
X56868532Y-124940548D02*
X57790000Y-125410000D01*
X57790000Y-125410000D02*
X59090000Y-124930000D01*
X60619266Y-117970274D02*
X61560000Y-118460000D01*
X61560000Y-118460000D02*
X61540000Y-120310000D01*
X64273529Y-110985274D02*
X65200000Y-111430000D01*
X65200000Y-111430000D02*
X65169238Y-113429238D01*
X84860000Y-95210000D02*
X84860000Y-96000000D01*
X85665000Y-96805000D02*
X86890000Y-96805000D01*
X84860000Y-96000000D02*
X85665000Y-96805000D01*
X92975000Y-96805000D02*
X94400000Y-98230000D01*
X86890000Y-96805000D02*
X92975000Y-96805000D01*
D40*
X94400000Y-98230000D02*
X94400000Y-105500000D01*
X94400000Y-95550000D02*
X94400000Y-98230000D01*
D38*
X80990000Y-96805000D02*
X80990000Y-97455000D01*
D37*
X84860000Y-93400000D02*
X83990000Y-92530000D01*
X101091111Y-52208889D02*
X102470000Y-52190000D01*
X97221111Y-52208889D02*
X101091111Y-52208889D01*
X102470000Y-52190000D02*
X102650000Y-50990000D01*
X102650000Y-50990000D02*
X103711468Y-50410548D01*
X106130734Y-55080274D02*
X105190000Y-55550000D01*
X105190000Y-55550000D02*
X105257670Y-57462330D01*
X102470000Y-52190000D02*
X105257670Y-57462330D01*
X113580734Y-68980274D02*
X112660000Y-69450000D01*
X112660000Y-69450000D02*
X112693760Y-71526240D01*
X105257670Y-57462330D02*
X112693760Y-71526240D01*
X116370000Y-78480000D02*
X116300000Y-76480000D01*
X116300000Y-76480000D02*
X117230734Y-75980274D01*
X120936471Y-82955274D02*
X120000000Y-83420000D01*
X120000000Y-83420000D02*
X119950001Y-85249999D01*
X119950001Y-85249999D02*
X123170000Y-91340000D01*
X112693760Y-71526240D02*
X119950001Y-85249999D01*
X123170000Y-91340000D02*
X123170000Y-91350000D01*
X143180734Y-124980274D02*
X142280000Y-125500000D01*
X142280000Y-125500000D02*
X141000000Y-125040000D01*
X139480734Y-117980274D02*
X138560000Y-118490000D01*
X138560000Y-118490000D02*
X137212579Y-117867421D01*
X137212579Y-117867421D02*
X139800000Y-122760000D01*
X133520000Y-110900000D02*
X134860000Y-111490000D01*
X134860000Y-111490000D02*
X135780734Y-110980274D01*
X129798981Y-103848981D02*
X137212579Y-117867421D01*
X129798981Y-103848981D02*
X131120000Y-104440000D01*
X131120000Y-104440000D02*
X132030734Y-103930274D01*
X128380734Y-97030274D02*
X127410000Y-97560000D01*
X127410000Y-97560000D02*
X126333648Y-97296352D01*
X84860000Y-93650000D02*
X84860000Y-93400000D01*
D38*
X80990000Y-96805000D02*
X80990000Y-94700000D01*
X80990000Y-94700000D02*
X81700000Y-93990000D01*
X84180000Y-93990000D02*
X84860000Y-94670000D01*
X81700000Y-93990000D02*
X84180000Y-93990000D01*
D37*
X84860000Y-94670000D02*
X84860000Y-93650000D01*
X84860000Y-95210000D02*
X84860000Y-94670000D01*
D38*
X80980000Y-107520000D02*
X79470000Y-107520000D01*
X79470000Y-107520000D02*
X78660000Y-106710000D01*
X78660000Y-106710000D02*
X78660000Y-104490000D01*
X79466452Y-103683548D02*
X79492934Y-103710030D01*
X78660000Y-104490000D02*
X79466452Y-103683548D01*
X79492934Y-103710030D02*
X84390030Y-103710030D01*
X84730000Y-104050000D02*
X84730000Y-104620000D01*
X84390030Y-103710030D02*
X84730000Y-104050000D01*
D37*
X91950000Y-108385996D02*
X91950000Y-108470000D01*
X139800000Y-122760000D02*
X141000000Y-125040000D01*
X115820998Y-106175000D02*
X115080000Y-106915998D01*
D39*
X116175000Y-106175000D02*
X116625000Y-106175000D01*
D37*
X116625000Y-106175000D02*
X115820998Y-106175000D01*
D39*
X116625000Y-106175000D02*
X118000000Y-106175000D01*
D37*
X116175000Y-106175000D02*
X115750000Y-105750000D01*
X116275000Y-106175000D02*
X116175000Y-106175000D01*
X118000000Y-106175000D02*
X116275000Y-106175000D01*
X116275000Y-106175000D02*
X115820998Y-106175000D01*
X115750000Y-105750000D02*
X115750000Y-104750000D01*
X115750000Y-104750000D02*
X115750000Y-104480000D01*
X115750000Y-104480000D02*
X115420000Y-104150000D01*
X115420000Y-96630000D02*
X115699999Y-96350001D01*
X115750000Y-96300000D02*
X115750000Y-95250000D01*
X115750000Y-96300000D02*
X116175000Y-96725000D01*
X116175000Y-96725000D02*
X118000000Y-96725000D01*
X125500000Y-95720000D02*
X125724490Y-96144490D01*
X126558491Y-97721509D02*
X129798981Y-103848981D01*
X126333648Y-97296352D02*
X126558491Y-97721509D01*
X126385535Y-97394465D02*
X126333648Y-97296352D01*
X125724490Y-96144490D02*
X126385535Y-97394465D01*
X126385535Y-97394465D02*
X126558491Y-97721509D01*
X123708777Y-92361223D02*
X125724490Y-96144490D01*
X123170000Y-91350000D02*
X123708777Y-92361223D01*
X124630734Y-89980274D02*
X123720000Y-90470000D01*
X123720000Y-90470000D02*
X123708777Y-92361223D01*
X108900000Y-62480000D02*
X109830734Y-61980274D01*
X108920000Y-64390000D02*
X108900000Y-62480000D01*
D39*
X84740000Y-105870000D02*
X84736350Y-105413650D01*
X84736350Y-105413650D02*
X84730000Y-104620000D01*
X91610000Y-111540000D02*
X91950000Y-111200000D01*
X84736350Y-110516350D02*
X85760000Y-111540000D01*
X84736350Y-105413650D02*
X84736350Y-110516350D01*
D38*
X115080000Y-110470000D02*
X115113939Y-110470000D01*
X115113939Y-110470000D02*
X115116459Y-110467480D01*
D37*
X115080000Y-106915998D02*
X115080000Y-110470000D01*
X115420000Y-104020000D02*
X115420000Y-96630000D01*
X115420000Y-104150000D02*
X115420000Y-104020000D01*
D38*
X111160000Y-103380000D02*
X114530000Y-103380000D01*
X110430000Y-104110000D02*
X111160000Y-103380000D01*
X112100000Y-106175000D02*
X111135000Y-106175000D01*
X110430000Y-105470000D02*
X110430000Y-104110000D01*
X115170000Y-104020000D02*
X115420000Y-104020000D01*
X111135000Y-106175000D02*
X110430000Y-105470000D01*
X115750000Y-104600000D02*
X114715000Y-103565000D01*
X115750000Y-104750000D02*
X115750000Y-104600000D01*
X114715000Y-103565000D02*
X115170000Y-104020000D01*
X114530000Y-103380000D02*
X114715000Y-103565000D01*
X90190000Y-110290000D02*
X90190000Y-111080000D01*
D39*
X90650000Y-111540000D02*
X91610000Y-111540000D01*
D38*
X90190000Y-111080000D02*
X90650000Y-111540000D01*
D39*
X85760000Y-111540000D02*
X90650000Y-111540000D01*
D37*
X72530000Y-99470000D02*
X72610000Y-97410000D01*
X72610000Y-97410000D02*
X71675003Y-96965274D01*
D40*
%TO.N,+VUSB*%
X89950000Y-121000000D02*
X90150000Y-120800000D01*
X87500000Y-121000000D02*
X89950000Y-121000000D01*
X87500000Y-120150000D02*
X87500000Y-121000000D01*
D38*
X87500000Y-121720000D02*
X87500000Y-120150000D01*
D39*
X87500000Y-121943998D02*
X87500000Y-121720000D01*
X88350000Y-122793998D02*
X87500000Y-121943998D01*
X88350000Y-124370000D02*
X88350000Y-122793998D01*
X88350000Y-124370000D02*
X88350000Y-126030000D01*
X90850000Y-126030000D02*
X90850000Y-124370000D01*
X88350000Y-122636191D02*
X88350000Y-122793998D01*
X88753835Y-122232356D02*
X88350000Y-122636191D01*
X90382358Y-122232356D02*
X88753835Y-122232356D01*
X90860001Y-122709999D02*
X90382358Y-122232356D01*
X90860001Y-123430001D02*
X90860001Y-122709999D01*
X90850000Y-123440002D02*
X90860001Y-123430001D01*
X90850000Y-124370000D02*
X90850000Y-123440002D01*
D37*
X114830000Y-123677500D02*
X113172500Y-123677500D01*
X113172500Y-123677500D02*
X112200000Y-124650000D01*
X110759999Y-128030001D02*
X95270001Y-128030001D01*
X112200000Y-126590000D02*
X110759999Y-128030001D01*
X112200000Y-124650000D02*
X112200000Y-126590000D01*
X95270001Y-128030001D02*
X94120000Y-126880000D01*
D39*
X88350000Y-126030000D02*
X88350000Y-127278000D01*
X90850000Y-126030000D02*
X90850000Y-127072000D01*
X90850000Y-127072000D02*
X90640000Y-127282000D01*
D40*
X85400000Y-117800000D02*
X86440000Y-117800000D01*
X87500000Y-118860000D02*
X87500000Y-121000000D01*
X86440000Y-117800000D02*
X87500000Y-118860000D01*
D39*
%TO.N,/Communication/FTDI_VCC*%
X114830000Y-124947500D02*
X114830000Y-124312500D01*
X114830000Y-124312500D02*
X115802500Y-124312500D01*
X115980000Y-124490000D02*
X116570000Y-124490000D01*
X115802500Y-124312500D02*
X115980000Y-124490000D01*
D37*
X107947500Y-122407500D02*
X107930000Y-122390000D01*
X109630000Y-122407500D02*
X107947500Y-122407500D01*
X118170000Y-124490000D02*
X116570000Y-124490000D01*
X119960000Y-123800000D02*
X119270000Y-124490000D01*
X119960000Y-121580000D02*
X119960000Y-123800000D01*
X119270000Y-124490000D02*
X118170000Y-124490000D01*
X118917499Y-120537499D02*
X119960000Y-121580000D01*
X113022501Y-120537499D02*
X118917499Y-120537499D01*
X111152500Y-122407500D02*
X113022501Y-120537499D01*
X109630000Y-122407500D02*
X111152500Y-122407500D01*
D40*
%TO.N,Net-(D402-Pad1)*%
X83690000Y-115660000D02*
X85400000Y-115600000D01*
D41*
X80900000Y-115600000D02*
X85400000Y-115600000D01*
X78230000Y-118270000D02*
X80900000Y-115600000D01*
X78230000Y-120100000D02*
X78230000Y-118270000D01*
X78230000Y-126700000D02*
X78230000Y-120100000D01*
D38*
X86210000Y-115600000D02*
X88580000Y-113230000D01*
X85400000Y-115600000D02*
X86210000Y-115600000D01*
%TO.N,/Branch1/B1_LINE1*%
X111361002Y-98675000D02*
X108836002Y-96150000D01*
X108836002Y-96150000D02*
X108800000Y-96150000D01*
X112100000Y-98675000D02*
X111361002Y-98675000D01*
X103010000Y-48970000D02*
X104650000Y-46800000D01*
%TO.N,Net-(DL301-Pad1)*%
X102350000Y-45177984D02*
X103288532Y-44239452D01*
X102350000Y-47850000D02*
X102350000Y-45177984D01*
%TO.N,/Branch1/B1_LINE2*%
X112100000Y-99325000D02*
X110975000Y-99325000D01*
X110975000Y-99325000D02*
X109350000Y-97700000D01*
X109350000Y-97700000D02*
X109050000Y-97400000D01*
X108361468Y-53860548D02*
X108320000Y-56030000D01*
%TO.N,Net-(DL303-Pad1)*%
X104769266Y-52519726D02*
X107000000Y-51300000D01*
%TO.N,/Branch1/B1_LINE3*%
X110635050Y-99975000D02*
X109080025Y-98419975D01*
X112100000Y-99975000D02*
X110635050Y-99975000D01*
X112050000Y-60800000D02*
X112050000Y-62880000D01*
%TO.N,Net-(DL305-Pad1)*%
X108469266Y-59419726D02*
X110688532Y-58239452D01*
%TO.N,/Branch1/B1_LINE4*%
X110295100Y-100625000D02*
X109210050Y-99539950D01*
X112100000Y-100625000D02*
X110295100Y-100625000D01*
X115780734Y-67780274D02*
X115780000Y-69960000D01*
%TO.N,Net-(DL307-Pad1)*%
X112219266Y-66419726D02*
X114419266Y-65219726D01*
%TO.N,/Branch1/B1_LINE5*%
X117125000Y-101275000D02*
X118000000Y-101275000D01*
X116475000Y-101275000D02*
X116450000Y-101300000D01*
X118000000Y-101275000D02*
X116475000Y-101275000D01*
X119430734Y-74780274D02*
X119430734Y-76559266D01*
%TO.N,Net-(DL309-Pad1)*%
X115869266Y-73419726D02*
X118069266Y-72219726D01*
%TO.N,/Branch1/B1_LINE6*%
X123130734Y-81780274D02*
X123130734Y-83519266D01*
X116975000Y-100625000D02*
X116500000Y-100150000D01*
X118000000Y-100625000D02*
X116975000Y-100625000D01*
X123130734Y-83519266D02*
X123130734Y-83460734D01*
%TO.N,Net-(DL311-Pad1)*%
X119575003Y-80394726D02*
X121769266Y-79219726D01*
%TO.N,/Branch1/B1_LINE7*%
X126830734Y-89289930D02*
X126830734Y-88780274D01*
X118000000Y-99975000D02*
X119375000Y-99975000D01*
X119375000Y-99975000D02*
X120510000Y-98840000D01*
X126830734Y-88780274D02*
X126830000Y-90630000D01*
%TO.N,Net-(DL313-Pad1)*%
X123269266Y-87419726D02*
X125469266Y-86219726D01*
%TO.N,/Branch1/B1_LINE8*%
X118000000Y-99325000D02*
X118955036Y-99325000D01*
X118955036Y-99325000D02*
X119440018Y-98840018D01*
X130580734Y-95830274D02*
X130590000Y-96340000D01*
X130590000Y-96340000D02*
X128310000Y-98600000D01*
%TO.N,Net-(DL315-Pad1)*%
X127019266Y-94469726D02*
X129219266Y-93269726D01*
%TO.N,/Branch1/B1_LINE9*%
X109200000Y-106510000D02*
X109200000Y-104500000D01*
X110815000Y-108125000D02*
X109200000Y-106510000D01*
X112100000Y-108125000D02*
X110815000Y-108125000D01*
X134230734Y-102780274D02*
X134230734Y-105219266D01*
%TO.N,Net-(DL317-Pad1)*%
X130669266Y-101369726D02*
X132869266Y-100219726D01*
%TO.N,/Branch1/B1_LINE10*%
X108500000Y-107115699D02*
X108500000Y-105650000D01*
X110159301Y-108775000D02*
X108500000Y-107115699D01*
X112100000Y-108775000D02*
X110159301Y-108775000D01*
X135650000Y-109550000D02*
X137110000Y-109530000D01*
X137110000Y-109530000D02*
X137480000Y-109520000D01*
X137480000Y-109520000D02*
X137980734Y-109780274D01*
%TO.N,Net-(DL319-Pad1)*%
X134419266Y-108419726D02*
X136619266Y-107219726D01*
%TO.N,/Branch1/B1_LINE11*%
X112100000Y-109425000D02*
X109875000Y-109425000D01*
X107800000Y-107350000D02*
X107800000Y-106950000D01*
X109875000Y-109425000D02*
X107800000Y-107350000D01*
X141680734Y-116780274D02*
X138880000Y-116840000D01*
%TO.N,Net-(DL321-Pad1)*%
X138119266Y-115419726D02*
X140319266Y-114219726D01*
%TO.N,/Branch1/B1_LINE12*%
X112100000Y-110075000D02*
X110225000Y-110075000D01*
X109385000Y-110075000D02*
X106980000Y-107670000D01*
X112100000Y-110075000D02*
X109385000Y-110075000D01*
X145380734Y-123780274D02*
X142500000Y-123810000D01*
%TO.N,Net-(DL323-Pad1)*%
X141819266Y-122419726D02*
X144019266Y-121219726D01*
%TO.N,/Branch2/B2_LINE1*%
X95470000Y-47023317D02*
X95470000Y-46891008D01*
X95470000Y-46891008D02*
X95359266Y-46780274D01*
X97398342Y-48951658D02*
X97380000Y-48970000D01*
X97398342Y-48951658D02*
X95470000Y-47023317D01*
X93450000Y-70700000D02*
X93450000Y-60530000D01*
X87305000Y-76845000D02*
X93450000Y-70700000D01*
X87305000Y-84955000D02*
X87305000Y-76845000D01*
X79450000Y-98370000D02*
X79450000Y-92810000D01*
X93450000Y-60530000D02*
X98390000Y-55590000D01*
X79450000Y-92810000D02*
X87305000Y-84955000D01*
X79835000Y-98755000D02*
X79450000Y-98370000D01*
X80990000Y-98755000D02*
X79835000Y-98755000D01*
%TO.N,Net-(DL601-Pad1)*%
X97650734Y-47819726D02*
X97670000Y-45240000D01*
X97670000Y-45240000D02*
X96720734Y-44219726D01*
%TO.N,/Branch2/B2_LINE2*%
X93000000Y-61950000D02*
X93000000Y-57360000D01*
X93000000Y-61950000D02*
X93000000Y-61434996D01*
X93000000Y-57360000D02*
X91659266Y-56019266D01*
X91659266Y-55510734D02*
X91640000Y-55530000D01*
X91659266Y-56019266D02*
X91659266Y-55510734D01*
X91659266Y-55510734D02*
X91659266Y-53790274D01*
X93000000Y-70550000D02*
X93000000Y-61950000D01*
X86904990Y-76645010D02*
X93000000Y-70550000D01*
X80990000Y-99405000D02*
X79919302Y-99405000D01*
X86904990Y-84789312D02*
X86904990Y-76645010D01*
X79049992Y-92644310D02*
X86904990Y-84789312D01*
X79049992Y-98535690D02*
X79049992Y-92644310D01*
X79919302Y-99405000D02*
X79049992Y-98535690D01*
%TO.N,Net-(DL603-Pad1)*%
X93020734Y-51229726D02*
X95240734Y-52409726D01*
%TO.N,/Branch2/B2_LINE3*%
X87940000Y-63060000D02*
X87940000Y-60770000D01*
X89700000Y-64820000D02*
X87940000Y-63060000D01*
X89700000Y-73280000D02*
X89700000Y-64820000D01*
X86504980Y-76475020D02*
X89700000Y-73280000D01*
X79995000Y-100055000D02*
X78620000Y-98680000D01*
X78620000Y-92508604D02*
X86504980Y-84623624D01*
X86504980Y-84623624D02*
X86504980Y-76475020D01*
X78620000Y-98680000D02*
X78620000Y-92508604D01*
X80990000Y-100055000D02*
X79995000Y-100055000D01*
%TO.N,Net-(DL605-Pad1)*%
X89301468Y-58209452D02*
X91500734Y-59379726D01*
%TO.N,/Branch2/B2_LINE4*%
X84249266Y-69819266D02*
X84249266Y-67800274D01*
X86104969Y-71674969D02*
X84249266Y-69819266D01*
X78219989Y-92342915D02*
X86104969Y-84457935D01*
X80990000Y-100705000D02*
X80079302Y-100705000D01*
X86104969Y-84457935D02*
X86104969Y-71674969D01*
X80079302Y-100705000D02*
X78219989Y-98845689D01*
X78219989Y-98845689D02*
X78219989Y-92342915D01*
%TO.N,Net-(DL607-Pad1)*%
X85610734Y-65239726D02*
X87820734Y-66399726D01*
%TO.N,/Branch2/B2_LINE5*%
X85704960Y-81824960D02*
X80529266Y-76649266D01*
X85704960Y-84292248D02*
X85704960Y-81824960D01*
X77819980Y-92177227D02*
X85704960Y-84292248D01*
X86890000Y-101355000D02*
X85465000Y-101355000D01*
X77819980Y-100339980D02*
X77819980Y-92177227D01*
X84310000Y-102510000D02*
X79990000Y-102510000D01*
X80529266Y-76649266D02*
X80529266Y-74800274D01*
X79990000Y-102510000D02*
X77819980Y-100339980D01*
X85465000Y-101355000D02*
X84310000Y-102510000D01*
%TO.N,Net-(DL609-Pad1)*%
X81890734Y-72239726D02*
X84104997Y-73424726D01*
%TO.N,/Branch2/B2_LINE6*%
X76834266Y-83784266D02*
X76834266Y-81806011D01*
X78600000Y-85550000D02*
X76834266Y-83784266D01*
X79824311Y-102910010D02*
X77410000Y-100495699D01*
X87679990Y-102910010D02*
X79824311Y-102910010D01*
X88580000Y-102010000D02*
X87679990Y-102910010D01*
X78600000Y-90831509D02*
X78600000Y-85550000D01*
X77410000Y-92021509D02*
X78600000Y-90831509D01*
X88580000Y-101150000D02*
X88580000Y-102010000D01*
X77410000Y-100495699D02*
X77410000Y-92021509D01*
X88135000Y-100705000D02*
X88580000Y-101150000D01*
X86890000Y-100705000D02*
X88135000Y-100705000D01*
%TO.N,Net-(DL611-Pad1)*%
X78195734Y-79245463D02*
X80410734Y-80429726D01*
%TO.N,/Branch2/B2_LINE7*%
X77009990Y-95149990D02*
X73119266Y-91259266D01*
X77009990Y-100661388D02*
X77009990Y-95149990D01*
X79658623Y-103310020D02*
X77009990Y-100661388D01*
X88980010Y-102175689D02*
X87845679Y-103310020D01*
X87845679Y-103310020D02*
X79658623Y-103310020D01*
X88980010Y-100984311D02*
X88980010Y-102175689D01*
X88050700Y-100055000D02*
X88512850Y-100517150D01*
X86890000Y-100055000D02*
X88050700Y-100055000D01*
X88512850Y-100517150D02*
X88980010Y-100984311D01*
X88225698Y-100229999D02*
X88512850Y-100517150D01*
X73119266Y-91140734D02*
X73100000Y-91160000D01*
X73119266Y-91259266D02*
X73119266Y-91140734D01*
X73119266Y-91140734D02*
X73119266Y-88800274D01*
%TO.N,Net-(DL613-Pad1)*%
X74480734Y-86239726D02*
X76700734Y-87409726D01*
%TO.N,/Branch2/B2_LINE8*%
X69500000Y-98070000D02*
X69500000Y-95821008D01*
X85955000Y-99405000D02*
X86890000Y-99405000D01*
X84810000Y-100550000D02*
X85955000Y-99405000D01*
%TO.N,Net-(DL615-Pad1)*%
X70820734Y-93219726D02*
X73036471Y-94404726D01*
%TO.N,/Branch2/B2_LINE9*%
X80980000Y-108170000D02*
X69430000Y-108170000D01*
X65729266Y-104469266D02*
X65729266Y-102800274D01*
X69430000Y-108170000D02*
X65729266Y-104469266D01*
%TO.N,Net-(DL617-Pad1)*%
X67090734Y-100239726D02*
X69330734Y-101439726D01*
%TO.N,/Branch2/B2_LINE10*%
X61760000Y-110049540D02*
X62019266Y-109790274D01*
X61760000Y-112170000D02*
X61760000Y-110049540D01*
X64110000Y-114520000D02*
X61760000Y-112170000D01*
X67600000Y-114520000D02*
X64110000Y-114520000D01*
X73300000Y-108820000D02*
X67600000Y-114520000D01*
X80980000Y-108820000D02*
X73300000Y-108820000D01*
%TO.N,Net-(DL619-Pad1)*%
X63380734Y-107229726D02*
X65634997Y-108424726D01*
%TO.N,/Branch2/B2_LINE11*%
X58448992Y-116860000D02*
X58379266Y-116790274D01*
X60880000Y-116860000D02*
X60910000Y-116830000D01*
X60880000Y-116860000D02*
X58448992Y-116860000D01*
X73440000Y-109470000D02*
X66050000Y-116860000D01*
X66050000Y-116860000D02*
X60880000Y-116860000D01*
X80980000Y-109470000D02*
X73440000Y-109470000D01*
%TO.N,Net-(DL621-Pad1)*%
X59740734Y-114229726D02*
X61980734Y-115409726D01*
%TO.N,/Branch2/B2_LINE12*%
X57319726Y-123770274D02*
X57360000Y-123730000D01*
X54639266Y-123770274D02*
X57319726Y-123770274D01*
X73530000Y-110120000D02*
X80980000Y-110120000D01*
X59879726Y-123770274D02*
X73530000Y-110120000D01*
X57319726Y-123770274D02*
X59879726Y-123770274D01*
%TO.N,Net-(DL623-Pad1)*%
X56000734Y-121209726D02*
X58230000Y-122380000D01*
%TO.N,Net-(P501-PadA6)*%
X89350000Y-124995000D02*
X89850000Y-125495000D01*
X89850000Y-125495000D02*
X89850000Y-126030000D01*
X89350000Y-124370000D02*
X89350000Y-124995000D01*
X109520000Y-125692500D02*
X109630000Y-125582500D01*
X109520000Y-127230000D02*
X109520000Y-125692500D01*
X89350000Y-123218521D02*
X89113836Y-122982357D01*
X89350000Y-124370000D02*
X89350000Y-123218521D01*
%TO.N,Net-(P501-PadA7)*%
X89350000Y-126940266D02*
X89357092Y-126947358D01*
X89350000Y-126030000D02*
X89350000Y-126940266D01*
X114890000Y-125642500D02*
X114830000Y-125582500D01*
X114890000Y-127280000D02*
X114890000Y-125642500D01*
X89850000Y-123330000D02*
X90110000Y-123070000D01*
X89850000Y-124370000D02*
X89850000Y-123330000D01*
%TO.N,/Branch1/BRANCH1_SDA*%
X99750000Y-81060000D02*
X99700001Y-81010001D01*
X99750000Y-81150000D02*
X99750000Y-81060000D01*
X89915000Y-97455000D02*
X86890000Y-97455000D01*
X90100000Y-97640000D02*
X89915000Y-97455000D01*
X89290002Y-106870000D02*
X90044983Y-107624981D01*
X86880000Y-106870000D02*
X89290002Y-106870000D01*
X90575025Y-79514975D02*
X90750000Y-79340000D01*
X88774975Y-79514975D02*
X90575025Y-79514975D01*
X116355000Y-106825000D02*
X115930000Y-107250000D01*
X118000000Y-106825000D02*
X116355000Y-106825000D01*
X121185000Y-106825000D02*
X118000000Y-106825000D01*
X122220000Y-105790000D02*
X121185000Y-106825000D01*
X122220000Y-98850000D02*
X122220000Y-105790000D01*
X120745000Y-97375000D02*
X122220000Y-98850000D01*
X118000000Y-97375000D02*
X120745000Y-97375000D01*
X90750000Y-79340000D02*
X90750000Y-78680000D01*
X90750000Y-79340000D02*
X90750000Y-78400000D01*
X93389999Y-77769999D02*
X95410000Y-79790000D01*
X91380001Y-77769999D02*
X93389999Y-77769999D01*
X90750000Y-78400000D02*
X91380001Y-77769999D01*
X99750000Y-81150000D02*
X99750000Y-82310000D01*
X99750000Y-82310000D02*
X99040000Y-83020000D01*
X88530000Y-79270000D02*
X88774975Y-79514975D01*
X88530000Y-77630000D02*
X88530000Y-79270000D01*
%TO.N,/B_EXT_SDA*%
X101250000Y-87600000D02*
X101260000Y-87590000D01*
X101250000Y-89450000D02*
X101250000Y-87600000D01*
X95680000Y-63750000D02*
X97900000Y-65970000D01*
X94900000Y-63750000D02*
X95680000Y-63750000D01*
X102100000Y-65970000D02*
X97900000Y-65970000D01*
X94900000Y-61740000D02*
X94900000Y-63750000D01*
%TO.N,/Branch1/BRANCH1_SCL*%
X86951355Y-98166355D02*
X86890000Y-98105000D01*
X89249734Y-98166355D02*
X86951355Y-98166355D01*
X88760000Y-107520000D02*
X88890000Y-107650000D01*
X86880000Y-107520000D02*
X88760000Y-107520000D01*
X118000000Y-107475000D02*
X117060308Y-107475000D01*
X117060308Y-107475000D02*
X116405672Y-108129636D01*
X121107475Y-106062525D02*
X120957525Y-106062525D01*
X121760000Y-99060000D02*
X121760000Y-105410000D01*
X120725000Y-98025000D02*
X121760000Y-99060000D01*
X121760000Y-105410000D02*
X121107475Y-106062525D01*
X118000000Y-98025000D02*
X120725000Y-98025000D01*
X93250000Y-79390000D02*
X93250000Y-78980000D01*
X93250000Y-78980000D02*
X92740000Y-78470000D01*
X99576001Y-83750001D02*
X100250000Y-83076002D01*
X100250000Y-83076002D02*
X100250000Y-81150000D01*
X98230001Y-83750001D02*
X99576001Y-83750001D01*
X93250000Y-79390000D02*
X93870000Y-79390000D01*
X93870000Y-79390000D02*
X98230001Y-83750001D01*
X93250000Y-80790000D02*
X93410000Y-80950000D01*
X93250000Y-79390000D02*
X93250000Y-80790000D01*
%TO.N,/B_EXT_SCL*%
X101750000Y-88222819D02*
X102251318Y-87721501D01*
X101750000Y-89450000D02*
X101750000Y-88222819D01*
X102420000Y-63750000D02*
X102100000Y-63430000D01*
X105200000Y-63750000D02*
X102420000Y-63750000D01*
X97900000Y-63430000D02*
X102100000Y-63430000D01*
X105210000Y-63740000D02*
X105200000Y-63750000D01*
X105210000Y-61630000D02*
X105210000Y-63740000D01*
%TO.N,/Power Supply/BATTERY_STATUS*%
X85660000Y-113250000D02*
X85680000Y-113230000D01*
X83940000Y-113250000D02*
X85660000Y-113250000D01*
X95075000Y-87050000D02*
X94240000Y-87885000D01*
X95850000Y-87050000D02*
X95075000Y-87050000D01*
X94240000Y-87885000D02*
X94240000Y-88120000D01*
X85680000Y-112760000D02*
X84200000Y-111280000D01*
X85680000Y-113230000D02*
X85680000Y-112760000D01*
X92820000Y-104690000D02*
X92840000Y-104670000D01*
X88140000Y-104690000D02*
X92820000Y-104690000D01*
%TO.N,/Microcontroller/STAR*%
X99096000Y-74630000D02*
X100668025Y-73057975D01*
X97498000Y-74630000D02*
X99096000Y-74630000D01*
X98200001Y-89400001D02*
X98250000Y-89450000D01*
X98200001Y-87463999D02*
X98200001Y-89400001D01*
X99022000Y-86642000D02*
X98200001Y-87463999D01*
X100706000Y-73020000D02*
X100668025Y-73057975D01*
X102560000Y-73020000D02*
X100706000Y-73020000D01*
%TO.N,/Communication/COMM_RX*%
X105278267Y-85550000D02*
X105564158Y-85835891D01*
X104150000Y-85550000D02*
X105278267Y-85550000D01*
X103908265Y-97050782D02*
X104419990Y-97562507D01*
X104419990Y-108540010D02*
X104419990Y-108955687D01*
X107112500Y-123042500D02*
X109630000Y-123042500D01*
X104419990Y-120349990D02*
X107112500Y-123042500D01*
X104419990Y-108540010D02*
X104419990Y-120233990D01*
X104419990Y-120233990D02*
X104419990Y-120349990D01*
X112986194Y-121696686D02*
X112994686Y-121696686D01*
X111640380Y-123042500D02*
X112986194Y-121696686D01*
X109630000Y-123042500D02*
X111640380Y-123042500D01*
X104419990Y-100289990D02*
X104419990Y-101080010D01*
X103110000Y-98980000D02*
X104419990Y-100289990D01*
X104419990Y-101080010D02*
X104419990Y-108540010D01*
X104419990Y-97562507D02*
X104419990Y-101080010D01*
%TO.N,/Communication/COMM_TX*%
X105800000Y-85050000D02*
X106570000Y-85820000D01*
X104150000Y-85050000D02*
X105800000Y-85050000D01*
X104820000Y-108350000D02*
X104820000Y-118970000D01*
X106987500Y-121137500D02*
X109630000Y-121137500D01*
X104820000Y-118970000D02*
X106987500Y-121137500D01*
X109630000Y-121137500D02*
X110911500Y-121137500D01*
X112011511Y-120037489D02*
X121749489Y-120037489D01*
X110911500Y-121137500D02*
X112011511Y-120037489D01*
X126708000Y-124996000D02*
X126708000Y-126266000D01*
X121749489Y-120037489D02*
X126708000Y-124996000D01*
X106160000Y-98970000D02*
X104820000Y-100310000D01*
X104820000Y-101090000D02*
X104820000Y-108350000D01*
X104820000Y-100310000D02*
X104820000Y-101090000D01*
X104820000Y-96640000D02*
X104820000Y-101090000D01*
%TO.N,/Microcontroller/SWDIO*%
X105380000Y-83550000D02*
X108030000Y-86200000D01*
X104150000Y-83550000D02*
X105380000Y-83550000D01*
%TO.N,/Microcontroller/SWCLK*%
X102750000Y-80360000D02*
X102750000Y-81150000D01*
X103490000Y-79620000D02*
X102750000Y-80360000D01*
X104250000Y-79620000D02*
X103490000Y-79620000D01*
D40*
%TO.N,+VDD*%
X91750000Y-117300000D02*
X91350000Y-117700000D01*
X91750000Y-115400000D02*
X91750000Y-117300000D01*
X89100000Y-117700000D02*
X89000000Y-117800000D01*
X91350000Y-117700000D02*
X89100000Y-117700000D01*
X89000000Y-115600000D02*
X89000000Y-117800000D01*
D39*
X91750000Y-114570000D02*
X91750000Y-115400000D01*
X91992000Y-114328000D02*
X91750000Y-114570000D01*
X93650000Y-114544000D02*
X93434000Y-114328000D01*
X93650000Y-115400000D02*
X93650000Y-114544000D01*
X94196000Y-107470000D02*
X94196000Y-108954000D01*
X94196000Y-108954000D02*
X92850000Y-110300000D01*
X92850000Y-110300000D02*
X92850000Y-113970000D01*
X92492000Y-114328000D02*
X91992000Y-114328000D01*
X92850000Y-113970000D02*
X92492000Y-114328000D01*
X93434000Y-114328000D02*
X92492000Y-114328000D01*
D38*
X89000000Y-115600000D02*
X89870000Y-115600000D01*
X90200000Y-115270000D02*
X90200000Y-113210000D01*
X89870000Y-115600000D02*
X90200000Y-115270000D01*
D39*
X100010000Y-36820000D02*
X100020000Y-36820000D01*
X102578000Y-39378000D02*
X102578000Y-40602000D01*
X100020000Y-36820000D02*
X102578000Y-39378000D01*
%TO.N,Net-(DL701-Pad1)*%
X100010000Y-38970000D02*
X100010000Y-41310000D01*
X100600000Y-41900000D02*
X101440000Y-41900000D01*
X100010000Y-41310000D02*
X100600000Y-41900000D01*
D38*
%TO.N,Net-(Q701-Pad1)*%
X97498000Y-71402000D02*
X97498000Y-71730000D01*
X95720000Y-69624000D02*
X97498000Y-71402000D01*
X99300000Y-46120000D02*
X99070000Y-45890000D01*
X99300000Y-51408889D02*
X99300000Y-46120000D01*
D39*
%TO.N,Net-(Q701-Pad3)*%
X100020000Y-43890000D02*
X100020000Y-42810000D01*
X99110000Y-41900000D02*
X98540000Y-41900000D01*
X100020000Y-42810000D02*
X99110000Y-41900000D01*
%TD*%
D38*
%TO.N,+VUSB*%
G36*
X91150000Y-119122661D02*
G01*
X91150000Y-122023205D01*
X91151921Y-122042714D01*
X91157612Y-122061473D01*
X91166853Y-122078762D01*
X91179289Y-122093916D01*
X91194443Y-122106352D01*
X91211732Y-122115593D01*
X91230491Y-122121284D01*
X91250000Y-122123205D01*
X91769271Y-122123205D01*
X91721728Y-122132662D01*
X91548112Y-122204576D01*
X91391860Y-122308980D01*
X91258980Y-122441860D01*
X91154576Y-122598112D01*
X91082662Y-122771728D01*
X91046000Y-122956039D01*
X91046000Y-123143961D01*
X91082662Y-123328272D01*
X91154576Y-123501888D01*
X91212975Y-123589288D01*
X91200000Y-123589288D01*
X91130604Y-123596123D01*
X91100002Y-123605406D01*
X91069396Y-123596122D01*
X91000000Y-123589287D01*
X90965500Y-123591000D01*
X90877000Y-123679500D01*
X90877000Y-123798333D01*
X90871365Y-123808875D01*
X90851123Y-123875604D01*
X90850000Y-123887006D01*
X90848877Y-123875604D01*
X90828635Y-123808875D01*
X90823000Y-123798333D01*
X90823000Y-123679500D01*
X90734500Y-123591000D01*
X90700000Y-123589287D01*
X90652335Y-123593982D01*
X90695670Y-123550647D01*
X90778186Y-123427153D01*
X90835024Y-123289934D01*
X90864000Y-123144262D01*
X90864000Y-122995738D01*
X90835024Y-122850066D01*
X90778186Y-122712847D01*
X90695670Y-122589353D01*
X90590647Y-122484330D01*
X90467153Y-122401814D01*
X90329934Y-122344976D01*
X90184262Y-122316000D01*
X90035738Y-122316000D01*
X89890066Y-122344976D01*
X89752847Y-122401814D01*
X89660988Y-122463192D01*
X89594483Y-122396687D01*
X89470989Y-122314171D01*
X89333770Y-122257333D01*
X89188098Y-122228357D01*
X89039574Y-122228357D01*
X88893902Y-122257333D01*
X88756683Y-122314171D01*
X88633189Y-122396687D01*
X88528166Y-122501710D01*
X88445650Y-122625204D01*
X88388812Y-122762423D01*
X88359836Y-122908095D01*
X88359836Y-123056619D01*
X88388812Y-123202291D01*
X88445650Y-123339510D01*
X88528166Y-123463004D01*
X88633189Y-123568027D01*
X88669504Y-123592292D01*
X88630604Y-123596123D01*
X88600002Y-123605406D01*
X88569396Y-123596122D01*
X88500000Y-123589287D01*
X88465500Y-123591000D01*
X88377000Y-123679500D01*
X88377000Y-123798333D01*
X88371365Y-123808875D01*
X88351123Y-123875604D01*
X88350000Y-123887006D01*
X88348877Y-123875604D01*
X88328635Y-123808875D01*
X88323000Y-123798333D01*
X88323000Y-123679500D01*
X88234500Y-123591000D01*
X88200000Y-123589287D01*
X88130604Y-123596122D01*
X88099998Y-123605406D01*
X88069396Y-123596123D01*
X88000000Y-123589288D01*
X87987025Y-123589288D01*
X88045424Y-123501888D01*
X88117338Y-123328272D01*
X88154000Y-123143961D01*
X88154000Y-122956039D01*
X88117338Y-122771728D01*
X88045424Y-122598112D01*
X87941020Y-122441860D01*
X87808140Y-122308980D01*
X87651888Y-122204576D01*
X87478272Y-122132662D01*
X87293961Y-122096000D01*
X87106039Y-122096000D01*
X86921728Y-122132662D01*
X86748112Y-122204576D01*
X86591860Y-122308980D01*
X86458980Y-122441860D01*
X86354576Y-122598112D01*
X86282662Y-122771728D01*
X86246000Y-122956039D01*
X86246000Y-123143961D01*
X86282662Y-123328272D01*
X86346001Y-123481186D01*
X86346000Y-123927613D01*
X86344288Y-123945000D01*
X86344288Y-124698682D01*
X86298774Y-124653168D01*
X86183469Y-124576124D01*
X86055349Y-124523055D01*
X85919338Y-124496000D01*
X85780662Y-124496000D01*
X85644651Y-124523055D01*
X85516531Y-124576124D01*
X85401226Y-124653168D01*
X85303168Y-124751226D01*
X85226124Y-124866531D01*
X85173055Y-124994651D01*
X85146000Y-125130662D01*
X85146000Y-125269338D01*
X85173055Y-125405349D01*
X85226124Y-125533469D01*
X85303168Y-125648774D01*
X85401226Y-125746832D01*
X85516531Y-125823876D01*
X85644651Y-125876945D01*
X85780662Y-125904000D01*
X85919338Y-125904000D01*
X86055349Y-125876945D01*
X86183469Y-125823876D01*
X86298774Y-125746832D01*
X86344288Y-125701318D01*
X86344288Y-126455000D01*
X86346000Y-126472387D01*
X86346001Y-126918814D01*
X86282662Y-127071728D01*
X86246000Y-127256039D01*
X86246000Y-127443961D01*
X86282662Y-127628272D01*
X86354576Y-127801888D01*
X86458980Y-127958140D01*
X86591860Y-128091020D01*
X86748112Y-128195424D01*
X86921728Y-128267338D01*
X87106039Y-128304000D01*
X87293961Y-128304000D01*
X87478272Y-128267338D01*
X87651888Y-128195424D01*
X87808140Y-128091020D01*
X87941020Y-127958140D01*
X88045424Y-127801888D01*
X88117338Y-127628272D01*
X88154000Y-127443961D01*
X88154000Y-127256039D01*
X88117338Y-127071728D01*
X88045424Y-126898112D01*
X87987025Y-126810712D01*
X88000000Y-126810712D01*
X88069396Y-126803877D01*
X88099998Y-126794594D01*
X88130604Y-126803878D01*
X88200000Y-126810713D01*
X88234500Y-126809000D01*
X88323000Y-126720500D01*
X88323000Y-126601667D01*
X88328635Y-126591125D01*
X88348877Y-126524396D01*
X88350000Y-126512994D01*
X88351123Y-126524396D01*
X88371365Y-126591125D01*
X88377000Y-126601667D01*
X88377000Y-126720500D01*
X88465500Y-126809000D01*
X88500000Y-126810713D01*
X88569396Y-126803878D01*
X88600002Y-126794594D01*
X88617643Y-126799945D01*
X88603092Y-126873096D01*
X88603092Y-127021620D01*
X88632068Y-127167292D01*
X88688906Y-127304511D01*
X88771422Y-127428005D01*
X88876445Y-127533028D01*
X88999939Y-127615544D01*
X89137158Y-127672382D01*
X89282830Y-127701358D01*
X89431354Y-127701358D01*
X89577026Y-127672382D01*
X89714245Y-127615544D01*
X89837739Y-127533028D01*
X89942762Y-127428005D01*
X90025278Y-127304511D01*
X90082116Y-127167292D01*
X90111092Y-127021620D01*
X90111092Y-126873096D01*
X90095734Y-126795887D01*
X90100000Y-126794593D01*
X90130604Y-126803877D01*
X90200000Y-126810712D01*
X90500000Y-126810712D01*
X90569396Y-126803877D01*
X90599998Y-126794594D01*
X90630604Y-126803878D01*
X90700000Y-126810713D01*
X90734500Y-126809000D01*
X90823000Y-126720500D01*
X90823000Y-126601667D01*
X90828635Y-126591125D01*
X90848877Y-126524396D01*
X90850000Y-126512994D01*
X90851123Y-126524396D01*
X90871365Y-126591125D01*
X90877000Y-126601667D01*
X90877000Y-126720500D01*
X90965500Y-126809000D01*
X91000000Y-126810713D01*
X91069396Y-126803878D01*
X91100002Y-126794594D01*
X91130604Y-126803877D01*
X91200000Y-126810712D01*
X91212975Y-126810712D01*
X91154576Y-126898112D01*
X91082662Y-127071728D01*
X91046000Y-127256039D01*
X91046000Y-127443961D01*
X91082662Y-127628272D01*
X91154576Y-127801888D01*
X91258980Y-127958140D01*
X91391860Y-128091020D01*
X91548112Y-128195424D01*
X91721728Y-128267338D01*
X91906039Y-128304000D01*
X92093961Y-128304000D01*
X92278272Y-128267338D01*
X92451888Y-128195424D01*
X92608140Y-128091020D01*
X92741020Y-127958140D01*
X92845424Y-127801888D01*
X92917338Y-127628272D01*
X92954000Y-127443961D01*
X92954000Y-127256039D01*
X92917338Y-127071728D01*
X92854000Y-126918816D01*
X92854000Y-126472382D01*
X92855712Y-126455000D01*
X92855712Y-125784262D01*
X92898514Y-125807140D01*
X93021794Y-125844537D01*
X93117875Y-125854000D01*
X93582125Y-125854000D01*
X93678206Y-125844537D01*
X93801486Y-125807140D01*
X93915101Y-125746412D01*
X94014685Y-125664685D01*
X94096412Y-125565101D01*
X94157140Y-125451486D01*
X94194537Y-125328206D01*
X94207164Y-125200000D01*
X94194537Y-125071794D01*
X94157140Y-124948514D01*
X94096412Y-124834899D01*
X94014685Y-124735315D01*
X93915101Y-124653588D01*
X93801486Y-124592860D01*
X93678206Y-124555463D01*
X93582125Y-124546000D01*
X93117875Y-124546000D01*
X93021794Y-124555463D01*
X92898514Y-124592860D01*
X92855712Y-124615738D01*
X92855712Y-123945000D01*
X92854000Y-123927618D01*
X92854000Y-123481184D01*
X92917338Y-123328272D01*
X92954000Y-123143961D01*
X92954000Y-122956039D01*
X92917338Y-122771728D01*
X92845424Y-122598112D01*
X92741020Y-122441860D01*
X92608140Y-122308980D01*
X92451888Y-122204576D01*
X92278272Y-122132662D01*
X92230729Y-122123205D01*
X95150000Y-122123205D01*
X95150000Y-128621000D01*
X83845287Y-128621000D01*
X83849929Y-122122494D01*
X87000714Y-122099997D01*
X87020209Y-122097937D01*
X87038927Y-122092112D01*
X87056149Y-122082748D01*
X87071214Y-122070204D01*
X87083542Y-122054962D01*
X87092659Y-122037608D01*
X87098215Y-122018808D01*
X87099482Y-122005460D01*
X87384500Y-122004000D01*
X87473000Y-121915500D01*
X87473000Y-121027000D01*
X87527000Y-121027000D01*
X87527000Y-121915500D01*
X87615500Y-122004000D01*
X87950000Y-122005713D01*
X88019396Y-121998878D01*
X88086125Y-121978636D01*
X88147624Y-121945765D01*
X88201527Y-121901527D01*
X88245765Y-121847624D01*
X88278636Y-121786125D01*
X88298878Y-121719396D01*
X88305713Y-121650000D01*
X89344287Y-121650000D01*
X89351122Y-121719396D01*
X89371364Y-121786125D01*
X89404235Y-121847624D01*
X89448473Y-121901527D01*
X89502376Y-121945765D01*
X89563875Y-121978636D01*
X89630604Y-121998878D01*
X89700000Y-122005713D01*
X90034500Y-122004000D01*
X90123000Y-121915500D01*
X90123000Y-120827000D01*
X90177000Y-120827000D01*
X90177000Y-121915500D01*
X90265500Y-122004000D01*
X90600000Y-122005713D01*
X90669396Y-121998878D01*
X90736125Y-121978636D01*
X90797624Y-121945765D01*
X90851527Y-121901527D01*
X90895765Y-121847624D01*
X90928636Y-121786125D01*
X90948878Y-121719396D01*
X90955713Y-121650000D01*
X90954000Y-120915500D01*
X90865500Y-120827000D01*
X90177000Y-120827000D01*
X90123000Y-120827000D01*
X89434500Y-120827000D01*
X89346000Y-120915500D01*
X89344287Y-121650000D01*
X88305713Y-121650000D01*
X88304000Y-121115500D01*
X88215500Y-121027000D01*
X87527000Y-121027000D01*
X87473000Y-121027000D01*
X87453000Y-121027000D01*
X87453000Y-120973000D01*
X87473000Y-120973000D01*
X87473000Y-120084500D01*
X87527000Y-120084500D01*
X87527000Y-120973000D01*
X88215500Y-120973000D01*
X88304000Y-120884500D01*
X88305713Y-120350000D01*
X88298878Y-120280604D01*
X88278636Y-120213875D01*
X88245765Y-120152376D01*
X88201527Y-120098473D01*
X88147624Y-120054235D01*
X88086125Y-120021364D01*
X88019396Y-120001122D01*
X87950000Y-119994287D01*
X87615500Y-119996000D01*
X87527000Y-120084500D01*
X87473000Y-120084500D01*
X87384500Y-119996000D01*
X87100000Y-119994543D01*
X87100000Y-119950000D01*
X89344287Y-119950000D01*
X89346000Y-120684500D01*
X89434500Y-120773000D01*
X90123000Y-120773000D01*
X90123000Y-119684500D01*
X90177000Y-119684500D01*
X90177000Y-120773000D01*
X90865500Y-120773000D01*
X90954000Y-120684500D01*
X90955713Y-119950000D01*
X90948878Y-119880604D01*
X90928636Y-119813875D01*
X90895765Y-119752376D01*
X90851527Y-119698473D01*
X90797624Y-119654235D01*
X90736125Y-119621364D01*
X90669396Y-119601122D01*
X90600000Y-119594287D01*
X90265500Y-119596000D01*
X90177000Y-119684500D01*
X90123000Y-119684500D01*
X90034500Y-119596000D01*
X89700000Y-119594287D01*
X89630604Y-119601122D01*
X89563875Y-119621364D01*
X89502376Y-119654235D01*
X89448473Y-119698473D01*
X89404235Y-119752376D01*
X89371364Y-119813875D01*
X89351122Y-119880604D01*
X89344287Y-119950000D01*
X87100000Y-119950000D01*
X87100000Y-119100548D01*
X91150000Y-119122661D01*
G37*
X91150000Y-119122661D02*
X91150000Y-122023205D01*
X91151921Y-122042714D01*
X91157612Y-122061473D01*
X91166853Y-122078762D01*
X91179289Y-122093916D01*
X91194443Y-122106352D01*
X91211732Y-122115593D01*
X91230491Y-122121284D01*
X91250000Y-122123205D01*
X91769271Y-122123205D01*
X91721728Y-122132662D01*
X91548112Y-122204576D01*
X91391860Y-122308980D01*
X91258980Y-122441860D01*
X91154576Y-122598112D01*
X91082662Y-122771728D01*
X91046000Y-122956039D01*
X91046000Y-123143961D01*
X91082662Y-123328272D01*
X91154576Y-123501888D01*
X91212975Y-123589288D01*
X91200000Y-123589288D01*
X91130604Y-123596123D01*
X91100002Y-123605406D01*
X91069396Y-123596122D01*
X91000000Y-123589287D01*
X90965500Y-123591000D01*
X90877000Y-123679500D01*
X90877000Y-123798333D01*
X90871365Y-123808875D01*
X90851123Y-123875604D01*
X90850000Y-123887006D01*
X90848877Y-123875604D01*
X90828635Y-123808875D01*
X90823000Y-123798333D01*
X90823000Y-123679500D01*
X90734500Y-123591000D01*
X90700000Y-123589287D01*
X90652335Y-123593982D01*
X90695670Y-123550647D01*
X90778186Y-123427153D01*
X90835024Y-123289934D01*
X90864000Y-123144262D01*
X90864000Y-122995738D01*
X90835024Y-122850066D01*
X90778186Y-122712847D01*
X90695670Y-122589353D01*
X90590647Y-122484330D01*
X90467153Y-122401814D01*
X90329934Y-122344976D01*
X90184262Y-122316000D01*
X90035738Y-122316000D01*
X89890066Y-122344976D01*
X89752847Y-122401814D01*
X89660988Y-122463192D01*
X89594483Y-122396687D01*
X89470989Y-122314171D01*
X89333770Y-122257333D01*
X89188098Y-122228357D01*
X89039574Y-122228357D01*
X88893902Y-122257333D01*
X88756683Y-122314171D01*
X88633189Y-122396687D01*
X88528166Y-122501710D01*
X88445650Y-122625204D01*
X88388812Y-122762423D01*
X88359836Y-122908095D01*
X88359836Y-123056619D01*
X88388812Y-123202291D01*
X88445650Y-123339510D01*
X88528166Y-123463004D01*
X88633189Y-123568027D01*
X88669504Y-123592292D01*
X88630604Y-123596123D01*
X88600002Y-123605406D01*
X88569396Y-123596122D01*
X88500000Y-123589287D01*
X88465500Y-123591000D01*
X88377000Y-123679500D01*
X88377000Y-123798333D01*
X88371365Y-123808875D01*
X88351123Y-123875604D01*
X88350000Y-123887006D01*
X88348877Y-123875604D01*
X88328635Y-123808875D01*
X88323000Y-123798333D01*
X88323000Y-123679500D01*
X88234500Y-123591000D01*
X88200000Y-123589287D01*
X88130604Y-123596122D01*
X88099998Y-123605406D01*
X88069396Y-123596123D01*
X88000000Y-123589288D01*
X87987025Y-123589288D01*
X88045424Y-123501888D01*
X88117338Y-123328272D01*
X88154000Y-123143961D01*
X88154000Y-122956039D01*
X88117338Y-122771728D01*
X88045424Y-122598112D01*
X87941020Y-122441860D01*
X87808140Y-122308980D01*
X87651888Y-122204576D01*
X87478272Y-122132662D01*
X87293961Y-122096000D01*
X87106039Y-122096000D01*
X86921728Y-122132662D01*
X86748112Y-122204576D01*
X86591860Y-122308980D01*
X86458980Y-122441860D01*
X86354576Y-122598112D01*
X86282662Y-122771728D01*
X86246000Y-122956039D01*
X86246000Y-123143961D01*
X86282662Y-123328272D01*
X86346001Y-123481186D01*
X86346000Y-123927613D01*
X86344288Y-123945000D01*
X86344288Y-124698682D01*
X86298774Y-124653168D01*
X86183469Y-124576124D01*
X86055349Y-124523055D01*
X85919338Y-124496000D01*
X85780662Y-124496000D01*
X85644651Y-124523055D01*
X85516531Y-124576124D01*
X85401226Y-124653168D01*
X85303168Y-124751226D01*
X85226124Y-124866531D01*
X85173055Y-124994651D01*
X85146000Y-125130662D01*
X85146000Y-125269338D01*
X85173055Y-125405349D01*
X85226124Y-125533469D01*
X85303168Y-125648774D01*
X85401226Y-125746832D01*
X85516531Y-125823876D01*
X85644651Y-125876945D01*
X85780662Y-125904000D01*
X85919338Y-125904000D01*
X86055349Y-125876945D01*
X86183469Y-125823876D01*
X86298774Y-125746832D01*
X86344288Y-125701318D01*
X86344288Y-126455000D01*
X86346000Y-126472387D01*
X86346001Y-126918814D01*
X86282662Y-127071728D01*
X86246000Y-127256039D01*
X86246000Y-127443961D01*
X86282662Y-127628272D01*
X86354576Y-127801888D01*
X86458980Y-127958140D01*
X86591860Y-128091020D01*
X86748112Y-128195424D01*
X86921728Y-128267338D01*
X87106039Y-128304000D01*
X87293961Y-128304000D01*
X87478272Y-128267338D01*
X87651888Y-128195424D01*
X87808140Y-128091020D01*
X87941020Y-127958140D01*
X88045424Y-127801888D01*
X88117338Y-127628272D01*
X88154000Y-127443961D01*
X88154000Y-127256039D01*
X88117338Y-127071728D01*
X88045424Y-126898112D01*
X87987025Y-126810712D01*
X88000000Y-126810712D01*
X88069396Y-126803877D01*
X88099998Y-126794594D01*
X88130604Y-126803878D01*
X88200000Y-126810713D01*
X88234500Y-126809000D01*
X88323000Y-126720500D01*
X88323000Y-126601667D01*
X88328635Y-126591125D01*
X88348877Y-126524396D01*
X88350000Y-126512994D01*
X88351123Y-126524396D01*
X88371365Y-126591125D01*
X88377000Y-126601667D01*
X88377000Y-126720500D01*
X88465500Y-126809000D01*
X88500000Y-126810713D01*
X88569396Y-126803878D01*
X88600002Y-126794594D01*
X88617643Y-126799945D01*
X88603092Y-126873096D01*
X88603092Y-127021620D01*
X88632068Y-127167292D01*
X88688906Y-127304511D01*
X88771422Y-127428005D01*
X88876445Y-127533028D01*
X88999939Y-127615544D01*
X89137158Y-127672382D01*
X89282830Y-127701358D01*
X89431354Y-127701358D01*
X89577026Y-127672382D01*
X89714245Y-127615544D01*
X89837739Y-127533028D01*
X89942762Y-127428005D01*
X90025278Y-127304511D01*
X90082116Y-127167292D01*
X90111092Y-127021620D01*
X90111092Y-126873096D01*
X90095734Y-126795887D01*
X90100000Y-126794593D01*
X90130604Y-126803877D01*
X90200000Y-126810712D01*
X90500000Y-126810712D01*
X90569396Y-126803877D01*
X90599998Y-126794594D01*
X90630604Y-126803878D01*
X90700000Y-126810713D01*
X90734500Y-126809000D01*
X90823000Y-126720500D01*
X90823000Y-126601667D01*
X90828635Y-126591125D01*
X90848877Y-126524396D01*
X90850000Y-126512994D01*
X90851123Y-126524396D01*
X90871365Y-126591125D01*
X90877000Y-126601667D01*
X90877000Y-126720500D01*
X90965500Y-126809000D01*
X91000000Y-126810713D01*
X91069396Y-126803878D01*
X91100002Y-126794594D01*
X91130604Y-126803877D01*
X91200000Y-126810712D01*
X91212975Y-126810712D01*
X91154576Y-126898112D01*
X91082662Y-127071728D01*
X91046000Y-127256039D01*
X91046000Y-127443961D01*
X91082662Y-127628272D01*
X91154576Y-127801888D01*
X91258980Y-127958140D01*
X91391860Y-128091020D01*
X91548112Y-128195424D01*
X91721728Y-128267338D01*
X91906039Y-128304000D01*
X92093961Y-128304000D01*
X92278272Y-128267338D01*
X92451888Y-128195424D01*
X92608140Y-128091020D01*
X92741020Y-127958140D01*
X92845424Y-127801888D01*
X92917338Y-127628272D01*
X92954000Y-127443961D01*
X92954000Y-127256039D01*
X92917338Y-127071728D01*
X92854000Y-126918816D01*
X92854000Y-126472382D01*
X92855712Y-126455000D01*
X92855712Y-125784262D01*
X92898514Y-125807140D01*
X93021794Y-125844537D01*
X93117875Y-125854000D01*
X93582125Y-125854000D01*
X93678206Y-125844537D01*
X93801486Y-125807140D01*
X93915101Y-125746412D01*
X94014685Y-125664685D01*
X94096412Y-125565101D01*
X94157140Y-125451486D01*
X94194537Y-125328206D01*
X94207164Y-125200000D01*
X94194537Y-125071794D01*
X94157140Y-124948514D01*
X94096412Y-124834899D01*
X94014685Y-124735315D01*
X93915101Y-124653588D01*
X93801486Y-124592860D01*
X93678206Y-124555463D01*
X93582125Y-124546000D01*
X93117875Y-124546000D01*
X93021794Y-124555463D01*
X92898514Y-124592860D01*
X92855712Y-124615738D01*
X92855712Y-123945000D01*
X92854000Y-123927618D01*
X92854000Y-123481184D01*
X92917338Y-123328272D01*
X92954000Y-123143961D01*
X92954000Y-122956039D01*
X92917338Y-122771728D01*
X92845424Y-122598112D01*
X92741020Y-122441860D01*
X92608140Y-122308980D01*
X92451888Y-122204576D01*
X92278272Y-122132662D01*
X92230729Y-122123205D01*
X95150000Y-122123205D01*
X95150000Y-128621000D01*
X83845287Y-128621000D01*
X83849929Y-122122494D01*
X87000714Y-122099997D01*
X87020209Y-122097937D01*
X87038927Y-122092112D01*
X87056149Y-122082748D01*
X87071214Y-122070204D01*
X87083542Y-122054962D01*
X87092659Y-122037608D01*
X87098215Y-122018808D01*
X87099482Y-122005460D01*
X87384500Y-122004000D01*
X87473000Y-121915500D01*
X87473000Y-121027000D01*
X87527000Y-121027000D01*
X87527000Y-121915500D01*
X87615500Y-122004000D01*
X87950000Y-122005713D01*
X88019396Y-121998878D01*
X88086125Y-121978636D01*
X88147624Y-121945765D01*
X88201527Y-121901527D01*
X88245765Y-121847624D01*
X88278636Y-121786125D01*
X88298878Y-121719396D01*
X88305713Y-121650000D01*
X89344287Y-121650000D01*
X89351122Y-121719396D01*
X89371364Y-121786125D01*
X89404235Y-121847624D01*
X89448473Y-121901527D01*
X89502376Y-121945765D01*
X89563875Y-121978636D01*
X89630604Y-121998878D01*
X89700000Y-122005713D01*
X90034500Y-122004000D01*
X90123000Y-121915500D01*
X90123000Y-120827000D01*
X90177000Y-120827000D01*
X90177000Y-121915500D01*
X90265500Y-122004000D01*
X90600000Y-122005713D01*
X90669396Y-121998878D01*
X90736125Y-121978636D01*
X90797624Y-121945765D01*
X90851527Y-121901527D01*
X90895765Y-121847624D01*
X90928636Y-121786125D01*
X90948878Y-121719396D01*
X90955713Y-121650000D01*
X90954000Y-120915500D01*
X90865500Y-120827000D01*
X90177000Y-120827000D01*
X90123000Y-120827000D01*
X89434500Y-120827000D01*
X89346000Y-120915500D01*
X89344287Y-121650000D01*
X88305713Y-121650000D01*
X88304000Y-121115500D01*
X88215500Y-121027000D01*
X87527000Y-121027000D01*
X87473000Y-121027000D01*
X87453000Y-121027000D01*
X87453000Y-120973000D01*
X87473000Y-120973000D01*
X87473000Y-120084500D01*
X87527000Y-120084500D01*
X87527000Y-120973000D01*
X88215500Y-120973000D01*
X88304000Y-120884500D01*
X88305713Y-120350000D01*
X88298878Y-120280604D01*
X88278636Y-120213875D01*
X88245765Y-120152376D01*
X88201527Y-120098473D01*
X88147624Y-120054235D01*
X88086125Y-120021364D01*
X88019396Y-120001122D01*
X87950000Y-119994287D01*
X87615500Y-119996000D01*
X87527000Y-120084500D01*
X87473000Y-120084500D01*
X87384500Y-119996000D01*
X87100000Y-119994543D01*
X87100000Y-119950000D01*
X89344287Y-119950000D01*
X89346000Y-120684500D01*
X89434500Y-120773000D01*
X90123000Y-120773000D01*
X90123000Y-119684500D01*
X90177000Y-119684500D01*
X90177000Y-120773000D01*
X90865500Y-120773000D01*
X90954000Y-120684500D01*
X90955713Y-119950000D01*
X90948878Y-119880604D01*
X90928636Y-119813875D01*
X90895765Y-119752376D01*
X90851527Y-119698473D01*
X90797624Y-119654235D01*
X90736125Y-119621364D01*
X90669396Y-119601122D01*
X90600000Y-119594287D01*
X90265500Y-119596000D01*
X90177000Y-119684500D01*
X90123000Y-119684500D01*
X90034500Y-119596000D01*
X89700000Y-119594287D01*
X89630604Y-119601122D01*
X89563875Y-119621364D01*
X89502376Y-119654235D01*
X89448473Y-119698473D01*
X89404235Y-119752376D01*
X89371364Y-119813875D01*
X89351122Y-119880604D01*
X89344287Y-119950000D01*
X87100000Y-119950000D01*
X87100000Y-119100548D01*
X91150000Y-119122661D01*
%TO.N,+VDD*%
G36*
X91129340Y-114811190D02*
G01*
X91123548Y-114870000D01*
X91125000Y-115320000D01*
X91200000Y-115395000D01*
X91745000Y-115395000D01*
X91745000Y-115375000D01*
X91755000Y-115375000D01*
X91755000Y-115395000D01*
X91775000Y-115395000D01*
X91775000Y-115405000D01*
X91755000Y-115405000D01*
X91755000Y-116155000D01*
X91830000Y-116230000D01*
X91970000Y-116230830D01*
X91970000Y-116601422D01*
X91967478Y-116599352D01*
X91915361Y-116571495D01*
X91858810Y-116554340D01*
X91800000Y-116548548D01*
X91430000Y-116550000D01*
X91355000Y-116625000D01*
X91355000Y-117695000D01*
X91375000Y-117695000D01*
X91375000Y-117705000D01*
X91355000Y-117705000D01*
X91355000Y-117725000D01*
X91345000Y-117725000D01*
X91345000Y-117705000D01*
X90675000Y-117705000D01*
X90600000Y-117780000D01*
X90598555Y-118546496D01*
X89575505Y-118544060D01*
X89613159Y-118513159D01*
X89650648Y-118467478D01*
X89678505Y-118415361D01*
X89695660Y-118358810D01*
X89701452Y-118300000D01*
X89700000Y-117880000D01*
X89625000Y-117805000D01*
X89005000Y-117805000D01*
X89005000Y-117825000D01*
X88995000Y-117825000D01*
X88995000Y-117805000D01*
X88375000Y-117805000D01*
X88300000Y-117880000D01*
X88298548Y-118300000D01*
X88304340Y-118358810D01*
X88321495Y-118415361D01*
X88349352Y-118467478D01*
X88386841Y-118513159D01*
X88421146Y-118541312D01*
X87970000Y-118540238D01*
X87970000Y-117300000D01*
X88298548Y-117300000D01*
X88300000Y-117720000D01*
X88375000Y-117795000D01*
X88995000Y-117795000D01*
X88995000Y-117075000D01*
X89005000Y-117075000D01*
X89005000Y-117795000D01*
X89625000Y-117795000D01*
X89700000Y-117720000D01*
X89701452Y-117300000D01*
X89695660Y-117241190D01*
X89678505Y-117184639D01*
X89650648Y-117132522D01*
X89613159Y-117086841D01*
X89567478Y-117049352D01*
X89515361Y-117021495D01*
X89458810Y-117004340D01*
X89400000Y-116998548D01*
X89080000Y-117000000D01*
X89005000Y-117075000D01*
X88995000Y-117075000D01*
X88920000Y-117000000D01*
X88600000Y-116998548D01*
X88541190Y-117004340D01*
X88484639Y-117021495D01*
X88432522Y-117049352D01*
X88386841Y-117086841D01*
X88349352Y-117132522D01*
X88321495Y-117184639D01*
X88304340Y-117241190D01*
X88298548Y-117300000D01*
X87970000Y-117300000D01*
X87970000Y-116850000D01*
X90598548Y-116850000D01*
X90600000Y-117620000D01*
X90675000Y-117695000D01*
X91345000Y-117695000D01*
X91345000Y-116625000D01*
X91270000Y-116550000D01*
X90900000Y-116548548D01*
X90841190Y-116554340D01*
X90784639Y-116571495D01*
X90732522Y-116599352D01*
X90686841Y-116636841D01*
X90649352Y-116682522D01*
X90621495Y-116734639D01*
X90604340Y-116791190D01*
X90598548Y-116850000D01*
X87970000Y-116850000D01*
X87970000Y-116100000D01*
X88298548Y-116100000D01*
X88304340Y-116158810D01*
X88321495Y-116215361D01*
X88349352Y-116267478D01*
X88386841Y-116313159D01*
X88432522Y-116350648D01*
X88484639Y-116378505D01*
X88541190Y-116395660D01*
X88600000Y-116401452D01*
X88920000Y-116400000D01*
X88995000Y-116325000D01*
X88995000Y-115605000D01*
X89005000Y-115605000D01*
X89005000Y-116325000D01*
X89080000Y-116400000D01*
X89400000Y-116401452D01*
X89458810Y-116395660D01*
X89515361Y-116378505D01*
X89567478Y-116350648D01*
X89613159Y-116313159D01*
X89650648Y-116267478D01*
X89678505Y-116215361D01*
X89695660Y-116158810D01*
X89701452Y-116100000D01*
X89700865Y-115930000D01*
X91123548Y-115930000D01*
X91129340Y-115988810D01*
X91146495Y-116045361D01*
X91174352Y-116097478D01*
X91211841Y-116143159D01*
X91257522Y-116180648D01*
X91309639Y-116208505D01*
X91366190Y-116225660D01*
X91425000Y-116231452D01*
X91670000Y-116230000D01*
X91745000Y-116155000D01*
X91745000Y-115405000D01*
X91200000Y-115405000D01*
X91125000Y-115480000D01*
X91123548Y-115930000D01*
X89700865Y-115930000D01*
X89700000Y-115680000D01*
X89625000Y-115605000D01*
X89005000Y-115605000D01*
X88995000Y-115605000D01*
X88375000Y-115605000D01*
X88300000Y-115680000D01*
X88298548Y-116100000D01*
X87970000Y-116100000D01*
X87970000Y-115100000D01*
X88298548Y-115100000D01*
X88300000Y-115520000D01*
X88375000Y-115595000D01*
X88995000Y-115595000D01*
X88995000Y-114875000D01*
X89005000Y-114875000D01*
X89005000Y-115595000D01*
X89625000Y-115595000D01*
X89700000Y-115520000D01*
X89701452Y-115100000D01*
X89695660Y-115041190D01*
X89678505Y-114984639D01*
X89650648Y-114932522D01*
X89613159Y-114886841D01*
X89567478Y-114849352D01*
X89515361Y-114821495D01*
X89458810Y-114804340D01*
X89400000Y-114798548D01*
X89080000Y-114800000D01*
X89005000Y-114875000D01*
X88995000Y-114875000D01*
X88920000Y-114800000D01*
X88600000Y-114798548D01*
X88541190Y-114804340D01*
X88484639Y-114821495D01*
X88432522Y-114849352D01*
X88386841Y-114886841D01*
X88349352Y-114932522D01*
X88321495Y-114984639D01*
X88304340Y-115041190D01*
X88298548Y-115100000D01*
X87970000Y-115100000D01*
X87970000Y-114790000D01*
X91135768Y-114790000D01*
X91129340Y-114811190D01*
G37*
X91129340Y-114811190D02*
X91123548Y-114870000D01*
X91125000Y-115320000D01*
X91200000Y-115395000D01*
X91745000Y-115395000D01*
X91745000Y-115375000D01*
X91755000Y-115375000D01*
X91755000Y-115395000D01*
X91775000Y-115395000D01*
X91775000Y-115405000D01*
X91755000Y-115405000D01*
X91755000Y-116155000D01*
X91830000Y-116230000D01*
X91970000Y-116230830D01*
X91970000Y-116601422D01*
X91967478Y-116599352D01*
X91915361Y-116571495D01*
X91858810Y-116554340D01*
X91800000Y-116548548D01*
X91430000Y-116550000D01*
X91355000Y-116625000D01*
X91355000Y-117695000D01*
X91375000Y-117695000D01*
X91375000Y-117705000D01*
X91355000Y-117705000D01*
X91355000Y-117725000D01*
X91345000Y-117725000D01*
X91345000Y-117705000D01*
X90675000Y-117705000D01*
X90600000Y-117780000D01*
X90598555Y-118546496D01*
X89575505Y-118544060D01*
X89613159Y-118513159D01*
X89650648Y-118467478D01*
X89678505Y-118415361D01*
X89695660Y-118358810D01*
X89701452Y-118300000D01*
X89700000Y-117880000D01*
X89625000Y-117805000D01*
X89005000Y-117805000D01*
X89005000Y-117825000D01*
X88995000Y-117825000D01*
X88995000Y-117805000D01*
X88375000Y-117805000D01*
X88300000Y-117880000D01*
X88298548Y-118300000D01*
X88304340Y-118358810D01*
X88321495Y-118415361D01*
X88349352Y-118467478D01*
X88386841Y-118513159D01*
X88421146Y-118541312D01*
X87970000Y-118540238D01*
X87970000Y-117300000D01*
X88298548Y-117300000D01*
X88300000Y-117720000D01*
X88375000Y-117795000D01*
X88995000Y-117795000D01*
X88995000Y-117075000D01*
X89005000Y-117075000D01*
X89005000Y-117795000D01*
X89625000Y-117795000D01*
X89700000Y-117720000D01*
X89701452Y-117300000D01*
X89695660Y-117241190D01*
X89678505Y-117184639D01*
X89650648Y-117132522D01*
X89613159Y-117086841D01*
X89567478Y-117049352D01*
X89515361Y-117021495D01*
X89458810Y-117004340D01*
X89400000Y-116998548D01*
X89080000Y-117000000D01*
X89005000Y-117075000D01*
X88995000Y-117075000D01*
X88920000Y-117000000D01*
X88600000Y-116998548D01*
X88541190Y-117004340D01*
X88484639Y-117021495D01*
X88432522Y-117049352D01*
X88386841Y-117086841D01*
X88349352Y-117132522D01*
X88321495Y-117184639D01*
X88304340Y-117241190D01*
X88298548Y-117300000D01*
X87970000Y-117300000D01*
X87970000Y-116850000D01*
X90598548Y-116850000D01*
X90600000Y-117620000D01*
X90675000Y-117695000D01*
X91345000Y-117695000D01*
X91345000Y-116625000D01*
X91270000Y-116550000D01*
X90900000Y-116548548D01*
X90841190Y-116554340D01*
X90784639Y-116571495D01*
X90732522Y-116599352D01*
X90686841Y-116636841D01*
X90649352Y-116682522D01*
X90621495Y-116734639D01*
X90604340Y-116791190D01*
X90598548Y-116850000D01*
X87970000Y-116850000D01*
X87970000Y-116100000D01*
X88298548Y-116100000D01*
X88304340Y-116158810D01*
X88321495Y-116215361D01*
X88349352Y-116267478D01*
X88386841Y-116313159D01*
X88432522Y-116350648D01*
X88484639Y-116378505D01*
X88541190Y-116395660D01*
X88600000Y-116401452D01*
X88920000Y-116400000D01*
X88995000Y-116325000D01*
X88995000Y-115605000D01*
X89005000Y-115605000D01*
X89005000Y-116325000D01*
X89080000Y-116400000D01*
X89400000Y-116401452D01*
X89458810Y-116395660D01*
X89515361Y-116378505D01*
X89567478Y-116350648D01*
X89613159Y-116313159D01*
X89650648Y-116267478D01*
X89678505Y-116215361D01*
X89695660Y-116158810D01*
X89701452Y-116100000D01*
X89700865Y-115930000D01*
X91123548Y-115930000D01*
X91129340Y-115988810D01*
X91146495Y-116045361D01*
X91174352Y-116097478D01*
X91211841Y-116143159D01*
X91257522Y-116180648D01*
X91309639Y-116208505D01*
X91366190Y-116225660D01*
X91425000Y-116231452D01*
X91670000Y-116230000D01*
X91745000Y-116155000D01*
X91745000Y-115405000D01*
X91200000Y-115405000D01*
X91125000Y-115480000D01*
X91123548Y-115930000D01*
X89700865Y-115930000D01*
X89700000Y-115680000D01*
X89625000Y-115605000D01*
X89005000Y-115605000D01*
X88995000Y-115605000D01*
X88375000Y-115605000D01*
X88300000Y-115680000D01*
X88298548Y-116100000D01*
X87970000Y-116100000D01*
X87970000Y-115100000D01*
X88298548Y-115100000D01*
X88300000Y-115520000D01*
X88375000Y-115595000D01*
X88995000Y-115595000D01*
X88995000Y-114875000D01*
X89005000Y-114875000D01*
X89005000Y-115595000D01*
X89625000Y-115595000D01*
X89700000Y-115520000D01*
X89701452Y-115100000D01*
X89695660Y-115041190D01*
X89678505Y-114984639D01*
X89650648Y-114932522D01*
X89613159Y-114886841D01*
X89567478Y-114849352D01*
X89515361Y-114821495D01*
X89458810Y-114804340D01*
X89400000Y-114798548D01*
X89080000Y-114800000D01*
X89005000Y-114875000D01*
X88995000Y-114875000D01*
X88920000Y-114800000D01*
X88600000Y-114798548D01*
X88541190Y-114804340D01*
X88484639Y-114821495D01*
X88432522Y-114849352D01*
X88386841Y-114886841D01*
X88349352Y-114932522D01*
X88321495Y-114984639D01*
X88304340Y-115041190D01*
X88298548Y-115100000D01*
X87970000Y-115100000D01*
X87970000Y-114790000D01*
X91135768Y-114790000D01*
X91129340Y-114811190D01*
%TD*%
M02*
