M48
; DRILL file {KiCad (5.1.6-0-10_14)} date Thursday, October 15, 2020 at 01:56:50 PM
; FORMAT={-:-/ absolute / metric / decimal}
; #@! TF.CreationDate,2020-10-15T13:56:50+02:00
; #@! TF.GenerationSoftware,Kicad,Pcbnew,(5.1.6-0-10_14)
; #@! TF.FileFunction,Plated,1,2,PTH
FMAT,2
METRIC
T1C0.400
T2C0.500
T3C1.000
%
G90
G05
T1
X103.01Y-48.97
X105.16Y-86.89
X105.258Y-57.462
X106.98Y-107.67
X107.8Y-106.95
X108.32Y-56.03
X108.5Y-105.65
X108.8Y-96.15
X109.05Y-97.4
X109.08Y-98.42
X109.2Y-104.5
X109.21Y-99.54
X112.05Y-62.88
X115.78Y-69.96
X116.45Y-101.3
X116.5Y-100.15
X119.41Y-107.525
X119.431Y-76.559
X119.44Y-98.84
X120.51Y-98.84
X120.795Y-96.185
X120.958Y-106.063
X121.315Y-98.025
X123.131Y-83.461
X126.83Y-90.63
X128.31Y-98.6
X134.231Y-105.219
X135.65Y-109.55
X138.88Y-116.84
X142.5Y-123.81
T2
X102.47Y-52.19
X108.92Y-64.35
X112.694Y-71.526
X114.35Y-98.49
X114.35Y-106.03
X115.116Y-110.467
X116.37Y-78.48
X119.95Y-85.25
X123.709Y-92.361
X126.334Y-97.296
X129.799Y-103.849
X133.52Y-110.9
X137.213Y-117.867
X141.0Y-125.04
T3
X102.1Y-60.89
X102.1Y-63.43
X102.1Y-65.97
X102.1Y-68.51
X102.1Y-111.69
X102.1Y-114.23
X102.1Y-116.77
X102.1Y-119.31
T0
M30
