%TF.GenerationSoftware,KiCad,Pcbnew,(5.1.6-0-10_14)*%
%TF.CreationDate,2020-10-15T13:56:33+02:00*%
%TF.ProjectId,nowae031,6e6f7761-6530-4333-912e-6b696361645f,0*%
%TF.SameCoordinates,Original*%
%TF.FileFunction,Copper,L1,Top*%
%TF.FilePolarity,Positive*%
%FSLAX46Y46*%
G04 Gerber Fmt 4.6, Leading zero omitted, Abs format (unit mm)*
G04 Created by KiCad (PCBNEW (5.1.6-0-10_14)) date 2020-10-15 13:56:33*
%MOMM*%
%LPD*%
G01*
G04 APERTURE LIST*
%TA.AperFunction,Profile*%
%ADD10C,0.050000*%
%TD*%
%TA.AperFunction,Profile*%
%ADD11C,0.200000*%
%TD*%
%TA.AperFunction,Conductor*%
%ADD12C,1.000000*%
%TD*%
%TA.AperFunction,SMDPad,CuDef*%
%ADD13C,0.100000*%
%TD*%
%TA.AperFunction,SMDPad,CuDef*%
%ADD14R,0.600000X0.800000*%
%TD*%
%TA.AperFunction,SMDPad,CuDef*%
%ADD15R,1.250000X0.350000*%
%TD*%
%TA.AperFunction,ComponentPad*%
%ADD16C,1.800000*%
%TD*%
%TA.AperFunction,ComponentPad*%
%ADD17R,1.800000X1.800000*%
%TD*%
%TA.AperFunction,SMDPad,CuDef*%
%ADD18C,1.500000*%
%TD*%
%TA.AperFunction,ViaPad*%
%ADD19C,1.000000*%
%TD*%
%TA.AperFunction,ViaPad*%
%ADD20C,0.800000*%
%TD*%
%TA.AperFunction,Conductor*%
%ADD21C,0.300000*%
%TD*%
%TA.AperFunction,Conductor*%
%ADD22C,0.200000*%
%TD*%
%TA.AperFunction,Conductor*%
%ADD23C,0.500000*%
%TD*%
%TA.AperFunction,Conductor*%
%ADD24C,0.400000*%
%TD*%
G04 APERTURE END LIST*
D10*
X101490000Y-45190000D02*
G75*
G02*
X99990000Y-46690000I-1500000J0D01*
G01*
X99990000Y-72000000D02*
G75*
G02*
X101490000Y-73500000I0J-1500000D01*
G01*
X99990000Y-72000000D02*
X99990000Y-46690000D01*
X100000000Y-130000000D02*
X100000000Y-108000000D01*
X101500000Y-106500000D02*
G75*
G02*
X100000000Y-108000000I-1500000J0D01*
G01*
X101490000Y-73500000D02*
X101500000Y-106500000D01*
X101499908Y-40830540D02*
X101490000Y-45190000D01*
X101499908Y-40830540D02*
G75*
G02*
X104449999Y-42900001I-709908J-4149460D01*
G01*
X104449243Y-42900000D02*
X150000000Y-129000000D01*
X148000000Y-129000000D02*
X150000000Y-129000000D01*
X148000000Y-130000000D02*
X148000000Y-129000000D01*
X146000000Y-130000000D02*
X148000000Y-130000000D01*
X146000000Y-129000000D02*
X146000000Y-130000000D01*
X102000000Y-129000000D02*
X146000000Y-129000000D01*
X102000000Y-130000000D02*
X102000000Y-129000000D01*
X100000000Y-130000000D02*
X102000000Y-130000000D01*
D11*
X268944859Y-318881889D02*
X268944859Y-318881889D01*
D12*
%TO.N,*%
%TO.C,VAL\u002A\u002A*%
X105000000Y-73020000D03*
%TD*%
%TO.N,*%
%TO.C,VAL\u002A\u002A*%
X107490000Y-125000000D03*
%TD*%
%TO.N,*%
%TO.C,VAL\u002A\u002A*%
X137000000Y-125000000D03*
%TD*%
%TA.AperFunction,SMDPad,CuDef*%
D13*
%TO.P,R113,1*%
%TO.N,Net-(DL113-Pad1)*%
G36*
X122307498Y-87421450D02*
G01*
X123808509Y-86623349D01*
X124231034Y-87418002D01*
X122730023Y-88216103D01*
X122307498Y-87421450D01*
G37*
%TD.AperFunction*%
%TA.AperFunction,SMDPad,CuDef*%
%TO.P,R113,2*%
%TO.N,+3.3V*%
G36*
X123668966Y-89981998D02*
G01*
X125169977Y-89183897D01*
X125592502Y-89978550D01*
X124091491Y-90776651D01*
X123668966Y-89981998D01*
G37*
%TD.AperFunction*%
%TD*%
D14*
%TO.P,C101,2*%
%TO.N,+3.3V*%
X115750000Y-95250000D03*
%TO.P,C101,1*%
%TO.N,GND*%
X114350000Y-95250000D03*
%TD*%
%TO.P,C102,1*%
%TO.N,GND*%
X114350000Y-104750000D03*
%TO.P,C102,2*%
%TO.N,+3.3V*%
X115750000Y-104750000D03*
%TD*%
%TA.AperFunction,SMDPad,CuDef*%
D13*
%TO.P,DL101,2*%
%TO.N,/B_LINE1*%
G36*
X103688232Y-46801724D02*
G01*
X105189243Y-46003623D01*
X105611768Y-46798276D01*
X104110757Y-47596377D01*
X103688232Y-46801724D01*
G37*
%TD.AperFunction*%
%TA.AperFunction,SMDPad,CuDef*%
%TO.P,DL101,1*%
%TO.N,Net-(DL101-Pad1)*%
G36*
X102326764Y-44241176D02*
G01*
X103827775Y-43443075D01*
X104250300Y-44237728D01*
X102749289Y-45035829D01*
X102326764Y-44241176D01*
G37*
%TD.AperFunction*%
%TD*%
%TA.AperFunction,SMDPad,CuDef*%
%TO.P,DL103,2*%
%TO.N,/B_LINE2*%
G36*
X107399700Y-53862272D02*
G01*
X108900711Y-53064171D01*
X109323236Y-53858824D01*
X107822225Y-54656925D01*
X107399700Y-53862272D01*
G37*
%TD.AperFunction*%
%TA.AperFunction,SMDPad,CuDef*%
%TO.P,DL103,1*%
%TO.N,Net-(DL103-Pad1)*%
G36*
X106038232Y-51301724D02*
G01*
X107539243Y-50503623D01*
X107961768Y-51298276D01*
X106460757Y-52096377D01*
X106038232Y-51301724D01*
G37*
%TD.AperFunction*%
%TD*%
%TA.AperFunction,SMDPad,CuDef*%
%TO.P,DL105,2*%
%TO.N,/B_LINE3*%
G36*
X111088232Y-60801724D02*
G01*
X112589243Y-60003623D01*
X113011768Y-60798276D01*
X111510757Y-61596377D01*
X111088232Y-60801724D01*
G37*
%TD.AperFunction*%
%TA.AperFunction,SMDPad,CuDef*%
%TO.P,DL105,1*%
%TO.N,Net-(DL105-Pad1)*%
G36*
X109726764Y-58241176D02*
G01*
X111227775Y-57443075D01*
X111650300Y-58237728D01*
X110149289Y-59035829D01*
X109726764Y-58241176D01*
G37*
%TD.AperFunction*%
%TD*%
%TA.AperFunction,SMDPad,CuDef*%
%TO.P,DL107,2*%
%TO.N,/B_LINE4*%
G36*
X114818966Y-67781998D02*
G01*
X116319977Y-66983897D01*
X116742502Y-67778550D01*
X115241491Y-68576651D01*
X114818966Y-67781998D01*
G37*
%TD.AperFunction*%
%TA.AperFunction,SMDPad,CuDef*%
%TO.P,DL107,1*%
%TO.N,Net-(DL107-Pad1)*%
G36*
X113457498Y-65221450D02*
G01*
X114958509Y-64423349D01*
X115381034Y-65218002D01*
X113880023Y-66016103D01*
X113457498Y-65221450D01*
G37*
%TD.AperFunction*%
%TD*%
%TA.AperFunction,SMDPad,CuDef*%
%TO.P,DL109,2*%
%TO.N,/B_LINE5*%
G36*
X118468966Y-74781998D02*
G01*
X119969977Y-73983897D01*
X120392502Y-74778550D01*
X118891491Y-75576651D01*
X118468966Y-74781998D01*
G37*
%TD.AperFunction*%
%TA.AperFunction,SMDPad,CuDef*%
%TO.P,DL109,1*%
%TO.N,Net-(DL109-Pad1)*%
G36*
X117107498Y-72221450D02*
G01*
X118608509Y-71423349D01*
X119031034Y-72218002D01*
X117530023Y-73016103D01*
X117107498Y-72221450D01*
G37*
%TD.AperFunction*%
%TD*%
%TA.AperFunction,SMDPad,CuDef*%
%TO.P,DL111,2*%
%TO.N,/B_LINE6*%
G36*
X122168966Y-81781998D02*
G01*
X123669977Y-80983897D01*
X124092502Y-81778550D01*
X122591491Y-82576651D01*
X122168966Y-81781998D01*
G37*
%TD.AperFunction*%
%TA.AperFunction,SMDPad,CuDef*%
%TO.P,DL111,1*%
%TO.N,Net-(DL111-Pad1)*%
G36*
X120807498Y-79221450D02*
G01*
X122308509Y-78423349D01*
X122731034Y-79218002D01*
X121230023Y-80016103D01*
X120807498Y-79221450D01*
G37*
%TD.AperFunction*%
%TD*%
%TA.AperFunction,SMDPad,CuDef*%
%TO.P,DL113,2*%
%TO.N,/B_LINE7*%
G36*
X125868966Y-88781998D02*
G01*
X127369977Y-87983897D01*
X127792502Y-88778550D01*
X126291491Y-89576651D01*
X125868966Y-88781998D01*
G37*
%TD.AperFunction*%
%TA.AperFunction,SMDPad,CuDef*%
%TO.P,DL113,1*%
%TO.N,Net-(DL113-Pad1)*%
G36*
X124507498Y-86221450D02*
G01*
X126008509Y-85423349D01*
X126431034Y-86218002D01*
X124930023Y-87016103D01*
X124507498Y-86221450D01*
G37*
%TD.AperFunction*%
%TD*%
%TA.AperFunction,SMDPad,CuDef*%
%TO.P,DL115,2*%
%TO.N,/B_LINE8*%
G36*
X129618966Y-95831998D02*
G01*
X131119977Y-95033897D01*
X131542502Y-95828550D01*
X130041491Y-96626651D01*
X129618966Y-95831998D01*
G37*
%TD.AperFunction*%
%TA.AperFunction,SMDPad,CuDef*%
%TO.P,DL115,1*%
%TO.N,Net-(DL115-Pad1)*%
G36*
X128257498Y-93271450D02*
G01*
X129758509Y-92473349D01*
X130181034Y-93268002D01*
X128680023Y-94066103D01*
X128257498Y-93271450D01*
G37*
%TD.AperFunction*%
%TD*%
%TA.AperFunction,SMDPad,CuDef*%
%TO.P,DL117,2*%
%TO.N,/B_LINE9*%
G36*
X133268966Y-102781998D02*
G01*
X134769977Y-101983897D01*
X135192502Y-102778550D01*
X133691491Y-103576651D01*
X133268966Y-102781998D01*
G37*
%TD.AperFunction*%
%TA.AperFunction,SMDPad,CuDef*%
%TO.P,DL117,1*%
%TO.N,Net-(DL117-Pad1)*%
G36*
X131907498Y-100221450D02*
G01*
X133408509Y-99423349D01*
X133831034Y-100218002D01*
X132330023Y-101016103D01*
X131907498Y-100221450D01*
G37*
%TD.AperFunction*%
%TD*%
%TA.AperFunction,SMDPad,CuDef*%
%TO.P,DL119,2*%
%TO.N,/B_LINE10*%
G36*
X137018966Y-109781998D02*
G01*
X138519977Y-108983897D01*
X138942502Y-109778550D01*
X137441491Y-110576651D01*
X137018966Y-109781998D01*
G37*
%TD.AperFunction*%
%TA.AperFunction,SMDPad,CuDef*%
%TO.P,DL119,1*%
%TO.N,Net-(DL119-Pad1)*%
G36*
X135657498Y-107221450D02*
G01*
X137158509Y-106423349D01*
X137581034Y-107218002D01*
X136080023Y-108016103D01*
X135657498Y-107221450D01*
G37*
%TD.AperFunction*%
%TD*%
%TA.AperFunction,SMDPad,CuDef*%
%TO.P,DL121,2*%
%TO.N,/B_LINE11*%
G36*
X140718966Y-116781998D02*
G01*
X142219977Y-115983897D01*
X142642502Y-116778550D01*
X141141491Y-117576651D01*
X140718966Y-116781998D01*
G37*
%TD.AperFunction*%
%TA.AperFunction,SMDPad,CuDef*%
%TO.P,DL121,1*%
%TO.N,Net-(DL121-Pad1)*%
G36*
X139357498Y-114221450D02*
G01*
X140858509Y-113423349D01*
X141281034Y-114218002D01*
X139780023Y-115016103D01*
X139357498Y-114221450D01*
G37*
%TD.AperFunction*%
%TD*%
%TA.AperFunction,SMDPad,CuDef*%
%TO.P,DL123,2*%
%TO.N,/B_LINE12*%
G36*
X144418966Y-123781998D02*
G01*
X145919977Y-122983897D01*
X146342502Y-123778550D01*
X144841491Y-124576651D01*
X144418966Y-123781998D01*
G37*
%TD.AperFunction*%
%TA.AperFunction,SMDPad,CuDef*%
%TO.P,DL123,1*%
%TO.N,Net-(DL123-Pad1)*%
G36*
X143057498Y-121221450D02*
G01*
X144558509Y-120423349D01*
X144981034Y-121218002D01*
X143480023Y-122016103D01*
X143057498Y-121221450D01*
G37*
%TD.AperFunction*%
%TD*%
%TA.AperFunction,SMDPad,CuDef*%
%TO.P,R101,1*%
%TO.N,Net-(DL101-Pad1)*%
G36*
X101388232Y-47851724D02*
G01*
X102889243Y-47053623D01*
X103311768Y-47848276D01*
X101810757Y-48646377D01*
X101388232Y-47851724D01*
G37*
%TD.AperFunction*%
%TA.AperFunction,SMDPad,CuDef*%
%TO.P,R101,2*%
%TO.N,+3.3V*%
G36*
X102749700Y-50412272D02*
G01*
X104250711Y-49614171D01*
X104673236Y-50408824D01*
X103172225Y-51206925D01*
X102749700Y-50412272D01*
G37*
%TD.AperFunction*%
%TD*%
%TA.AperFunction,SMDPad,CuDef*%
%TO.P,R103,1*%
%TO.N,Net-(DL103-Pad1)*%
G36*
X103807498Y-52521450D02*
G01*
X105308509Y-51723349D01*
X105731034Y-52518002D01*
X104230023Y-53316103D01*
X103807498Y-52521450D01*
G37*
%TD.AperFunction*%
%TA.AperFunction,SMDPad,CuDef*%
%TO.P,R103,2*%
%TO.N,+3.3V*%
G36*
X105168966Y-55081998D02*
G01*
X106669977Y-54283897D01*
X107092502Y-55078550D01*
X105591491Y-55876651D01*
X105168966Y-55081998D01*
G37*
%TD.AperFunction*%
%TD*%
%TA.AperFunction,SMDPad,CuDef*%
%TO.P,R105,1*%
%TO.N,Net-(DL105-Pad1)*%
G36*
X107507498Y-59421450D02*
G01*
X109008509Y-58623349D01*
X109431034Y-59418002D01*
X107930023Y-60216103D01*
X107507498Y-59421450D01*
G37*
%TD.AperFunction*%
%TA.AperFunction,SMDPad,CuDef*%
%TO.P,R105,2*%
%TO.N,+3.3V*%
G36*
X108868966Y-61981998D02*
G01*
X110369977Y-61183897D01*
X110792502Y-61978550D01*
X109291491Y-62776651D01*
X108868966Y-61981998D01*
G37*
%TD.AperFunction*%
%TD*%
%TA.AperFunction,SMDPad,CuDef*%
%TO.P,R107,1*%
%TO.N,Net-(DL107-Pad1)*%
G36*
X111257498Y-66421450D02*
G01*
X112758509Y-65623349D01*
X113181034Y-66418002D01*
X111680023Y-67216103D01*
X111257498Y-66421450D01*
G37*
%TD.AperFunction*%
%TA.AperFunction,SMDPad,CuDef*%
%TO.P,R107,2*%
%TO.N,+3.3V*%
G36*
X112618966Y-68981998D02*
G01*
X114119977Y-68183897D01*
X114542502Y-68978550D01*
X113041491Y-69776651D01*
X112618966Y-68981998D01*
G37*
%TD.AperFunction*%
%TD*%
%TA.AperFunction,SMDPad,CuDef*%
%TO.P,R109,1*%
%TO.N,Net-(DL109-Pad1)*%
G36*
X114907498Y-73421450D02*
G01*
X116408509Y-72623349D01*
X116831034Y-73418002D01*
X115330023Y-74216103D01*
X114907498Y-73421450D01*
G37*
%TD.AperFunction*%
%TA.AperFunction,SMDPad,CuDef*%
%TO.P,R109,2*%
%TO.N,+3.3V*%
G36*
X116268966Y-75981998D02*
G01*
X117769977Y-75183897D01*
X118192502Y-75978550D01*
X116691491Y-76776651D01*
X116268966Y-75981998D01*
G37*
%TD.AperFunction*%
%TD*%
%TA.AperFunction,SMDPad,CuDef*%
%TO.P,R111,1*%
%TO.N,Net-(DL111-Pad1)*%
G36*
X118613235Y-80396450D02*
G01*
X120114246Y-79598349D01*
X120536771Y-80393002D01*
X119035760Y-81191103D01*
X118613235Y-80396450D01*
G37*
%TD.AperFunction*%
%TA.AperFunction,SMDPad,CuDef*%
%TO.P,R111,2*%
%TO.N,+3.3V*%
G36*
X119974703Y-82956998D02*
G01*
X121475714Y-82158897D01*
X121898239Y-82953550D01*
X120397228Y-83751651D01*
X119974703Y-82956998D01*
G37*
%TD.AperFunction*%
%TD*%
%TA.AperFunction,SMDPad,CuDef*%
%TO.P,R115,1*%
%TO.N,Net-(DL115-Pad1)*%
G36*
X126057498Y-94471450D02*
G01*
X127558509Y-93673349D01*
X127981034Y-94468002D01*
X126480023Y-95266103D01*
X126057498Y-94471450D01*
G37*
%TD.AperFunction*%
%TA.AperFunction,SMDPad,CuDef*%
%TO.P,R115,2*%
%TO.N,+3.3V*%
G36*
X127418966Y-97031998D02*
G01*
X128919977Y-96233897D01*
X129342502Y-97028550D01*
X127841491Y-97826651D01*
X127418966Y-97031998D01*
G37*
%TD.AperFunction*%
%TD*%
%TA.AperFunction,SMDPad,CuDef*%
%TO.P,R117,1*%
%TO.N,Net-(DL117-Pad1)*%
G36*
X129707498Y-101371450D02*
G01*
X131208509Y-100573349D01*
X131631034Y-101368002D01*
X130130023Y-102166103D01*
X129707498Y-101371450D01*
G37*
%TD.AperFunction*%
%TA.AperFunction,SMDPad,CuDef*%
%TO.P,R117,2*%
%TO.N,+3.3V*%
G36*
X131068966Y-103931998D02*
G01*
X132569977Y-103133897D01*
X132992502Y-103928550D01*
X131491491Y-104726651D01*
X131068966Y-103931998D01*
G37*
%TD.AperFunction*%
%TD*%
%TA.AperFunction,SMDPad,CuDef*%
%TO.P,R119,1*%
%TO.N,Net-(DL119-Pad1)*%
G36*
X133457498Y-108421450D02*
G01*
X134958509Y-107623349D01*
X135381034Y-108418002D01*
X133880023Y-109216103D01*
X133457498Y-108421450D01*
G37*
%TD.AperFunction*%
%TA.AperFunction,SMDPad,CuDef*%
%TO.P,R119,2*%
%TO.N,+3.3V*%
G36*
X134818966Y-110981998D02*
G01*
X136319977Y-110183897D01*
X136742502Y-110978550D01*
X135241491Y-111776651D01*
X134818966Y-110981998D01*
G37*
%TD.AperFunction*%
%TD*%
%TA.AperFunction,SMDPad,CuDef*%
%TO.P,R121,1*%
%TO.N,Net-(DL121-Pad1)*%
G36*
X137157498Y-115421450D02*
G01*
X138658509Y-114623349D01*
X139081034Y-115418002D01*
X137580023Y-116216103D01*
X137157498Y-115421450D01*
G37*
%TD.AperFunction*%
%TA.AperFunction,SMDPad,CuDef*%
%TO.P,R121,2*%
%TO.N,+3.3V*%
G36*
X138518966Y-117981998D02*
G01*
X140019977Y-117183897D01*
X140442502Y-117978550D01*
X138941491Y-118776651D01*
X138518966Y-117981998D01*
G37*
%TD.AperFunction*%
%TD*%
%TA.AperFunction,SMDPad,CuDef*%
%TO.P,R123,1*%
%TO.N,Net-(DL123-Pad1)*%
G36*
X140857498Y-122421450D02*
G01*
X142358509Y-121623349D01*
X142781034Y-122418002D01*
X141280023Y-123216103D01*
X140857498Y-122421450D01*
G37*
%TD.AperFunction*%
%TA.AperFunction,SMDPad,CuDef*%
%TO.P,R123,2*%
%TO.N,+3.3V*%
G36*
X142218966Y-124981998D02*
G01*
X143719977Y-124183897D01*
X144142502Y-124978550D01*
X142641491Y-125776651D01*
X142218966Y-124981998D01*
G37*
%TD.AperFunction*%
%TD*%
D15*
%TO.P,U101,1*%
%TO.N,/MOD1A0*%
X112100000Y-96725000D03*
%TO.P,U101,2*%
%TO.N,/MOD1A1*%
X112100000Y-97375000D03*
%TO.P,U101,3*%
%TO.N,+3.3V*%
X112100000Y-98025000D03*
%TO.P,U101,4*%
%TO.N,/B_LINE1*%
X112100000Y-98675000D03*
%TO.P,U101,5*%
%TO.N,/B_LINE2*%
X112100000Y-99325000D03*
%TO.P,U101,6*%
%TO.N,/B_LINE3*%
X112100000Y-99975000D03*
%TO.P,U101,7*%
%TO.N,/B_LINE4*%
X112100000Y-100625000D03*
%TO.P,U101,10*%
%TO.N,/B_LINE6*%
X118000000Y-100625000D03*
%TO.P,U101,11*%
%TO.N,/B_LINE7*%
X118000000Y-99975000D03*
%TO.P,U101,12*%
%TO.N,/B_LINE8*%
X118000000Y-99325000D03*
%TO.P,U101,13*%
%TO.N,Net-(U101-Pad13)*%
X118000000Y-98675000D03*
%TO.P,U101,14*%
%TO.N,/BRANCH_SCL*%
X118000000Y-98025000D03*
%TO.P,U101,15*%
%TO.N,/BRANCH_SDA*%
X118000000Y-97375000D03*
%TO.P,U101,16*%
%TO.N,+3.3V*%
X118000000Y-96725000D03*
%TO.P,U101,8*%
%TO.N,GND*%
X112100000Y-101275000D03*
%TO.P,U101,9*%
%TO.N,/B_LINE5*%
X118000000Y-101275000D03*
%TD*%
%TO.P,U102,1*%
%TO.N,/MOD2A0*%
X112100000Y-106175000D03*
%TO.P,U102,2*%
%TO.N,/MOD2A1*%
X112100000Y-106825000D03*
%TO.P,U102,3*%
%TO.N,+3.3V*%
X112100000Y-107475000D03*
%TO.P,U102,4*%
%TO.N,/B_LINE9*%
X112100000Y-108125000D03*
%TO.P,U102,5*%
%TO.N,/B_LINE10*%
X112100000Y-108775000D03*
%TO.P,U102,6*%
%TO.N,/B_LINE11*%
X112100000Y-109425000D03*
%TO.P,U102,7*%
%TO.N,/B_LINE12*%
X112100000Y-110075000D03*
%TO.P,U102,10*%
%TO.N,/B_LINE14*%
X118000000Y-110075000D03*
%TO.P,U102,11*%
%TO.N,/B_LINE15*%
X118000000Y-109425000D03*
%TO.P,U102,12*%
%TO.N,/B_LINE16*%
X118000000Y-108775000D03*
%TO.P,U102,13*%
%TO.N,Net-(U102-Pad13)*%
X118000000Y-108125000D03*
%TO.P,U102,14*%
%TO.N,/BRANCH_SCL*%
X118000000Y-107475000D03*
%TO.P,U102,15*%
%TO.N,/BRANCH_SDA*%
X118000000Y-106825000D03*
%TO.P,U102,16*%
%TO.N,+3.3V*%
X118000000Y-106175000D03*
%TO.P,U102,8*%
%TO.N,GND*%
X112100000Y-110725000D03*
%TO.P,U102,9*%
%TO.N,/B_LINE13*%
X118000000Y-110725000D03*
%TD*%
D16*
%TO.P,P102,2*%
%TO.N,GND*%
X102100000Y-116770000D03*
%TO.P,P102,3*%
%TO.N,+3.3V*%
X102100000Y-114230000D03*
D17*
%TO.P,P102,1*%
%TO.N,GND*%
X102100000Y-119310000D03*
D16*
%TO.P,P102,4*%
%TO.N,+3.3V*%
X102100000Y-111690000D03*
%TD*%
%TO.P,P101,4*%
%TO.N,GND*%
X102100000Y-60890000D03*
D17*
%TO.P,P101,1*%
X102100000Y-68510000D03*
D16*
%TO.P,P101,3*%
%TO.N,/BRANCH_SCL*%
X102100000Y-63430000D03*
%TO.P,P101,2*%
%TO.N,/BRANCH_SDA*%
X102100000Y-65970000D03*
%TD*%
D18*
%TO.P,TP102,1*%
%TO.N,+3.3V*%
X103990000Y-108010000D03*
%TD*%
D14*
%TO.P,R125,2*%
%TO.N,/MOD1A0*%
X106560000Y-88710000D03*
%TO.P,R125,1*%
%TO.N,GND*%
X105160000Y-88710000D03*
%TD*%
%TO.P,R126,1*%
%TO.N,+3.3V*%
X105170000Y-90250000D03*
%TO.P,R126,2*%
%TO.N,/MOD1A0*%
X106570000Y-90250000D03*
%TD*%
%TO.P,R127,2*%
%TO.N,/MOD1A1*%
X106570000Y-91770000D03*
%TO.P,R127,1*%
%TO.N,GND*%
X105170000Y-91770000D03*
%TD*%
%TO.P,R128,1*%
%TO.N,+3.3V*%
X105180000Y-93290000D03*
%TO.P,R128,2*%
%TO.N,/MOD1A1*%
X106580000Y-93290000D03*
%TD*%
%TO.P,R129,2*%
%TO.N,/MOD2A0*%
X106620000Y-98720000D03*
%TO.P,R129,1*%
%TO.N,GND*%
X105220000Y-98720000D03*
%TD*%
%TO.P,R130,1*%
%TO.N,+3.3V*%
X105210000Y-100270000D03*
%TO.P,R130,2*%
%TO.N,/MOD2A0*%
X106610000Y-100270000D03*
%TD*%
%TO.P,R131,2*%
%TO.N,/MOD2A1*%
X106610000Y-101820000D03*
%TO.P,R131,1*%
%TO.N,GND*%
X105210000Y-101820000D03*
%TD*%
%TO.P,R132,1*%
%TO.N,+3.3V*%
X105210000Y-103320000D03*
%TO.P,R132,2*%
%TO.N,/MOD2A1*%
X106610000Y-103320000D03*
%TD*%
D18*
%TO.P,TP101,1*%
%TO.N,GND*%
X104000000Y-123010000D03*
%TD*%
%TO.P,TP103,1*%
%TO.N,/BRANCH_SCL*%
X122880000Y-107690000D03*
%TD*%
%TO.P,TP104,1*%
%TO.N,/BRANCH_SDA*%
X125990000Y-107690000D03*
%TD*%
D19*
%TO.N,GND*%
X114350000Y-106030000D03*
X114350000Y-98490000D03*
D20*
X105160000Y-86890000D03*
%TO.N,+3.3V*%
X105257670Y-57462330D03*
D19*
X116370000Y-78480000D03*
X119950001Y-85249999D03*
X141000000Y-125040000D03*
X137212579Y-117867421D03*
X133520000Y-110900000D03*
X129798981Y-103848981D03*
X126333648Y-97296352D03*
X123708777Y-92361223D03*
X112693760Y-71526240D03*
X108919792Y-64350208D03*
X102470000Y-52190000D03*
X115116459Y-110467480D03*
D20*
%TO.N,/B_LINE1*%
X108800000Y-96150000D03*
X103010000Y-48970000D03*
%TO.N,/B_LINE2*%
X109050000Y-97400000D03*
X108320000Y-56030000D03*
%TO.N,/B_LINE3*%
X109080025Y-98419975D03*
X112050000Y-62880000D03*
%TO.N,/B_LINE4*%
X109210050Y-99539950D03*
X115780000Y-69960000D03*
%TO.N,/B_LINE5*%
X116450000Y-101300000D03*
X119430734Y-76559266D03*
%TO.N,/B_LINE6*%
X116500000Y-100150000D03*
X123130734Y-83460734D03*
%TO.N,/B_LINE7*%
X120510000Y-98840000D03*
X126830000Y-90630000D03*
%TO.N,/B_LINE8*%
X119440018Y-98840018D03*
X128310000Y-98600000D03*
%TO.N,/B_LINE9*%
X109200000Y-104500000D03*
X134230734Y-105219266D03*
%TO.N,/B_LINE10*%
X108500000Y-105650000D03*
X135650000Y-109550000D03*
%TO.N,/B_LINE11*%
X107800000Y-106950000D03*
X138880000Y-116840000D03*
%TO.N,/B_LINE12*%
X106980000Y-107670000D03*
X142500000Y-123810000D03*
%TO.N,/BRANCH_SCL*%
X120957525Y-106062525D03*
X119410000Y-107525000D03*
X121315000Y-98025000D03*
X120795000Y-96185000D03*
%TD*%
D21*
%TO.N,GND*%
X114350000Y-95250000D02*
X114350000Y-96350000D01*
X113725000Y-101275000D02*
X112100000Y-101275000D01*
X114350000Y-100650000D02*
X113725000Y-101275000D01*
X114350000Y-96350000D02*
X114350000Y-98490000D01*
X114350000Y-100250000D02*
X114350000Y-100650000D01*
X114350000Y-106150000D02*
X114350000Y-110100000D01*
X114350000Y-106150000D02*
X114350000Y-106450000D01*
X113725000Y-110725000D02*
X112100000Y-110725000D01*
X114350000Y-110100000D02*
X113725000Y-110725000D01*
D22*
X105170000Y-91770000D02*
X105000000Y-91770000D01*
X105000000Y-91770000D02*
X104320000Y-91090000D01*
X104320000Y-89550000D02*
X105160000Y-88710000D01*
X104320000Y-91090000D02*
X104320000Y-89550000D01*
X105220000Y-98720000D02*
X105250000Y-98720000D01*
X105250000Y-98720000D02*
X105900000Y-99370000D01*
X105900000Y-101130000D02*
X105210000Y-101820000D01*
X105900000Y-99370000D02*
X105900000Y-101130000D01*
D23*
X102100000Y-116770000D02*
X102100000Y-119310000D01*
D22*
X102100000Y-121110000D02*
X104000000Y-123010000D01*
X102100000Y-119310000D02*
X102100000Y-121110000D01*
X105210000Y-101820000D02*
X105210000Y-101860000D01*
X106009999Y-102659999D02*
X106009999Y-114610001D01*
X105210000Y-101860000D02*
X106009999Y-102659999D01*
X103850000Y-116770000D02*
X102100000Y-116770000D01*
X106009999Y-114610001D02*
X103850000Y-116770000D01*
D21*
X114350000Y-104750000D02*
X114350000Y-106030000D01*
X114350000Y-106030000D02*
X114350000Y-106150000D01*
X114350000Y-98490000D02*
X114350000Y-100250000D01*
D22*
X105160000Y-88710000D02*
X105160000Y-86890000D01*
D21*
%TO.N,+3.3V*%
X115750000Y-96300000D02*
X115699999Y-96350001D01*
D24*
X102470000Y-52190000D02*
X102650000Y-50990000D01*
X102650000Y-50990000D02*
X103711468Y-50410548D01*
X106130734Y-55080274D02*
X105190000Y-55550000D01*
X105190000Y-55550000D02*
X105257670Y-57462330D01*
X102470000Y-52190000D02*
X105257670Y-57462330D01*
X113580734Y-68980274D02*
X112660000Y-69450000D01*
X112660000Y-69450000D02*
X112693760Y-71526240D01*
X105257670Y-57462330D02*
X112693760Y-71526240D01*
X116370000Y-78480000D02*
X116300000Y-76480000D01*
X116300000Y-76480000D02*
X117230734Y-75980274D01*
X120936471Y-82955274D02*
X120000000Y-83420000D01*
X120000000Y-83420000D02*
X119950001Y-85249999D01*
X119950001Y-85249999D02*
X123170000Y-91340000D01*
X112693760Y-71526240D02*
X119950001Y-85249999D01*
X123170000Y-91340000D02*
X123170000Y-91350000D01*
X143180734Y-124980274D02*
X142280000Y-125500000D01*
X142280000Y-125500000D02*
X141000000Y-125040000D01*
X139480734Y-117980274D02*
X138560000Y-118490000D01*
X138560000Y-118490000D02*
X137212579Y-117867421D01*
X137212579Y-117867421D02*
X139800000Y-122760000D01*
X133520000Y-110900000D02*
X134860000Y-111490000D01*
X134860000Y-111490000D02*
X135780734Y-110980274D01*
X129798981Y-103848981D02*
X137212579Y-117867421D01*
X129798981Y-103848981D02*
X131120000Y-104440000D01*
X131120000Y-104440000D02*
X132030734Y-103930274D01*
X128380734Y-97030274D02*
X127410000Y-97560000D01*
X127410000Y-97560000D02*
X126333648Y-97296352D01*
X139800000Y-122760000D02*
X141000000Y-125040000D01*
X115820998Y-106175000D02*
X115080000Y-106915998D01*
D21*
X116175000Y-106175000D02*
X116625000Y-106175000D01*
D24*
X116625000Y-106175000D02*
X115820998Y-106175000D01*
D21*
X116625000Y-106175000D02*
X118000000Y-106175000D01*
D24*
X116175000Y-106175000D02*
X115750000Y-105750000D01*
X116275000Y-106175000D02*
X116175000Y-106175000D01*
X118000000Y-106175000D02*
X116275000Y-106175000D01*
X116275000Y-106175000D02*
X115820998Y-106175000D01*
X115750000Y-105750000D02*
X115750000Y-104750000D01*
X115750000Y-104750000D02*
X115750000Y-104480000D01*
X115750000Y-104480000D02*
X115420000Y-104150000D01*
X115420000Y-96630000D02*
X115699999Y-96350001D01*
X115750000Y-96300000D02*
X115750000Y-95250000D01*
X115750000Y-96300000D02*
X116175000Y-96725000D01*
X116175000Y-96725000D02*
X118000000Y-96725000D01*
X125500000Y-95720000D02*
X125724490Y-96144490D01*
X126558491Y-97721509D02*
X129798981Y-103848981D01*
X126333648Y-97296352D02*
X126558491Y-97721509D01*
X126385535Y-97394465D02*
X126333648Y-97296352D01*
X125724490Y-96144490D02*
X126385535Y-97394465D01*
X126385535Y-97394465D02*
X126558491Y-97721509D01*
X123708777Y-92361223D02*
X125724490Y-96144490D01*
X123170000Y-91350000D02*
X123708777Y-92361223D01*
X124630734Y-89980274D02*
X123720000Y-90470000D01*
X123720000Y-90470000D02*
X123708777Y-92361223D01*
X108900000Y-62480000D02*
X109830734Y-61980274D01*
X108920000Y-64390000D02*
X108900000Y-62480000D01*
D22*
X115080000Y-110470000D02*
X115113939Y-110470000D01*
X115113939Y-110470000D02*
X115116459Y-110467480D01*
D24*
X115080000Y-106915998D02*
X115080000Y-110470000D01*
X115420000Y-104020000D02*
X115420000Y-96630000D01*
X115420000Y-104150000D02*
X115420000Y-104020000D01*
D22*
X115750000Y-104750000D02*
X115750000Y-104600000D01*
X105180000Y-93290000D02*
X105230000Y-93290000D01*
X105230000Y-93290000D02*
X105870000Y-92650000D01*
X105870000Y-90950000D02*
X105170000Y-90250000D01*
X105870000Y-92650000D02*
X105870000Y-90950000D01*
X105210000Y-100270000D02*
X104990000Y-100270000D01*
X104990000Y-100270000D02*
X104400000Y-100860000D01*
X104400000Y-102510000D02*
X105210000Y-103320000D01*
X104400000Y-100860000D02*
X104400000Y-102510000D01*
D23*
X102100000Y-114230000D02*
X102100000Y-111690000D01*
D22*
X102100000Y-109900000D02*
X103990000Y-108010000D01*
X102100000Y-111690000D02*
X102100000Y-109900000D01*
X103990000Y-108010000D02*
X103990000Y-106350000D01*
X105210000Y-105130000D02*
X105210000Y-103320000D01*
X103990000Y-106350000D02*
X105210000Y-105130000D01*
X105210000Y-100270000D02*
X105130000Y-100270000D01*
X105130000Y-100270000D02*
X104350000Y-99490000D01*
X104350000Y-94120000D02*
X105180000Y-93290000D01*
X104350000Y-99490000D02*
X104350000Y-94120000D01*
X112100000Y-98025000D02*
X113205000Y-98025000D01*
X113205000Y-98025000D02*
X113620000Y-97610000D01*
X113620000Y-97610000D02*
X113620000Y-96100000D01*
X113620000Y-96100000D02*
X112970000Y-95450000D01*
X112970000Y-95450000D02*
X112970000Y-94710000D01*
X112970000Y-94710000D02*
X113270000Y-94410000D01*
X113270000Y-94410000D02*
X115460000Y-94410000D01*
X115750000Y-94700000D02*
X115750000Y-95250000D01*
X115460000Y-94410000D02*
X115750000Y-94700000D01*
X112920000Y-104300000D02*
X113170001Y-104049999D01*
X115319999Y-104049999D02*
X115420000Y-104150000D01*
X113170001Y-104049999D02*
X115319999Y-104049999D01*
X113330000Y-107070000D02*
X113330000Y-105650000D01*
X112925000Y-107475000D02*
X113330000Y-107070000D01*
X112100000Y-107475000D02*
X112925000Y-107475000D01*
X112920000Y-105240000D02*
X112920000Y-104300000D01*
X113330000Y-105650000D02*
X112920000Y-105240000D01*
D24*
X115116459Y-110467480D02*
X115116459Y-112126459D01*
X115116459Y-112126459D02*
X116520000Y-113530000D01*
X130890000Y-113530000D02*
X133520000Y-110900000D01*
X116520000Y-113530000D02*
X130890000Y-113530000D01*
D22*
%TO.N,/B_LINE1*%
X111361002Y-98675000D02*
X108836002Y-96150000D01*
X108836002Y-96150000D02*
X108800000Y-96150000D01*
X112100000Y-98675000D02*
X111361002Y-98675000D01*
X103010000Y-48970000D02*
X104650000Y-46800000D01*
%TO.N,Net-(DL101-Pad1)*%
X102350000Y-45177984D02*
X103288532Y-44239452D01*
X102350000Y-47850000D02*
X102350000Y-45177984D01*
%TO.N,/B_LINE2*%
X112100000Y-99325000D02*
X110975000Y-99325000D01*
X110975000Y-99325000D02*
X109350000Y-97700000D01*
X109350000Y-97700000D02*
X109050000Y-97400000D01*
X108361468Y-53860548D02*
X108320000Y-56030000D01*
%TO.N,Net-(DL103-Pad1)*%
X104769266Y-52519726D02*
X107000000Y-51300000D01*
%TO.N,/B_LINE3*%
X110635050Y-99975000D02*
X109080025Y-98419975D01*
X112100000Y-99975000D02*
X110635050Y-99975000D01*
X112050000Y-60800000D02*
X112050000Y-62880000D01*
%TO.N,Net-(DL105-Pad1)*%
X108469266Y-59419726D02*
X110688532Y-58239452D01*
%TO.N,/B_LINE4*%
X110295100Y-100625000D02*
X109210050Y-99539950D01*
X112100000Y-100625000D02*
X110295100Y-100625000D01*
X115780734Y-67780274D02*
X115780000Y-69960000D01*
%TO.N,Net-(DL107-Pad1)*%
X112219266Y-66419726D02*
X114419266Y-65219726D01*
%TO.N,/B_LINE5*%
X117125000Y-101275000D02*
X118000000Y-101275000D01*
X116475000Y-101275000D02*
X116450000Y-101300000D01*
X118000000Y-101275000D02*
X116475000Y-101275000D01*
X119430734Y-74780274D02*
X119430734Y-76559266D01*
%TO.N,Net-(DL109-Pad1)*%
X115869266Y-73419726D02*
X118069266Y-72219726D01*
%TO.N,/B_LINE6*%
X123130734Y-81780274D02*
X123130734Y-83519266D01*
X116975000Y-100625000D02*
X116500000Y-100150000D01*
X118000000Y-100625000D02*
X116975000Y-100625000D01*
X123130734Y-83519266D02*
X123130734Y-83460734D01*
%TO.N,Net-(DL111-Pad1)*%
X119575003Y-80394726D02*
X121769266Y-79219726D01*
%TO.N,/B_LINE7*%
X126830734Y-89289930D02*
X126830734Y-88780274D01*
X118000000Y-99975000D02*
X119375000Y-99975000D01*
X119375000Y-99975000D02*
X120510000Y-98840000D01*
X126830734Y-88780274D02*
X126830000Y-90630000D01*
%TO.N,Net-(DL113-Pad1)*%
X123269266Y-87419726D02*
X125469266Y-86219726D01*
%TO.N,/B_LINE8*%
X118000000Y-99325000D02*
X118955036Y-99325000D01*
X118955036Y-99325000D02*
X119440018Y-98840018D01*
X130580734Y-95830274D02*
X130590000Y-96340000D01*
X130590000Y-96340000D02*
X128310000Y-98600000D01*
%TO.N,Net-(DL115-Pad1)*%
X127019266Y-94469726D02*
X129219266Y-93269726D01*
%TO.N,/B_LINE9*%
X109200000Y-106510000D02*
X109200000Y-104500000D01*
X110815000Y-108125000D02*
X109200000Y-106510000D01*
X112100000Y-108125000D02*
X110815000Y-108125000D01*
X134230734Y-102780274D02*
X134230734Y-105219266D01*
%TO.N,Net-(DL117-Pad1)*%
X130669266Y-101369726D02*
X132869266Y-100219726D01*
%TO.N,/B_LINE10*%
X108500000Y-107115699D02*
X108500000Y-105650000D01*
X110159301Y-108775000D02*
X108500000Y-107115699D01*
X112100000Y-108775000D02*
X110159301Y-108775000D01*
X135650000Y-109550000D02*
X137110000Y-109530000D01*
X137110000Y-109530000D02*
X137480000Y-109520000D01*
X137480000Y-109520000D02*
X137980734Y-109780274D01*
%TO.N,Net-(DL119-Pad1)*%
X134419266Y-108419726D02*
X136619266Y-107219726D01*
%TO.N,/B_LINE11*%
X112100000Y-109425000D02*
X109875000Y-109425000D01*
X107800000Y-107350000D02*
X107800000Y-106950000D01*
X109875000Y-109425000D02*
X107800000Y-107350000D01*
X141680734Y-116780274D02*
X138880000Y-116840000D01*
%TO.N,Net-(DL121-Pad1)*%
X138119266Y-115419726D02*
X140319266Y-114219726D01*
%TO.N,/B_LINE12*%
X112100000Y-110075000D02*
X110225000Y-110075000D01*
X109385000Y-110075000D02*
X106980000Y-107670000D01*
X112100000Y-110075000D02*
X109385000Y-110075000D01*
X145380734Y-123780274D02*
X142500000Y-123810000D01*
%TO.N,Net-(DL123-Pad1)*%
X141819266Y-122419726D02*
X144019266Y-121219726D01*
%TO.N,/BRANCH_SCL*%
X102420000Y-63750000D02*
X102100000Y-63430000D01*
X119360000Y-107475000D02*
X119410000Y-107525000D01*
X118000000Y-107475000D02*
X119360000Y-107475000D01*
X121107475Y-106062525D02*
X120957525Y-106062525D01*
X122320000Y-104850000D02*
X121107475Y-106062525D01*
X122320000Y-99030000D02*
X122320000Y-104850000D01*
X121315000Y-98025000D02*
X122320000Y-99030000D01*
X118000000Y-98025000D02*
X121315000Y-98025000D01*
X103820000Y-63430000D02*
X102100000Y-63430000D01*
X104540000Y-65574302D02*
X104540000Y-64150000D01*
X111870010Y-72904311D02*
X111175698Y-72210000D01*
X104540000Y-64150000D02*
X103820000Y-63430000D01*
X111870010Y-84260010D02*
X111870010Y-72904311D01*
X111175698Y-72210000D02*
X104540000Y-65574302D01*
X120795000Y-93185000D02*
X111870010Y-84260010D01*
X120795000Y-96185000D02*
X120795000Y-93185000D01*
X122715000Y-107525000D02*
X122880000Y-107690000D01*
X119410000Y-107525000D02*
X122715000Y-107525000D01*
%TO.N,/BRANCH_SDA*%
X104370000Y-65970000D02*
X102100000Y-65970000D01*
X111470000Y-84620000D02*
X111470000Y-73070000D01*
X109675000Y-71275000D02*
X104370000Y-65970000D01*
X111470000Y-73070000D02*
X109675000Y-71275000D01*
X121185000Y-106825000D02*
X122890000Y-105120000D01*
X118000000Y-106825000D02*
X121185000Y-106825000D01*
X118000000Y-97375000D02*
X119605000Y-97375000D01*
X119605000Y-97375000D02*
X120095000Y-96885000D01*
X120095000Y-93245000D02*
X111470000Y-84620000D01*
X120095000Y-96885000D02*
X120095000Y-93245000D01*
X122890000Y-99110000D02*
X122890000Y-98460000D01*
X122890000Y-105120000D02*
X122890000Y-99110000D01*
X121315000Y-96885000D02*
X120095000Y-96885000D01*
X122890000Y-98460000D02*
X121315000Y-96885000D01*
X122890000Y-105120000D02*
X124910000Y-105120000D01*
X125990000Y-106200000D02*
X125990000Y-107690000D01*
X124910000Y-105120000D02*
X125990000Y-106200000D01*
%TO.N,/MOD1A0*%
X112100000Y-96725000D02*
X111475000Y-96725000D01*
X111475000Y-96725000D02*
X107710000Y-92960000D01*
X107710000Y-92960000D02*
X107710000Y-90840000D01*
X107120000Y-90250000D02*
X106570000Y-90250000D01*
X107710000Y-90840000D02*
X107120000Y-90250000D01*
X106570000Y-88720000D02*
X106560000Y-88710000D01*
X106570000Y-90250000D02*
X106570000Y-88720000D01*
%TO.N,/MOD1A1*%
X106976002Y-93290000D02*
X111061002Y-97375000D01*
X111061002Y-97375000D02*
X112100000Y-97375000D01*
X106580000Y-93290000D02*
X106976002Y-93290000D01*
X106570000Y-93280000D02*
X106580000Y-93290000D01*
X106570000Y-91770000D02*
X106570000Y-93280000D01*
%TO.N,/MOD2A0*%
X106610000Y-100270000D02*
X107280000Y-100270000D01*
X107280000Y-100270000D02*
X107660000Y-100650000D01*
X107660000Y-100650000D02*
X107660000Y-102270000D01*
X109335689Y-102919990D02*
X110330000Y-103914301D01*
X108309990Y-102919990D02*
X109335689Y-102919990D01*
X107660000Y-102270000D02*
X108309990Y-102919990D01*
X110330000Y-103914301D02*
X110330000Y-105570000D01*
X110935000Y-106175000D02*
X112100000Y-106175000D01*
X110330000Y-105570000D02*
X110935000Y-106175000D01*
X106610000Y-98730000D02*
X106620000Y-98720000D01*
X106610000Y-100270000D02*
X106610000Y-98730000D01*
%TO.N,/MOD2A1*%
X112100000Y-106825000D02*
X110635000Y-106825000D01*
X110635000Y-106825000D02*
X109930000Y-106120000D01*
X109930000Y-106120000D02*
X109930000Y-104080000D01*
X109170000Y-103320000D02*
X106610000Y-103320000D01*
X109930000Y-104080000D02*
X109170000Y-103320000D01*
X106610000Y-103320000D02*
X106610000Y-101820000D01*
%TD*%
M02*
