%TF.GenerationSoftware,KiCad,Pcbnew,(5.1.6-0-10_14)*%
%TF.CreationDate,2020-10-15T13:56:33+02:00*%
%TF.ProjectId,nowae031,6e6f7761-6530-4333-912e-6b696361645f,0*%
%TF.SameCoordinates,Original*%
%TF.FileFunction,Soldermask,Bot*%
%TF.FilePolarity,Negative*%
%FSLAX46Y46*%
G04 Gerber Fmt 4.6, Leading zero omitted, Abs format (unit mm)*
G04 Created by KiCad (PCBNEW (5.1.6-0-10_14)) date 2020-10-15 13:56:33*
%MOMM*%
%LPD*%
G01*
G04 APERTURE LIST*
%TA.AperFunction,Profile*%
%ADD10C,0.050000*%
%TD*%
%TA.AperFunction,Profile*%
%ADD11C,0.200000*%
%TD*%
%ADD12C,3.000000*%
%ADD13C,0.100000*%
%ADD14C,1.900000*%
%ADD15R,1.900000X1.900000*%
G04 APERTURE END LIST*
D10*
X101490000Y-45190000D02*
G75*
G02*
X99990000Y-46690000I-1500000J0D01*
G01*
X99990000Y-72000000D02*
G75*
G02*
X101490000Y-73500000I0J-1500000D01*
G01*
X99990000Y-72000000D02*
X99990000Y-46690000D01*
X100000000Y-130000000D02*
X100000000Y-108000000D01*
X101500000Y-106500000D02*
G75*
G02*
X100000000Y-108000000I-1500000J0D01*
G01*
X101490000Y-73500000D02*
X101500000Y-106500000D01*
X101499908Y-40830540D02*
X101490000Y-45190000D01*
X101499908Y-40830540D02*
G75*
G02*
X104449999Y-42900001I-709908J-4149460D01*
G01*
X104449243Y-42900000D02*
X150000000Y-129000000D01*
X148000000Y-129000000D02*
X150000000Y-129000000D01*
X148000000Y-130000000D02*
X148000000Y-129000000D01*
X146000000Y-130000000D02*
X148000000Y-130000000D01*
X146000000Y-129000000D02*
X146000000Y-130000000D01*
X102000000Y-129000000D02*
X146000000Y-129000000D01*
X102000000Y-130000000D02*
X102000000Y-129000000D01*
X100000000Y-130000000D02*
X102000000Y-130000000D01*
D11*
X268944859Y-318881889D02*
X268944859Y-318881889D01*
D12*
%TO.C,VAL\u002A\u002A*%
X105000000Y-73000000D03*
%TD*%
%TO.C,VAL\u002A\u002A*%
X137000000Y-125000000D03*
%TD*%
%TO.C,VAL\u002A\u002A*%
X107490000Y-125000000D03*
%TD*%
D13*
%TO.C,DL102*%
G36*
X102239877Y-44200777D02*
G01*
X103829183Y-43355728D01*
X104298655Y-44238675D01*
X102709349Y-45083724D01*
X102239877Y-44200777D01*
G37*
G36*
X103601345Y-46761325D02*
G01*
X105190651Y-45916276D01*
X105660123Y-46799223D01*
X104070817Y-47644272D01*
X103601345Y-46761325D01*
G37*
%TD*%
%TO.C,DL104*%
G36*
X105939877Y-51300777D02*
G01*
X107529183Y-50455728D01*
X107998655Y-51338675D01*
X106409349Y-52183724D01*
X105939877Y-51300777D01*
G37*
G36*
X107301345Y-53861325D02*
G01*
X108890651Y-53016276D01*
X109360123Y-53899223D01*
X107770817Y-54744272D01*
X107301345Y-53861325D01*
G37*
%TD*%
%TO.C,DL106*%
G36*
X109659143Y-58220503D02*
G01*
X111248449Y-57375454D01*
X111717921Y-58258401D01*
X110128615Y-59103450D01*
X109659143Y-58220503D01*
G37*
G36*
X111020611Y-60781051D02*
G01*
X112609917Y-59936002D01*
X113079389Y-60818949D01*
X111490083Y-61663998D01*
X111020611Y-60781051D01*
G37*
%TD*%
%TO.C,DL108*%
G36*
X113384140Y-65225777D02*
G01*
X114973446Y-64380728D01*
X115442918Y-65263675D01*
X113853612Y-66108724D01*
X113384140Y-65225777D01*
G37*
G36*
X114745608Y-67786325D02*
G01*
X116334914Y-66941276D01*
X116804386Y-67824223D01*
X115215080Y-68669272D01*
X114745608Y-67786325D01*
G37*
%TD*%
%TO.C,DL110*%
G36*
X117039877Y-72200777D02*
G01*
X118629183Y-71355728D01*
X119098655Y-72238675D01*
X117509349Y-73083724D01*
X117039877Y-72200777D01*
G37*
G36*
X118401345Y-74761325D02*
G01*
X119990651Y-73916276D01*
X120460123Y-74799223D01*
X118870817Y-75644272D01*
X118401345Y-74761325D01*
G37*
%TD*%
%TO.C,DL112*%
G36*
X120739877Y-79200777D02*
G01*
X122329183Y-78355728D01*
X122798655Y-79238675D01*
X121209349Y-80083724D01*
X120739877Y-79200777D01*
G37*
G36*
X122101345Y-81761325D02*
G01*
X123690651Y-80916276D01*
X124160123Y-81799223D01*
X122570817Y-82644272D01*
X122101345Y-81761325D01*
G37*
%TD*%
%TO.C,DL114*%
G36*
X124439877Y-86200777D02*
G01*
X126029183Y-85355728D01*
X126498655Y-86238675D01*
X124909349Y-87083724D01*
X124439877Y-86200777D01*
G37*
G36*
X125801345Y-88761325D02*
G01*
X127390651Y-87916276D01*
X127860123Y-88799223D01*
X126270817Y-89644272D01*
X125801345Y-88761325D01*
G37*
%TD*%
%TO.C,DL116*%
G36*
X128189877Y-93250777D02*
G01*
X129779183Y-92405728D01*
X130248655Y-93288675D01*
X128659349Y-94133724D01*
X128189877Y-93250777D01*
G37*
G36*
X129551345Y-95811325D02*
G01*
X131140651Y-94966276D01*
X131610123Y-95849223D01*
X130020817Y-96694272D01*
X129551345Y-95811325D01*
G37*
%TD*%
%TO.C,DL118*%
G36*
X131839877Y-100200777D02*
G01*
X133429183Y-99355728D01*
X133898655Y-100238675D01*
X132309349Y-101083724D01*
X131839877Y-100200777D01*
G37*
G36*
X133201345Y-102761325D02*
G01*
X134790651Y-101916276D01*
X135260123Y-102799223D01*
X133670817Y-103644272D01*
X133201345Y-102761325D01*
G37*
%TD*%
%TO.C,DL120*%
G36*
X135589877Y-107200777D02*
G01*
X137179183Y-106355728D01*
X137648655Y-107238675D01*
X136059349Y-108083724D01*
X135589877Y-107200777D01*
G37*
G36*
X136951345Y-109761325D02*
G01*
X138540651Y-108916276D01*
X139010123Y-109799223D01*
X137420817Y-110644272D01*
X136951345Y-109761325D01*
G37*
%TD*%
%TO.C,DL122*%
G36*
X139289877Y-114200777D02*
G01*
X140879183Y-113355728D01*
X141348655Y-114238675D01*
X139759349Y-115083724D01*
X139289877Y-114200777D01*
G37*
G36*
X140651345Y-116761325D02*
G01*
X142240651Y-115916276D01*
X142710123Y-116799223D01*
X141120817Y-117644272D01*
X140651345Y-116761325D01*
G37*
%TD*%
%TO.C,DL124*%
G36*
X142989877Y-121200777D02*
G01*
X144579183Y-120355728D01*
X145048655Y-121238675D01*
X143459349Y-122083724D01*
X142989877Y-121200777D01*
G37*
G36*
X144351345Y-123761325D02*
G01*
X145940651Y-122916276D01*
X146410123Y-123799223D01*
X144820817Y-124644272D01*
X144351345Y-123761325D01*
G37*
%TD*%
%TO.C,R102*%
G36*
X102701345Y-50411325D02*
G01*
X104290651Y-49566276D01*
X104760123Y-50449223D01*
X103170817Y-51294272D01*
X102701345Y-50411325D01*
G37*
G36*
X101339877Y-47850777D02*
G01*
X102929183Y-47005728D01*
X103398655Y-47888675D01*
X101809349Y-48733724D01*
X101339877Y-47850777D01*
G37*
%TD*%
%TO.C,R104*%
G36*
X105101345Y-55061325D02*
G01*
X106690651Y-54216276D01*
X107160123Y-55099223D01*
X105570817Y-55944272D01*
X105101345Y-55061325D01*
G37*
G36*
X103739877Y-52500777D02*
G01*
X105329183Y-51655728D01*
X105798655Y-52538675D01*
X104209349Y-53383724D01*
X103739877Y-52500777D01*
G37*
%TD*%
%TO.C,R106*%
G36*
X108801345Y-61961325D02*
G01*
X110390651Y-61116276D01*
X110860123Y-61999223D01*
X109270817Y-62844272D01*
X108801345Y-61961325D01*
G37*
G36*
X107439877Y-59400777D02*
G01*
X109029183Y-58555728D01*
X109498655Y-59438675D01*
X107909349Y-60283724D01*
X107439877Y-59400777D01*
G37*
%TD*%
%TO.C,R108*%
G36*
X112551345Y-68961325D02*
G01*
X114140651Y-68116276D01*
X114610123Y-68999223D01*
X113020817Y-69844272D01*
X112551345Y-68961325D01*
G37*
G36*
X111189877Y-66400777D02*
G01*
X112779183Y-65555728D01*
X113248655Y-66438675D01*
X111659349Y-67283724D01*
X111189877Y-66400777D01*
G37*
%TD*%
%TO.C,R110*%
G36*
X116201345Y-75961325D02*
G01*
X117790651Y-75116276D01*
X118260123Y-75999223D01*
X116670817Y-76844272D01*
X116201345Y-75961325D01*
G37*
G36*
X114839877Y-73400777D02*
G01*
X116429183Y-72555728D01*
X116898655Y-73438675D01*
X115309349Y-74283724D01*
X114839877Y-73400777D01*
G37*
%TD*%
%TO.C,R112*%
G36*
X119901345Y-82911325D02*
G01*
X121490651Y-82066276D01*
X121960123Y-82949223D01*
X120370817Y-83794272D01*
X119901345Y-82911325D01*
G37*
G36*
X118539877Y-80350777D02*
G01*
X120129183Y-79505728D01*
X120598655Y-80388675D01*
X119009349Y-81233724D01*
X118539877Y-80350777D01*
G37*
%TD*%
%TO.C,R114*%
G36*
X123601345Y-89961325D02*
G01*
X125190651Y-89116276D01*
X125660123Y-89999223D01*
X124070817Y-90844272D01*
X123601345Y-89961325D01*
G37*
G36*
X122239877Y-87400777D02*
G01*
X123829183Y-86555728D01*
X124298655Y-87438675D01*
X122709349Y-88283724D01*
X122239877Y-87400777D01*
G37*
%TD*%
%TO.C,R116*%
G36*
X127357082Y-97036325D02*
G01*
X128946388Y-96191276D01*
X129415860Y-97074223D01*
X127826554Y-97919272D01*
X127357082Y-97036325D01*
G37*
G36*
X125995614Y-94475777D02*
G01*
X127584920Y-93630728D01*
X128054392Y-94513675D01*
X126465086Y-95358724D01*
X125995614Y-94475777D01*
G37*
%TD*%
%TO.C,R118*%
G36*
X131001345Y-103911325D02*
G01*
X132590651Y-103066276D01*
X133060123Y-103949223D01*
X131470817Y-104794272D01*
X131001345Y-103911325D01*
G37*
G36*
X129639877Y-101350777D02*
G01*
X131229183Y-100505728D01*
X131698655Y-101388675D01*
X130109349Y-102233724D01*
X129639877Y-101350777D01*
G37*
%TD*%
%TO.C,R120*%
G36*
X134757082Y-110986325D02*
G01*
X136346388Y-110141276D01*
X136815860Y-111024223D01*
X135226554Y-111869272D01*
X134757082Y-110986325D01*
G37*
G36*
X133395614Y-108425777D02*
G01*
X134984920Y-107580728D01*
X135454392Y-108463675D01*
X133865086Y-109308724D01*
X133395614Y-108425777D01*
G37*
%TD*%
%TO.C,R122*%
G36*
X138451345Y-117961325D02*
G01*
X140040651Y-117116276D01*
X140510123Y-117999223D01*
X138920817Y-118844272D01*
X138451345Y-117961325D01*
G37*
G36*
X137089877Y-115400777D02*
G01*
X138679183Y-114555728D01*
X139148655Y-115438675D01*
X137559349Y-116283724D01*
X137089877Y-115400777D01*
G37*
%TD*%
%TO.C,R124*%
G36*
X142151345Y-124961325D02*
G01*
X143740651Y-124116276D01*
X144210123Y-124999223D01*
X142620817Y-125844272D01*
X142151345Y-124961325D01*
G37*
G36*
X140789877Y-122400777D02*
G01*
X142379183Y-121555728D01*
X142848655Y-122438675D01*
X141259349Y-123283724D01*
X140789877Y-122400777D01*
G37*
%TD*%
D14*
%TO.C,P102*%
X102100000Y-116770000D03*
X102100000Y-114230000D03*
D15*
X102100000Y-119310000D03*
D14*
X102100000Y-111690000D03*
%TD*%
%TO.C,P101*%
X102100000Y-60890000D03*
D15*
X102100000Y-68510000D03*
D14*
X102100000Y-63430000D03*
X102100000Y-65970000D03*
%TD*%
M02*
